#VRML V2.0 utf8
# 3D model generated by easyeda2kicad.py (https://github.com/uPesy/easyeda2kicad.py)

Shape{
    appearance Appearance {
        material  Material 	{
            diffuseColor 1.0 0.6666666666666666 0.5098039215686274
            specularColor 0.5019607843137255 0.3333333333333333 0.2549019607843137
            ambientIntensity 0.7485
            transparency 0.0
            shininess 0.5
        }
    }
    geometry IndexedFaceSet {
        ccw TRUE
        solid FALSE
        coord DEF co Coordinate {
            point [
                1.3966 -0.1772 0.8283, 1.3966 0.1772 0.8283, 1.3966 -0.1772 0.907, 1.3966 0.1772 0.907, 1.3179 -0.1969 0.9267, 1.3179 0.1969 0.9267, 1.3179 -0.1969 0.8086, 1.3179 0.1969 0.8086, 0.1128 0.0641 0.0605, 0.1264 0.0626 0.0605, 0.083 -0.0393 0.0605, 0.2654 -0.0602 0.0605, 0.1266 -0.0611 0.0605, 0.1948 -0.0602 0.0605, 0.1355 -0.0602 0.0605, 0.1488 -0.0556 0.0605, 0.0961 0.0619 0.0605, 0.0806 -0.038 0.0605, 0.0806 0.0553 0.0605, 0.0671 0.8071 0.0605, 0.0806 0.0738 0.0605, 0.1367 0.0589 0.0605, 0.1462 0.0525 0.0605, 0.1546 0.0433 0.0605, 0.1646 0.0072 0.0605, 0.1632 -0.0077 0.0605, 0.1594 -0.0196 0.0605, 0.1288 -0.0454 0.0605, 0.1159 -0.0468 0.0605, 0.1388 -0.0417 0.0605, 0.1473 -0.036 0.0605, 0.1537 -0.0291 0.0605, 0.0976 -0.0448 0.0605, 0.1602 0.0327 0.0605, 0.1639 0.0179 0.0605, 0.1599 -0.0485 0.0605, 0.1702 -0.0376 0.0605, 0.1948 -0.0451 0.0605, 0.1776 -0.0245 0.0605, 0.2469 -0.0451 0.0605, 0.1677 0.0541 0.0605, 0.1553 0.0661 0.0605, 0.1422 0.0736 0.0605, 0.1268 0.0781 0.0605, 0.1817 -0.0099 0.0605, 0.1831 0.0061 0.0605, 0.2469 0.0776 0.0605, 0.1811 0.0256 0.0605, 0.1758 0.0413 0.0605, 0.113 0.0792 0.0605, 0.0965 0.0781 0.0605, 0.0806 -0.0531 0.0605, 0.0952 -0.0591 0.0605, 0.0671 -0.0611 0.0605, 0.1092 -0.0611 0.0605, 0.0671 -0.8071 0.0605, 0.1147 -0.0619 0.0605, 0.1185 -0.0619 0.0605, 0.2654 0.0776 0.0605, 0.8258 0.8071 0.0605, 0.8258 -0.0611 0.0605, 0.8258 -0.8071 0.0605, -0.1681 -0.0602 0.0605, -0.1512 -0.0225 0.0605, -0.1433 -0.0348 0.0605, -0.0203 -0.0602 0.0605, 0.0537 -0.0602 0.0605, 0.0537 0.0776 0.0605, -0.0169 0.0776 0.0605, -0.8278 0.8071 0.0605, -0.2202 0.0776 0.0605, -0.2387 0.0776 0.0605, -0.1319 -0.0457 0.0605, -0.1176 -0.054 0.0605, -0.1017 -0.0588 0.0605, -0.8278 -0.0611 0.0605, 0.0352 0.0624 0.0605, 0.0352 0.0171 0.0605, -0.0169 0.0624 0.0605, -0.0135 0.0171 0.0605, -0.0472 0.0776 0.0605, -0.0135 0.0019 0.0605, 0.0352 0.0019 0.0605, 0.0352 -0.0451 0.0605, -0.0203 -0.0451 0.0605, -0.0472 -0.0602 0.0605, -0.0846 -0.0602 0.0605, -0.2925 -0.0602 0.0605, -0.2723 -0.0602 0.0605, -0.086 0.0776 0.0605, -0.1059 0.0754 0.0605, -0.1221 0.0698 0.0605, -0.1371 0.0597 0.0605, -0.2584 -0.0216 0.0605, -0.2015 -0.0216 0.0605, -0.1883 -0.0602 0.0605, -0.1372 0.0596 0.0605, -0.147 0.0488 0.0605, -0.1534 0.0369 0.0605, -0.1571 0.0234 0.0605, -0.1581 0.0104 0.0605, -0.1561 -0.0081 0.0605, -0.8278 -0.8071 0.0605, 0.241 -0.4294 1.6747, 0.3527 -0.4294 1.6747, 0.3527 -0.0157 1.6747, 0.8792 -0.8071 1.6747, 1.2785 -0.8071 1.6747, 1.2785 -0.4294 1.6747, -0.3452 -0.0146 1.6747, -0.3436 -0.0157 1.6747, -0.2415 -0.0157 1.6747, -0.3632 -0.0325 1.6747, -0.378 -0.0169 1.6747, -0.6765 -0.4294 1.6747, -0.2743 -0.0272 1.6747, -0.3004 -0.0301 1.6747, -0.3331 -0.0228 1.6747, -0.3188 -0.028 1.6747, -0.6765 -0.0157 1.6747, -0.2534 -0.0195 1.6747, -0.2499 -0.0175 1.6747, -0.2499 -0.0391 1.6747, -0.2415 -0.4294 1.6747, -0.2709 -0.0477 1.6747, -0.2987 -0.0516 1.6747, -0.3041 -0.0517 1.6747, -0.3283 -0.0492 1.6747, -0.3474 -0.0426 1.6747, -0.3699 0.047 1.6747, -0.3679 0.0257 1.6747, -0.296 0.1283 1.6747, -0.3154 0.1262 1.6747, -0.2721 0.1252 1.6747, -0.3626 0.0088 1.6747, -0.3544 -0.0049 1.6747, -0.3787 -0.0157 1.6747, -0.3885 0.0018 1.6747, -0.3944 0.0226 1.6747, -0.2962 0.1499 1.6747, -0.2726 0.1483 1.6747, -0.2415 0.8071 1.6747, -0.2499 0.1421 1.6747, -0.2499 0.1157 1.6747, -0.3301 0.1208 1.6747, -0.3437 0.1117 1.6747, -0.3556 0.0986 1.6747, -0.3963 0.0454 1.6747, -0.3935 0.0734 1.6747, -0.6765 0.8071 1.6747, -0.3859 0.0957 1.6747, -0.3744 0.1141 1.6747, -0.3566 0.1312 1.6747, -0.3379 0.142 1.6747, -0.316 0.1483 1.6747, -0.3637 0.0834 1.6747, -0.369 0.0623 1.6747, 0.0822 -0.0124 1.6747, 0.081 -0.0157 1.6747, 0.1018 -0.0157 1.6747, 0.0786 -0.0224 1.6747, 0.1018 -0.4294 1.6747, 0.0722 -0.0316 1.6747, 0.064 -0.0388 1.6747, 0.0529 -0.0449 1.6747, 0.0337 -0.0502 1.6747, -0.0458 -0.4294 1.6747, 0.0133 -0.0517 1.6747, -0.012 -0.0491 1.6747, -0.0362 -0.0127 1.6747, -0.0458 0.8071 1.6747, -0.0458 -0.0157 1.6747, -0.0299 -0.0445 1.6747, -0.0362 -0.0415 1.6747, -0.0362 -0.0157 1.6747, 0.061 0.0429 1.6747, 0.0723 0.0323 1.6747, 0.0766 0.1157 1.6747, -0.026 0.0672 1.6747, -0.0316 0.0761 1.6747, 0.0789 0.0224 1.6747, 0.0825 0.0126 1.6747, 0.0838 0.0014 1.6747, -0.0314 -0.0157 1.6747, 0.0119 0.0413 1.6747, -0.0172 0.0589 1.6747, -0.0244 0.1287 1.6747, -0.016 0.136 1.6747, 0.1018 0.8071 1.6747, -0.0049 0.1424 1.6747, 0.0116 0.1478 1.6747, 0.0334 0.1499 1.6747, 0.0552 0.149 1.6747, 0.0766 0.1445 1.6747, 0.032 0.0598 1.6747, 0.0617 0.1235 1.6747, 0.0137 0.0695 1.6747, 0.0449 0.1275 1.6747, 0.0313 0.1283 1.6747, 0.0495 0.0185 1.6747, 0.0414 0.0253 1.6747, 0.0386 0.0271 1.6747, -0.0351 0.0864 1.6747, -0.0362 0.0971 1.6747, -0.0345 0.1107 1.6747, -0.0306 0.1202 1.6747, 0.0574 -0.0007 1.6747, 0.0566 -0.0085 1.6747, 0.0543 -0.0146 1.6747, -0.0069 0.0868 1.6747, -0.009 0.0922 1.6747, -0.0098 0.0997 1.6747, -0.0036 0.0819 1.6747, 0.0025 0.0766 1.6747, 0.0565 0.0063 1.6747, 0.0543 0.0119 1.6747, -0.0046 0.1152 1.6747, -0.0075 0.1107 1.6747, -0.0092 0.1057 1.6747, 0.0175 0.1271 1.6747, 0.0071 0.1237 1.6747, -0.0001 0.1195 1.6747, 0.0536 -0.0157 1.6747, -0.0218 -0.0215 1.6747, 0.0015 -0.0287 1.6747, 0.0162 -0.0301 1.6747, 0.0305 -0.029 1.6747, 0.0517 -0.0185 1.6747, 0.0405 -0.0263 1.6747, 0.0476 -0.0224 1.6747, 0.4007 -0.0157 1.6747, 0.4007 -0.0277 1.6747, 0.4799 -0.0277 1.6747, 0.3743 -0.0157 1.6747, 0.3743 0.1475 1.6747, 0.4751 0.1259 1.6747, 0.4007 0.1259 1.6747, 0.4007 0.0611 1.6747, 0.4703 0.0611 1.6747, 0.4703 0.0395 1.6747, 0.8792 -0.0157 1.6747, 0.4751 0.1475 1.6747, 0.8792 0.8071 1.6747, 0.3527 0.8071 1.6747, 0.3743 -0.0493 1.6747, 0.4799 -0.0493 1.6747, 0.8792 -0.4294 1.6747, 0.4007 0.0395 1.6747, 0.1462 -0.0157 1.6747, 0.1462 -0.0277 1.6747, 0.241 -0.0157 1.6747, 0.2254 -0.0277 1.6747, 0.2254 -0.0493 1.6747, 0.2206 0.1475 1.6747, 0.241 0.8071 1.6747, 0.1198 0.1475 1.6747, 0.1462 0.0395 1.6747, 0.2158 0.0395 1.6747, 0.2158 0.0611 1.6747, 0.2206 0.1259 1.6747, 0.1462 0.0611 1.6747, 0.1462 0.1259 1.6747, -0.2043 -0.0493 1.6747, -0.2331 -0.0493 1.6747, -0.2204 -0.0157 1.6747, -0.1587 0.1475 1.6747, -0.1323 0.1475 1.6747, -0.0686 -0.0157 1.6747, -0.0554 -0.0493 1.6747, -0.0842 -0.0493 1.6747, -0.1928 -0.0157 1.6747, -0.0964 -0.0157 1.6747, -0.1042 0.0059 1.6747, -0.1855 0.0059 1.6747, 0.3527 -0.8071 1.6747, 0.241 -0.8071 1.6747, 0.1018 -0.8071 1.6747, -0.0458 -0.8071 1.6747, -0.2415 -0.8071 1.6747, -0.6765 -0.8071 1.6747, 0.1198 -0.0493 1.6747, 0.1198 -0.0157 1.6747, 0.2566 0.0179 1.6747, 0.2566 0.0371 1.6747, 0.3311 0.0179 1.6747, 0.3311 0.0371 1.6747, 1.2785 -0.0157 1.6747, 1.2785 0.8071 1.6747
            ]
        }
        coordIndex [
            0,1,2,-1,2,1,3,-1,4,5,6,-1,6,5,7,-1,5,3,7,-1,7,3,1,-1,4,2,5,-1,5,2,3,-1,0,6,1,-1,1,6,7,-1,6,0,4,-1,4,0,2,-1,8,9,10,-1,11,12,13,-1,13,12,14,-1,13,14,15,-1,8,10,16,-1,16,10,17,-1,16,17,18,-1,18,17,19,-1,18,19,20,-1,9,21,10,-1,10,21,22,-1,10,22,23,-1,24,25,10,-1,10,25,26,-1,27,28,29,-1,29,28,30,-1,26,31,10,-1,10,31,30,-1,10,30,32,-1,32,30,28,-1,23,33,10,-1,10,33,34,-1,10,34,24,-1,15,35,13,-1,13,35,36,-1,13,36,37,-1,37,36,38,-1,37,38,39,-1,40,41,19,-1,19,41,42,-1,19,42,43,-1,38,44,39,-1,39,44,45,-1,39,45,46,-1,46,45,47,-1,46,47,48,-1,43,49,19,-1,19,49,50,-1,19,50,20,-1,51,52,53,-1,53,52,54,-1,53,54,55,-1,54,56,55,-1,55,56,57,-1,55,57,12,-1,48,40,46,-1,46,40,19,-1,46,19,58,-1,58,19,59,-1,58,59,11,-1,11,59,60,-1,11,60,12,-1,12,60,61,-1,12,61,55,-1,62,63,64,-1,65,66,53,-1,53,66,67,-1,68,69,67,-1,67,69,19,-1,67,19,53,-1,53,19,17,-1,53,17,51,-1,70,71,69,-1,64,72,62,-1,62,72,73,-1,62,73,74,-1,69,71,75,-1,76,77,78,-1,78,77,79,-1,78,79,80,-1,80,79,81,-1,82,83,81,-1,81,83,84,-1,81,84,80,-1,80,84,65,-1,80,65,85,-1,85,65,53,-1,85,53,86,-1,87,88,53,-1,89,69,80,-1,80,69,68,-1,80,68,78,-1,89,90,69,-1,69,90,91,-1,69,91,92,-1,93,94,88,-1,88,94,95,-1,88,95,53,-1,53,95,62,-1,53,62,86,-1,86,62,74,-1,92,96,69,-1,69,96,97,-1,69,97,70,-1,70,97,98,-1,98,99,70,-1,70,99,100,-1,70,100,62,-1,62,100,101,-1,62,101,63,-1,71,87,75,-1,75,87,53,-1,75,53,102,-1,102,53,55,-1,103,104,105,-1,106,107,108,-1,109,110,111,-1,112,113,114,-1,115,110,116,-1,116,110,117,-1,116,117,118,-1,114,113,119,-1,115,120,110,-1,110,120,121,-1,110,121,111,-1,111,121,122,-1,111,122,123,-1,123,122,124,-1,123,124,125,-1,125,126,123,-1,123,126,127,-1,123,127,114,-1,114,127,128,-1,114,128,112,-1,111,129,130,-1,131,132,111,-1,131,111,133,-1,130,134,111,-1,111,134,135,-1,111,135,109,-1,113,136,119,-1,119,136,137,-1,119,137,138,-1,139,140,141,-1,141,140,142,-1,141,142,111,-1,111,142,143,-1,111,143,133,-1,132,144,111,-1,111,144,145,-1,111,145,146,-1,138,147,119,-1,119,147,148,-1,119,148,149,-1,149,148,150,-1,149,150,151,-1,151,152,149,-1,149,152,153,-1,149,153,141,-1,141,153,154,-1,141,154,139,-1,146,155,111,-1,111,155,156,-1,111,156,129,-1,157,158,159,-1,159,158,160,-1,159,160,161,-1,161,160,162,-1,161,162,163,-1,163,164,161,-1,161,164,165,-1,161,165,166,-1,166,165,167,-1,166,167,168,-1,169,170,171,-1,168,172,166,-1,166,172,173,-1,166,173,171,-1,171,173,174,-1,171,174,169,-1,175,176,177,-1,169,178,179,-1,176,180,177,-1,177,180,181,-1,177,181,159,-1,159,181,182,-1,159,182,157,-1,183,184,169,-1,169,184,185,-1,169,185,178,-1,186,187,188,-1,188,187,189,-1,188,189,190,-1,190,191,188,-1,188,191,192,-1,188,192,193,-1,175,177,194,-1,194,177,195,-1,194,195,196,-1,196,195,197,-1,196,197,198,-1,199,200,183,-1,183,200,201,-1,183,201,184,-1,179,202,169,-1,169,202,203,-1,169,203,170,-1,170,203,204,-1,170,204,188,-1,188,204,205,-1,188,205,186,-1,206,183,207,-1,207,183,208,-1,209,198,210,-1,210,198,211,-1,209,212,198,-1,198,212,213,-1,198,213,196,-1,206,214,183,-1,183,214,215,-1,183,215,199,-1,216,217,218,-1,198,219,211,-1,211,219,220,-1,211,220,218,-1,218,220,221,-1,218,221,216,-1,208,183,222,-1,222,183,223,-1,222,223,224,-1,224,225,222,-1,222,225,226,-1,222,226,227,-1,227,226,228,-1,227,228,229,-1,230,231,232,-1,105,233,234,-1,235,236,237,-1,238,239,240,-1,237,238,235,-1,235,238,240,-1,235,240,241,-1,241,240,242,-1,241,242,234,-1,234,242,243,-1,234,243,105,-1,233,105,244,-1,244,105,104,-1,244,104,245,-1,245,104,246,-1,245,246,232,-1,232,246,240,-1,232,240,230,-1,230,240,239,-1,230,239,247,-1,248,249,250,-1,250,249,251,-1,250,251,252,-1,253,254,255,-1,255,254,188,-1,255,188,159,-1,159,188,193,-1,159,193,177,-1,256,248,257,-1,257,248,250,-1,257,250,258,-1,258,250,259,-1,258,259,260,-1,260,259,261,-1,166,262,123,-1,123,262,263,-1,123,263,111,-1,111,263,264,-1,111,264,141,-1,141,264,265,-1,141,265,170,-1,170,265,266,-1,170,266,171,-1,266,267,171,-1,171,267,268,-1,171,268,166,-1,166,268,269,-1,166,269,262,-1,262,269,270,-1,269,271,270,-1,270,271,272,-1,270,272,273,-1,106,246,274,-1,274,246,104,-1,274,104,275,-1,275,104,103,-1,275,103,276,-1,276,103,161,-1,276,161,277,-1,277,161,166,-1,277,166,278,-1,278,166,123,-1,278,123,279,-1,279,123,114,-1,105,250,103,-1,103,250,252,-1,103,252,161,-1,161,252,280,-1,161,280,159,-1,159,280,281,-1,159,281,255,-1,250,282,283,-1,282,250,284,-1,284,250,105,-1,284,105,285,-1,285,105,243,-1,285,243,283,-1,283,243,254,-1,283,254,250,-1,250,254,253,-1,250,253,259,-1,106,108,246,-1,246,108,286,-1,246,286,240,-1,240,286,287,-1,240,287,242,-1,
        ]
    }
}
Shape{
    appearance Appearance {
        material  Material 	{
            diffuseColor 1.0 0.7058823529411765 0.5490196078431373
            specularColor 0.5019607843137255 0.35294117647058826 0.27450980392156865
            ambientIntensity 0.7759
            transparency 0.0
            shininess 0.5
        }
    }
    geometry IndexedFaceSet {
        ccw TRUE
        solid FALSE
        coord DEF co Coordinate {
            point [
                -0.6765 0.8071 1.6747, -1.2805 0.8071 1.6747, -0.6765 -0.0157 1.6747, -1.2805 -0.8071 1.6747, -0.6765 -0.4294 1.6747, -0.6765 -0.8071 1.6747
            ]
        }
        coordIndex [
            0,1,2,-1,2,1,3,-1,2,3,4,-1,4,3,5,-1,
        ]
    }
}
Shape{
    appearance Appearance {
        material  Material 	{
            diffuseColor 0.8549019607843137 0.8549019607843137 0.8549019607843137
            specularColor 0.42745098039215684 0.42745098039215684 0.42745098039215684
            ambientIntensity 0.8549
            transparency 0.0
            shininess 0.5
        }
    }
    geometry IndexedFaceSet {
        ccw TRUE
        solid FALSE
        coord DEF co Coordinate {
            point [
                -1.438 0.4724 0.8086, -1.438 0.1969 0.8086, -1.434 0.1969 0.8391, -1.434 0.4724 0.8391, -1.4222 0.1969 0.8676, -1.4222 0.4724 0.8676, -1.4034 0.1969 0.8921, -1.4034 0.4724 0.8921, -1.379 0.1969 0.9109, -1.379 0.4724 0.9109, -1.3505 0.1969 0.9227, -1.3505 0.4724 0.9227, -1.3199 0.1969 0.9267, -1.3199 0.4724 0.9267, -1.438 -0.1969 0.8086, -1.438 -0.4724 0.8086, -1.434 -0.4724 0.8391, -1.434 -0.1969 0.8391, -1.4222 -0.4724 0.8676, -1.4222 -0.1969 0.8676, -1.4034 -0.4724 0.8921, -1.4034 -0.1969 0.8921, -1.379 -0.4724 0.9109, -1.379 -0.1969 0.9109, -1.3505 -0.4724 0.9227, -1.3505 -0.1969 0.9227, -1.3199 -0.4724 0.9267, -1.3199 -0.1969 0.9267, -1.438 0.1969 0.7286, -1.438 0.4724 0.1181, -1.438 -0.1969 0.7286, -1.438 -0.4724 0.1181, -1.3199 -0.1969 0.8086, -1.3199 -0.4724 0.8086, -1.3199 -0.1969 0.7286, -1.3199 -0.4724 0.1181, -1.3199 0.1969 0.7286, -1.3199 0.4724 0.1181, -1.3199 0.1969 0.8086, -1.3199 0.4724 0.8086, 1.436 -0.4724 0.8086, 1.436 -0.1969 0.8086, 1.432 -0.1969 0.8391, 1.432 -0.4724 0.8391, 1.4202 -0.1969 0.8676, 1.4202 -0.4724 0.8676, 1.4014 -0.1969 0.8921, 1.4014 -0.4724 0.8921, 1.377 -0.1969 0.9109, 1.377 -0.4724 0.9109, 1.3485 -0.1969 0.9227, 1.3485 -0.4724 0.9227, 1.3179 -0.1969 0.9267, 1.3179 -0.4724 0.9267
            ]
        }
        coordIndex [
            0,1,2,-1,0,2,3,-1,3,2,4,-1,3,4,5,-1,5,4,6,-1,5,6,7,-1,7,6,8,-1,7,8,9,-1,9,8,10,-1,9,10,11,-1,11,10,12,-1,11,12,13,-1,14,15,16,-1,14,16,17,-1,17,16,18,-1,17,18,19,-1,19,18,20,-1,19,20,21,-1,21,20,22,-1,21,22,23,-1,23,22,24,-1,23,24,25,-1,25,24,26,-1,25,26,27,-1,1,0,28,-1,28,0,29,-1,28,29,30,-1,30,29,31,-1,30,31,14,-1,14,31,15,-1,32,33,34,-1,34,33,35,-1,34,35,36,-1,36,35,37,-1,36,37,38,-1,38,37,39,-1,40,41,42,-1,40,42,43,-1,43,42,44,-1,43,44,45,-1,45,44,46,-1,45,46,47,-1,47,46,48,-1,47,48,49,-1,49,48,50,-1,49,50,51,-1,51,50,52,-1,51,52,53,-1,
        ]
    }
}
Shape{
    appearance Appearance {
        material  Material 	{
            diffuseColor 1.0 0.6666666666666666 0.5098039215686274
            specularColor 0.5019607843137255 0.3333333333333333 0.2549019607843137
            ambientIntensity 0.7485
            transparency 0.0
            shininess 0.5
        }
    }
    geometry IndexedFaceSet {
        ccw TRUE
        solid FALSE
        coord DEF co Coordinate {
            point [
                -1.3199 0.8465 0.9267, -1.3199 0.8465 0.8086, -1.3199 0.4724 0.9267, -1.3199 0.4724 0.8086, 1.3179 0.8465 0.8086, 1.3179 0.8465 0.9267, 1.3179 0.4724 0.8086, 1.3179 0.4724 0.9267, 1.3179 -0.8465 0.8086, -1.3199 -0.8465 0.8086, -0.8278 -0.8102 0.1196, -1.2836 -0.8102 0.1196, 1.2816 -0.8102 0.1196, 0.8258 -0.8102 0.1196, 0.8258 -0.8071 0.0605, -0.8278 -0.8071 0.0605, 1.3179 -0.4724 0.8086, 1.2816 0.8102 0.1196, 1.3179 0.1969 0.8086, 1.3179 -0.1969 0.8086, -1.2836 0.8102 0.1196, -1.3199 -0.4724 0.8086, -1.3199 -0.1969 0.8086, -1.3199 0.1969 0.8086, -0.8278 0.8102 0.1196, 0.8258 0.8102 0.1196, 0.8258 0.8071 0.0605, -0.8278 0.8071 0.0605, 1.3179 -0.8465 0.9267, 1.3179 -0.4724 0.9267, -1.3199 -0.8465 0.9267, -1.3199 -0.4724 0.9267, -1.2805 0.8071 1.6747, -0.6765 0.8071 1.6747, -0.2415 0.8071 1.6747, -0.0458 0.8071 1.6747, 0.1018 0.8071 1.6747, 0.241 0.8071 1.6747, 0.3527 0.8071 1.6747, 0.8792 0.8071 1.6747, 1.2785 0.8071 1.6747, -1.2805 -0.8071 1.6747, -1.3199 0.1969 0.9267, -1.3199 -0.1969 0.9267, 1.2785 -0.8071 1.6747, 1.2785 -0.4294 1.6747, 1.2785 -0.0157 1.6747, 1.3179 -0.1969 0.9267, 1.3179 0.1969 0.9267, 0.8792 -0.8071 1.6747, 0.3527 -0.8071 1.6747, 0.241 -0.8071 1.6747, 0.1018 -0.8071 1.6747, -0.0458 -0.8071 1.6747, -0.2415 -0.8071 1.6747, -0.6765 -0.8071 1.6747
            ]
        }
        coordIndex [
            0,1,2,-1,2,1,3,-1,4,5,6,-1,6,5,7,-1,8,9,10,-1,10,9,11,-1,12,8,13,-1,13,8,10,-1,13,10,14,-1,14,10,15,-1,16,8,12,-1,4,6,17,-1,17,6,18,-1,17,18,12,-1,12,18,19,-1,12,19,16,-1,3,1,20,-1,9,21,11,-1,11,21,22,-1,11,22,20,-1,20,22,23,-1,20,23,3,-1,24,20,1,-1,4,17,25,-1,26,27,25,-1,25,27,24,-1,25,24,4,-1,4,24,1,-1,28,8,29,-1,29,8,16,-1,8,28,9,-1,9,28,30,-1,9,30,21,-1,21,30,31,-1,1,0,4,-1,4,0,5,-1,0,32,33,-1,33,34,0,-1,0,34,35,-1,0,35,5,-1,5,35,36,-1,5,36,37,-1,37,38,5,-1,5,38,39,-1,5,39,40,-1,31,30,41,-1,0,2,32,-1,32,2,42,-1,32,42,41,-1,41,42,43,-1,41,43,31,-1,44,28,45,-1,45,28,29,-1,45,29,46,-1,29,47,46,-1,46,47,48,-1,46,48,40,-1,40,48,7,-1,40,7,5,-1,44,49,28,-1,28,49,50,-1,50,51,28,-1,28,51,52,-1,28,52,30,-1,30,52,53,-1,53,54,30,-1,30,54,55,-1,30,55,41,-1,25,13,26,-1,26,13,14,-1,17,12,25,-1,25,12,13,-1,27,15,24,-1,24,15,10,-1,24,10,20,-1,20,10,11,-1,
        ]
    }
}
Shape{
    appearance Appearance {
        material  Material 	{
            diffuseColor 0.8549019607843137 0.8549019607843137 0.8549019607843137
            specularColor 0.42745098039215684 0.42745098039215684 0.42745098039215684
            ambientIntensity 0.8549
            transparency 0.0
            shininess 0.5
        }
    }
    geometry IndexedFaceSet {
        ccw TRUE
        solid FALSE
        coord DEF co Coordinate {
            point [
                0.8651 -0.4724 0.1181, 0.8651 0.4724 0.1181, 0.8651 -0.4724 0.0, 0.8651 0.4724 0.0, 1.3179 0.4724 0.9267, 1.3485 0.4724 0.9227, 1.3179 0.4724 0.8086, 1.377 0.4724 0.9109, 1.4014 0.4724 0.8921, 1.4202 0.4724 0.8676, 1.432 0.4724 0.8391, 1.436 0.4724 0.8086, 1.436 0.1969 0.8086, 1.432 0.1969 0.8391, 1.4202 0.1969 0.8676, 1.4014 0.1969 0.8921, 1.377 0.1969 0.9109, 1.3485 0.1969 0.9227, 1.3179 0.1969 0.9267, 1.4014 -0.4724 0.8921, 1.377 -0.4724 0.9109, 1.3179 -0.4724 0.8086, 1.3485 -0.4724 0.9227, 1.3179 -0.4724 0.9267, 1.436 -0.4724 0.8086, 1.432 -0.4724 0.8391, 1.4202 -0.4724 0.8676, 1.3179 0.1969 0.8086, 1.3179 0.1969 0.7286, 1.3179 0.4724 0.1181, 1.3179 -0.1969 0.7286, 1.3179 -0.4724 0.1181, 1.3179 -0.1969 0.8086, 1.436 0.4724 0.1181, 1.436 -0.1969 0.8086, 1.436 -0.1969 0.7286, 1.436 -0.4724 0.1181, 1.436 0.1969 0.7286, 1.3485 0.4724 0.004, 1.3179 0.4724 0.0, 1.377 0.4724 0.0158, 1.432 0.4724 0.0875, 1.4202 0.4724 0.0591, 1.4014 0.4724 0.0346, 1.3179 -0.4724 0.0, 1.3485 -0.4724 0.004, 1.377 -0.4724 0.0158, 1.4014 -0.4724 0.0346, 1.4202 -0.4724 0.0591, 1.432 -0.4724 0.0875, -0.8671 0.4724 0.1181, -0.8671 -0.4724 0.1181, -0.8671 0.4724 0.0, -0.8671 -0.4724 0.0, -1.3505 0.4724 0.9227, -1.3199 0.4724 0.9267, -1.3199 0.4724 0.8086, -1.4222 0.4724 0.8676, -1.434 0.4724 0.8391, -1.438 0.4724 0.8086, -1.4034 0.4724 0.8921, -1.379 0.4724 0.9109, -1.3199 -0.4724 0.9267, -1.3505 -0.4724 0.9227, -1.3199 -0.4724 0.8086, -1.379 -0.4724 0.9109, -1.4034 -0.4724 0.8921, -1.4222 -0.4724 0.8676, -1.434 -0.4724 0.8391, -1.438 -0.4724 0.8086, -1.438 0.4724 0.1181, -1.3199 0.4724 0.1181, -1.3199 -0.4724 0.1181, -1.438 -0.4724 0.1181, -1.3199 0.4724 0.0, -1.3199 -0.4724 0.0, -1.3505 -0.4724 0.004, -1.3505 0.4724 0.004, -1.379 -0.4724 0.0158, -1.379 0.4724 0.0158, -1.4034 -0.4724 0.0346, -1.4034 0.4724 0.0346, -1.4222 -0.4724 0.0591, -1.4222 0.4724 0.0591, -1.434 -0.4724 0.0875, -1.434 0.4724 0.0875, 1.4014 -0.1969 0.8921, 1.4202 -0.1969 0.8676, 1.3179 -0.1969 0.9267, 1.3485 -0.1969 0.9227, 1.377 -0.1969 0.9109, 1.432 -0.1969 0.8391, -1.3199 -0.1969 0.7286, -1.3199 0.1969 0.7286, -1.438 -0.1969 0.7286, -1.438 0.1969 0.7286, -1.3199 0.1969 0.8086, -1.3199 0.1969 0.9267, -1.3505 0.1969 0.9227, -1.379 0.1969 0.9109, -1.4034 0.1969 0.8921, -1.4222 0.1969 0.8676, -1.438 0.1969 0.8086, -1.434 0.1969 0.8391, -1.3199 -0.1969 0.8086, -1.3505 -0.1969 0.9227, -1.3199 -0.1969 0.9267, -1.438 -0.1969 0.8086, -1.434 -0.1969 0.8391, -1.4222 -0.1969 0.8676, -1.4034 -0.1969 0.8921, -1.379 -0.1969 0.9109, 0.4799 -0.0277 1.6708, 0.4799 -0.0493 1.6708, 0.4799 -0.0277 1.6747, 0.4799 -0.0493 1.6747, 0.3743 -0.0493 1.6708, 0.3743 -0.0493 1.6747, 0.3743 -0.0157 1.6747, 0.3743 0.1475 1.6708, 0.3743 0.1475 1.6747, 0.4751 0.1475 1.6708, 0.4751 0.1475 1.6747, 0.4751 0.1259 1.6708, 0.4751 0.1259 1.6747, 0.4007 0.1259 1.6708, 0.4007 0.1259 1.6747, 0.4007 0.0611 1.6708, 0.4007 0.0611 1.6747, 0.4703 0.0611 1.6708, 0.4703 0.0611 1.6747, 0.4703 0.0395 1.6708, 0.4703 0.0395 1.6747, 0.4007 0.0395 1.6708, 0.4007 0.0395 1.6747, 0.4007 -0.0157 1.6747, 0.4007 -0.0277 1.6708, 0.4007 -0.0277 1.6747, 0.3311 0.0371 1.6708, 0.3311 0.0179 1.6708, 0.3311 0.0371 1.6747, 0.3311 0.0179 1.6747, 0.2566 0.0179 1.6708, 0.2566 0.0179 1.6747, 0.2566 0.0371 1.6708, 0.2566 0.0371 1.6747, 0.2254 -0.0277 1.6708, 0.2254 -0.0493 1.6708, 0.2254 -0.0277 1.6747, 0.2254 -0.0493 1.6747, 0.1198 -0.0493 1.6708, 0.1198 -0.0493 1.6747, 0.1198 -0.0157 1.6747, 0.1198 0.1475 1.6708, 0.1198 0.1475 1.6747, 0.2206 0.1475 1.6708, 0.2206 0.1475 1.6747, 0.2206 0.1259 1.6708, 0.2206 0.1259 1.6747, 0.1462 0.1259 1.6708, 0.1462 0.1259 1.6747, 0.1462 0.0611 1.6708, 0.1462 0.0611 1.6747, 0.2158 0.0611 1.6708, 0.2158 0.0611 1.6747, 0.2158 0.0395 1.6708, 0.2158 0.0395 1.6747, 0.1462 0.0395 1.6708, 0.1462 0.0395 1.6747, 0.1462 -0.0157 1.6747, 0.1462 -0.0277 1.6708, 0.1462 -0.0277 1.6747, -0.0362 -0.0415 1.6747, -0.0362 -0.0415 1.6708, -0.0362 -0.0157 1.6747, -0.0362 -0.0127 1.6708, -0.0362 -0.0127 1.6747, 0.0162 -0.0301 1.6708, 0.0162 -0.0301 1.6747, 0.0015 -0.0287 1.6747, 0.0015 -0.0287 1.6708, -0.0218 -0.0215 1.6747, -0.0218 -0.0215 1.6708, -0.0314 -0.0157 1.6747, 0.0574 -0.0007 1.6708, 0.0574 -0.0007 1.6747, 0.0566 -0.0085 1.6747, 0.0566 -0.0085 1.6708, 0.0543 -0.0146 1.6747, 0.0543 -0.0146 1.6708, 0.0536 -0.0157 1.6747, 0.0517 -0.0185 1.6708, 0.0517 -0.0185 1.6747, 0.0476 -0.0224 1.6747, 0.0476 -0.0224 1.6708, 0.0405 -0.0263 1.6747, 0.0405 -0.0263 1.6708, 0.0305 -0.029 1.6747, 0.0305 -0.029 1.6708, 0.0119 0.0413 1.6708, 0.0119 0.0413 1.6747, 0.0386 0.0271 1.6747, 0.0386 0.0271 1.6708, 0.0414 0.0253 1.6747, 0.0414 0.0253 1.6708, 0.0495 0.0185 1.6747, 0.0495 0.0185 1.6708, 0.0543 0.0119 1.6747, 0.0543 0.0119 1.6708, 0.0565 0.0063 1.6747, 0.0565 0.0063 1.6708, -0.0362 0.0971 1.6708, -0.0362 0.0971 1.6747, -0.0351 0.0864 1.6747, -0.0351 0.0864 1.6708, -0.0316 0.0761 1.6747, -0.0316 0.0761 1.6708, -0.026 0.0672 1.6747, -0.026 0.0672 1.6708, -0.0172 0.0589 1.6747, -0.0172 0.0589 1.6708, 0.0334 0.1499 1.6708, 0.0334 0.1499 1.6747, 0.0116 0.1478 1.6747, 0.0116 0.1478 1.6708, -0.0049 0.1424 1.6747, -0.0049 0.1424 1.6708, -0.016 0.136 1.6747, -0.016 0.136 1.6708, -0.0244 0.1287 1.6747, -0.0244 0.1287 1.6708, -0.0306 0.1202 1.6747, -0.0306 0.1202 1.6708, -0.0345 0.1107 1.6747, -0.0345 0.1107 1.6708, 0.0766 0.1445 1.6708, 0.0766 0.1445 1.6747, 0.0552 0.149 1.6747, 0.0552 0.149 1.6708, 0.0766 0.1157 1.6708, 0.0766 0.1157 1.6747, 0.0313 0.1283 1.6708, 0.0313 0.1283 1.6747, 0.0449 0.1275 1.6747, 0.0449 0.1275 1.6708, 0.0617 0.1235 1.6747, 0.0617 0.1235 1.6708, -0.0098 0.0997 1.6708, -0.0098 0.0997 1.6747, -0.0092 0.1057 1.6747, -0.0092 0.1057 1.6708, -0.0075 0.1107 1.6747, -0.0075 0.1107 1.6708, -0.0046 0.1152 1.6747, -0.0046 0.1152 1.6708, -0.0001 0.1195 1.6747, -0.0001 0.1195 1.6708, 0.0071 0.1237 1.6747, 0.0071 0.1237 1.6708, 0.0175 0.1271 1.6747, 0.0175 0.1271 1.6708, 0.032 0.0598 1.6708, 0.032 0.0598 1.6747, 0.0137 0.0695 1.6747, 0.0137 0.0695 1.6708, 0.0025 0.0766 1.6747, 0.0025 0.0766 1.6708, -0.0036 0.0819 1.6747, -0.0036 0.0819 1.6708, -0.0069 0.0868 1.6747, -0.0069 0.0868 1.6708, -0.009 0.0922 1.6747, -0.009 0.0922 1.6708, 0.0838 0.0014 1.6708, 0.0838 0.0014 1.6747, 0.0825 0.0126 1.6747, 0.0825 0.0126 1.6708, 0.0789 0.0224 1.6747, 0.0789 0.0224 1.6708, 0.0723 0.0323 1.6747, 0.0723 0.0323 1.6708, 0.061 0.0429 1.6747, 0.061 0.0429 1.6708, 0.0786 -0.0224 1.6747, 0.0722 -0.0316 1.6708, 0.0722 -0.0316 1.6747, 0.064 -0.0388 1.6708, 0.064 -0.0388 1.6747, 0.0529 -0.0449 1.6708, 0.0529 -0.0449 1.6747, 0.0337 -0.0502 1.6708, 0.0337 -0.0502 1.6747, 0.0133 -0.0517 1.6708, 0.0133 -0.0517 1.6747, 0.081 -0.0157 1.6747, 0.0822 -0.0124 1.6708, 0.0786 -0.0224 1.6708, 0.0822 -0.0124 1.6747, -0.0299 -0.0445 1.6747, -0.0299 -0.0445 1.6708, -0.012 -0.0491 1.6747, -0.012 -0.0491 1.6708, -0.1323 0.1475 1.6747, -0.1323 0.1475 1.6708, -0.0686 -0.0157 1.6747, -0.0554 -0.0493 1.6708, -0.0554 -0.0493 1.6747, -0.0842 -0.0493 1.6708, -0.0842 -0.0493 1.6747, -0.0964 -0.0157 1.6747, -0.1042 0.0059 1.6708, -0.1042 0.0059 1.6747, -0.1855 0.0059 1.6708, -0.1855 0.0059 1.6747, -0.1928 -0.0157 1.6747, -0.2043 -0.0493 1.6708, -0.2043 -0.0493 1.6747, -0.2331 -0.0493 1.6708, -0.2331 -0.0493 1.6747, -0.2204 -0.0157 1.6747, -0.1587 0.1475 1.6708, -0.1587 0.1475 1.6747, -0.1788 0.0275 1.6708, -0.113 0.0275 1.6708, -0.1495 0.1097 1.6708, -0.1476 0.1166 1.6708, -0.1463 0.1235 1.6708, -0.1457 0.1235 1.6708, -0.1444 0.1166 1.6708, -0.1427 0.1097 1.6708, -0.1788 0.0275 1.6747, -0.113 0.0275 1.6747, -0.1495 0.1097 1.6747, -0.1476 0.1166 1.6747, -0.1463 0.1235 1.6747, -0.1457 0.1235 1.6747, -0.1444 0.1166 1.6747, -0.1427 0.1097 1.6747, -0.2499 -0.0175 1.6708, -0.2499 -0.0391 1.6708, -0.2499 -0.0175 1.6747, -0.2499 -0.0391 1.6747, -0.3041 -0.0517 1.6708, -0.3041 -0.0517 1.6747, -0.2987 -0.0516 1.6747, -0.2987 -0.0516 1.6708, -0.2709 -0.0477 1.6747, -0.2709 -0.0477 1.6708, -0.3963 0.0454 1.6708, -0.3963 0.0454 1.6747, -0.3944 0.0226 1.6747, -0.3944 0.0226 1.6708, -0.3885 0.0018 1.6747, -0.3885 0.0018 1.6708, -0.3787 -0.0157 1.6747, -0.378 -0.0169 1.6708, -0.378 -0.0169 1.6747, -0.3632 -0.0325 1.6747, -0.3632 -0.0325 1.6708, -0.3474 -0.0426 1.6747, -0.3474 -0.0426 1.6708, -0.3283 -0.0492 1.6747, -0.3283 -0.0492 1.6708, -0.2962 0.1499 1.6708, -0.2962 0.1499 1.6747, -0.316 0.1483 1.6747, -0.316 0.1483 1.6708, -0.3379 0.142 1.6747, -0.3379 0.142 1.6708, -0.3566 0.1312 1.6747, -0.3566 0.1312 1.6708, -0.3744 0.1141 1.6747, -0.3744 0.1141 1.6708, -0.3859 0.0957 1.6747, -0.3859 0.0957 1.6708, -0.3935 0.0734 1.6747, -0.3935 0.0734 1.6708, -0.2499 0.1421 1.6708, -0.2499 0.1421 1.6747, -0.2726 0.1483 1.6747, -0.2726 0.1483 1.6708, -0.2499 0.1157 1.6708, -0.2499 0.1157 1.6747, -0.296 0.1283 1.6708, -0.296 0.1283 1.6747, -0.2721 0.1252 1.6747, -0.2721 0.1252 1.6708, -0.3699 0.047 1.6708, -0.3699 0.047 1.6747, -0.369 0.0623 1.6747, -0.369 0.0623 1.6708, -0.3637 0.0834 1.6747, -0.3637 0.0834 1.6708, -0.3556 0.0986 1.6747, -0.3556 0.0986 1.6708, -0.3437 0.1117 1.6747, -0.3437 0.1117 1.6708, -0.3301 0.1208 1.6747, -0.3301 0.1208 1.6708, -0.3154 0.1262 1.6747, -0.3154 0.1262 1.6708, -0.3004 -0.0301 1.6708, -0.3004 -0.0301 1.6747, -0.3188 -0.028 1.6747, -0.3188 -0.028 1.6708, -0.3331 -0.0228 1.6747, -0.3331 -0.0228 1.6708, -0.3436 -0.0157 1.6747, -0.3452 -0.0146 1.6708, -0.3452 -0.0146 1.6747, -0.3544 -0.0049 1.6747, -0.3544 -0.0049 1.6708, -0.3626 0.0088 1.6747, -0.3626 0.0088 1.6708, -0.3679 0.0257 1.6747, -0.3679 0.0257 1.6708, -0.2534 -0.0195 1.6747, -0.2534 -0.0195 1.6708, -0.2743 -0.0272 1.6747, -0.2743 -0.0272 1.6708
            ]
        }
        coordIndex [
            0,1,2,-1,2,1,3,-1,4,5,6,-1,6,5,7,-1,6,7,8,-1,8,9,6,-1,6,9,10,-1,6,10,11,-1,12,11,10,-1,12,10,13,-1,13,10,9,-1,13,9,14,-1,14,9,8,-1,14,8,15,-1,15,8,7,-1,15,7,16,-1,16,7,5,-1,16,5,17,-1,17,5,4,-1,17,4,18,-1,19,20,21,-1,21,20,22,-1,21,22,23,-1,24,25,21,-1,21,25,26,-1,21,26,19,-1,27,6,28,-1,28,6,29,-1,28,29,30,-1,30,29,31,-1,30,31,32,-1,32,31,21,-1,29,6,33,-1,33,6,11,-1,34,24,35,-1,35,24,36,-1,35,36,37,-1,37,36,33,-1,37,33,12,-1,12,33,11,-1,24,21,36,-1,36,21,31,-1,38,39,29,-1,38,29,40,-1,29,33,41,-1,41,42,29,-1,29,42,43,-1,29,43,40,-1,44,39,38,-1,44,38,45,-1,45,38,40,-1,45,40,46,-1,46,40,43,-1,46,43,47,-1,47,43,42,-1,47,42,48,-1,48,42,41,-1,48,41,49,-1,49,41,33,-1,49,33,36,-1,44,45,31,-1,31,45,46,-1,31,46,47,-1,47,48,31,-1,31,48,49,-1,31,49,36,-1,0,31,1,-1,1,31,29,-1,1,29,3,-1,3,29,39,-1,3,39,2,-1,2,39,44,-1,44,31,2,-1,2,31,0,-1,50,51,52,-1,52,51,53,-1,54,55,56,-1,57,56,58,-1,58,56,59,-1,57,60,56,-1,56,60,61,-1,56,61,54,-1,62,63,64,-1,64,63,65,-1,64,65,66,-1,66,67,64,-1,64,67,68,-1,64,68,69,-1,70,59,71,-1,71,59,56,-1,64,69,72,-1,72,69,73,-1,74,75,76,-1,74,76,77,-1,77,76,78,-1,77,78,79,-1,79,78,80,-1,79,80,81,-1,81,80,82,-1,81,82,83,-1,83,82,84,-1,83,84,85,-1,85,84,73,-1,85,73,70,-1,74,77,71,-1,71,77,79,-1,71,79,81,-1,81,83,71,-1,71,83,85,-1,71,85,70,-1,73,84,72,-1,72,84,82,-1,72,82,80,-1,80,78,72,-1,72,78,76,-1,72,76,75,-1,53,75,52,-1,52,75,74,-1,52,74,50,-1,50,74,71,-1,50,71,51,-1,51,71,72,-1,72,75,51,-1,51,75,53,-1,28,30,37,-1,37,30,35,-1,32,86,87,-1,88,89,32,-1,32,89,90,-1,32,90,86,-1,35,30,34,-1,34,30,32,-1,34,32,91,-1,91,32,87,-1,28,37,27,-1,27,37,12,-1,12,13,27,-1,27,13,14,-1,27,14,15,-1,15,16,27,-1,27,16,17,-1,27,17,18,-1,18,88,27,-1,27,88,32,-1,92,93,94,-1,94,93,95,-1,96,97,98,-1,98,99,96,-1,96,99,100,-1,96,100,101,-1,95,93,102,-1,102,93,96,-1,102,96,103,-1,103,96,101,-1,104,92,94,-1,105,106,104,-1,94,107,104,-1,104,107,108,-1,104,108,109,-1,109,110,104,-1,104,110,111,-1,104,111,105,-1,106,97,104,-1,104,97,96,-1,112,113,114,-1,114,113,115,-1,113,116,115,-1,115,116,117,-1,117,116,118,-1,118,116,119,-1,118,119,120,-1,119,121,120,-1,120,121,122,-1,121,123,122,-1,122,123,124,-1,123,125,124,-1,124,125,126,-1,125,127,126,-1,126,127,128,-1,127,129,128,-1,128,129,130,-1,129,131,130,-1,130,131,132,-1,131,133,132,-1,132,133,134,-1,134,133,135,-1,135,133,136,-1,135,136,137,-1,136,112,137,-1,137,112,114,-1,116,113,112,-1,112,136,116,-1,116,136,133,-1,116,133,119,-1,123,121,125,-1,125,121,119,-1,125,119,127,-1,127,119,133,-1,127,133,129,-1,129,133,131,-1,138,139,140,-1,140,139,141,-1,139,142,141,-1,141,142,143,-1,142,144,143,-1,143,144,145,-1,144,138,145,-1,145,138,140,-1,144,142,138,-1,138,142,139,-1,146,147,148,-1,148,147,149,-1,147,150,149,-1,149,150,151,-1,151,150,152,-1,152,150,153,-1,152,153,154,-1,153,155,154,-1,154,155,156,-1,155,157,156,-1,156,157,158,-1,157,159,158,-1,158,159,160,-1,159,161,160,-1,160,161,162,-1,161,163,162,-1,162,163,164,-1,163,165,164,-1,164,165,166,-1,165,167,166,-1,166,167,168,-1,168,167,169,-1,169,167,170,-1,169,170,171,-1,170,146,171,-1,171,146,148,-1,150,147,146,-1,146,170,150,-1,150,170,167,-1,150,167,153,-1,157,155,159,-1,159,155,153,-1,159,153,161,-1,161,153,167,-1,161,167,163,-1,163,167,165,-1,172,173,174,-1,174,173,175,-1,174,175,176,-1,177,178,179,-1,177,179,180,-1,180,179,181,-1,180,181,182,-1,182,181,175,-1,175,181,183,-1,175,183,176,-1,184,185,186,-1,184,186,187,-1,187,186,188,-1,187,188,189,-1,189,188,190,-1,189,190,191,-1,190,192,191,-1,191,192,193,-1,191,193,194,-1,194,193,195,-1,194,195,196,-1,196,195,197,-1,196,197,198,-1,198,197,178,-1,198,178,177,-1,199,200,201,-1,199,201,202,-1,202,201,203,-1,202,203,204,-1,204,203,205,-1,204,205,206,-1,206,205,207,-1,206,207,208,-1,208,207,209,-1,208,209,210,-1,210,209,185,-1,210,185,184,-1,211,212,213,-1,211,213,214,-1,214,213,215,-1,214,215,216,-1,216,215,217,-1,216,217,218,-1,218,217,219,-1,218,219,220,-1,220,219,200,-1,220,200,199,-1,221,222,223,-1,221,223,224,-1,224,223,225,-1,224,225,226,-1,226,225,227,-1,226,227,228,-1,228,227,229,-1,228,229,230,-1,230,229,231,-1,230,231,232,-1,232,231,233,-1,232,233,234,-1,234,233,212,-1,234,212,211,-1,235,236,237,-1,235,237,238,-1,238,237,222,-1,238,222,221,-1,235,239,236,-1,236,239,240,-1,241,242,243,-1,241,243,244,-1,244,243,245,-1,244,245,246,-1,246,245,240,-1,246,240,239,-1,247,248,249,-1,247,249,250,-1,250,249,251,-1,250,251,252,-1,252,251,253,-1,252,253,254,-1,254,253,255,-1,254,255,256,-1,256,255,257,-1,256,257,258,-1,258,257,259,-1,258,259,260,-1,260,259,242,-1,260,242,241,-1,261,262,263,-1,261,263,264,-1,264,263,265,-1,264,265,266,-1,266,265,267,-1,266,267,268,-1,268,267,269,-1,268,269,270,-1,270,269,271,-1,270,271,272,-1,272,271,248,-1,272,248,247,-1,273,274,275,-1,273,275,276,-1,276,275,277,-1,276,277,278,-1,278,277,279,-1,278,279,280,-1,280,279,281,-1,280,281,282,-1,282,281,262,-1,282,262,261,-1,283,284,285,-1,285,284,286,-1,285,286,287,-1,287,286,288,-1,287,288,289,-1,289,288,290,-1,289,290,291,-1,291,290,292,-1,291,292,293,-1,294,295,283,-1,283,295,296,-1,283,296,284,-1,294,297,295,-1,295,297,274,-1,295,274,273,-1,173,172,298,-1,173,298,299,-1,299,298,300,-1,299,300,301,-1,301,300,293,-1,301,293,292,-1,175,173,182,-1,182,173,299,-1,182,299,180,-1,180,299,301,-1,180,301,177,-1,177,301,292,-1,177,292,198,-1,198,292,290,-1,198,290,196,-1,196,290,288,-1,196,288,194,-1,194,288,286,-1,194,286,191,-1,191,286,284,-1,191,284,189,-1,189,284,296,-1,189,296,187,-1,187,296,295,-1,187,295,184,-1,184,295,273,-1,184,273,210,-1,210,273,276,-1,210,276,208,-1,208,276,278,-1,208,278,206,-1,206,278,280,-1,206,280,204,-1,204,280,282,-1,204,282,202,-1,202,282,261,-1,202,261,199,-1,199,261,264,-1,199,264,220,-1,220,264,266,-1,220,266,218,-1,218,266,268,-1,218,268,216,-1,216,268,270,-1,216,270,214,-1,214,270,272,-1,214,272,211,-1,211,272,247,-1,211,247,234,-1,234,247,250,-1,234,250,232,-1,232,250,252,-1,232,252,230,-1,230,252,254,-1,230,254,228,-1,228,254,256,-1,228,256,226,-1,226,256,258,-1,226,258,224,-1,224,258,260,-1,224,260,221,-1,221,260,241,-1,221,241,238,-1,238,241,244,-1,238,244,235,-1,235,244,246,-1,235,246,239,-1,302,303,304,-1,304,303,305,-1,304,305,306,-1,305,307,306,-1,306,307,308,-1,308,307,309,-1,309,307,310,-1,309,310,311,-1,310,312,311,-1,311,312,313,-1,313,312,314,-1,314,312,315,-1,314,315,316,-1,315,317,316,-1,316,317,318,-1,318,317,319,-1,319,317,320,-1,319,320,321,-1,320,303,321,-1,321,303,302,-1,322,312,323,-1,323,312,310,-1,324,320,322,-1,322,320,317,-1,322,317,312,-1,312,317,315,-1,324,325,320,-1,320,325,326,-1,320,326,303,-1,303,326,327,-1,303,327,328,-1,328,329,303,-1,303,329,323,-1,303,323,305,-1,305,323,310,-1,305,310,307,-1,322,323,330,-1,330,323,331,-1,324,322,332,-1,332,322,330,-1,324,332,333,-1,324,333,325,-1,325,333,334,-1,325,334,326,-1,327,326,335,-1,335,326,334,-1,327,335,336,-1,327,336,328,-1,328,336,337,-1,328,337,329,-1,323,329,331,-1,331,329,337,-1,338,339,340,-1,340,339,341,-1,342,343,344,-1,342,344,345,-1,345,344,346,-1,345,346,347,-1,347,346,341,-1,347,341,339,-1,348,349,350,-1,348,350,351,-1,351,350,352,-1,351,352,353,-1,353,352,354,-1,353,354,355,-1,354,356,355,-1,355,356,357,-1,355,357,358,-1,358,357,359,-1,358,359,360,-1,360,359,361,-1,360,361,362,-1,362,361,343,-1,362,343,342,-1,363,364,365,-1,363,365,366,-1,366,365,367,-1,366,367,368,-1,368,367,369,-1,368,369,370,-1,370,369,371,-1,370,371,372,-1,372,371,373,-1,372,373,374,-1,374,373,375,-1,374,375,376,-1,376,375,349,-1,376,349,348,-1,377,378,379,-1,377,379,380,-1,380,379,364,-1,380,364,363,-1,377,381,378,-1,378,381,382,-1,383,384,385,-1,383,385,386,-1,386,385,382,-1,386,382,381,-1,387,388,389,-1,387,389,390,-1,390,389,391,-1,390,391,392,-1,392,391,393,-1,392,393,394,-1,394,393,395,-1,394,395,396,-1,396,395,397,-1,396,397,398,-1,398,397,399,-1,398,399,400,-1,400,399,384,-1,400,384,383,-1,401,402,403,-1,401,403,404,-1,404,403,405,-1,404,405,406,-1,406,405,407,-1,406,407,408,-1,407,409,408,-1,408,409,410,-1,408,410,411,-1,411,410,412,-1,411,412,413,-1,413,412,414,-1,413,414,415,-1,415,414,388,-1,415,388,387,-1,338,340,416,-1,338,416,417,-1,417,416,418,-1,417,418,419,-1,419,418,402,-1,419,402,401,-1,404,342,401,-1,401,342,345,-1,401,345,419,-1,419,345,347,-1,419,347,417,-1,417,347,339,-1,417,339,338,-1,381,377,386,-1,386,377,380,-1,386,380,383,-1,383,380,363,-1,383,363,400,-1,400,363,366,-1,400,366,398,-1,398,366,368,-1,398,368,396,-1,396,368,370,-1,396,370,394,-1,394,370,372,-1,394,372,392,-1,392,372,374,-1,392,374,390,-1,390,374,376,-1,390,376,387,-1,387,376,348,-1,387,348,415,-1,415,348,351,-1,415,351,413,-1,413,351,353,-1,413,353,411,-1,411,353,355,-1,411,355,408,-1,408,355,358,-1,408,358,406,-1,406,358,360,-1,406,360,404,-1,404,360,362,-1,404,362,342,-1,
        ]
    }
}
Shape{
    appearance Appearance {
        material  Material 	{
            diffuseColor 1.0 0.6666666666666666 0.5098039215686274
            specularColor 0.5019607843137255 0.3333333333333333 0.2549019607843137
            ambientIntensity 0.7485
            transparency 0.0
            shininess 0.5
        }
    }
    geometry IndexedFaceSet {
        ccw TRUE
        solid FALSE
        coord DEF co Coordinate {
            point [
                -0.1788 0.0275 1.6747, -0.113 0.0275 1.6747, -0.1495 0.1097 1.6747, -0.1427 0.1097 1.6747, -0.1476 0.1166 1.6747, -0.1444 0.1166 1.6747, -0.1463 0.1235 1.6747, -0.1457 0.1235 1.6747
            ]
        }
        coordIndex [
            0,1,2,-1,2,1,3,-1,2,3,4,-1,4,3,5,-1,4,5,6,-1,6,5,7,-1,
        ]
    }
}
Shape{
    appearance Appearance {
        material  Material 	{
            diffuseColor 1.0 1.0 1.0
            specularColor 0.8784313725490196 0.8784313725490196 0.8784313725490196
            ambientIntensity 1.0
            transparency 0.0
            shininess 0.5
        }
    }
    geometry IndexedFaceSet {
        ccw TRUE
        solid FALSE
        coord DEF co Coordinate {
            point [
                -0.2387 0.0776 0.0645, -0.2925 -0.0602 0.0645, -0.2387 0.0776 0.0605, -0.2925 -0.0602 0.0605, -0.2723 -0.0602 0.0645, -0.2723 -0.0602 0.0605, -0.2584 -0.0216 0.0645, -0.2584 -0.0216 0.0605, -0.2015 -0.0216 0.0645, -0.2015 -0.0216 0.0605, -0.1883 -0.0602 0.0645, -0.1883 -0.0602 0.0605, -0.1681 -0.0602 0.0645, -0.1681 -0.0602 0.0605, -0.2202 0.0776 0.0645, -0.2202 0.0776 0.0605, -0.2061 -0.0065 0.0645, -0.2522 -0.0065 0.0645, -0.2267 0.0511 0.0645, -0.228 0.0559 0.0645, -0.2289 0.0607 0.0645, -0.2293 0.0607 0.0645, -0.2302 0.0559 0.0645, -0.2315 0.0511 0.0645, -0.2061 -0.0065 0.0605, -0.2522 -0.0065 0.0605, -0.2267 0.0511 0.0605, -0.228 0.0559 0.0605, -0.2289 0.0607 0.0605, -0.2293 0.0607 0.0605, -0.2302 0.0559 0.0605, -0.2315 0.0511 0.0605, -0.0846 -0.0602 0.0645, -0.0472 -0.0602 0.0645, -0.0846 -0.0602 0.0605, -0.0472 -0.0602 0.0605, -0.0472 0.0776 0.0645, -0.0472 0.0776 0.0605, -0.086 0.0776 0.0645, -0.086 0.0776 0.0605, -0.1581 0.0104 0.0645, -0.1581 0.0104 0.0605, -0.1571 0.0234 0.0605, -0.1571 0.0234 0.0645, -0.1534 0.0369 0.0605, -0.1534 0.0369 0.0645, -0.147 0.0488 0.0605, -0.147 0.0488 0.0645, -0.1372 0.0596 0.0605, -0.1372 0.0596 0.0645, -0.1371 0.0597 0.0605, -0.1371 0.0597 0.0645, -0.1221 0.0698 0.0605, -0.1221 0.0698 0.0645, -0.1059 0.0754 0.0605, -0.1059 0.0754 0.0645, -0.1017 -0.0588 0.0605, -0.1017 -0.0588 0.0645, -0.1176 -0.054 0.0605, -0.1176 -0.054 0.0645, -0.1319 -0.0457 0.0605, -0.1319 -0.0457 0.0645, -0.1433 -0.0348 0.0605, -0.1433 -0.0348 0.0645, -0.1512 -0.0225 0.0605, -0.1512 -0.0225 0.0645, -0.1561 -0.0081 0.0605, -0.1561 -0.0081 0.0645, -0.1304 0.0431 0.0645, -0.1237 0.0502 0.0645, -0.1136 0.0567 0.0645, -0.1023 0.0607 0.0645, -0.086 0.0624 0.0645, -0.0656 0.0624 0.0645, -0.0656 -0.0451 0.0645, -0.0852 -0.0451 0.0645, -0.0997 -0.0438 0.0645, -0.1113 -0.0401 0.0645, -0.1207 -0.0346 0.0645, -0.1285 -0.0269 0.0645, -0.1343 -0.0174 0.0645, -0.1383 -0.0045 0.0645, -0.1396 0.01 0.0645, -0.1384 0.0237 0.0645, -0.1352 0.0346 0.0645, -0.086 0.0624 0.0605, -0.0656 0.0624 0.0605, -0.1023 0.0607 0.0605, -0.1136 0.0567 0.0605, -0.1237 0.0502 0.0605, -0.1304 0.0431 0.0605, -0.1352 0.0346 0.0605, -0.1384 0.0237 0.0605, -0.1396 0.01 0.0605, -0.1383 -0.0045 0.0605, -0.1343 -0.0174 0.0605, -0.1285 -0.0269 0.0605, -0.1207 -0.0346 0.0605, -0.1113 -0.0401 0.0605, -0.0997 -0.0438 0.0605, -0.0852 -0.0451 0.0605, -0.0656 -0.0451 0.0605, -0.0203 -0.0451 0.0645, -0.0203 -0.0602 0.0645, -0.0203 -0.0451 0.0605, -0.0203 -0.0602 0.0605, 0.0537 -0.0602 0.0645, 0.0537 -0.0602 0.0605, 0.0537 0.0776 0.0645, 0.0537 0.0776 0.0605, -0.0169 0.0776 0.0645, -0.0169 0.0776 0.0605, -0.0169 0.0624 0.0645, -0.0169 0.0624 0.0605, 0.0352 0.0624 0.0645, 0.0352 0.0624 0.0605, 0.0352 0.0171 0.0645, 0.0352 0.0171 0.0605, -0.0135 0.0171 0.0645, -0.0135 0.0171 0.0605, -0.0135 0.0019 0.0645, -0.0135 0.0019 0.0605, 0.0352 0.0019 0.0645, 0.0352 0.0019 0.0605, 0.0352 -0.0451 0.0645, 0.0352 -0.0451 0.0605, 0.0806 -0.038 0.0645, 0.0806 -0.0531 0.0645, 0.0806 -0.038 0.0605, 0.0806 -0.0531 0.0605, 0.0952 -0.0591 0.0645, 0.1185 -0.0619 0.0645, 0.1185 -0.0619 0.0605, 0.1147 -0.0619 0.0605, 0.1147 -0.0619 0.0645, 0.1092 -0.0611 0.0605, 0.0952 -0.0591 0.0605, 0.1831 0.0061 0.0645, 0.1831 0.0061 0.0605, 0.1817 -0.0099 0.0605, 0.1817 -0.0099 0.0645, 0.1776 -0.0245 0.0605, 0.1776 -0.0245 0.0645, 0.1702 -0.0376 0.0605, 0.1702 -0.0376 0.0645, 0.1599 -0.0485 0.0605, 0.1599 -0.0485 0.0645, 0.1488 -0.0556 0.0605, 0.1488 -0.0556 0.0645, 0.1355 -0.0602 0.0605, 0.1355 -0.0602 0.0645, 0.1266 -0.0611 0.0605, 0.113 0.0792 0.0645, 0.113 0.0792 0.0605, 0.1268 0.0781 0.0605, 0.1268 0.0781 0.0645, 0.1422 0.0736 0.0605, 0.1422 0.0736 0.0645, 0.1553 0.0661 0.0605, 0.1553 0.0661 0.0645, 0.1677 0.0541 0.0605, 0.1677 0.0541 0.0645, 0.1758 0.0413 0.0605, 0.1758 0.0413 0.0645, 0.1811 0.0256 0.0605, 0.1811 0.0256 0.0645, 0.0806 0.0738 0.0645, 0.0806 0.0738 0.0605, 0.0965 0.0781 0.0605, 0.0965 0.0781 0.0645, 0.0806 0.0553 0.0645, 0.0806 0.0553 0.0605, 0.1128 0.0641 0.0645, 0.1128 0.0641 0.0605, 0.0961 0.0619 0.0605, 0.0961 0.0619 0.0645, 0.1646 0.0072 0.0645, 0.1646 0.0072 0.0605, 0.1639 0.0179 0.0605, 0.1639 0.0179 0.0645, 0.1602 0.0327 0.0605, 0.1602 0.0327 0.0645, 0.1546 0.0433 0.0605, 0.1546 0.0433 0.0645, 0.1462 0.0525 0.0605, 0.1462 0.0525 0.0645, 0.1367 0.0589 0.0605, 0.1367 0.0589 0.0645, 0.1264 0.0626 0.0605, 0.1264 0.0626 0.0645, 0.1159 -0.0468 0.0645, 0.1159 -0.0468 0.0605, 0.1288 -0.0454 0.0605, 0.1288 -0.0454 0.0645, 0.1388 -0.0417 0.0605, 0.1388 -0.0417 0.0645, 0.1473 -0.036 0.0605, 0.1473 -0.036 0.0645, 0.1537 -0.0291 0.0605, 0.1537 -0.0291 0.0645, 0.1594 -0.0196 0.0605, 0.1594 -0.0196 0.0645, 0.1632 -0.0077 0.0605, 0.1632 -0.0077 0.0645, 0.083 -0.0393 0.0605, 0.083 -0.0393 0.0645, 0.0976 -0.0448 0.0605, 0.0976 -0.0448 0.0645, 0.1948 -0.0451 0.0645, 0.1948 -0.0602 0.0645, 0.1948 -0.0451 0.0605, 0.1948 -0.0602 0.0605, 0.2654 -0.0602 0.0645, 0.2654 -0.0602 0.0605, 0.2654 0.0776 0.0645, 0.2654 0.0776 0.0605, 0.2469 0.0776 0.0645, 0.2469 0.0776 0.0605, 0.2469 -0.0451 0.0645, 0.2469 -0.0451 0.0605
            ]
        }
        coordIndex [
            0,1,2,-1,2,1,3,-1,1,4,3,-1,3,4,5,-1,4,6,5,-1,5,6,7,-1,6,8,7,-1,7,8,9,-1,8,10,9,-1,9,10,11,-1,10,12,11,-1,11,12,13,-1,12,14,13,-1,13,14,15,-1,14,0,15,-1,15,0,2,-1,16,8,17,-1,17,8,6,-1,18,14,16,-1,16,14,12,-1,16,12,8,-1,8,12,10,-1,18,19,14,-1,14,19,20,-1,14,20,0,-1,0,20,21,-1,0,21,22,-1,22,23,0,-1,0,23,17,-1,0,17,1,-1,1,17,6,-1,1,6,4,-1,16,17,24,-1,24,17,25,-1,18,16,26,-1,26,16,24,-1,18,26,27,-1,18,27,19,-1,19,27,28,-1,19,28,20,-1,21,20,29,-1,29,20,28,-1,21,29,30,-1,21,30,22,-1,22,30,31,-1,22,31,23,-1,17,23,25,-1,25,23,31,-1,32,33,34,-1,34,33,35,-1,33,36,35,-1,35,36,37,-1,36,38,37,-1,37,38,39,-1,40,41,42,-1,40,42,43,-1,43,42,44,-1,43,44,45,-1,45,44,46,-1,45,46,47,-1,47,46,48,-1,47,48,49,-1,49,48,50,-1,49,50,51,-1,51,50,52,-1,51,52,53,-1,53,52,54,-1,53,54,55,-1,55,54,39,-1,55,39,38,-1,32,34,56,-1,32,56,57,-1,57,56,58,-1,57,58,59,-1,59,58,60,-1,59,60,61,-1,61,60,62,-1,61,62,63,-1,63,62,64,-1,63,64,65,-1,65,64,66,-1,65,66,67,-1,67,66,41,-1,67,41,40,-1,45,47,68,-1,68,47,49,-1,68,49,69,-1,69,49,51,-1,69,51,70,-1,70,51,53,-1,70,53,71,-1,71,53,55,-1,71,55,72,-1,72,55,38,-1,72,38,73,-1,73,38,36,-1,73,36,74,-1,74,36,33,-1,74,33,75,-1,75,33,32,-1,75,32,76,-1,76,32,57,-1,76,57,77,-1,77,57,59,-1,77,59,78,-1,78,59,61,-1,78,61,79,-1,79,61,63,-1,79,63,80,-1,80,63,65,-1,80,65,81,-1,81,65,67,-1,81,67,82,-1,82,67,40,-1,82,40,83,-1,83,40,43,-1,83,43,84,-1,84,43,45,-1,84,45,68,-1,72,73,85,-1,85,73,86,-1,72,85,87,-1,72,87,71,-1,71,87,88,-1,71,88,70,-1,70,88,89,-1,70,89,69,-1,69,89,90,-1,69,90,68,-1,68,90,91,-1,68,91,84,-1,84,91,92,-1,84,92,83,-1,83,92,93,-1,83,93,82,-1,82,93,94,-1,82,94,81,-1,81,94,95,-1,81,95,80,-1,80,95,96,-1,80,96,79,-1,79,96,97,-1,79,97,78,-1,78,97,98,-1,78,98,77,-1,77,98,99,-1,77,99,76,-1,76,99,100,-1,76,100,75,-1,74,75,101,-1,101,75,100,-1,73,74,86,-1,86,74,101,-1,102,103,104,-1,104,103,105,-1,103,106,105,-1,105,106,107,-1,106,108,107,-1,107,108,109,-1,108,110,109,-1,109,110,111,-1,110,112,111,-1,111,112,113,-1,112,114,113,-1,113,114,115,-1,114,116,115,-1,115,116,117,-1,116,118,117,-1,117,118,119,-1,118,120,119,-1,119,120,121,-1,120,122,121,-1,121,122,123,-1,122,124,123,-1,123,124,125,-1,124,102,125,-1,125,102,104,-1,106,103,102,-1,102,124,106,-1,106,124,122,-1,106,122,108,-1,112,110,114,-1,114,110,108,-1,114,108,116,-1,116,108,122,-1,116,122,118,-1,118,122,120,-1,126,127,128,-1,128,127,129,-1,129,127,130,-1,131,132,133,-1,131,133,134,-1,134,133,135,-1,134,135,130,-1,130,135,136,-1,130,136,129,-1,137,138,139,-1,137,139,140,-1,140,139,141,-1,140,141,142,-1,142,141,143,-1,142,143,144,-1,144,143,145,-1,144,145,146,-1,146,145,147,-1,146,147,148,-1,148,147,149,-1,148,149,150,-1,150,149,131,-1,131,149,151,-1,131,151,132,-1,152,153,154,-1,152,154,155,-1,155,154,156,-1,155,156,157,-1,157,156,158,-1,157,158,159,-1,159,158,160,-1,159,160,161,-1,161,160,162,-1,161,162,163,-1,163,162,164,-1,163,164,165,-1,165,164,138,-1,165,138,137,-1,166,167,168,-1,166,168,169,-1,169,168,153,-1,169,153,152,-1,166,170,167,-1,167,170,171,-1,172,173,174,-1,172,174,175,-1,175,174,171,-1,175,171,170,-1,176,177,178,-1,176,178,179,-1,179,178,180,-1,179,180,181,-1,181,180,182,-1,181,182,183,-1,183,182,184,-1,183,184,185,-1,185,184,186,-1,185,186,187,-1,187,186,188,-1,187,188,189,-1,189,188,173,-1,189,173,172,-1,190,191,192,-1,190,192,193,-1,193,192,194,-1,193,194,195,-1,195,194,196,-1,195,196,197,-1,197,196,198,-1,197,198,199,-1,199,198,200,-1,199,200,201,-1,201,200,202,-1,201,202,203,-1,203,202,177,-1,203,177,176,-1,126,128,204,-1,126,204,205,-1,205,204,206,-1,205,206,207,-1,207,206,191,-1,207,191,190,-1,193,131,190,-1,190,131,134,-1,190,134,207,-1,207,134,130,-1,207,130,205,-1,205,130,127,-1,205,127,126,-1,170,166,175,-1,175,166,169,-1,175,169,172,-1,172,169,152,-1,172,152,189,-1,189,152,155,-1,189,155,187,-1,187,155,157,-1,187,157,185,-1,185,157,159,-1,185,159,183,-1,183,159,161,-1,183,161,181,-1,181,161,163,-1,181,163,179,-1,179,163,165,-1,179,165,176,-1,176,165,137,-1,176,137,203,-1,203,137,140,-1,203,140,201,-1,201,140,142,-1,201,142,199,-1,199,142,144,-1,199,144,197,-1,197,144,146,-1,197,146,195,-1,195,146,148,-1,195,148,193,-1,193,148,150,-1,193,150,131,-1,208,209,210,-1,210,209,211,-1,209,212,211,-1,211,212,213,-1,212,214,213,-1,213,214,215,-1,214,216,215,-1,215,216,217,-1,216,218,217,-1,217,218,219,-1,218,208,219,-1,219,208,210,-1,216,214,218,-1,218,214,212,-1,218,212,208,-1,208,212,209,-1,
        ]
    }
}
Shape{
    appearance Appearance {
        material  Material 	{
            diffuseColor 1.0 0.6666666666666666 0.5098039215686274
            specularColor 0.5019607843137255 0.3333333333333333 0.2549019607843137
            ambientIntensity 0.7485
            transparency 0.0
            shininess 0.5
        }
    }
    geometry IndexedFaceSet {
        ccw TRUE
        solid FALSE
        coord DEF co Coordinate {
            point [
                -0.2061 -0.0065 0.0605, -0.2522 -0.0065 0.0605, -0.2267 0.0511 0.0605, -0.2315 0.0511 0.0605, -0.228 0.0559 0.0605, -0.2302 0.0559 0.0605, -0.2289 0.0607 0.0605, -0.2293 0.0607 0.0605, -0.0656 0.0624 0.0605, -0.0656 -0.0451 0.0605, -0.086 0.0624 0.0605, -0.0852 -0.0451 0.0605, -0.0997 -0.0438 0.0605, -0.1396 0.01 0.0605, -0.1384 0.0237 0.0605, -0.1352 0.0346 0.0605, -0.1023 0.0607 0.0605, -0.1113 -0.0401 0.0605, -0.1207 -0.0346 0.0605, -0.1285 -0.0269 0.0605, -0.1343 -0.0174 0.0605, -0.1383 -0.0045 0.0605, -0.1304 0.0431 0.0605, -0.1237 0.0502 0.0605, -0.1136 0.0567 0.0605
            ]
        }
        coordIndex [
            0,1,2,-1,2,1,3,-1,2,3,4,-1,4,3,5,-1,4,5,6,-1,6,5,7,-1,8,9,10,-1,10,9,11,-1,10,11,12,-1,13,14,10,-1,10,14,15,-1,10,15,16,-1,12,17,10,-1,10,17,18,-1,10,18,19,-1,19,20,10,-1,10,20,21,-1,10,21,13,-1,22,23,15,-1,15,23,24,-1,15,24,16,-1,
        ]
    }
}