#VRML V2.0 utf8
# 3D model generated by easyeda2kicad.py (https://github.com/uPesy/easyeda2kicad.py)

Shape{
    appearance Appearance {
        material  Material 	{
            diffuseColor 0.7019607843137254 0.5058823529411764 0.21568627450980393
            specularColor 0.050980392156862744 0.03529411764705882 0.01568627450980392
            ambientIntensity 0.7602
            transparency 0.0
            shininess 0.5
        }
    }
    geometry IndexedFaceSet {
        ccw TRUE
        solid FALSE
        coord DEF co Coordinate {
            point [
                0.0674 0.0453 0.0039, 0.0752 0.0444 0.0039, 0.0504 -0.0138 0.0039, 0.049 -0.013 0.0039, 0.049 -0.0217 0.0039, 0.0413 -0.0262 0.0039, 0.2362 -0.0262 0.0039, 0.1546 -0.0257 0.0039, 0.1546 0.053 0.0039, 0.088 -0.0231 0.0039, 0.1143 -0.0257 0.0039, 0.0803 -0.0257 0.0039, 0.0753 -0.0262 0.0039, 0.0578 0.0441 0.0039, 0.049 0.0403 0.0039, 0.0413 0.5347 0.0039, 0.049 0.0508 0.0039, 0.0811 0.0423 0.0039, 0.0865 0.0387 0.0039, 0.0913 0.0334 0.0039, 0.097 0.0128 0.0039, 0.0962 0.0043 0.0039, 0.094 -0.0025 0.0039, 0.0765 -0.0172 0.0039, 0.0692 -0.0181 0.0039, 0.0823 -0.0151 0.0039, 0.0871 -0.0119 0.0039, 0.0908 -0.008 0.0039, 0.0587 -0.0169 0.0039, 0.1034 0.0323 0.0039, 0.0988 0.0396 0.0039, 0.144 0.053 0.0039, 0.2362 0.5347 0.0039, 0.0945 0.0273 0.0039, 0.0966 0.0189 0.0039, 0.0943 -0.019 0.0039, 0.1002 -0.0128 0.0039, 0.1143 -0.0171 0.0039, 0.1044 -0.0053 0.0039, 0.144 -0.0171 0.0039, 0.0917 0.0465 0.0039, 0.0842 0.0508 0.0039, 0.0754 0.0533 0.0039, 0.1068 0.003 0.0039, 0.1075 0.0121 0.0039, 0.1064 0.0233 0.0039, 0.0675 0.054 0.0039, 0.0581 0.0533 0.0039, 0.0574 -0.0251 0.0039, 0.0653 -0.0262 0.0039, 0.0413 -0.5347 0.0039, 0.0685 -0.0267 0.0039, 0.2362 -0.5347 0.0039, 0.0706 -0.0267 0.0039, -0.0086 -0.0257 0.0039, 0.0336 -0.0257 0.0039, 0.0336 0.053 0.0039, -0.0067 0.0444 0.0039, 0.023 0.0444 0.0039, 0.023 0.0184 0.0039, -0.0835 -0.0042 0.0039, -0.0789 -0.0112 0.0039, -0.0931 -0.0257 0.0039, -0.0725 -0.0174 0.0039, -0.0642 -0.0222 0.0039, -0.2362 0.5347 0.0039, -0.0067 0.053 0.0039, -0.0048 0.0098 0.0039, 0.023 0.0098 0.0039, 0.023 -0.0171 0.0039, -0.024 0.053 0.0039, -0.0048 0.0184 0.0039, -0.024 -0.0257 0.0039, -0.0086 -0.0171 0.0039, -0.0462 0.053 0.0039, -0.0576 0.0518 0.0039, -0.0668 0.0485 0.0039, -0.0754 0.0428 0.0039, -0.1229 0.053 0.0039, -0.081 0.0366 0.0039, -0.0847 0.0298 0.0039, -0.2362 -0.0262 0.0039, -0.1642 -0.0257 0.0039, -0.1527 -0.0257 0.0039, -0.0755 0.0427 0.0039, -0.0868 0.022 0.0039, -0.0874 0.0146 0.0039, -0.0863 0.0041 0.0039, -0.1447 -0.0037 0.0039, -0.1122 -0.0037 0.0039, -0.1047 -0.0257 0.0039, -0.1335 0.053 0.0039, -0.0454 -0.0257 0.0039, -0.0552 -0.0249 0.0039, -0.2362 -0.5347 0.0039, -0.574 0.5347 0.6339, -0.574 -0.5347 0.6339, -0.5105 0.5347 0.6339, -0.5105 -0.5347 0.6339, 0.574 -0.5347 0.6339, 0.574 0.5347 0.6339, -0.3428 -0.5347 0.6339, -0.3428 0.5347 0.6339, 0.5906 -0.4331 0.3189, 0.5906 -0.5512 0.3189, 0.5864 -0.4331 0.2402, 0.5792 -0.5398 0.1024, 0.5864 0.4331 0.2402, 0.5792 0.5398 0.1024, 0.5906 0.4331 0.3189, 0.5906 0.5512 0.3189, -0.5906 0.4331 0.3189, -0.5906 0.5512 0.3189, -0.5864 0.4331 0.2402, -0.5792 0.5398 0.1024, -0.5864 -0.4331 0.2402, -0.5792 -0.5398 0.1024, -0.5906 -0.4331 0.3189, -0.5906 -0.5512 0.3189, 0.2362 -0.5398 0.1024, -0.2362 -0.5398 0.1024, -0.2362 0.5398 0.1024, 0.2362 0.5398 0.1024
            ]
        }
        coordIndex [
            0,1,2,-1,3,4,5,-1,6,7,8,-1,9,10,11,-1,11,10,12,-1,0,2,13,-1,13,2,3,-1,13,3,14,-1,14,3,15,-1,14,15,16,-1,1,17,2,-1,2,17,18,-1,2,18,19,-1,20,21,2,-1,2,21,22,-1,23,24,25,-1,25,24,26,-1,22,27,2,-1,2,27,26,-1,2,26,28,-1,28,26,24,-1,29,30,31,-1,31,30,15,-1,31,15,8,-1,8,15,32,-1,8,32,6,-1,19,33,2,-1,2,33,34,-1,2,34,20,-1,9,35,10,-1,10,35,36,-1,10,36,37,-1,37,36,38,-1,37,38,39,-1,30,40,15,-1,15,40,41,-1,15,41,42,-1,38,43,39,-1,39,43,44,-1,39,44,31,-1,31,44,45,-1,31,45,29,-1,42,46,15,-1,15,46,47,-1,15,47,16,-1,4,48,5,-1,5,48,49,-1,5,49,50,-1,50,49,51,-1,50,51,52,-1,52,51,53,-1,52,53,6,-1,6,53,12,-1,6,12,7,-1,7,12,10,-1,54,55,5,-1,5,55,56,-1,57,58,59,-1,60,61,62,-1,62,61,63,-1,62,63,64,-1,3,5,15,-1,15,5,56,-1,15,56,65,-1,65,56,66,-1,65,66,57,-1,67,68,69,-1,70,71,72,-1,72,71,67,-1,72,67,73,-1,73,67,69,-1,59,71,57,-1,57,71,70,-1,57,70,65,-1,65,70,74,-1,74,75,65,-1,65,75,76,-1,65,76,77,-1,78,79,80,-1,81,82,83,-1,79,78,84,-1,80,85,78,-1,78,85,86,-1,78,86,62,-1,62,86,87,-1,62,87,60,-1,88,89,83,-1,83,89,90,-1,83,90,81,-1,82,81,91,-1,91,81,65,-1,91,65,78,-1,78,65,77,-1,78,77,84,-1,73,54,72,-1,72,54,5,-1,72,5,92,-1,92,5,62,-1,92,62,93,-1,93,62,64,-1,90,62,81,-1,81,62,5,-1,81,5,94,-1,94,5,50,-1,95,96,97,-1,97,96,98,-1,99,100,101,-1,101,100,102,-1,103,104,105,-1,105,104,106,-1,105,106,107,-1,107,106,108,-1,107,108,109,-1,109,108,110,-1,111,112,113,-1,113,112,114,-1,113,114,115,-1,115,114,116,-1,115,116,117,-1,117,116,118,-1,119,106,104,-1,104,118,120,-1,120,118,116,-1,50,52,119,-1,104,120,119,-1,119,120,94,-1,119,94,50,-1,114,112,121,-1,121,112,110,-1,110,108,122,-1,122,32,15,-1,110,122,121,-1,121,122,15,-1,121,15,65,-1,110,100,109,-1,109,100,99,-1,109,99,103,-1,103,99,104,-1,100,110,102,-1,102,110,112,-1,102,112,97,-1,97,112,95,-1,118,96,117,-1,117,96,95,-1,117,95,111,-1,111,95,112,-1,118,104,99,-1,99,101,118,-1,118,101,98,-1,118,98,96,-1,
        ]
    }
}
Shape{
    appearance Appearance {
        material  Material 	{
            diffuseColor 0.5098039215686274 0.25098039215686274 0.01568627450980392
            specularColor 0.03529411764705882 0.0196078431372549 0.0
            ambientIntensity 0.4303
            transparency 0.0
            shininess 0.5
        }
    }
    geometry IndexedFaceSet {
        ccw TRUE
        solid FALSE
        coord DEF co Coordinate {
            point [
                -0.5105 -0.5347 0.6339, -0.3428 -0.5347 0.6339, -0.5105 0.5347 0.6339, -0.3428 0.5347 0.6339
            ]
        }
        coordIndex [
            0,1,2,-1,2,1,3,-1,
        ]
    }
}
Shape{
    appearance Appearance {
        material  Material 	{
            diffuseColor 0.7019607843137254 0.5058823529411764 0.21568627450980393
            specularColor 0.050980392156862744 0.03529411764705882 0.01568627450980392
            ambientIntensity 0.7602
            transparency 0.0
            shininess 0.5
        }
    }
    geometry IndexedFaceSet {
        ccw TRUE
        solid FALSE
        coord DEF co Coordinate {
            point [
                -0.2362 -0.5347 0.0039, -0.2362 -0.5398 0.1024, -0.2362 -0.0262 0.0039, -0.2362 0.5398 0.1024, -0.2362 0.5347 0.0039, -0.5792 0.5398 0.1024, -0.5792 -0.5398 0.1024, 0.5792 0.5398 0.1024, 0.5792 -0.5398 0.1024, 0.2362 0.5398 0.1024, 0.2362 -0.5398 0.1024, 0.2362 0.5347 0.0039, 0.2362 -0.0262 0.0039, 0.2362 -0.5347 0.0039
            ]
        }
        coordIndex [
            0,1,2,-1,2,1,3,-1,2,3,4,-1,5,3,6,-1,6,3,1,-1,7,8,9,-1,9,8,10,-1,11,9,12,-1,12,9,10,-1,12,10,13,-1,
        ]
    }
}
Shape{
    appearance Appearance {
        material  Material 	{
            diffuseColor 0.6666666666666666 0.6666666666666666 0.6666666666666666
            specularColor 0.4666666666666667 0.4666666666666667 0.4666666666666667
            ambientIntensity 0.6667
            transparency 0.0
            shininess 0.5
        }
    }
    geometry IndexedFaceSet {
        ccw TRUE
        solid FALSE
        coord DEF co Coordinate {
            point [
                -0.2756 0.4331 0.0787, -0.5906 0.4331 0.0787, -0.2756 -0.4331 0.0787, -0.5906 -0.4331 0.0787, -0.2756 0.4331 0.0, -0.2756 -0.4331 0.0, -0.5906 0.4331 0.0, -0.5906 -0.4331 0.0, -0.6125 -0.4331 0.0025, -0.6125 0.4331 0.0025, -0.6333 -0.4331 0.0097, -0.6333 0.4331 0.0097, -0.6519 -0.4331 0.0215, -0.6519 0.4331 0.0215, -0.6675 -0.4331 0.0371, -0.6675 0.4331 0.0371, -0.6792 -0.4331 0.0557, -0.6792 0.4331 0.0557, -0.6865 -0.4331 0.0765, -0.6865 0.4331 0.0765, -0.689 -0.4331 0.0984, -0.689 0.4331 0.0984, -0.689 0.4331 0.2205, -0.689 -0.4331 0.2205, -0.6865 -0.4331 0.2424, -0.6865 0.4331 0.2424, -0.6792 -0.4331 0.2632, -0.6792 0.4331 0.2632, -0.6675 -0.4331 0.2818, -0.6675 0.4331 0.2818, -0.6519 -0.4331 0.2974, -0.6519 0.4331 0.2974, -0.6333 -0.4331 0.3092, -0.6333 0.4331 0.3092, -0.6125 -0.4331 0.3164, -0.6125 0.4331 0.3164, -0.5906 -0.4331 0.3189, -0.5906 0.4331 0.3189, -0.5906 -0.4331 0.2402, -0.5906 0.4331 0.2402, -0.5864 -0.4331 0.2402, -0.5864 0.4331 0.2402, -0.5949 0.4331 0.2397, -0.5949 -0.4331 0.2397, -0.5991 0.4331 0.2382, -0.5991 -0.4331 0.2382, -0.6028 0.4331 0.2359, -0.6028 -0.4331 0.2359, -0.6059 0.4331 0.2327, -0.6059 -0.4331 0.2327, -0.6083 0.4331 0.229, -0.6083 -0.4331 0.229, -0.6097 0.4331 0.2249, -0.6097 -0.4331 0.2249, -0.6102 0.4331 0.2205, -0.6102 -0.4331 0.2205, -0.6102 0.4331 0.0984, -0.6102 -0.4331 0.0984, -0.6097 0.4331 0.094, -0.6097 -0.4331 0.094, -0.6083 0.4331 0.0899, -0.6083 -0.4331 0.0899, -0.6059 0.4331 0.0862, -0.6059 -0.4331 0.0862, -0.6028 0.4331 0.083, -0.6028 -0.4331 0.083, -0.5991 0.4331 0.0807, -0.5991 -0.4331 0.0807, -0.5949 0.4331 0.0792, -0.5949 -0.4331 0.0792, 0.5906 0.4331 0.0787, 0.2756 0.4331 0.0787, 0.5906 -0.4331 0.0787, 0.2756 -0.4331 0.0787, 0.5949 0.4331 0.0792, 0.5949 -0.4331 0.0792, 0.5991 0.4331 0.0807, 0.5991 -0.4331 0.0807, 0.6028 0.4331 0.083, 0.6028 -0.4331 0.083, 0.6059 0.4331 0.0862, 0.6059 -0.4331 0.0862, 0.6083 0.4331 0.0899, 0.6083 -0.4331 0.0899, 0.6097 0.4331 0.094, 0.6097 -0.4331 0.094, 0.6102 0.4331 0.0984, 0.6102 -0.4331 0.0984, 0.6102 0.4331 0.2205, 0.6102 -0.4331 0.2205, 0.6097 0.4331 0.2249, 0.6097 -0.4331 0.2249, 0.6083 0.4331 0.229, 0.6083 -0.4331 0.229, 0.6059 0.4331 0.2327, 0.6059 -0.4331 0.2327, 0.6028 0.4331 0.2359, 0.6028 -0.4331 0.2359, 0.5991 0.4331 0.2382, 0.5991 -0.4331 0.2382, 0.5949 0.4331 0.2397, 0.5949 -0.4331 0.2397, 0.5906 0.4331 0.2402, 0.5906 -0.4331 0.2402, 0.5864 0.4331 0.2402, 0.5864 -0.4331 0.2402, 0.5906 0.4331 0.3189, 0.5906 -0.4331 0.3189, 0.6125 -0.4331 0.3164, 0.6125 0.4331 0.3164, 0.6333 -0.4331 0.3092, 0.6333 0.4331 0.3092, 0.6519 -0.4331 0.2974, 0.6519 0.4331 0.2974, 0.6675 -0.4331 0.2818, 0.6675 0.4331 0.2818, 0.6792 -0.4331 0.2632, 0.6792 0.4331 0.2632, 0.6865 -0.4331 0.2424, 0.6865 0.4331 0.2424, 0.689 -0.4331 0.2205, 0.689 0.4331 0.2205, 0.689 0.4331 0.0984, 0.689 -0.4331 0.0984, 0.6865 -0.4331 0.0765, 0.6865 0.4331 0.0765, 0.6792 -0.4331 0.0557, 0.6792 0.4331 0.0557, 0.6675 -0.4331 0.0371, 0.6675 0.4331 0.0371, 0.6519 -0.4331 0.0215, 0.6519 0.4331 0.0215, 0.6333 -0.4331 0.0097, 0.6333 0.4331 0.0097, 0.6125 -0.4331 0.0025, 0.6125 0.4331 0.0025, 0.5906 -0.4331 0.0, 0.5906 0.4331 0.0, 0.2756 0.4331 0.0, 0.2756 -0.4331 0.0
            ]
        }
        coordIndex [
            0,1,2,-1,2,1,3,-1,4,0,5,-1,5,0,2,-1,6,4,7,-1,7,4,5,-1,6,7,8,-1,6,8,9,-1,9,8,10,-1,9,10,11,-1,11,10,12,-1,11,12,13,-1,13,12,14,-1,13,14,15,-1,15,14,16,-1,15,16,17,-1,17,16,18,-1,17,18,19,-1,19,18,20,-1,19,20,21,-1,22,21,23,-1,23,21,20,-1,22,23,24,-1,22,24,25,-1,25,24,26,-1,25,26,27,-1,27,26,28,-1,27,28,29,-1,29,28,30,-1,29,30,31,-1,31,30,32,-1,31,32,33,-1,33,32,34,-1,33,34,35,-1,35,34,36,-1,35,36,37,-1,38,39,40,-1,40,39,41,-1,39,38,42,-1,42,38,43,-1,42,43,44,-1,44,43,45,-1,44,45,46,-1,46,45,47,-1,46,47,48,-1,48,47,49,-1,48,49,50,-1,50,49,51,-1,50,51,52,-1,52,51,53,-1,52,53,54,-1,54,53,55,-1,56,54,57,-1,57,54,55,-1,56,57,58,-1,58,57,59,-1,58,59,60,-1,60,59,61,-1,60,61,62,-1,62,61,63,-1,62,63,64,-1,64,63,65,-1,64,65,66,-1,66,65,67,-1,66,67,68,-1,68,67,69,-1,68,69,1,-1,1,69,3,-1,0,4,1,-1,1,4,6,-1,1,6,68,-1,68,6,9,-1,68,9,66,-1,66,9,11,-1,66,11,64,-1,64,11,13,-1,64,13,62,-1,62,13,15,-1,62,15,60,-1,60,15,17,-1,60,17,58,-1,58,17,19,-1,58,19,56,-1,56,19,21,-1,56,21,54,-1,54,21,22,-1,54,22,52,-1,52,22,25,-1,52,25,50,-1,50,25,27,-1,50,27,48,-1,48,27,29,-1,48,29,46,-1,46,29,31,-1,46,31,44,-1,44,31,33,-1,44,33,42,-1,42,33,35,-1,42,35,39,-1,39,35,37,-1,39,37,41,-1,5,2,7,-1,7,2,3,-1,7,3,8,-1,8,3,69,-1,8,69,10,-1,10,69,67,-1,10,67,12,-1,12,67,65,-1,12,65,14,-1,14,65,63,-1,14,63,16,-1,16,63,61,-1,16,61,18,-1,18,61,59,-1,18,59,20,-1,20,59,57,-1,20,57,23,-1,23,57,55,-1,23,55,24,-1,24,55,53,-1,24,53,26,-1,26,53,51,-1,26,51,28,-1,28,51,49,-1,28,49,30,-1,30,49,47,-1,30,47,32,-1,32,47,45,-1,32,45,34,-1,34,45,43,-1,34,43,36,-1,36,43,38,-1,36,38,40,-1,70,71,72,-1,72,71,73,-1,70,72,74,-1,74,72,75,-1,74,75,76,-1,76,75,77,-1,76,77,78,-1,78,77,79,-1,78,79,80,-1,80,79,81,-1,80,81,82,-1,82,81,83,-1,82,83,84,-1,84,83,85,-1,84,85,86,-1,86,85,87,-1,88,86,89,-1,89,86,87,-1,88,89,90,-1,90,89,91,-1,90,91,92,-1,92,91,93,-1,92,93,94,-1,94,93,95,-1,94,95,96,-1,96,95,97,-1,96,97,98,-1,98,97,99,-1,98,99,100,-1,100,99,101,-1,100,101,102,-1,102,101,103,-1,104,102,105,-1,105,102,103,-1,106,107,108,-1,106,108,109,-1,109,108,110,-1,109,110,111,-1,111,110,112,-1,111,112,113,-1,113,112,114,-1,113,114,115,-1,115,114,116,-1,115,116,117,-1,117,116,118,-1,117,118,119,-1,119,118,120,-1,119,120,121,-1,122,121,123,-1,123,121,120,-1,122,123,124,-1,122,124,125,-1,125,124,126,-1,125,126,127,-1,127,126,128,-1,127,128,129,-1,129,128,130,-1,129,130,131,-1,131,130,132,-1,131,132,133,-1,133,132,134,-1,133,134,135,-1,135,134,136,-1,135,136,137,-1,138,137,139,-1,139,137,136,-1,71,138,73,-1,73,138,139,-1,138,71,137,-1,137,71,70,-1,137,70,135,-1,135,70,74,-1,135,74,133,-1,133,74,76,-1,133,76,131,-1,131,76,78,-1,131,78,129,-1,129,78,80,-1,129,80,127,-1,127,80,82,-1,127,82,125,-1,125,82,84,-1,125,84,122,-1,122,84,86,-1,122,86,121,-1,121,86,88,-1,121,88,119,-1,119,88,90,-1,119,90,117,-1,117,90,92,-1,117,92,115,-1,115,92,94,-1,115,94,113,-1,113,94,96,-1,113,96,111,-1,111,96,98,-1,111,98,109,-1,109,98,100,-1,109,100,106,-1,106,100,102,-1,106,102,104,-1,73,139,72,-1,72,139,136,-1,72,136,75,-1,75,136,134,-1,75,134,77,-1,77,134,132,-1,77,132,79,-1,79,132,130,-1,79,130,81,-1,81,130,128,-1,81,128,83,-1,83,128,126,-1,83,126,85,-1,85,126,124,-1,85,124,87,-1,87,124,123,-1,87,123,89,-1,89,123,120,-1,89,120,91,-1,91,120,118,-1,91,118,93,-1,93,118,116,-1,93,116,95,-1,95,116,114,-1,95,114,97,-1,97,114,112,-1,97,112,99,-1,99,112,110,-1,99,110,101,-1,101,110,108,-1,101,108,103,-1,103,108,107,-1,103,107,105,-1,
        ]
    }
}
Shape{
    appearance Appearance {
        material  Material 	{
            diffuseColor 1.0 1.0 1.0
            specularColor 0.8784313725490196 0.8784313725490196 0.8784313725490196
            ambientIntensity 1.0
            transparency 0.0
            shininess 0.5
        }
    }
    geometry IndexedFaceSet {
        ccw TRUE
        solid FALSE
        coord DEF co Coordinate {
            point [
                -0.1335 0.053 0.0118, -0.1642 -0.0257 0.0118, -0.1335 0.053 0.0039, -0.1642 -0.0257 0.0039, -0.1527 -0.0257 0.0118, -0.1527 -0.0257 0.0039, -0.1447 -0.0037 0.0118, -0.1447 -0.0037 0.0039, -0.1122 -0.0037 0.0118, -0.1122 -0.0037 0.0039, -0.1047 -0.0257 0.0118, -0.1047 -0.0257 0.0039, -0.0931 -0.0257 0.0118, -0.0931 -0.0257 0.0039, -0.1229 0.053 0.0118, -0.1229 0.053 0.0039, -0.1148 0.005 0.0118, -0.1412 0.005 0.0118, -0.1266 0.0379 0.0118, -0.1273 0.0406 0.0118, -0.1278 0.0434 0.0118, -0.1281 0.0434 0.0118, -0.1286 0.0406 0.0118, -0.1293 0.0379 0.0118, -0.1148 0.005 0.0039, -0.1412 0.005 0.0039, -0.1266 0.0379 0.0039, -0.1273 0.0406 0.0039, -0.1278 0.0434 0.0039, -0.1281 0.0434 0.0039, -0.1286 0.0406 0.0039, -0.1293 0.0379 0.0039, -0.0454 -0.0257 0.0118, -0.024 -0.0257 0.0118, -0.0454 -0.0257 0.0039, -0.024 -0.0257 0.0039, -0.024 0.053 0.0118, -0.024 0.053 0.0039, -0.0462 0.053 0.0118, -0.0462 0.053 0.0039, -0.0874 0.0146 0.0118, -0.0874 0.0146 0.0039, -0.0868 0.022 0.0039, -0.0868 0.022 0.0118, -0.0847 0.0298 0.0039, -0.0847 0.0298 0.0118, -0.081 0.0366 0.0039, -0.081 0.0366 0.0118, -0.0755 0.0427 0.0039, -0.0755 0.0427 0.0118, -0.0754 0.0428 0.0039, -0.0754 0.0428 0.0118, -0.0668 0.0485 0.0039, -0.0668 0.0485 0.0118, -0.0576 0.0518 0.0039, -0.0576 0.0518 0.0118, -0.0552 -0.0249 0.0039, -0.0552 -0.0249 0.0118, -0.0642 -0.0222 0.0039, -0.0642 -0.0222 0.0118, -0.0725 -0.0174 0.0039, -0.0725 -0.0174 0.0118, -0.0789 -0.0112 0.0039, -0.0789 -0.0112 0.0118, -0.0835 -0.0042 0.0039, -0.0835 -0.0042 0.0118, -0.0863 0.0041 0.0039, -0.0863 0.0041 0.0118, -0.0716 0.0333 0.0118, -0.0678 0.0374 0.0118, -0.062 0.0411 0.0118, -0.0555 0.0434 0.0118, -0.0462 0.0444 0.0118, -0.0346 0.0444 0.0118, -0.0346 -0.0171 0.0118, -0.0457 -0.0171 0.0118, -0.0541 -0.0163 0.0118, -0.0607 -0.0143 0.0118, -0.066 -0.0111 0.0118, -0.0705 -0.0067 0.0118, -0.0738 -0.0013 0.0118, -0.0761 0.0061 0.0118, -0.0768 0.0144 0.0118, -0.0762 0.0222 0.0118, -0.0743 0.0285 0.0118, -0.0462 0.0444 0.0039, -0.0346 0.0444 0.0039, -0.0555 0.0434 0.0039, -0.062 0.0411 0.0039, -0.0678 0.0374 0.0039, -0.0716 0.0333 0.0039, -0.0743 0.0285 0.0039, -0.0762 0.0222 0.0039, -0.0768 0.0144 0.0039, -0.0761 0.0061 0.0039, -0.0738 -0.0013 0.0039, -0.0705 -0.0067 0.0039, -0.066 -0.0111 0.0039, -0.0607 -0.0143 0.0039, -0.0541 -0.0163 0.0039, -0.0457 -0.0171 0.0039, -0.0346 -0.0171 0.0039, -0.0086 -0.0171 0.0118, -0.0086 -0.0257 0.0118, -0.0086 -0.0171 0.0039, -0.0086 -0.0257 0.0039, 0.0336 -0.0257 0.0118, 0.0336 -0.0257 0.0039, 0.0336 0.053 0.0118, 0.0336 0.053 0.0039, -0.0067 0.053 0.0118, -0.0067 0.053 0.0039, -0.0067 0.0444 0.0118, -0.0067 0.0444 0.0039, 0.023 0.0444 0.0118, 0.023 0.0444 0.0039, 0.023 0.0184 0.0118, 0.023 0.0184 0.0039, -0.0048 0.0184 0.0118, -0.0048 0.0184 0.0039, -0.0048 0.0098 0.0118, -0.0048 0.0098 0.0039, 0.023 0.0098 0.0118, 0.023 0.0098 0.0039, 0.023 -0.0171 0.0118, 0.023 -0.0171 0.0039, 0.049 -0.013 0.0118, 0.049 -0.0217 0.0118, 0.049 -0.013 0.0039, 0.049 -0.0217 0.0039, 0.0574 -0.0251 0.0118, 0.0706 -0.0267 0.0118, 0.0706 -0.0267 0.0039, 0.0685 -0.0267 0.0039, 0.0685 -0.0267 0.0118, 0.0653 -0.0262 0.0039, 0.0574 -0.0251 0.0039, 0.1075 0.0121 0.0118, 0.1075 0.0121 0.0039, 0.1068 0.003 0.0039, 0.1068 0.003 0.0118, 0.1044 -0.0053 0.0039, 0.1044 -0.0053 0.0118, 0.1002 -0.0128 0.0039, 0.1002 -0.0128 0.0118, 0.0943 -0.019 0.0039, 0.0943 -0.019 0.0118, 0.088 -0.0231 0.0039, 0.088 -0.0231 0.0118, 0.0803 -0.0257 0.0039, 0.0803 -0.0257 0.0118, 0.0753 -0.0262 0.0039, 0.0675 0.054 0.0118, 0.0675 0.054 0.0039, 0.0754 0.0533 0.0039, 0.0754 0.0533 0.0118, 0.0842 0.0508 0.0039, 0.0842 0.0508 0.0118, 0.0917 0.0465 0.0039, 0.0917 0.0465 0.0118, 0.0988 0.0396 0.0039, 0.0988 0.0396 0.0118, 0.1034 0.0323 0.0039, 0.1034 0.0323 0.0118, 0.1064 0.0233 0.0039, 0.1064 0.0233 0.0118, 0.049 0.0508 0.0118, 0.049 0.0508 0.0039, 0.0581 0.0533 0.0039, 0.0581 0.0533 0.0118, 0.049 0.0403 0.0118, 0.049 0.0403 0.0039, 0.0674 0.0453 0.0118, 0.0674 0.0453 0.0039, 0.0578 0.0441 0.0039, 0.0578 0.0441 0.0118, 0.097 0.0128 0.0118, 0.097 0.0128 0.0039, 0.0966 0.0189 0.0039, 0.0966 0.0189 0.0118, 0.0945 0.0273 0.0039, 0.0945 0.0273 0.0118, 0.0913 0.0334 0.0039, 0.0913 0.0334 0.0118, 0.0865 0.0387 0.0039, 0.0865 0.0387 0.0118, 0.0811 0.0423 0.0039, 0.0811 0.0423 0.0118, 0.0752 0.0444 0.0039, 0.0752 0.0444 0.0118, 0.0692 -0.0181 0.0118, 0.0692 -0.0181 0.0039, 0.0765 -0.0172 0.0039, 0.0765 -0.0172 0.0118, 0.0823 -0.0151 0.0039, 0.0823 -0.0151 0.0118, 0.0871 -0.0119 0.0039, 0.0871 -0.0119 0.0118, 0.0908 -0.008 0.0039, 0.0908 -0.008 0.0118, 0.094 -0.0025 0.0039, 0.094 -0.0025 0.0118, 0.0962 0.0043 0.0039, 0.0962 0.0043 0.0118, 0.0504 -0.0138 0.0039, 0.0504 -0.0138 0.0118, 0.0587 -0.0169 0.0039, 0.0587 -0.0169 0.0118, 0.1143 -0.0171 0.0118, 0.1143 -0.0257 0.0118, 0.1143 -0.0171 0.0039, 0.1143 -0.0257 0.0039, 0.1546 -0.0257 0.0118, 0.1546 -0.0257 0.0039, 0.1546 0.053 0.0118, 0.1546 0.053 0.0039, 0.144 0.053 0.0118, 0.144 0.053 0.0039, 0.144 -0.0171 0.0118, 0.144 -0.0171 0.0039
            ]
        }
        coordIndex [
            0,1,2,-1,2,1,3,-1,1,4,3,-1,3,4,5,-1,4,6,5,-1,5,6,7,-1,6,8,7,-1,7,8,9,-1,8,10,9,-1,9,10,11,-1,10,12,11,-1,11,12,13,-1,12,14,13,-1,13,14,15,-1,14,0,15,-1,15,0,2,-1,16,8,17,-1,17,8,6,-1,18,14,16,-1,16,14,12,-1,16,12,8,-1,8,12,10,-1,18,19,14,-1,14,19,20,-1,14,20,0,-1,0,20,21,-1,0,21,22,-1,22,23,0,-1,0,23,17,-1,0,17,1,-1,1,17,6,-1,1,6,4,-1,16,17,24,-1,24,17,25,-1,18,16,26,-1,26,16,24,-1,18,26,27,-1,18,27,19,-1,19,27,28,-1,19,28,20,-1,21,20,29,-1,29,20,28,-1,21,29,30,-1,21,30,22,-1,22,30,31,-1,22,31,23,-1,17,23,25,-1,25,23,31,-1,32,33,34,-1,34,33,35,-1,33,36,35,-1,35,36,37,-1,36,38,37,-1,37,38,39,-1,40,41,42,-1,40,42,43,-1,43,42,44,-1,43,44,45,-1,45,44,46,-1,45,46,47,-1,47,46,48,-1,47,48,49,-1,49,48,50,-1,49,50,51,-1,51,50,52,-1,51,52,53,-1,53,52,54,-1,53,54,55,-1,55,54,39,-1,55,39,38,-1,32,34,56,-1,32,56,57,-1,57,56,58,-1,57,58,59,-1,59,58,60,-1,59,60,61,-1,61,60,62,-1,61,62,63,-1,63,62,64,-1,63,64,65,-1,65,64,66,-1,65,66,67,-1,67,66,41,-1,67,41,40,-1,45,47,68,-1,68,47,49,-1,68,49,69,-1,69,49,51,-1,69,51,70,-1,70,51,53,-1,70,53,71,-1,71,53,55,-1,71,55,72,-1,72,55,38,-1,72,38,73,-1,73,38,36,-1,73,36,74,-1,74,36,33,-1,74,33,75,-1,75,33,32,-1,75,32,76,-1,76,32,57,-1,76,57,77,-1,77,57,59,-1,77,59,78,-1,78,59,61,-1,78,61,79,-1,79,61,63,-1,79,63,80,-1,80,63,65,-1,80,65,81,-1,81,65,67,-1,81,67,82,-1,82,67,40,-1,82,40,83,-1,83,40,43,-1,83,43,84,-1,84,43,45,-1,84,45,68,-1,72,73,85,-1,85,73,86,-1,72,85,87,-1,72,87,71,-1,71,87,88,-1,71,88,70,-1,70,88,89,-1,70,89,69,-1,69,89,90,-1,69,90,68,-1,68,90,91,-1,68,91,84,-1,84,91,92,-1,84,92,83,-1,83,92,93,-1,83,93,82,-1,82,93,94,-1,82,94,81,-1,81,94,95,-1,81,95,80,-1,80,95,96,-1,80,96,79,-1,79,96,97,-1,79,97,78,-1,78,97,98,-1,78,98,77,-1,77,98,99,-1,77,99,76,-1,76,99,100,-1,76,100,75,-1,74,75,101,-1,101,75,100,-1,73,74,86,-1,86,74,101,-1,102,103,104,-1,104,103,105,-1,103,106,105,-1,105,106,107,-1,106,108,107,-1,107,108,109,-1,108,110,109,-1,109,110,111,-1,110,112,111,-1,111,112,113,-1,112,114,113,-1,113,114,115,-1,114,116,115,-1,115,116,117,-1,116,118,117,-1,117,118,119,-1,118,120,119,-1,119,120,121,-1,120,122,121,-1,121,122,123,-1,122,124,123,-1,123,124,125,-1,124,102,125,-1,125,102,104,-1,106,103,102,-1,102,124,106,-1,106,124,122,-1,106,122,108,-1,112,110,114,-1,114,110,108,-1,114,108,116,-1,116,108,122,-1,116,122,118,-1,118,122,120,-1,126,127,128,-1,128,127,129,-1,129,127,130,-1,131,132,133,-1,131,133,134,-1,134,133,135,-1,134,135,130,-1,130,135,136,-1,130,136,129,-1,137,138,139,-1,137,139,140,-1,140,139,141,-1,140,141,142,-1,142,141,143,-1,142,143,144,-1,144,143,145,-1,144,145,146,-1,146,145,147,-1,146,147,148,-1,148,147,149,-1,148,149,150,-1,150,149,131,-1,131,149,151,-1,131,151,132,-1,152,153,154,-1,152,154,155,-1,155,154,156,-1,155,156,157,-1,157,156,158,-1,157,158,159,-1,159,158,160,-1,159,160,161,-1,161,160,162,-1,161,162,163,-1,163,162,164,-1,163,164,165,-1,165,164,138,-1,165,138,137,-1,166,167,168,-1,166,168,169,-1,169,168,153,-1,169,153,152,-1,166,170,167,-1,167,170,171,-1,172,173,174,-1,172,174,175,-1,175,174,171,-1,175,171,170,-1,176,177,178,-1,176,178,179,-1,179,178,180,-1,179,180,181,-1,181,180,182,-1,181,182,183,-1,183,182,184,-1,183,184,185,-1,185,184,186,-1,185,186,187,-1,187,186,188,-1,187,188,189,-1,189,188,173,-1,189,173,172,-1,190,191,192,-1,190,192,193,-1,193,192,194,-1,193,194,195,-1,195,194,196,-1,195,196,197,-1,197,196,198,-1,197,198,199,-1,199,198,200,-1,199,200,201,-1,201,200,202,-1,201,202,203,-1,203,202,177,-1,203,177,176,-1,126,128,204,-1,126,204,205,-1,205,204,206,-1,205,206,207,-1,207,206,191,-1,207,191,190,-1,193,131,190,-1,190,131,134,-1,190,134,207,-1,207,134,130,-1,207,130,205,-1,205,130,127,-1,205,127,126,-1,170,166,175,-1,175,166,169,-1,175,169,172,-1,172,169,152,-1,172,152,189,-1,189,152,155,-1,189,155,187,-1,187,155,157,-1,187,157,185,-1,185,157,159,-1,185,159,183,-1,183,159,161,-1,183,161,181,-1,181,161,163,-1,181,163,179,-1,179,163,165,-1,179,165,176,-1,176,165,137,-1,176,137,203,-1,203,137,140,-1,203,140,201,-1,201,140,142,-1,201,142,199,-1,199,142,144,-1,199,144,197,-1,197,144,146,-1,197,146,195,-1,195,146,148,-1,195,148,193,-1,193,148,150,-1,193,150,131,-1,208,209,210,-1,210,209,211,-1,209,212,211,-1,211,212,213,-1,212,214,213,-1,213,214,215,-1,214,216,215,-1,215,216,217,-1,216,218,217,-1,217,218,219,-1,218,208,219,-1,219,208,210,-1,216,214,218,-1,218,214,212,-1,218,212,208,-1,208,212,209,-1,
        ]
    }
}
Shape{
    appearance Appearance {
        material  Material 	{
            diffuseColor 0.7019607843137254 0.5058823529411764 0.21568627450980393
            specularColor 0.050980392156862744 0.03529411764705882 0.01568627450980392
            ambientIntensity 0.7602
            transparency 0.0
            shininess 0.5
        }
    }
    geometry IndexedFaceSet {
        ccw TRUE
        solid FALSE
        coord DEF co Coordinate {
            point [
                -0.1148 0.005 0.0039, -0.1412 0.005 0.0039, -0.1266 0.0379 0.0039, -0.1293 0.0379 0.0039, -0.1273 0.0406 0.0039, -0.1286 0.0406 0.0039, -0.1278 0.0434 0.0039, -0.1281 0.0434 0.0039, -0.0346 0.0444 0.0039, -0.0346 -0.0171 0.0039, -0.0462 0.0444 0.0039, -0.0457 -0.0171 0.0039, -0.0541 -0.0163 0.0039, -0.0768 0.0144 0.0039, -0.0762 0.0222 0.0039, -0.0743 0.0285 0.0039, -0.0555 0.0434 0.0039, -0.0607 -0.0143 0.0039, -0.066 -0.0111 0.0039, -0.0705 -0.0067 0.0039, -0.0738 -0.0013 0.0039, -0.0761 0.0061 0.0039, -0.0716 0.0333 0.0039, -0.0678 0.0374 0.0039, -0.062 0.0411 0.0039
            ]
        }
        coordIndex [
            0,1,2,-1,2,1,3,-1,2,3,4,-1,4,3,5,-1,4,5,6,-1,6,5,7,-1,8,9,10,-1,10,9,11,-1,10,11,12,-1,13,14,10,-1,10,14,15,-1,10,15,16,-1,12,17,10,-1,10,17,18,-1,10,18,19,-1,19,20,10,-1,10,20,21,-1,10,21,13,-1,22,23,15,-1,15,23,24,-1,15,24,16,-1,
        ]
    }
}