#VRML V2.0 utf8
# 3D model generated by easyeda2kicad.py (https://github.com/uPesy/easyeda2kicad.py)

Shape{
    appearance Appearance {
        material  Material 	{
            diffuseColor 0.11372549019607843 0.11372549019607843 0.11372549019607843
            specularColor 0.058823529411764705 0.058823529411764705 0.058823529411764705
            ambientIntensity 0.1137
            transparency 0.0
            shininess 0.5
        }
    }
    geometry IndexedFaceSet {
        ccw TRUE
        solid FALSE
        coord DEF co Coordinate {
            point [
                0.5906 -0.6201 1.189, 0.5906 -1.0138 1.189, 0.5906 -0.6201 3.1929, 0.5906 -1.0138 3.1929, -0.5906 -1.0138 1.189, -0.5906 -0.6201 1.189, -0.5906 -1.0138 3.1929, -0.5906 -0.6201 3.1929, 0.8031 0.6713 4.689, 0.8031 0.9862 4.689, -0.8031 0.6713 4.689, -0.8031 0.9862 4.689, -0.8031 0.5925 4.6102, -0.8031 0.5925 1.189, 0.8031 0.5925 4.6102, 0.8031 0.5925 1.189, -2.1083 0.5925 4.6102, -2.1083 0.5925 1.189, -1.1969 0.5925 4.6102, -1.1969 0.5925 1.189, 1.1063 -0.6201 4.6102, 2.1083 -0.6201 4.6102, 1.1063 -0.6201 3.1929, 2.1083 -0.6201 1.189, -1.0512 0.1914 0.189, -1.7943 0.1914 0.189, -1.7943 0.2726 0.189, -0.1446 -0.5768 0.189, -0.3647 -0.5768 0.189, -0.3647 0.1914 0.189, -1.7943 -1.0138 0.189, -1.9114 -1.0138 0.189, -1.9114 -0.5768 0.189, 0.3904 0.2746 0.189, 0.3904 0.4321 0.189, 0.9488 0.9862 0.189, 0.9488 0.2726 0.189, 0.3193 0.2726 0.189, 0.3193 0.2746 0.189, 0.3763 0.2908 0.189, 0.3193 0.2908 0.189, 0.3763 0.4321 0.189, 0.3228 0.6713 0.189, 0.5748 0.6713 0.189, 0.5748 0.9862 0.189, 0.3228 0.9862 0.189, 0.3193 0.9862 0.189, 0.3066 0.9862 0.189, 0.3157 0.2908 0.189, 0.3157 0.2746 0.189, 0.3066 0.2726 0.189, 0.9488 -1.0138 0.189, 0.5748 -1.0138 0.189, 0.9488 -0.5768 0.189, 0.5748 -0.6988 0.189, 0.3193 -0.5768 0.189, 0.3228 -0.6988 0.189, 1.3228 -1.0138 0.189, 1.3228 -0.6988 0.189, 1.5748 -0.6988 0.189, 1.9114 -0.5768 0.189, 1.5748 -1.0138 0.189, 1.9114 -1.0138 0.189, 1.5748 0.9862 0.189, 1.9114 0.9862 0.189, 1.5748 0.6713 0.189, 1.9114 0.2726 0.189, 1.3228 0.6713 0.189, 1.3228 0.9862 0.189, -1.0512 0.2726 0.189, -1.0512 0.9862 0.189, -0.6772 0.9862 0.189, -0.4252 0.9862 0.189, -0.3647 0.9862 0.189, -0.4252 0.6713 0.189, -0.3647 0.2726 0.189, -0.6772 0.6713 0.189, -1.4252 0.9862 0.189, -1.4252 0.6713 0.189, -1.6772 0.6713 0.189, -1.6772 -1.0138 0.189, -1.6772 -0.6988 0.189, -1.7943 -0.5768 0.189, -1.4252 -0.6988 0.189, -1.0512 -0.5768 0.189, -1.4252 -1.0138 0.189, -1.0512 -1.0138 0.189, -0.6772 -1.0138 0.189, -0.6772 -0.6988 0.189, -0.4252 -0.6988 0.189, -0.4252 -1.0138 0.189, -0.3647 -1.0138 0.189, 0.1279 0.2726 0.189, 0.1743 0.2788 0.189, 0.1922 0.2727 0.189, 0.2927 0.3243 0.189, 0.2975 0.3543 0.189, 0.2874 0.3945 0.189, 0.1279 0.9862 0.189, 0.1744 0.4281 0.189, 0.1582 0.4181 0.189, 0.149 0.4094 0.189, 0.1441 0.4032 0.189, 0.2486 0.4114 0.189, 0.273 0.3894 0.189, 0.2137 0.42 0.189, 0.2831 0.3596 0.189, 0.2834 0.3532 0.189, 0.2752 0.3208 0.189, 0.2535 0.298 0.189, 0.2226 0.2873 0.189, 0.2239 0.2726 0.189, 0.2483 0.277 0.189, 0.2636 0.2854 0.189, 0.2605 0.4229 0.189, 0.2198 0.4359 0.189, 0.2128 0.4361 0.189, 0.1441 0.3036 0.189, 0.1565 0.313 0.189, 0.1565 0.3937 0.189, 0.1816 0.2934 0.189, 0.182 0.4135 0.189, 0.2127 0.2867 0.189, 0.1968 0.4183 0.189, 0.2072 0.4197 0.189, 0.2726 0.2928 0.189, 0.2776 0.2981 0.189, 0.2047 0.2709 0.189, 0.2126 0.2706 0.189, 0.3066 0.1914 0.189, -0.1446 -1.0138 0.189, 0.0088 -1.0138 0.189, 1.9114 0.1914 0.189, 1.5748 0.1122 0.189, 1.3228 0.1122 0.189, 1.5748 -0.1398 0.189, 1.3228 -0.1398 0.189, 0.9488 0.1914 0.189, 0.3193 0.1914 0.189, 0.3228 -0.1398 0.189, 0.5748 -0.1398 0.189, 0.5748 0.1122 0.189, 0.3228 0.1122 0.189, 0.1927 0.2726 0.189, 0.1279 0.1914 0.189, 0.3066 -0.5768 0.189, 0.3193 -1.0138 0.189, 0.3228 -1.0138 0.189, -0.4252 0.1122 0.189, -0.4252 -0.1398 0.189, -0.6772 -0.1398 0.189, -0.6772 0.1122 0.189, -1.6772 0.1122 0.189, -1.6772 -0.1398 0.189, -1.4252 0.1122 0.189, -1.4252 -0.1398 0.189, 0.0088 0.2726 0.189, 0.1279 -1.0138 0.189, 0.0088 -0.5768 0.189, -0.1446 0.1914 0.189, -1.7943 0.9862 0.189, -1.6772 0.9862 0.189, 0.0229 0.416 0.189, 0.0229 0.4321 0.189, 0.0088 0.9862 0.189, 0.1118 0.4321 0.189, 0.0229 0.3514 0.189, 0.0977 0.3514 0.189, 0.0977 0.2908 0.189, 0.0229 0.2908 0.189, 0.0229 0.3675 0.189, 0.0977 0.3675 0.189, 0.0977 0.416 0.189, 0.0229 0.2746 0.189, 0.1118 0.2746 0.189, -0.1446 0.2726 0.189, -0.1028 0.2856 0.189, -0.0711 0.2755 0.189, -0.0871 0.4264 0.189, -0.1155 0.4073 0.189, -0.1446 0.9862 0.189, -0.0541 0.2746 0.189, 0.0088 0.1914 0.189, 0.1279 -0.5768 0.189, 0.3066 -1.0138 0.189, -0.1316 0.3762 0.189, -0.1345 0.3514 0.189, -0.1256 0.3118 0.189, -0.0053 0.2746 0.189, -0.0053 0.4321 0.189, -0.0371 0.4321 0.189, -0.0623 0.4311 0.189, -0.2888 0.2746 0.189, -0.2655 0.3251 0.189, -0.1941 0.3251 0.189, -0.1701 0.2746 0.189, -0.1547 0.2746 0.189, -0.2294 0.4321 0.189, -0.2314 0.4321 0.189, -0.3041 0.2746 0.189, -1.9114 0.1914 0.189, -1.9114 0.2726 0.189, -1.9114 0.9862 0.189, -0.8031 0.9862 1.189, -1.1969 0.9862 1.189, -0.6772 0.1122 1.189, -0.4252 0.1122 1.189, -0.4252 -0.1398 1.189, -0.6772 -0.1398 1.189, -2.1083 -0.6201 1.189, 0.5748 -0.1398 1.189, 0.3228 -0.1398 1.189, -1.4252 0.1122 1.189, -1.4252 -0.1398 1.189, -1.6772 -0.1398 1.189, -1.6772 0.1122 1.189, 1.1969 0.9862 1.189, 0.8031 0.9862 1.189, 1.1969 0.5925 1.189, 0.3228 0.1122 1.189, 0.5748 0.1122 1.189, 1.3228 0.1122 1.189, 2.1083 0.5925 1.189, 1.5748 0.1122 1.189, 1.5748 -0.1398 1.189, 1.3228 -0.1398 1.189, -2.1476 -1.0138 0.189, -2.502 -1.0138 0.189, -2.1476 0.9862 0.189, -2.502 0.9862 0.189, 2.502 0.9862 0.189, 2.502 -1.0138 0.189, 2.1476 0.9862 0.189, 2.1476 -1.0138 0.189, 2.502 0.9862 4.689, 2.502 -1.0138 4.689, 1.1969 0.9862 4.689, 1.3228 0.9862 0.3465, 0.5748 0.9862 0.3465, -0.4252 0.9862 0.3465, 1.5748 0.9862 0.3465, 2.0295 0.9862 0.0394, 0.3228 0.9862 0.3465, -0.6772 0.9862 0.3465, -1.4252 0.9862 0.3465, -2.502 0.9862 4.689, -1.1969 0.9862 4.689, -1.6772 0.9862 0.3465, -2.0295 0.9862 0.0394, -2.502 -1.0138 4.689, 1.5 -1.0138 4.689, -0.6772 -1.0138 0.3465, 1.1063 -1.0138 3.1929, 1.5 -1.0138 3.1929, -0.4252 -1.0138 0.3465, 2.0295 -1.0138 0.0394, -2.0295 -1.0138 0.0394, -1.4252 -1.0138 0.3465, -1.5 -1.0138 4.689, -1.5 -1.0138 3.1929, -1.6772 -1.0138 0.3465, -1.1063 -1.0138 3.1929, 0.3228 -1.0138 0.3465, 0.5748 -1.0138 0.3465, 1.5748 -1.0138 0.3465, 1.3228 -1.0138 0.3465, -1.1969 0.6713 4.689, -2.187 0.6713 4.689, -2.187 -0.6988 4.689, -1.185 -0.6988 4.689, -1.185 -1.2972 4.689, -1.5 -1.6122 4.689, 1.185 -1.2972 4.689, 1.5 -1.6122 4.689, 1.185 -0.6988 4.689, 2.187 -0.6988 4.689, 2.187 0.6713 4.689, 1.1969 0.6713 4.689, 1.1063 -1.2185 3.1929, 1.5 -1.6122 3.1929, -1.1063 -1.2185 3.1929, -1.5 -1.6122 3.1929, -2.1083 -0.6201 4.6102, 1.1969 0.5925 4.6102, 2.1083 0.5925 4.6102, -1.1063 -0.6201 3.1929, -1.1063 -0.6201 4.6102
            ]
        }
        coordIndex [
            0,1,2,-1,2,1,3,-1,4,5,6,-1,6,5,7,-1,8,9,10,-1,10,9,11,-1,12,13,14,-1,14,13,15,-1,16,17,18,-1,18,17,19,-1,20,21,22,-1,22,21,23,-1,22,23,2,-1,2,23,0,-1,24,25,26,-1,27,28,29,-1,30,31,32,-1,33,34,35,-1,35,36,33,-1,33,36,37,-1,33,37,38,-1,39,40,41,-1,41,40,42,-1,41,42,34,-1,34,42,43,-1,34,43,35,-1,35,43,44,-1,45,42,46,-1,46,42,40,-1,46,40,47,-1,47,40,48,-1,38,37,49,-1,49,37,50,-1,49,50,48,-1,51,52,53,-1,53,52,54,-1,53,54,55,-1,55,54,56,-1,57,51,58,-1,58,51,53,-1,58,53,59,-1,59,53,60,-1,59,60,61,-1,61,60,62,-1,63,64,65,-1,65,64,66,-1,65,66,67,-1,67,66,36,-1,67,36,68,-1,68,36,35,-1,69,70,71,-1,72,73,74,-1,74,73,75,-1,74,75,76,-1,77,70,78,-1,78,70,69,-1,78,69,79,-1,80,30,81,-1,81,30,82,-1,81,82,83,-1,83,82,84,-1,83,84,85,-1,85,84,86,-1,87,86,88,-1,88,86,84,-1,88,84,89,-1,89,84,28,-1,89,28,90,-1,90,28,91,-1,92,93,94,-1,95,96,50,-1,48,50,47,-1,47,50,96,-1,47,96,97,-1,98,99,100,-1,100,101,98,-1,98,101,102,-1,98,102,92,-1,103,104,105,-1,105,104,106,-1,105,106,107,-1,107,108,105,-1,105,108,109,-1,105,109,110,-1,111,112,50,-1,50,112,113,-1,97,114,47,-1,47,114,115,-1,47,115,98,-1,98,115,116,-1,98,116,99,-1,93,92,117,-1,117,92,102,-1,117,102,118,-1,118,102,119,-1,118,119,120,-1,120,119,121,-1,120,121,122,-1,122,121,123,-1,122,123,110,-1,110,123,124,-1,110,124,105,-1,113,125,50,-1,50,125,126,-1,50,126,95,-1,127,128,129,-1,91,28,130,-1,130,28,27,-1,130,27,131,-1,132,133,134,-1,133,132,135,-1,135,132,60,-1,135,60,136,-1,136,60,53,-1,136,53,134,-1,134,53,137,-1,134,137,132,-1,129,138,55,-1,55,138,139,-1,55,139,53,-1,53,139,140,-1,53,140,137,-1,137,140,141,-1,137,141,138,-1,138,141,142,-1,138,142,139,-1,143,127,144,-1,144,127,129,-1,144,129,145,-1,145,129,55,-1,145,55,146,-1,146,55,56,-1,146,56,147,-1,148,29,149,-1,149,29,28,-1,149,28,150,-1,150,28,84,-1,150,84,151,-1,151,84,24,-1,25,152,153,-1,152,25,154,-1,154,25,24,-1,154,24,155,-1,155,24,84,-1,155,84,153,-1,153,84,82,-1,153,82,25,-1,128,111,129,-1,129,111,50,-1,129,50,138,-1,138,50,37,-1,138,37,137,-1,137,37,36,-1,137,36,132,-1,132,36,66,-1,94,143,92,-1,92,143,144,-1,92,144,156,-1,157,131,158,-1,158,131,27,-1,158,27,159,-1,159,27,29,-1,159,29,75,-1,75,29,69,-1,75,69,76,-1,76,69,71,-1,148,151,29,-1,29,151,24,-1,29,24,69,-1,69,24,26,-1,69,26,79,-1,79,26,160,-1,79,160,161,-1,162,156,163,-1,163,156,164,-1,163,164,165,-1,166,167,168,-1,168,169,166,-1,166,169,156,-1,166,156,170,-1,170,156,162,-1,170,162,171,-1,171,162,172,-1,169,173,156,-1,156,173,174,-1,156,174,92,-1,92,174,165,-1,92,165,98,-1,98,165,164,-1,175,176,177,-1,178,179,180,-1,177,181,175,-1,175,181,156,-1,175,156,182,-1,182,156,144,-1,182,144,183,-1,183,144,145,-1,183,145,184,-1,184,145,146,-1,179,185,180,-1,180,185,186,-1,180,186,175,-1,175,186,187,-1,175,187,176,-1,181,188,156,-1,156,188,189,-1,156,189,164,-1,164,189,190,-1,164,190,180,-1,180,190,191,-1,180,191,178,-1,184,157,183,-1,183,157,158,-1,183,158,182,-1,182,158,159,-1,182,159,175,-1,175,159,75,-1,175,75,192,-1,193,194,192,-1,192,194,195,-1,192,195,175,-1,175,195,196,-1,175,196,180,-1,180,196,197,-1,180,197,73,-1,73,197,198,-1,73,198,75,-1,75,198,199,-1,75,199,192,-1,30,32,82,-1,82,32,200,-1,82,200,25,-1,25,200,201,-1,25,201,26,-1,26,201,202,-1,26,202,160,-1,203,204,13,-1,13,204,19,-1,205,206,15,-1,15,206,207,-1,208,209,207,-1,207,209,5,-1,207,5,15,-1,0,210,211,-1,15,13,205,-1,205,13,212,-1,205,212,208,-1,208,212,213,-1,208,213,209,-1,209,213,214,-1,209,214,17,-1,17,214,215,-1,17,215,19,-1,19,215,212,-1,19,212,13,-1,216,217,218,-1,218,217,15,-1,1,0,4,-1,4,0,211,-1,4,211,5,-1,5,211,219,-1,5,219,15,-1,15,219,220,-1,15,220,218,-1,218,220,221,-1,218,221,222,-1,222,221,223,-1,222,223,23,-1,23,223,224,-1,23,224,0,-1,0,224,225,-1,0,225,210,-1,210,225,221,-1,210,221,220,-1,226,227,228,-1,228,227,229,-1,230,231,232,-1,232,231,233,-1,234,235,230,-1,230,235,231,-1,216,236,234,-1,237,68,217,-1,217,68,35,-1,35,44,238,-1,73,72,239,-1,63,240,64,-1,64,240,232,-1,64,232,241,-1,237,217,240,-1,240,217,216,-1,240,216,232,-1,232,216,234,-1,232,234,230,-1,11,9,203,-1,203,9,217,-1,45,46,242,-1,242,46,47,-1,35,238,217,-1,217,238,242,-1,217,242,203,-1,203,242,239,-1,203,239,204,-1,239,243,204,-1,204,243,71,-1,204,71,70,-1,70,77,244,-1,245,246,204,-1,247,161,160,-1,47,98,242,-1,242,98,164,-1,242,164,239,-1,239,164,180,-1,239,180,73,-1,70,244,204,-1,204,244,247,-1,204,247,245,-1,245,247,160,-1,245,160,202,-1,202,248,245,-1,245,248,228,-1,245,228,229,-1,249,245,227,-1,227,245,229,-1,231,235,250,-1,86,87,251,-1,3,233,252,-1,252,233,231,-1,252,231,253,-1,253,231,250,-1,251,254,1,-1,3,1,233,-1,233,1,62,-1,233,62,255,-1,227,226,249,-1,249,226,256,-1,85,86,257,-1,257,86,251,-1,257,251,4,-1,4,251,1,-1,254,90,91,-1,258,249,259,-1,259,249,260,-1,259,260,261,-1,261,260,257,-1,261,257,6,-1,6,257,4,-1,256,31,249,-1,249,31,30,-1,249,30,260,-1,260,30,80,-1,130,131,262,-1,262,131,157,-1,52,51,263,-1,263,51,1,-1,263,1,262,-1,262,1,254,-1,262,254,130,-1,130,254,91,-1,61,62,264,-1,264,62,1,-1,264,1,265,-1,265,1,51,-1,265,51,57,-1,157,184,262,-1,262,184,146,-1,262,146,147,-1,266,246,267,-1,267,246,245,-1,267,245,268,-1,268,245,249,-1,268,249,269,-1,269,249,258,-1,269,258,270,-1,270,258,271,-1,270,271,272,-1,272,271,273,-1,272,273,274,-1,274,273,250,-1,274,250,275,-1,275,250,235,-1,275,235,276,-1,276,235,234,-1,276,234,277,-1,277,234,236,-1,252,253,278,-1,278,253,279,-1,278,279,280,-1,280,279,281,-1,280,281,261,-1,261,281,259,-1,271,281,273,-1,273,281,279,-1,259,281,258,-1,258,281,271,-1,279,253,273,-1,273,253,250,-1,282,209,16,-1,16,209,17,-1,283,218,284,-1,284,218,222,-1,284,222,21,-1,21,222,23,-1,7,5,285,-1,285,5,209,-1,285,209,286,-1,286,209,282,-1,233,255,232,-1,232,255,241,-1,62,60,255,-1,255,60,132,-1,255,132,241,-1,241,132,66,-1,241,66,64,-1,256,226,248,-1,248,226,228,-1,202,201,248,-1,248,201,200,-1,248,200,256,-1,256,200,32,-1,256,32,31,-1,
        ]
    }
}
Shape{
    appearance Appearance {
        material  Material 	{
            diffuseColor 0.7529411764705882 0.7529411764705882 0.7529411764705882
            specularColor 0.3764705882352941 0.3764705882352941 0.3764705882352941
            ambientIntensity 0.7529
            transparency 0.0
            shininess 0.5
        }
    }
    geometry IndexedFaceSet {
        ccw TRUE
        solid FALSE
        coord DEF co Coordinate {
            point [
                -1.6772 -0.061 3.5906, -1.6772 -0.1398 3.5118, -1.4252 -0.061 3.5906, -1.4252 -0.1398 3.5118, -1.6772 0.0335 3.5906, -1.4252 0.0335 3.5906, -1.6772 0.1122 3.5118, -1.4252 0.1122 3.5118, -1.6772 -0.1398 1.189, -1.6772 0.1122 1.189, -1.4252 0.1122 1.189, -1.4252 -0.1398 1.189, -1.6772 -0.1398 0.189, -1.6772 -0.1398 -1.1811, -1.4252 -0.1398 0.189, -1.4252 -0.1398 -1.1811, -1.4252 0.1122 0.189, -1.4252 0.1122 -1.1811, -1.6772 0.1122 0.189, -1.6772 0.1122 -1.1811, -1.6772 0.0335 -1.2598, -1.6772 -0.061 -1.2598, -1.4252 -0.061 -1.2598, -1.4252 0.0335 -1.2598
            ]
        }
        coordIndex [
            0,1,2,-1,2,1,3,-1,4,0,5,-1,5,0,2,-1,6,4,7,-1,7,4,5,-1,0,4,1,-1,1,4,6,-1,1,6,8,-1,8,6,9,-1,5,2,7,-1,7,2,3,-1,7,3,10,-1,10,3,11,-1,9,6,10,-1,10,6,7,-1,11,3,8,-1,8,3,1,-1,12,13,14,-1,14,13,15,-1,16,17,18,-1,18,17,19,-1,20,21,19,-1,19,21,13,-1,19,13,18,-1,18,13,12,-1,22,23,15,-1,15,23,17,-1,15,17,14,-1,14,17,16,-1,20,19,23,-1,23,19,17,-1,21,20,22,-1,22,20,23,-1,13,21,15,-1,15,21,22,-1,
        ]
    }
}
Shape{
    appearance Appearance {
        material  Material 	{
            diffuseColor 0.11372549019607843 0.11372549019607843 0.11372549019607843
            specularColor 0.058823529411764705 0.058823529411764705 0.058823529411764705
            ambientIntensity 0.1137
            transparency 0.0
            shininess 0.5
        }
    }
    geometry IndexedFaceSet {
        ccw TRUE
        solid FALSE
        coord DEF co Coordinate {
            point [
                -1.4252 -1.0138 0.3465, -1.4252 -0.6988 0.3465, -1.4252 -1.0138 0.189, -1.4252 -0.6988 0.189, -1.6772 -0.6988 0.3465, -1.6772 -0.6988 0.189, -1.6772 -1.0138 0.3465, -1.6772 -1.0138 0.189, -1.4252 0.6713 0.3465, -1.4252 0.9862 0.3465, -1.4252 0.6713 0.189, -1.4252 0.9862 0.189, -1.6772 0.9862 0.3465, -1.6772 0.6713 0.3465, -1.6772 0.9862 0.189, -1.6772 0.6713 0.189
            ]
        }
        coordIndex [
            0,1,2,-1,2,1,3,-1,1,4,3,-1,3,4,5,-1,4,6,5,-1,5,6,7,-1,6,4,0,-1,0,4,1,-1,8,9,10,-1,10,9,11,-1,12,13,14,-1,14,13,15,-1,13,8,15,-1,15,8,10,-1,13,12,8,-1,8,12,9,-1,
        ]
    }
}
Shape{
    appearance Appearance {
        material  Material 	{
            diffuseColor 0.7529411764705882 0.7529411764705882 0.7529411764705882
            specularColor 0.3764705882352941 0.3764705882352941 0.3764705882352941
            ambientIntensity 0.7529
            transparency 0.0
            shininess 0.5
        }
    }
    geometry IndexedFaceSet {
        ccw TRUE
        solid FALSE
        coord DEF co Coordinate {
            point [
                -0.6772 -0.1398 0.189, -0.6772 -0.1398 -1.1811, -0.4252 -0.1398 0.189, -0.4252 -0.1398 -1.1811, -0.6772 0.0335 -1.2598, -0.6772 -0.061 -1.2598, -0.6772 0.1122 -1.1811, -0.6772 0.1122 0.189, -0.4252 0.1122 0.189, -0.4252 0.1122 -1.1811, -0.4252 -0.061 -1.2598, -0.4252 0.0335 -1.2598, 0.3228 -0.1398 0.189, 0.3228 -0.1398 -1.1811, 0.5748 -0.1398 0.189, 0.5748 -0.1398 -1.1811, 0.3228 0.0335 -1.2598, 0.3228 -0.061 -1.2598, 0.3228 0.1122 -1.1811, 0.3228 0.1122 0.189, 0.5748 0.1122 0.189, 0.5748 0.1122 -1.1811, 0.5748 -0.061 -1.2598, 0.5748 0.0335 -1.2598, 1.3228 -0.1398 0.189, 1.3228 -0.1398 -1.1811, 1.5748 -0.1398 0.189, 1.5748 -0.1398 -1.1811, 1.3228 0.0335 -1.2598, 1.3228 -0.061 -1.2598, 1.3228 0.1122 -1.1811, 1.3228 0.1122 0.189, 1.5748 0.1122 0.189, 1.5748 0.1122 -1.1811, 1.5748 -0.061 -1.2598, 1.5748 0.0335 -1.2598, -0.6772 -0.061 3.5906, -0.6772 -0.1398 3.5118, -0.4252 -0.061 3.5906, -0.4252 -0.1398 3.5118, -0.6772 0.0335 3.5906, -0.4252 0.0335 3.5906, -0.6772 0.1122 3.5118, -0.4252 0.1122 3.5118, -0.6772 -0.1398 1.189, -0.6772 0.1122 1.189, -0.4252 0.1122 1.189, -0.4252 -0.1398 1.189, 0.3228 -0.061 3.5906, 0.3228 -0.1398 3.5118, 0.5748 -0.061 3.5906, 0.5748 -0.1398 3.5118, 0.3228 0.0335 3.5906, 0.5748 0.0335 3.5906, 0.3228 0.1122 3.5118, 0.5748 0.1122 3.5118, 0.3228 -0.1398 1.189, 0.3228 0.1122 1.189, 0.5748 0.1122 1.189, 0.5748 -0.1398 1.189, 1.3228 -0.061 3.5906, 1.3228 -0.1398 3.5118, 1.5748 -0.061 3.5906, 1.5748 -0.1398 3.5118, 1.3228 0.0335 3.5906, 1.5748 0.0335 3.5906, 1.3228 0.1122 3.5118, 1.5748 0.1122 3.5118, 1.3228 -0.1398 1.189, 1.3228 0.1122 1.189, 1.5748 0.1122 1.189, 1.5748 -0.1398 1.189
            ]
        }
        coordIndex [
            0,1,2,-1,2,1,3,-1,4,5,6,-1,6,5,1,-1,6,1,7,-1,7,1,0,-1,8,9,7,-1,7,9,6,-1,10,11,3,-1,3,11,9,-1,3,9,2,-1,2,9,8,-1,4,6,11,-1,11,6,9,-1,5,4,10,-1,10,4,11,-1,1,5,3,-1,3,5,10,-1,12,13,14,-1,14,13,15,-1,16,17,18,-1,18,17,13,-1,18,13,19,-1,19,13,12,-1,20,21,19,-1,19,21,18,-1,22,23,15,-1,15,23,21,-1,15,21,14,-1,14,21,20,-1,16,18,23,-1,23,18,21,-1,17,16,22,-1,22,16,23,-1,13,17,15,-1,15,17,22,-1,24,25,26,-1,26,25,27,-1,28,29,30,-1,30,29,25,-1,30,25,31,-1,31,25,24,-1,32,33,31,-1,31,33,30,-1,34,35,27,-1,27,35,33,-1,27,33,26,-1,26,33,32,-1,28,30,35,-1,35,30,33,-1,29,28,34,-1,34,28,35,-1,25,29,27,-1,27,29,34,-1,36,37,38,-1,38,37,39,-1,40,36,41,-1,41,36,38,-1,42,40,43,-1,43,40,41,-1,36,40,37,-1,37,40,42,-1,37,42,44,-1,44,42,45,-1,45,42,46,-1,46,42,43,-1,41,38,43,-1,43,38,39,-1,43,39,46,-1,46,39,47,-1,47,39,44,-1,44,39,37,-1,48,49,50,-1,50,49,51,-1,52,48,53,-1,53,48,50,-1,54,52,55,-1,55,52,53,-1,48,52,49,-1,49,52,54,-1,49,54,56,-1,56,54,57,-1,57,54,58,-1,58,54,55,-1,53,50,55,-1,55,50,51,-1,55,51,58,-1,58,51,59,-1,59,51,56,-1,56,51,49,-1,60,61,62,-1,62,61,63,-1,64,60,65,-1,65,60,62,-1,66,64,67,-1,67,64,65,-1,60,64,61,-1,61,64,66,-1,61,66,68,-1,68,66,69,-1,69,66,70,-1,70,66,67,-1,65,62,67,-1,67,62,63,-1,67,63,70,-1,70,63,71,-1,71,63,68,-1,68,63,61,-1,
        ]
    }
}
Shape{
    appearance Appearance {
        material  Material 	{
            diffuseColor 0.11372549019607843 0.11372549019607843 0.11372549019607843
            specularColor 0.058823529411764705 0.058823529411764705 0.058823529411764705
            ambientIntensity 0.1137
            transparency 0.0
            shininess 0.5
        }
    }
    geometry IndexedFaceSet {
        ccw TRUE
        solid FALSE
        coord DEF co Coordinate {
            point [
                1.5748 0.6713 0.3465, 1.5748 0.9862 0.3465, 1.5748 0.6713 0.189, 1.5748 0.9862 0.189, 1.3228 0.9862 0.3465, 1.3228 0.6713 0.3465, 1.3228 0.9862 0.189, 1.3228 0.6713 0.189, 0.5748 0.6713 0.3465, 0.5748 0.9862 0.3465, 0.5748 0.6713 0.189, 0.5748 0.9862 0.189, 0.3228 0.9862 0.3465, 0.3228 0.6713 0.3465, 0.3228 0.9862 0.189, 0.3228 0.6713 0.189, -0.4252 0.6713 0.3465, -0.4252 0.9862 0.3465, -0.4252 0.6713 0.189, -0.4252 0.9862 0.189, -0.6772 0.9862 0.3465, -0.6772 0.6713 0.3465, -0.6772 0.9862 0.189, -0.6772 0.6713 0.189, 1.5748 -1.0138 0.3465, 1.5748 -0.6988 0.3465, 1.5748 -1.0138 0.189, 1.5748 -0.6988 0.189, 1.3228 -0.6988 0.3465, 1.3228 -0.6988 0.189, 1.3228 -1.0138 0.3465, 1.3228 -1.0138 0.189, 0.5748 -1.0138 0.3465, 0.5748 -0.6988 0.3465, 0.5748 -1.0138 0.189, 0.5748 -0.6988 0.189, 0.3228 -0.6988 0.3465, 0.3228 -0.6988 0.189, 0.3228 -1.0138 0.3465, 0.3228 -1.0138 0.189, -0.4252 -1.0138 0.3465, -0.4252 -0.6988 0.3465, -0.4252 -1.0138 0.189, -0.4252 -0.6988 0.189, -0.6772 -0.6988 0.3465, -0.6772 -0.6988 0.189, -0.6772 -1.0138 0.3465, -0.6772 -1.0138 0.189
            ]
        }
        coordIndex [
            0,1,2,-1,2,1,3,-1,4,5,6,-1,6,5,7,-1,5,0,7,-1,7,0,2,-1,5,4,0,-1,0,4,1,-1,8,9,10,-1,10,9,11,-1,12,13,14,-1,14,13,15,-1,13,8,15,-1,15,8,10,-1,13,12,8,-1,8,12,9,-1,16,17,18,-1,18,17,19,-1,20,21,22,-1,22,21,23,-1,21,16,23,-1,23,16,18,-1,21,20,16,-1,16,20,17,-1,24,25,26,-1,26,25,27,-1,25,28,27,-1,27,28,29,-1,28,30,29,-1,29,30,31,-1,30,28,24,-1,24,28,25,-1,32,33,34,-1,34,33,35,-1,33,36,35,-1,35,36,37,-1,36,38,37,-1,37,38,39,-1,38,36,32,-1,32,36,33,-1,40,41,42,-1,42,41,43,-1,41,44,43,-1,43,44,45,-1,44,46,45,-1,45,46,47,-1,46,44,40,-1,40,44,41,-1,
        ]
    }
}
Shape{
    appearance Appearance {
        material  Material 	{
            diffuseColor 0.7529411764705882 0.7529411764705882 0.7529411764705882
            specularColor 0.3764705882352941 0.3764705882352941 0.3764705882352941
            ambientIntensity 0.7529
            transparency 0.0
            shininess 0.5
        }
    }
    geometry IndexedFaceSet {
        ccw TRUE
        solid FALSE
        coord DEF co Coordinate {
            point [
                -0.2294 0.4321 0.2283, -0.2314 0.4321 0.2283, -0.2294 0.4321 0.189, -0.2314 0.4321 0.189, -0.3041 0.2746 0.2283, -0.3041 0.2746 0.189, -0.2888 0.2746 0.2283, -0.2888 0.2746 0.189, -0.2655 0.3251 0.2283, -0.2655 0.3251 0.189, -0.1941 0.3251 0.2283, -0.1941 0.3251 0.189, -0.1701 0.2746 0.2283, -0.1701 0.2746 0.189, -0.1547 0.2746 0.2283, -0.1547 0.2746 0.189, -0.258 0.3413 0.2283, -0.2018 0.3413 0.2283, -0.2303 0.4014 0.2283, -0.258 0.3413 0.189, -0.2303 0.4014 0.189, -0.2018 0.3413 0.189, -0.0541 0.2746 0.2283, -0.0053 0.2746 0.2283, -0.0541 0.2746 0.189, -0.0053 0.2746 0.189, -0.0053 0.4321 0.2283, -0.0053 0.4321 0.189, -0.0371 0.4321 0.2283, -0.0371 0.4321 0.189, -0.0871 0.4264 0.2283, -0.0871 0.4264 0.189, -0.0623 0.4311 0.189, -0.0623 0.4311 0.2283, -0.1345 0.3514 0.2283, -0.1345 0.3514 0.189, -0.1316 0.3762 0.189, -0.1316 0.3762 0.2283, -0.1155 0.4073 0.189, -0.1155 0.4073 0.2283, -0.0711 0.2755 0.189, -0.0711 0.2755 0.2283, -0.1028 0.2856 0.189, -0.1028 0.2856 0.2283, -0.1256 0.3118 0.189, -0.1256 0.3118 0.2283, -0.1179 0.3318 0.2283, -0.105 0.3088 0.2283, -0.0825 0.2948 0.2283, -0.0602 0.2914 0.2283, -0.0375 0.2908 0.2283, -0.0195 0.2908 0.2283, -0.0195 0.416 0.2283, -0.0305 0.416 0.2283, -0.0549 0.4152 0.2283, -0.0789 0.4115 0.2283, -0.0963 0.4031 0.2283, -0.1135 0.3829 0.2283, -0.1204 0.3514 0.2283, -0.0195 0.416 0.189, -0.0195 0.2908 0.189, -0.0305 0.416 0.189, -0.0549 0.4152 0.189, -0.0789 0.4115 0.189, -0.0963 0.4031 0.189, -0.1135 0.3829 0.189, -0.1204 0.3514 0.189, -0.1179 0.3318 0.189, -0.105 0.3088 0.189, -0.0825 0.2948 0.189, -0.0602 0.2914 0.189, -0.0375 0.2908 0.189, 0.1118 0.2746 0.2283, 0.1118 0.4321 0.2283, 0.1118 0.2746 0.189, 0.1118 0.4321 0.189, 0.0229 0.4321 0.2283, 0.0229 0.4321 0.189, 0.0229 0.416 0.2283, 0.0229 0.416 0.189, 0.0977 0.416 0.2283, 0.0977 0.416 0.189, 0.0977 0.3675 0.2283, 0.0977 0.3675 0.189, 0.0229 0.3675 0.2283, 0.0229 0.3675 0.189, 0.0229 0.3514 0.2283, 0.0229 0.3514 0.189, 0.0977 0.3514 0.2283, 0.0977 0.3514 0.189, 0.0977 0.2908 0.2283, 0.0977 0.2908 0.189, 0.0229 0.2908 0.2283, 0.0229 0.2908 0.189, 0.0229 0.2746 0.2283, 0.0229 0.2746 0.189, 0.1441 0.4032 0.2283, 0.1441 0.4032 0.189, 0.149 0.4094 0.189, 0.149 0.4094 0.2283, 0.1582 0.4181 0.189, 0.1582 0.4181 0.2283, 0.1744 0.4281 0.189, 0.1744 0.4281 0.2283, 0.2128 0.4361 0.189, 0.2128 0.4361 0.2283, 0.1565 0.3937 0.2283, 0.1565 0.3937 0.189, 0.2137 0.42 0.2283, 0.2137 0.42 0.189, 0.2072 0.4197 0.189, 0.2072 0.4197 0.2283, 0.1968 0.4183 0.189, 0.1968 0.4183 0.2283, 0.182 0.4135 0.189, 0.182 0.4135 0.2283, 0.2834 0.3532 0.2283, 0.2834 0.3532 0.189, 0.2831 0.3596 0.189, 0.2831 0.3596 0.2283, 0.273 0.3894 0.189, 0.273 0.3894 0.2283, 0.2486 0.4114 0.189, 0.2486 0.4114 0.2283, 0.2127 0.2867 0.2283, 0.2127 0.2867 0.189, 0.2226 0.2873 0.189, 0.2226 0.2873 0.2283, 0.2535 0.298 0.189, 0.2535 0.298 0.2283, 0.2752 0.3208 0.189, 0.2752 0.3208 0.2283, 0.1565 0.313 0.2283, 0.1565 0.313 0.189, 0.1816 0.2934 0.189, 0.1816 0.2934 0.2283, 0.1441 0.3036 0.2283, 0.1441 0.3036 0.189, 0.2126 0.2706 0.2283, 0.2126 0.2706 0.189, 0.2047 0.2709 0.189, 0.2047 0.2709 0.2283, 0.1927 0.2726 0.189, 0.1922 0.2727 0.2283, 0.1922 0.2727 0.189, 0.1743 0.2788 0.189, 0.1743 0.2788 0.2283, 0.2239 0.2726 0.189, 0.2483 0.277 0.2283, 0.2483 0.277 0.189, 0.2636 0.2854 0.2283, 0.2636 0.2854 0.189, 0.2726 0.2928 0.2283, 0.2726 0.2928 0.189, 0.2776 0.2981 0.2283, 0.2776 0.2981 0.189, 0.2975 0.3543 0.2283, 0.2975 0.3543 0.189, 0.2927 0.3243 0.189, 0.2927 0.3243 0.2283, 0.2198 0.4359 0.189, 0.2198 0.4359 0.2283, 0.2605 0.4229 0.189, 0.2605 0.4229 0.2283, 0.2874 0.3945 0.189, 0.2874 0.3945 0.2283, 0.3904 0.2746 0.2283, 0.3904 0.4321 0.2283, 0.3904 0.2746 0.189, 0.3904 0.4321 0.189, 0.3763 0.4321 0.2283, 0.3763 0.4321 0.189, 0.3763 0.2908 0.2283, 0.3763 0.2908 0.189, 0.3193 0.2908 0.189, 0.3157 0.2908 0.2283, 0.3157 0.2908 0.189, 0.3157 0.2746 0.2283, 0.3157 0.2746 0.189, 0.3193 0.2746 0.189
            ]
        }
        coordIndex [
            0,1,2,-1,2,1,3,-1,1,4,3,-1,3,4,5,-1,4,6,5,-1,5,6,7,-1,6,8,7,-1,7,8,9,-1,8,10,9,-1,9,10,11,-1,10,12,11,-1,11,12,13,-1,12,14,13,-1,13,14,15,-1,14,0,15,-1,15,0,2,-1,16,4,1,-1,0,17,1,-1,1,17,18,-1,1,18,16,-1,14,12,10,-1,6,4,8,-1,8,4,16,-1,8,16,10,-1,10,16,17,-1,10,17,14,-1,14,17,0,-1,16,18,19,-1,19,18,20,-1,17,16,21,-1,21,16,19,-1,18,17,20,-1,20,17,21,-1,22,23,24,-1,24,23,25,-1,23,26,25,-1,25,26,27,-1,26,28,27,-1,27,28,29,-1,30,31,32,-1,30,32,33,-1,33,32,29,-1,33,29,28,-1,34,35,36,-1,34,36,37,-1,37,36,38,-1,37,38,39,-1,39,38,31,-1,39,31,30,-1,22,24,40,-1,22,40,41,-1,41,40,42,-1,41,42,43,-1,43,42,44,-1,43,44,45,-1,45,44,35,-1,45,35,34,-1,46,47,43,-1,43,47,48,-1,43,48,41,-1,41,48,49,-1,41,49,22,-1,22,49,50,-1,22,50,23,-1,23,50,51,-1,23,51,26,-1,26,51,52,-1,26,52,28,-1,28,52,53,-1,28,53,33,-1,33,53,54,-1,33,54,30,-1,30,54,55,-1,30,55,39,-1,39,55,56,-1,39,56,37,-1,37,56,57,-1,37,57,34,-1,34,57,58,-1,34,58,45,-1,45,58,46,-1,45,46,43,-1,52,51,59,-1,59,51,60,-1,53,52,61,-1,61,52,59,-1,53,61,62,-1,53,62,54,-1,54,62,63,-1,54,63,55,-1,55,63,64,-1,55,64,56,-1,56,64,65,-1,56,65,57,-1,57,65,66,-1,57,66,58,-1,58,66,67,-1,58,67,46,-1,46,67,68,-1,46,68,47,-1,47,68,69,-1,47,69,48,-1,48,69,70,-1,48,70,49,-1,49,70,71,-1,49,71,50,-1,51,50,60,-1,60,50,71,-1,72,73,74,-1,74,73,75,-1,73,76,75,-1,75,76,77,-1,76,78,77,-1,77,78,79,-1,78,80,79,-1,79,80,81,-1,80,82,81,-1,81,82,83,-1,82,84,83,-1,83,84,85,-1,84,86,85,-1,85,86,87,-1,86,88,87,-1,87,88,89,-1,88,90,89,-1,89,90,91,-1,90,92,91,-1,91,92,93,-1,92,94,93,-1,93,94,95,-1,94,72,95,-1,95,72,74,-1,72,94,92,-1,92,90,72,-1,72,90,88,-1,72,88,73,-1,78,76,80,-1,80,76,73,-1,80,73,82,-1,82,73,88,-1,82,88,84,-1,84,88,86,-1,96,97,98,-1,96,98,99,-1,99,98,100,-1,99,100,101,-1,101,100,102,-1,101,102,103,-1,103,102,104,-1,103,104,105,-1,96,106,97,-1,97,106,107,-1,108,109,110,-1,108,110,111,-1,111,110,112,-1,111,112,113,-1,113,112,114,-1,113,114,115,-1,115,114,107,-1,115,107,106,-1,116,117,118,-1,116,118,119,-1,119,118,120,-1,119,120,121,-1,121,120,122,-1,121,122,123,-1,123,122,109,-1,123,109,108,-1,124,125,126,-1,124,126,127,-1,127,126,128,-1,127,128,129,-1,129,128,130,-1,129,130,131,-1,131,130,117,-1,131,117,116,-1,132,133,134,-1,132,134,135,-1,135,134,125,-1,135,125,124,-1,132,136,133,-1,133,136,137,-1,138,139,140,-1,138,140,141,-1,141,140,142,-1,141,142,143,-1,142,144,143,-1,143,144,145,-1,143,145,146,-1,146,145,137,-1,146,137,136,-1,139,138,147,-1,147,138,148,-1,147,148,149,-1,149,148,150,-1,149,150,151,-1,151,150,152,-1,151,152,153,-1,153,152,154,-1,153,154,155,-1,156,157,158,-1,156,158,159,-1,159,158,155,-1,159,155,154,-1,105,104,160,-1,105,160,161,-1,161,160,162,-1,161,162,163,-1,163,162,164,-1,163,164,165,-1,165,164,157,-1,165,157,156,-1,136,132,146,-1,146,132,135,-1,156,159,131,-1,131,159,129,-1,129,159,154,-1,129,154,152,-1,106,96,99,-1,106,99,115,-1,115,99,101,-1,115,101,103,-1,152,150,129,-1,129,150,148,-1,129,148,127,-1,127,148,138,-1,127,138,124,-1,124,138,141,-1,124,141,135,-1,135,141,143,-1,135,143,146,-1,131,116,156,-1,156,116,119,-1,156,119,165,-1,165,119,121,-1,165,121,163,-1,163,121,123,-1,163,123,161,-1,161,123,108,-1,161,108,105,-1,105,108,111,-1,105,111,103,-1,103,111,113,-1,103,113,115,-1,166,167,168,-1,168,167,169,-1,167,170,169,-1,169,170,171,-1,170,172,171,-1,171,172,173,-1,173,172,174,-1,174,172,175,-1,174,175,176,-1,175,177,176,-1,176,177,178,-1,178,177,179,-1,179,177,166,-1,179,166,168,-1,170,167,172,-1,172,167,166,-1,172,166,175,-1,175,166,177,-1,
        ]
    }
}
Shape{
    appearance Appearance {
        material  Material 	{
            diffuseColor 0.11372549019607843 0.11372549019607843 0.11372549019607843
            specularColor 0.058823529411764705 0.058823529411764705 0.058823529411764705
            ambientIntensity 0.1137
            transparency 0.0
            shininess 0.5
        }
    }
    geometry IndexedFaceSet {
        ccw TRUE
        solid FALSE
        coord DEF co Coordinate {
            point [
                -0.2303 0.4014 0.189, -0.2018 0.3413 0.189, -0.258 0.3413 0.189, -0.0195 0.416 0.189, -0.0195 0.2908 0.189, -0.0305 0.416 0.189, -0.0375 0.2908 0.189, -0.0549 0.4152 0.189, -0.0602 0.2914 0.189, -0.0789 0.4115 0.189, -0.0825 0.2948 0.189, -0.105 0.3088 0.189, -0.1179 0.3318 0.189, -0.1204 0.3514 0.189, -0.1135 0.3829 0.189, -0.0963 0.4031 0.189, 0.8031 0.5925 4.6102, 0.8031 0.5925 1.189, 0.8031 0.6713 4.689, 0.8031 0.9862 1.189, 0.8031 0.9862 4.689, 1.1969 0.5925 1.189, 1.1969 0.5925 4.6102, 1.1969 0.9862 1.189, 1.1969 0.6713 4.689, 1.1969 0.9862 4.689, -0.8031 0.5925 1.189, -0.8031 0.5925 4.6102, -0.8031 0.9862 1.189, -0.8031 0.6713 4.689, -0.8031 0.9862 4.689, -1.1969 0.5925 4.6102, -1.1969 0.5925 1.189, -1.1969 0.6713 4.689, -1.1969 0.9862 1.189, -1.1969 0.9862 4.689, -0.5906 -0.6201 3.1929, -1.1063 -0.6201 3.1929, -0.5906 -1.0138 3.1929, -1.1063 -1.0138 3.1929, 1.1063 -1.0138 3.1929, 1.1063 -0.6201 3.1929, 0.5906 -1.0138 3.1929, 0.5906 -0.6201 3.1929, -1.1063 -0.6201 4.6102, -1.1063 -1.2185 4.6102, -1.1063 -1.2185 3.1929, 1.1063 -1.2185 3.1929, 1.1063 -1.2185 4.6102, 1.1063 -0.6201 4.6102, -2.187 0.6713 4.689, -2.1083 0.5925 4.6102, -2.187 -0.6988 4.689, -2.1083 -0.6201 4.6102, -1.185 -0.6988 4.689, -1.185 -1.2972 4.689, 1.185 -1.2972 4.689, 1.185 -0.6988 4.689, 2.187 -0.6988 4.689, 2.1083 -0.6201 4.6102, 2.187 0.6713 4.689, 2.1083 0.5925 4.6102
            ]
        }
        coordIndex [
            0,1,2,-1,3,4,5,-1,5,4,6,-1,5,6,7,-1,7,6,8,-1,7,8,9,-1,10,11,8,-1,8,11,12,-1,8,12,13,-1,13,14,8,-1,8,14,15,-1,8,15,9,-1,16,17,18,-1,18,17,19,-1,18,19,20,-1,21,22,23,-1,23,22,24,-1,23,24,25,-1,26,27,28,-1,28,27,29,-1,28,29,30,-1,31,32,33,-1,33,32,34,-1,33,34,35,-1,36,37,38,-1,38,37,39,-1,40,41,42,-1,42,41,43,-1,37,44,39,-1,39,44,45,-1,39,45,46,-1,47,48,40,-1,40,48,49,-1,40,49,41,-1,48,47,45,-1,45,47,46,-1,29,27,18,-1,18,27,16,-1,50,51,33,-1,33,51,31,-1,52,53,50,-1,50,53,51,-1,54,44,52,-1,52,44,53,-1,55,45,54,-1,54,45,44,-1,56,48,55,-1,55,48,45,-1,57,49,56,-1,56,49,48,-1,58,59,57,-1,57,59,49,-1,60,61,58,-1,58,61,59,-1,24,22,60,-1,60,22,61,-1,
        ]
    }
}