#VRML V2.0 utf8
# 3D model generated by easyeda2kicad.py (https://github.com/uPesy/easyeda2kicad.py)

Shape{
    appearance Appearance {
        material  Material 	{
            diffuseColor 1.0 1.0 1.0
            specularColor 0.5019607843137255 0.5019607843137255 0.5019607843137255
            ambientIntensity 1.0
            transparency 0.0
            shininess 0.5
        }
    }
    geometry IndexedFaceSet {
        ccw TRUE
        solid FALSE
        coord DEF co Coordinate {
            point [
                0.8071 -0.4724 1.7323, 0.9646 -0.4724 2.2638, 0.9646 -0.4724 0.7874, 0.1181 -0.4724 2.2638, 0.4134 -0.4724 1.7323, 0.1181 -0.4724 0.7874, 0.4134 -0.4724 0.9449, 0.8071 -0.4724 0.9449, 0.1181 -0.5709 2.3622, 0.1181 -0.6693 2.3622, 0.4134 -0.6693 2.3622, 1.1614 -0.1575 2.3622, 1.063 -0.1575 2.3622, 1.1614 -0.6693 2.3622, 1.063 -0.5709 2.3622, 0.4134 -0.5905 2.3622, 0.5731 -0.5905 2.3622, 0.5731 -0.6693 2.3622, -1.1062 0.5783 0.0, -1.1062 0.497 0.0, -1.1614 0.5982 0.0, -1.1614 0.4782 0.0, -1.1398 0.2381 0.0, -1.1614 0.2381 0.0, -1.1614 0.2766 0.0, -0.9646 0.1325 0.0, -0.9646 0.2333 0.0, -0.6299 1.1024 0.0, -1.1614 0.1325 0.0, -1.1296 0.0941 0.0, -1.1512 0.0941 0.0, -1.1575 0.0806 0.0, -1.1614 0.0663 0.0, -0.6299 -0.6693 0.0, -1.1614 -0.6693 0.0, -1.1614 -0.17 0.0, -0.9646 -0.17 0.0, -0.9646 -0.1436 0.0, -1.1398 -0.1436 0.0, -1.1398 -0.0691 0.0, -0.9676 0.3605 0.0, -0.9757 0.3836 0.0, -0.9646 0.5238 0.0, -1.1614 0.627 0.0, -1.1614 1.1024 0.0, -0.9646 0.5502 0.0, -0.9862 0.1589 0.0, -1.051 0.1589 0.0, -0.9862 0.2333 0.0, -1.051 0.2285 0.0, -1.0726 0.2285 0.0, -1.0726 0.1589 0.0, -1.1398 0.1589 0.0, -1.0112 0.4227 0.0, -1.0304 0.4309 0.0, -0.9646 0.2766 0.0, -0.9838 0.048 0.0, -1.1316 0.0906 0.0, -0.9869 0.0719 0.0, -0.9964 0.0941 0.0, -0.97 0.0941 0.0, -0.9638 0.0713 0.0, -0.9884 0.4031 0.0, -0.9955 0.4107 0.0, -1.1406 0.3977 0.0, -1.1614 0.4494 0.0, -1.1251 0.4139 0.0, -1.1075 0.4252 0.0, -0.9646 0.3321 0.0, -0.9859 0.0286 0.0, -0.9912 0.014 0.0, -1.0006 0.0 0.0, -1.0138 -0.0118 0.0, -1.029 -0.0198 0.0, -1.0503 -0.0251 0.0, -1.0651 -0.0259 0.0, -1.0864 -0.0239 0.0, -1.1033 -0.0186 0.0, -1.1422 0.0436 0.0, -1.1266 -0.0013 0.0, -1.1402 0.0253 0.0, -1.1349 0.0108 0.0, -1.117 -0.0104 0.0, -1.1393 0.0697 0.0, -1.0388 -0.0495 0.0, -1.0164 -0.0419 0.0, -0.998 -0.0304 0.0, -0.9814 -0.0133 0.0, -1.1289 -0.0342 0.0, -1.1445 -0.0194 0.0, -1.1614 -0.0691 0.0, -1.1548 -0.0033 0.0, -1.1614 0.0162 0.0, -1.1525 0.3771 0.0, -1.1593 0.3544 0.0, -1.1614 0.3301 0.0, -1.0509 0.4346 0.0, -1.0605 0.435 0.0, -1.0869 0.4322 0.0, -1.1101 -0.0446 0.0, -1.0892 -0.0505 0.0, -1.0667 -0.0523 0.0, -0.9706 0.0051 0.0, -0.964 0.0267 0.0, -0.9622 0.0478 0.0, -1.1614 -0.6693 0.4331, 1.1614 -0.6693 0.4331, 0.1181 -0.6693 0.7874, 0.4134 -0.6693 0.9449, 0.8071 -0.6693 0.9449, 0.8071 -0.6693 1.7323, 0.5731 -0.6693 1.7323, -0.1181 -0.6693 0.7874, -0.8071 -0.6693 0.9449, -1.1614 -0.6693 2.3622, -0.8071 -0.6693 1.7323, -0.1181 -0.6693 2.3622, -0.4134 -0.6693 1.7323, -0.4134 -0.6693 0.9449, -0.8071 -0.4724 0.9449, -0.9646 -0.4724 0.7874, -0.8071 -0.4724 1.7323, -0.9646 -0.4724 2.2638, -0.4134 -0.4724 1.7323, -0.1181 -0.4724 2.2638, -0.4134 -0.4724 0.9449, -0.1181 -0.4724 0.7874, -0.2953 0.0984 0.7874, -0.2953 -0.0984 0.7874, -0.4921 -0.0984 0.7874, -0.9646 0.1969 0.7874, -0.4921 0.0984 0.7874, 0.9646 0.1969 0.7874, 0.2953 0.0984 0.7874, 0.2953 -0.0984 0.7874, 0.4921 -0.0984 0.7874, 0.4921 0.0984 0.7874, 0.4921 0.0984 0.0984, 0.6299 1.1024 0.0984, 0.6299 -0.6693 0.0984, 0.1575 1.1024 0.0984, 0.2953 0.0984 0.0984, 0.1575 -0.6693 0.0984, 0.2953 -0.0984 0.0984, 0.4921 -0.0984 0.0984, -0.2953 0.0984 0.0984, -0.1575 1.1024 0.0984, -0.1575 -0.6693 0.0984, -0.6299 1.1024 0.0984, -0.4921 0.0984 0.0984, -0.6299 -0.6693 0.0984, -0.4921 -0.0984 0.0984, -0.2953 -0.0984 0.0984, -0.1575 1.1024 0.0, 0.1575 1.1024 0.0, -0.1575 -0.6693 0.0, 0.1575 -0.6693 0.0, 0.6299 1.1024 0.0, 1.1614 1.1024 0.0, 0.6299 -0.6693 0.0, 1.1614 -0.6693 0.0, 1.063 0.2362 2.3622, 1.1614 0.2362 2.3622, 1.063 1.0039 2.3622, 1.1614 1.1024 2.3622, -1.063 1.0039 2.3622, -1.1614 1.1024 2.3622, -1.063 0.2362 2.3622, -1.1614 0.2362 2.3622, 1.1614 0.2362 1.7717, 1.1614 -0.6693 0.315, 1.1614 -0.5905 0.315, 1.1614 -0.5905 0.4331, 1.1614 -0.1575 1.7717, -1.063 -0.1575 2.3622, -1.1614 -0.1575 2.3622, -1.063 -0.5709 2.3622, -0.1181 -0.5709 2.3622, -1.1614 0.1325 0.0039, -1.1614 0.0663 0.0039, -1.1614 0.0162 0.0039, -1.1614 -0.0691 0.0039, -1.1614 0.5982 0.0039, -1.1614 0.627 0.0039, -1.1614 0.4782 0.0039, -1.1614 0.4494 0.0039, -1.1614 0.3301 0.0039, -1.1614 0.2766 0.0039, -1.1614 0.2381 0.0039, -1.1614 -0.1575 1.7717, -1.1614 -0.5905 0.4331, -1.1614 0.2362 1.7717, -1.1614 -0.6693 0.315, -1.1614 -0.5905 0.315, -1.1614 -0.17 0.0039, 0.9646 -0.1575 2.2638, 0.9646 -0.1575 1.7717, 0.9646 0.2362 2.2638, 0.9646 0.9055 2.2638, 0.9646 0.2362 1.7717, 0.9646 0.9055 0.6693, 0.9646 0.315 0.6693, -0.9646 0.9055 2.2638, -0.9646 0.2362 2.2638, -0.9646 0.9055 0.6693, -0.9646 0.2362 1.7717, -0.9646 0.315 0.6693, -0.9646 -0.1575 1.7717, -0.9646 -0.1575 2.2638
            ]
        }
        coordIndex [
            0,1,2,-1,1,0,3,-1,3,0,4,-1,3,4,5,-1,5,4,6,-1,5,6,2,-1,2,6,7,-1,2,7,0,-1,8,9,10,-1,11,12,13,-1,13,12,14,-1,10,15,8,-1,8,15,16,-1,8,16,14,-1,14,16,17,-1,14,17,13,-1,14,1,8,-1,8,1,3,-1,18,19,20,-1,20,19,21,-1,22,23,24,-1,25,26,27,-1,28,25,29,-1,29,30,28,-1,28,30,31,-1,28,31,32,-1,33,34,35,-1,35,36,33,-1,33,36,37,-1,33,37,27,-1,37,38,39,-1,40,41,42,-1,43,44,45,-1,45,44,27,-1,45,27,42,-1,46,47,48,-1,48,47,49,-1,50,51,52,-1,42,53,54,-1,52,22,50,-1,50,22,24,-1,50,24,49,-1,49,24,55,-1,49,55,48,-1,56,57,58,-1,58,57,29,-1,58,29,59,-1,59,29,25,-1,59,25,60,-1,60,25,27,-1,60,27,61,-1,41,62,42,-1,42,62,63,-1,42,63,53,-1,64,65,66,-1,66,65,67,-1,40,42,68,-1,68,42,27,-1,68,27,55,-1,55,27,26,-1,55,26,48,-1,56,69,57,-1,57,69,70,-1,57,70,71,-1,71,72,57,-1,57,72,73,-1,57,73,74,-1,74,75,57,-1,57,75,76,-1,57,76,77,-1,78,79,80,-1,80,79,81,-1,77,82,57,-1,57,82,79,-1,57,79,83,-1,83,79,78,-1,84,85,37,-1,37,85,86,-1,37,86,87,-1,88,39,89,-1,89,39,90,-1,89,90,91,-1,91,90,92,-1,64,93,65,-1,65,93,94,-1,65,94,95,-1,54,96,42,-1,42,96,97,-1,42,97,65,-1,65,97,98,-1,65,98,67,-1,88,99,39,-1,39,99,100,-1,39,100,37,-1,37,100,101,-1,37,101,84,-1,87,102,37,-1,37,102,103,-1,37,103,27,-1,27,103,104,-1,27,104,61,-1,105,106,107,-1,10,9,108,-1,108,9,107,-1,108,107,109,-1,109,107,106,-1,109,106,110,-1,110,106,13,-1,110,13,111,-1,111,13,17,-1,107,112,105,-1,105,112,113,-1,105,113,114,-1,114,113,115,-1,114,115,116,-1,116,115,117,-1,116,117,112,-1,112,117,118,-1,112,118,113,-1,119,120,121,-1,121,120,122,-1,121,122,123,-1,123,122,124,-1,123,124,125,-1,125,124,126,-1,125,126,119,-1,119,126,120,-1,126,112,107,-1,127,128,5,-1,107,5,126,-1,126,5,128,-1,126,128,120,-1,120,128,129,-1,120,129,130,-1,130,129,131,-1,130,131,127,-1,132,130,133,-1,133,130,127,-1,133,127,134,-1,134,127,5,-1,134,5,135,-1,135,5,2,-1,135,2,136,-1,136,2,132,-1,136,132,133,-1,137,138,139,-1,138,137,140,-1,140,137,141,-1,140,141,142,-1,142,141,143,-1,142,143,139,-1,139,143,144,-1,139,144,137,-1,145,146,147,-1,146,145,148,-1,148,145,149,-1,148,149,150,-1,150,149,151,-1,150,151,147,-1,147,151,152,-1,147,152,145,-1,153,154,155,-1,155,154,156,-1,157,158,159,-1,159,158,160,-1,161,162,163,-1,163,162,164,-1,163,164,165,-1,165,164,166,-1,165,166,167,-1,167,166,168,-1,164,162,158,-1,158,162,169,-1,170,160,171,-1,171,160,158,-1,171,158,172,-1,172,158,169,-1,172,169,106,-1,106,169,173,-1,106,173,13,-1,13,173,11,-1,174,175,176,-1,176,175,114,-1,176,114,177,-1,177,114,116,-1,178,28,32,-1,166,179,180,-1,92,90,180,-1,180,90,181,-1,180,181,166,-1,182,166,183,-1,183,166,44,-1,183,44,43,-1,20,21,182,-1,182,21,184,-1,182,184,166,-1,166,184,185,-1,65,95,185,-1,185,95,186,-1,185,186,166,-1,166,186,187,-1,24,23,187,-1,187,23,188,-1,187,188,166,-1,166,188,178,-1,166,178,179,-1,179,178,32,-1,114,175,105,-1,105,175,189,-1,105,189,190,-1,190,189,191,-1,34,192,35,-1,35,192,193,-1,35,193,194,-1,194,193,190,-1,194,190,181,-1,181,190,191,-1,181,191,166,-1,166,191,168,-1,159,160,139,-1,139,160,170,-1,139,170,142,-1,34,33,192,-1,192,33,150,-1,192,150,147,-1,155,156,147,-1,147,156,142,-1,147,142,192,-1,192,142,170,-1,140,154,153,-1,27,44,148,-1,148,44,166,-1,148,166,146,-1,146,166,164,-1,153,146,140,-1,140,146,164,-1,140,164,138,-1,138,164,158,-1,138,158,157,-1,190,172,105,-1,105,172,106,-1,171,193,170,-1,170,193,192,-1,171,172,193,-1,193,172,190,-1,1,195,196,-1,197,198,199,-1,199,198,200,-1,200,201,199,-1,199,201,132,-1,199,132,196,-1,196,132,2,-1,196,2,1,-1,202,203,204,-1,204,203,205,-1,206,204,130,-1,130,204,205,-1,130,205,120,-1,120,205,207,-1,120,207,122,-1,122,207,208,-1,202,204,198,-1,198,204,200,-1,189,207,191,-1,191,207,205,-1,208,207,174,-1,174,207,189,-1,174,189,175,-1,205,203,191,-1,191,203,167,-1,191,167,168,-1,197,199,161,-1,161,199,169,-1,161,169,162,-1,196,195,173,-1,173,195,12,-1,173,12,11,-1,169,199,173,-1,173,199,196,-1,139,138,159,-1,159,138,157,-1,140,142,154,-1,154,142,156,-1,147,146,155,-1,155,146,153,-1,148,150,27,-1,27,150,33,-1,
        ]
    }
}
Shape{
    appearance Appearance {
        material  Material 	{
            diffuseColor 0.7529411764705882 0.7529411764705882 0.7529411764705882
            specularColor 0.3764705882352941 0.3764705882352941 0.3764705882352941
            ambientIntensity 0.7529
            transparency 0.0
            shininess 0.5
        }
    }
    geometry IndexedFaceSet {
        ccw TRUE
        solid FALSE
        coord DEF co Coordinate {
            point [
                -0.4574 -0.0637 -1.3386, -0.4574 0.0637 -1.3386, -0.33 -0.0637 -1.3386, -0.33 0.0637 -1.3386, -0.4921 -0.0984 -1.1417, -0.4921 -0.0984 0.0984, -0.4921 0.0984 -1.1417, -0.4921 0.0984 0.0984, -0.2953 0.0984 -1.1417, -0.2953 0.0984 0.0984, -0.2953 -0.0984 -1.1417, -0.2953 -0.0984 0.0984, -0.4921 -0.0984 1.8504, -0.4921 -0.0984 0.7874, -0.2953 -0.0984 1.8504, -0.2953 -0.0984 0.7874, -0.2953 0.0984 1.8504, -0.2953 0.0984 0.7874, -0.4921 0.0984 1.8504, -0.4921 0.0984 0.7874, -0.4574 0.0637 2.0472, -0.4574 -0.0637 2.0472, -0.33 0.0637 2.0472, -0.33 -0.0637 2.0472
            ]
        }
        coordIndex [
            0,1,2,-1,2,1,3,-1,4,5,6,-1,6,5,7,-1,8,9,10,-1,10,9,11,-1,6,7,8,-1,8,7,9,-1,10,11,4,-1,4,11,5,-1,12,13,14,-1,14,13,15,-1,16,17,18,-1,18,17,19,-1,20,21,22,-1,22,21,23,-1,14,15,16,-1,16,15,17,-1,18,19,12,-1,12,19,13,-1,8,3,6,-1,6,3,1,-1,10,2,8,-1,8,2,3,-1,0,4,1,-1,1,4,6,-1,4,0,10,-1,10,0,2,-1,14,23,12,-1,12,23,21,-1,16,22,14,-1,14,22,23,-1,20,18,21,-1,21,18,12,-1,18,20,16,-1,16,20,22,-1,
        ]
    }
}
Shape{
    appearance Appearance {
        material  Material 	{
            diffuseColor 1.0 1.0 1.0
            specularColor 0.5019607843137255 0.5019607843137255 0.5019607843137255
            ambientIntensity 1.0
            transparency 0.0
            shininess 0.5
        }
    }
    geometry IndexedFaceSet {
        ccw TRUE
        solid FALSE
        coord DEF co Coordinate {
            point [
                -1.063 -0.5709 2.3622, -0.9646 -0.4724 2.2638, -1.063 -0.1575 2.3622, -0.9646 -0.1575 2.2638, -0.1181 -0.4724 2.2638, -0.1181 -0.5709 2.3622, 1.063 -0.1575 2.3622, 0.9646 -0.1575 2.2638, 1.063 -0.5709 2.3622, 0.9646 -0.4724 2.2638, -0.9646 0.9055 2.2638, -1.063 1.0039 2.3622, -0.9646 0.2362 2.2638, -1.063 0.2362 2.3622, 0.9646 0.9055 2.2638, 1.063 1.0039 2.3622, 1.063 0.2362 2.3622, 0.9646 0.2362 2.2638
            ]
        }
        coordIndex [
            0,1,2,-1,2,1,3,-1,1,0,4,-1,4,0,5,-1,6,7,8,-1,8,7,9,-1,10,11,12,-1,12,11,13,-1,14,15,10,-1,10,15,11,-1,15,14,16,-1,16,14,17,-1,
        ]
    }
}
Shape{
    appearance Appearance {
        material  Material 	{
            diffuseColor 0.7529411764705882 0.7529411764705882 0.7529411764705882
            specularColor 0.3764705882352941 0.3764705882352941 0.3764705882352941
            ambientIntensity 0.7529
            transparency 0.0
            shininess 0.5
        }
    }
    geometry IndexedFaceSet {
        ccw TRUE
        solid FALSE
        coord DEF co Coordinate {
            point [
                0.33 -0.0637 -1.3386, 0.33 0.0637 -1.3386, 0.4574 -0.0637 -1.3386, 0.4574 0.0637 -1.3386, 0.2953 -0.0984 -1.1417, 0.2953 -0.0984 0.0984, 0.2953 0.0984 -1.1417, 0.2953 0.0984 0.0984, 0.4921 0.0984 -1.1417, 0.4921 0.0984 0.0984, 0.4921 -0.0984 -1.1417, 0.4921 -0.0984 0.0984, 0.2953 -0.0984 1.8504, 0.2953 -0.0984 0.7874, 0.4921 -0.0984 1.8504, 0.4921 -0.0984 0.7874, 0.4921 0.0984 1.8504, 0.4921 0.0984 0.7874, 0.2953 0.0984 1.8504, 0.2953 0.0984 0.7874, 0.33 0.0637 2.0472, 0.33 -0.0637 2.0472, 0.4574 0.0637 2.0472, 0.4574 -0.0637 2.0472
            ]
        }
        coordIndex [
            0,1,2,-1,2,1,3,-1,4,5,6,-1,6,5,7,-1,8,9,10,-1,10,9,11,-1,6,7,8,-1,8,7,9,-1,10,11,4,-1,4,11,5,-1,12,13,14,-1,14,13,15,-1,16,17,18,-1,18,17,19,-1,20,21,22,-1,22,21,23,-1,14,15,16,-1,16,15,17,-1,18,19,12,-1,12,19,13,-1,8,3,6,-1,6,3,1,-1,10,2,8,-1,8,2,3,-1,0,4,1,-1,1,4,6,-1,4,0,10,-1,10,0,2,-1,14,23,12,-1,12,23,21,-1,16,22,14,-1,14,22,23,-1,20,18,21,-1,21,18,12,-1,18,20,16,-1,16,20,22,-1,
        ]
    }
}
Shape{
    appearance Appearance {
        material  Material 	{
            diffuseColor 1.0 1.0 1.0
            specularColor 0.5019607843137255 0.5019607843137255 0.5019607843137255
            ambientIntensity 1.0
            transparency 0.0
            shininess 0.5
        }
    }
    geometry IndexedFaceSet {
        ccw TRUE
        solid FALSE
        coord DEF co Coordinate {
            point [
                -0.4134 -0.6693 1.7323, -0.4134 -0.4724 1.7323, -0.4134 -0.6693 0.9449, -0.4134 -0.4724 0.9449, -0.8071 -0.6693 0.9449, -0.8071 -0.4724 0.9449, -0.8071 -0.6693 1.7323, -0.8071 -0.4724 1.7323, 0.4134 -0.5905 2.3622, 0.4134 -0.6693 2.3622, 0.4134 -0.5905 1.7323, 0.4134 -0.6693 0.9449, 0.4134 -0.4724 1.7323, 0.4134 -0.4724 0.9449, 0.5731 -0.5905 1.7323, 0.8071 -0.4724 1.7323, 0.5731 -0.6693 1.7323, 0.8071 -0.6693 1.7323, 0.8071 -0.6693 0.9449, 0.8071 -0.4724 0.9449, 0.9646 0.315 0.6693, 0.9646 0.9055 0.6693, -0.9646 0.315 0.6693, -0.9646 0.9055 0.6693, 0.9646 0.1969 0.7874, -0.9646 0.1969 0.7874
            ]
        }
        coordIndex [
            0,1,2,-1,2,1,3,-1,2,3,4,-1,4,3,5,-1,4,5,6,-1,6,5,7,-1,6,7,0,-1,0,7,1,-1,8,9,10,-1,10,9,11,-1,10,11,12,-1,12,11,13,-1,10,12,14,-1,14,12,15,-1,14,15,16,-1,16,15,17,-1,18,17,19,-1,19,17,15,-1,11,18,13,-1,13,18,19,-1,20,21,22,-1,22,21,23,-1,24,20,25,-1,25,20,22,-1,
        ]
    }
}
Shape{
    appearance Appearance {
        material  Material 	{
            diffuseColor 0.25098039215686274 0.25098039215686274 0.25098039215686274
            specularColor 0.12549019607843137 0.12549019607843137 0.12549019607843137
            ambientIntensity 0.251
            transparency 0.0
            shininess 0.5
        }
    }
    geometry IndexedFaceSet {
        ccw TRUE
        solid FALSE
        coord DEF co Coordinate {
            point [
                -1.0846 0.5036 0.0039, -1.1062 0.497 0.0039, -1.0846 0.5695 0.0039, -1.1062 0.5783 0.0039, -1.0024 0.533 0.0039, -0.9646 0.5238 0.0039, -1.1614 0.4494 0.0039, -1.1614 0.4782 0.0039, -0.9955 0.5349 0.0039, -0.9886 0.5362 0.0039, -0.9646 0.5502 0.0039, -0.9886 0.5368 0.0039, -0.9955 0.5381 0.0039, -1.0024 0.5398 0.0039, -1.1614 0.627 0.0039, -1.1614 0.5982 0.0039, -1.1062 0.5783 0.0, -1.1614 0.5982 0.0, -1.1062 0.497 0.0, -1.1614 0.4782 0.0, -0.9646 0.5238 0.0, -1.1614 0.4494 0.0, -0.9646 0.5502 0.0, -1.1614 0.627 0.0, -1.0024 0.5398 0.0, -0.9955 0.5381 0.0, -0.9886 0.5368 0.0, -0.9886 0.5362 0.0, -0.9955 0.5349 0.0, -1.0024 0.533 0.0, -1.0846 0.5036 0.0, -1.0846 0.5695 0.0, -0.9646 0.3321 0.0, -0.9646 0.3321 0.0039, -0.9676 0.3605 0.0039, -0.9676 0.3605 0.0, -0.9757 0.3836 0.0039, -0.9757 0.3836 0.0, -0.9884 0.4031 0.0039, -0.9884 0.4031 0.0, -0.9955 0.4107 0.0039, -0.9955 0.4107 0.0, -1.0112 0.4227 0.0039, -1.0112 0.4227 0.0, -1.0304 0.4309 0.0039, -1.0304 0.4309 0.0, -1.0509 0.4346 0.0039, -1.0509 0.4346 0.0, -1.0605 0.435 0.0039, -1.0605 0.435 0.0, -0.9646 0.2766 0.0, -0.9646 0.2766 0.0039, -1.1614 0.2766 0.0, -1.1614 0.2766 0.0039, -1.0869 0.4322 0.0039, -1.0869 0.4322 0.0, -1.1075 0.4252 0.0039, -1.1075 0.4252 0.0, -1.1251 0.4139 0.0039, -1.1251 0.4139 0.0, -1.1406 0.3977 0.0039, -1.1406 0.3977 0.0, -1.1525 0.3771 0.0039, -1.1525 0.3771 0.0, -1.1593 0.3544 0.0039, -1.1593 0.3544 0.0, -1.1614 0.3301 0.0039, -1.1614 0.3301 0.0, -1.0611 0.4086 0.0039, -1.0415 0.4069 0.0039, -1.0259 0.4023 0.0039, -1.0139 0.3955 0.0039, -1.0037 0.386 0.0039, -0.9944 0.3716 0.0039, -0.9887 0.3554 0.0039, -0.9862 0.332 0.0039, -0.9862 0.303 0.0039, -1.1398 0.303 0.0039, -1.1398 0.3309 0.0039, -1.1379 0.3516 0.0039, -1.1327 0.3682 0.0039, -1.1249 0.3815 0.0039, -1.114 0.3925 0.0039, -1.1004 0.4009 0.0039, -1.085 0.4061 0.0039, -1.1398 0.3309 0.0, -1.1398 0.303 0.0, -1.1379 0.3516 0.0, -1.1327 0.3682 0.0, -1.1249 0.3815 0.0, -1.114 0.3925 0.0, -1.1004 0.4009 0.0, -1.085 0.4061 0.0, -1.0611 0.4086 0.0, -1.0415 0.4069 0.0, -1.0259 0.4023 0.0, -1.0139 0.3955 0.0, -1.0037 0.386 0.0, -0.9944 0.3716 0.0, -0.9887 0.3554 0.0, -0.9862 0.332 0.0, -0.9862 0.303 0.0, -0.9646 0.1325 0.0039, -0.9646 0.1325 0.0, -1.1614 0.1325 0.0039, -1.1614 0.1325 0.0, -0.9646 0.2333 0.0039, -0.9646 0.2333 0.0, -0.9862 0.2333 0.0039, -0.9862 0.2333 0.0, -0.9862 0.1589 0.0039, -0.9862 0.1589 0.0, -1.051 0.1589 0.0039, -1.051 0.1589 0.0, -1.051 0.2285 0.0039, -1.051 0.2285 0.0, -1.0726 0.2285 0.0039, -1.0726 0.2285 0.0, -1.0726 0.1589 0.0039, -1.0726 0.1589 0.0, -1.1398 0.1589 0.0039, -1.1398 0.1589 0.0, -1.1398 0.2381 0.0039, -1.1398 0.2381 0.0, -1.1614 0.2381 0.0039, -1.1614 0.2381 0.0, -0.9838 0.048 0.0, -0.9838 0.048 0.0039, -0.9859 0.0286 0.0039, -0.9859 0.0286 0.0, -0.9912 0.014 0.0039, -0.9912 0.014 0.0, -1.0006 0.0 0.0039, -1.0006 0.0 0.0, -1.0138 -0.0118 0.0039, -1.0138 -0.0118 0.0, -1.029 -0.0198 0.0039, -1.029 -0.0198 0.0, -1.0503 -0.0251 0.0039, -1.0503 -0.0251 0.0, -1.0651 -0.0259 0.0039, -1.0651 -0.0259 0.0, -0.9964 0.0941 0.0, -0.9964 0.0941 0.0039, -0.9869 0.0719 0.0039, -0.9869 0.0719 0.0, -0.97 0.0941 0.0, -0.97 0.0941 0.0039, -0.9622 0.0478 0.0, -0.9622 0.0478 0.0039, -0.9638 0.0713 0.0039, -0.9638 0.0713 0.0, -1.0667 -0.0523 0.0, -1.0667 -0.0523 0.0039, -1.0388 -0.0495 0.0039, -1.0388 -0.0495 0.0, -1.0164 -0.0419 0.0039, -1.0164 -0.0419 0.0, -0.998 -0.0304 0.0039, -0.998 -0.0304 0.0, -0.9814 -0.0133 0.0039, -0.9814 -0.0133 0.0, -0.9706 0.0051 0.0039, -0.9706 0.0051 0.0, -0.964 0.0267 0.0039, -0.964 0.0267 0.0, -1.1614 0.0162 0.0, -1.1614 0.0162 0.0039, -1.1548 -0.0033 0.0039, -1.1548 -0.0033 0.0, -1.1445 -0.0194 0.0039, -1.1445 -0.0194 0.0, -1.1289 -0.0342 0.0039, -1.1289 -0.0342 0.0, -1.1101 -0.0446 0.0039, -1.1101 -0.0446 0.0, -1.0892 -0.0505 0.0039, -1.0892 -0.0505 0.0, -1.1512 0.0941 0.0, -1.1512 0.0941 0.0039, -1.1575 0.0806 0.0039, -1.1575 0.0806 0.0, -1.1614 0.0663 0.0039, -1.1614 0.0663 0.0, -1.1296 0.0941 0.0, -1.1296 0.0941 0.0039, -1.1422 0.0436 0.0, -1.1422 0.0436 0.0039, -1.1393 0.0697 0.0039, -1.1393 0.0697 0.0, -1.1316 0.0906 0.0039, -1.1316 0.0906 0.0, -1.0864 -0.0239 0.0039, -1.0864 -0.0239 0.0, -1.1033 -0.0186 0.0039, -1.1033 -0.0186 0.0, -1.117 -0.0104 0.0039, -1.117 -0.0104 0.0, -1.1266 -0.0013 0.0039, -1.1266 -0.0013 0.0, -1.1349 0.0108 0.0039, -1.1349 0.0108 0.0, -1.1402 0.0253 0.0039, -1.1402 0.0253 0.0, -0.9646 -0.17 0.0039, -0.9646 -0.17 0.0, -1.1614 -0.17 0.0039, -1.1614 -0.17 0.0, -0.9646 -0.1436 0.0039, -0.9646 -0.1436 0.0, -1.1398 -0.1436 0.0039, -1.1398 -0.1436 0.0, -1.1398 -0.0691 0.0039, -1.1398 -0.0691 0.0, -1.1614 -0.0691 0.0039, -1.1614 -0.0691 0.0
            ]
        }
        coordIndex [
            0,1,2,-1,2,1,3,-1,4,5,0,-1,0,5,6,-1,0,6,1,-1,1,6,7,-1,4,8,5,-1,5,8,9,-1,5,9,10,-1,10,9,11,-1,10,11,12,-1,12,13,10,-1,10,13,2,-1,10,2,14,-1,14,2,3,-1,14,3,15,-1,3,16,15,-1,15,16,17,-1,1,18,3,-1,3,18,16,-1,7,19,1,-1,1,19,18,-1,5,20,6,-1,6,20,21,-1,10,22,5,-1,5,22,20,-1,14,23,10,-1,10,23,22,-1,24,13,12,-1,24,12,25,-1,25,12,11,-1,25,11,26,-1,9,27,11,-1,11,27,26,-1,27,9,8,-1,27,8,28,-1,28,8,4,-1,28,4,29,-1,0,30,4,-1,4,30,29,-1,2,31,0,-1,0,31,30,-1,24,31,13,-1,13,31,2,-1,32,33,34,-1,32,34,35,-1,35,34,36,-1,35,36,37,-1,37,36,38,-1,37,38,39,-1,39,38,40,-1,39,40,41,-1,41,40,42,-1,41,42,43,-1,43,42,44,-1,43,44,45,-1,45,44,46,-1,45,46,47,-1,47,46,48,-1,47,48,49,-1,50,51,32,-1,32,51,33,-1,52,53,50,-1,50,53,51,-1,49,48,54,-1,49,54,55,-1,55,54,56,-1,55,56,57,-1,57,56,58,-1,57,58,59,-1,59,58,60,-1,59,60,61,-1,61,60,62,-1,61,62,63,-1,63,62,64,-1,63,64,65,-1,65,64,66,-1,65,66,67,-1,54,48,68,-1,68,48,46,-1,68,46,69,-1,69,46,44,-1,69,44,70,-1,70,44,42,-1,70,42,71,-1,71,42,40,-1,71,40,72,-1,72,40,38,-1,72,38,73,-1,73,38,36,-1,73,36,74,-1,74,36,34,-1,74,34,75,-1,75,34,33,-1,75,33,76,-1,76,33,51,-1,76,51,77,-1,77,51,53,-1,77,53,78,-1,78,53,66,-1,78,66,79,-1,79,66,64,-1,79,64,80,-1,80,64,62,-1,80,62,81,-1,81,62,60,-1,81,60,82,-1,82,60,58,-1,82,58,83,-1,83,58,56,-1,83,56,84,-1,84,56,54,-1,84,54,68,-1,78,85,77,-1,77,85,86,-1,85,78,79,-1,85,79,87,-1,87,79,80,-1,87,80,88,-1,88,80,81,-1,88,81,89,-1,89,81,82,-1,89,82,90,-1,90,82,83,-1,90,83,91,-1,91,83,84,-1,91,84,92,-1,92,84,68,-1,92,68,93,-1,93,68,69,-1,93,69,94,-1,94,69,70,-1,94,70,95,-1,95,70,71,-1,95,71,96,-1,96,71,72,-1,96,72,97,-1,97,72,73,-1,97,73,98,-1,98,73,74,-1,98,74,99,-1,99,74,75,-1,99,75,100,-1,76,101,75,-1,75,101,100,-1,86,101,77,-1,77,101,76,-1,102,103,104,-1,104,103,105,-1,106,107,102,-1,102,107,103,-1,108,109,106,-1,106,109,107,-1,110,111,108,-1,108,111,109,-1,112,113,110,-1,110,113,111,-1,114,115,112,-1,112,115,113,-1,116,117,114,-1,114,117,115,-1,118,119,116,-1,116,119,117,-1,120,121,118,-1,118,121,119,-1,122,123,120,-1,120,123,121,-1,124,125,122,-1,122,125,123,-1,104,124,122,-1,122,120,104,-1,104,120,118,-1,104,118,102,-1,108,106,110,-1,110,106,102,-1,110,102,112,-1,112,102,118,-1,112,118,114,-1,114,118,116,-1,126,127,128,-1,126,128,129,-1,129,128,130,-1,129,130,131,-1,131,130,132,-1,131,132,133,-1,133,132,134,-1,133,134,135,-1,135,134,136,-1,135,136,137,-1,137,136,138,-1,137,138,139,-1,139,138,140,-1,139,140,141,-1,142,143,144,-1,142,144,145,-1,145,144,127,-1,145,127,126,-1,146,147,142,-1,142,147,143,-1,148,149,150,-1,148,150,151,-1,151,150,147,-1,151,147,146,-1,152,153,154,-1,152,154,155,-1,155,154,156,-1,155,156,157,-1,157,156,158,-1,157,158,159,-1,159,158,160,-1,159,160,161,-1,161,160,162,-1,161,162,163,-1,163,162,164,-1,163,164,165,-1,165,164,149,-1,165,149,148,-1,166,167,168,-1,166,168,169,-1,169,168,170,-1,169,170,171,-1,171,170,172,-1,171,172,173,-1,173,172,174,-1,173,174,175,-1,175,174,176,-1,175,176,177,-1,177,176,153,-1,177,153,152,-1,178,179,180,-1,178,180,181,-1,181,180,182,-1,181,182,183,-1,184,185,178,-1,178,185,179,-1,186,187,188,-1,186,188,189,-1,189,188,190,-1,189,190,191,-1,191,190,185,-1,191,185,184,-1,141,140,192,-1,141,192,193,-1,193,192,194,-1,193,194,195,-1,195,194,196,-1,195,196,197,-1,197,196,198,-1,197,198,199,-1,199,198,200,-1,199,200,201,-1,201,200,202,-1,201,202,203,-1,203,202,187,-1,203,187,186,-1,143,147,144,-1,144,147,150,-1,144,150,127,-1,127,150,149,-1,127,149,128,-1,128,149,164,-1,128,164,130,-1,130,164,162,-1,130,162,132,-1,132,162,160,-1,132,160,134,-1,134,160,158,-1,134,158,136,-1,136,158,156,-1,136,156,138,-1,138,156,154,-1,138,154,140,-1,140,154,153,-1,140,153,192,-1,192,153,176,-1,192,176,194,-1,194,176,174,-1,194,174,196,-1,196,174,172,-1,196,172,198,-1,198,172,170,-1,198,170,200,-1,200,170,168,-1,200,168,202,-1,202,168,167,-1,202,167,187,-1,187,167,182,-1,187,182,188,-1,188,182,180,-1,188,180,190,-1,190,180,179,-1,190,179,185,-1,204,205,206,-1,206,205,207,-1,208,209,204,-1,204,209,205,-1,210,211,208,-1,208,211,209,-1,212,213,210,-1,210,213,211,-1,214,215,212,-1,212,215,213,-1,208,204,210,-1,210,204,206,-1,210,206,212,-1,212,206,214,-1,
        ]
    }
}
Shape{
    appearance Appearance {
        material  Material 	{
            diffuseColor 1.0 1.0 1.0
            specularColor 0.5019607843137255 0.5019607843137255 0.5019607843137255
            ambientIntensity 1.0
            transparency 0.0
            shininess 0.5
        }
    }
    geometry IndexedFaceSet {
        ccw TRUE
        solid FALSE
        coord DEF co Coordinate {
            point [
                -1.0846 0.5036 0.0, -1.0846 0.5695 0.0, -1.0024 0.533 0.0, -1.0024 0.5398 0.0, -0.9955 0.5349 0.0, -0.9955 0.5381 0.0, -0.9886 0.5362 0.0, -0.9886 0.5368 0.0, -0.9862 0.332 0.0, -0.9862 0.303 0.0, -1.1398 0.303 0.0, -1.085 0.4061 0.0, -1.0611 0.4086 0.0, -1.1004 0.4009 0.0, -1.0415 0.4069 0.0, -1.0259 0.4023 0.0, -0.9887 0.3554 0.0, -1.1398 0.3309 0.0, -1.1379 0.3516 0.0, -1.1327 0.3682 0.0, -1.0139 0.3955 0.0, -1.0037 0.386 0.0, -0.9944 0.3716 0.0, -1.1249 0.3815 0.0, -1.114 0.3925 0.0, 0.1181 -0.4724 2.2638, 0.1181 -0.4724 0.7874, 0.1181 -0.5709 2.3622, 0.1181 -0.6693 0.7874, 0.1181 -0.6693 2.3622, -0.1181 -0.4724 0.7874, -0.1181 -0.4724 2.2638, -0.1181 -0.6693 0.7874, -0.1181 -0.5709 2.3622, -0.1181 -0.6693 2.3622, 0.5731 -0.5905 2.3622, 0.5731 -0.5905 1.7323, 0.5731 -0.6693 2.3622, 0.5731 -0.6693 1.7323, 0.4134 -0.5905 1.7323, 0.4134 -0.5905 2.3622
            ]
        }
        coordIndex [
            0,1,2,-1,2,1,3,-1,2,3,4,-1,4,3,5,-1,4,5,6,-1,6,5,7,-1,8,9,10,-1,11,12,8,-1,11,8,13,-1,12,14,8,-1,8,14,15,-1,8,15,16,-1,10,17,8,-1,8,17,18,-1,8,18,19,-1,20,21,15,-1,15,21,22,-1,15,22,16,-1,19,23,8,-1,8,23,24,-1,8,24,13,-1,25,26,27,-1,27,26,28,-1,27,28,29,-1,30,31,32,-1,32,31,33,-1,32,33,34,-1,35,36,37,-1,37,36,38,-1,36,35,39,-1,39,35,40,-1,
        ]
    }
}