#VRML V2.0 utf8
# 3D model generated by easyeda2kicad.py (https://github.com/uPesy/easyeda2kicad.py)

Shape{
    appearance Appearance {
        material  Material 	{
            diffuseColor 0.11372549019607843 0.11372549019607843 0.11372549019607843
            specularColor 0.058823529411764705 0.058823529411764705 0.058823529411764705
            ambientIntensity 0.1137
            transparency 0.0
            shininess 0.5
        }
    }
    geometry IndexedFaceSet {
        ccw TRUE
        solid FALSE
        coord DEF co Coordinate {
            point [
                0.618 -0.5886 1.1102, 0.618 -0.9823 1.1102, 0.618 -0.5886 3.1142, 0.618 -0.9823 3.1142, -0.5631 -0.9823 1.1102, -0.5631 -0.5886 1.1102, -0.5631 -0.9823 3.1142, -0.5631 -0.5886 3.1142, 1.3306 0.7028 4.6102, 1.3306 1.0177 4.6102, -1.2757 0.7028 4.6102, -1.2757 1.0177 4.6102, -1.2757 0.624 4.5315, -1.2757 0.624 1.1102, 1.3306 0.624 4.5315, 1.3306 0.624 1.1102, -2.5808 0.624 4.5315, -2.5808 0.624 1.1102, -1.6694 0.624 4.5315, -1.6694 0.624 1.1102, 1.1338 -0.5886 4.5315, 2.6357 -0.5886 4.5315, 1.1338 -0.5886 3.1142, 2.6357 -0.5886 1.1102, -0.2132 -0.5453 0.1102, -0.5872 -0.5453 0.1102, -0.5872 0.2229 0.1102, -2.2668 -0.9823 0.1102, -2.3839 -0.9823 0.1102, -2.3839 -0.5453 0.1102, -0.1497 -0.6673 0.1102, -0.1497 -0.9823 0.1102, -0.2132 -0.9823 0.1102, 0.1393 0.4636 0.1102, 0.1208 0.4636 0.1102, 0.1208 1.0177 0.1102, 0.1554 1.0177 0.1102, 0.1554 0.3041 0.1102, 0.1393 0.3061 0.1102, 0.1208 0.3041 0.1102, 0.1208 0.3061 0.1102, 0.0504 0.4474 0.1102, 0.0363 0.3041 0.1102, 0.0504 0.4636 0.1102, 0.0363 0.7028 0.1102, 0.1023 0.7028 0.1102, 0.1023 1.0177 0.1102, 0.0504 0.3061 0.1102, 0.0504 0.3223 0.1102, 0.1251 0.3828 0.1102, 0.1251 0.3223 0.1102, 0.1208 0.3828 0.1102, 0.1208 0.3223 0.1102, 0.0504 0.3828 0.1102, 0.0504 0.399 0.1102, 0.1208 0.399 0.1102, 0.1208 0.4474 0.1102, 0.1251 0.399 0.1102, 0.1251 0.4474 0.1102, -0.2132 0.4437 0.1102, -0.2132 1.0177 0.1102, -0.1497 0.7028 0.1102, -0.1497 1.0177 0.1102, -0.2132 0.3041 0.1102, -0.2132 0.3566 0.1102, -0.1666 0.3566 0.1102, -0.0987 0.3443 0.1102, -0.0879 0.3281 0.1102, -0.1273 0.3061 0.1102, -0.0762 0.3177 0.1102, -0.202 0.4636 0.1102, -0.204 0.4636 0.1102, -0.0643 0.3116 0.1102, -0.0451 0.3072 0.1102, -0.0267 0.3061 0.1102, -0.1427 0.3061 0.1102, 0.0222 0.3061 0.1102, 0.0222 0.4636 0.1102, -0.0096 0.4636 0.1102, -0.0349 0.4626 0.1102, -0.0596 0.4579 0.1102, -0.0756 0.4499 0.1102, -0.0871 0.4399 0.1102, -0.0971 0.4257 0.1102, -0.1037 0.4092 0.1102, -0.1068 0.3902 0.1102, -0.1071 0.3829 0.1102, -0.1048 0.3618 0.1102, -0.238 0.3566 0.1102, -0.2613 0.3061 0.1102, -0.2767 0.3061 0.1102, -0.5872 0.3041 0.1102, -0.5872 1.0177 0.1102, 0.1208 -0.5453 0.1102, 0.1023 -0.6673 0.1102, 0.0363 -0.5453 0.1102, 0.0363 -0.6673 0.1102, 0.8503 -0.9823 0.1102, 0.6341 -0.9823 0.1102, 0.8503 -0.6673 0.1102, 0.6341 -0.5453 0.1102, 1.1023 -0.6673 0.1102, 1.4763 -0.5453 0.1102, 1.1023 -0.9823 0.1102, 1.4763 -0.9823 0.1102, 1.8503 -0.9823 0.1102, 1.8503 -0.6673 0.1102, 2.1023 -0.6673 0.1102, 2.4389 -0.5453 0.1102, 2.1023 -0.9823 0.1102, 2.4389 -0.9823 0.1102, 1.8503 1.0177 0.1102, 1.8503 0.7028 0.1102, 1.4763 0.3041 0.1102, 2.1023 1.0177 0.1102, 2.4389 1.0177 0.1102, 2.1023 0.7028 0.1102, 2.4389 0.3041 0.1102, 0.6341 1.0177 0.1102, 0.8503 1.0177 0.1102, 0.6341 0.3041 0.1102, 0.8503 0.7028 0.1102, 1.1023 0.7028 0.1102, 1.4763 1.0177 0.1102, 1.1023 1.0177 0.1102, -0.8977 1.0177 0.1102, -0.8977 0.7028 0.1102, -1.1497 0.7028 0.1102, -1.5237 0.3041 0.1102, -1.1497 1.0177 0.1102, -1.5237 1.0177 0.1102, -2.2668 1.0177 0.1102, -2.1497 1.0177 0.1102, -2.1497 0.7028 0.1102, -1.8977 1.0177 0.1102, -1.8977 0.7028 0.1102, -2.2668 0.3041 0.1102, -2.1497 -0.9823 0.1102, -2.1497 -0.6673 0.1102, -2.2668 -0.5453 0.1102, -1.8977 -0.6673 0.1102, -1.5237 -0.5453 0.1102, -1.8977 -0.9823 0.1102, -1.5237 -0.9823 0.1102, -1.1497 -0.9823 0.1102, -1.1497 -0.6673 0.1102, -0.8977 -0.6673 0.1102, -0.8977 -0.9823 0.1102, 0.2647 0.3049 0.1102, 0.2835 0.3121 0.1102, 0.3341 0.3041 0.1102, 0.1855 0.3205 0.1102, 0.2018 0.3103 0.1102, 0.2197 0.3042 0.1102, 0.3052 0.4395 0.1102, 0.2888 0.4539 0.1102, 0.3341 1.0177 0.1102, 0.3105 0.3921 0.1102, 0.3109 0.3847 0.1102, 0.2411 0.4515 0.1102, 0.1839 0.3445 0.1102, 0.1716 0.3351 0.1102, 0.1716 0.4347 0.1102, 0.3071 0.4074 0.1102, 0.2987 0.3231 0.1102, 0.305 0.3296 0.1102, 0.3165 0.3469 0.1102, 0.316 0.424 0.1102, 0.2953 0.3419 0.1102, 0.2839 0.3315 0.1102, 0.1858 0.4497 0.1102, 0.203 0.4601 0.1102, 0.2173 0.465 0.1102, 0.1762 0.4405 0.1102, 0.1839 0.4252 0.1102, 0.1966 0.4375 0.1102, 0.1926 0.3357 0.1102, 0.2114 0.4458 0.1102, 0.2066 0.3261 0.1102, 0.2217 0.3204 0.1102, 0.2598 0.4492 0.1102, 0.2758 0.443 0.1102, 0.3088 0.3673 0.1102, 0.3038 0.3543 0.1102, 0.2183 0.4483 0.1102, 0.2357 0.4513 0.1102, 0.2527 0.3191 0.1102, 0.2687 0.3232 0.1102, 0.3228 0.365 0.1102, 0.325 0.3858 0.1102, 0.3224 0.4073 0.1102, 0.2721 0.4623 0.1102, 0.2528 0.4669 0.1102, 0.2403 0.4676 0.1102, 0.2402 0.3182 0.1102, 0.2903 0.4328 0.1102, 0.3001 0.4214 0.1102, 0.2577 0.3041 0.1102, 0.3341 0.2229 0.1102, 0.2401 0.3021 0.1102, 0.2322 0.3024 0.1102, 0.1554 0.2229 0.1102, 0.2202 0.3041 0.1102, 0.1023 -0.9823 0.1102, 0.1208 -0.9823 0.1102, 0.1554 -0.9823 0.1102, 0.1554 -0.5453 0.1102, 0.3341 -0.9823 0.1102, 0.3341 -0.5453 0.1102, -0.5872 -0.9823 0.1102, 1.1023 0.1437 0.1102, 1.4763 0.2229 0.1102, 1.1023 -0.1083 0.1102, 0.8503 -0.1083 0.1102, 0.8503 0.1437 0.1102, 0.6341 0.2229 0.1102, 0.1208 0.2229 0.1102, -0.2132 0.2229 0.1102, -0.1497 -0.1083 0.1102, 0.0363 -0.1083 0.1102, 0.1023 -0.1083 0.1102, 0.1023 0.1437 0.1102, 0.0363 0.2229 0.1102, 0.0363 0.1437 0.1102, -0.1497 0.1437 0.1102, -0.8977 0.1437 0.1102, -1.1497 0.1437 0.1102, -0.8977 -0.1083 0.1102, -1.1497 -0.1083 0.1102, -1.5237 0.2229 0.1102, -2.2668 0.2229 0.1102, -2.1497 0.1437 0.1102, -2.1497 -0.1083 0.1102, -1.8977 0.1437 0.1102, -1.8977 -0.1083 0.1102, 2.4389 0.2229 0.1102, 1.8503 0.1437 0.1102, 1.8503 -0.1083 0.1102, 2.1023 -0.1083 0.1102, 2.1023 0.1437 0.1102, 0.3432 0.3223 0.1102, 0.3432 0.3061 0.1102, 0.4179 0.3061 0.1102, 0.4037 0.3223 0.1102, 0.4037 0.4636 0.1102, 0.4179 0.4636 0.1102, -2.3839 0.2229 0.1102, -2.3839 0.3041 0.1102, -2.3839 1.0177 0.1102, -0.1497 0.1437 1.1102, 0.1023 0.1437 1.1102, 0.4763 0.624 1.1102, 0.4763 -0.5453 1.1102, 0.1023 -0.1083 1.1102, -0.1497 -0.1083 1.1102, -1.1497 -0.1083 1.1102, -1.1497 0.1437 1.1102, -1.8977 0.1437 1.1102, -1.8977 -0.1083 1.1102, -2.1497 -0.1083 1.1102, -2.5808 -0.5453 1.1102, -0.8977 0.1437 1.1102, -0.8977 -0.1083 1.1102, -1.2757 1.0177 1.1102, -1.6694 1.0177 1.1102, -2.1497 0.1437 1.1102, 1.8503 -0.1083 1.1102, 1.8503 0.1437 1.1102, 1.1023 0.1437 1.1102, 1.1023 -0.1083 1.1102, 0.8503 -0.1083 1.1102, 1.7243 1.0177 1.1102, 1.3306 1.0177 1.1102, 1.7243 0.624 1.1102, 0.8503 0.1437 1.1102, 2.6357 0.624 1.1102, 2.1023 0.1437 1.1102, 2.6357 -0.5453 1.1102, 2.1023 -0.1083 1.1102, 0.4763 -0.9823 1.1102, -2.5808 -0.5886 1.1102, -2.6202 -0.9823 0.1102, -2.9745 -0.9823 0.1102, -2.6202 1.0177 0.1102, -2.9745 1.0177 0.1102, 3.0294 1.0177 0.1102, 3.0294 -0.9823 0.1102, 2.6751 1.0177 0.1102, 2.6751 -0.9823 0.1102, 3.0294 1.0177 4.6102, 3.0294 -0.9823 4.6102, -2.9745 1.0177 4.6102, 1.7243 1.0177 4.6102, 1.1023 1.0177 0.2677, 0.8503 1.0177 0.2677, 1.8503 1.0177 0.2677, -0.1497 1.0177 0.2677, 2.1023 1.0177 0.2677, 2.557 1.0177 -0.0394, -0.8977 1.0177 0.2677, -1.1497 1.0177 0.2677, 0.1023 1.0177 0.2677, -1.8977 1.0177 0.2677, -1.6694 1.0177 4.6102, -2.1497 1.0177 0.2677, -2.5021 1.0177 -0.0394, -2.9745 -0.9823 4.6102, -1.4725 -0.9823 3.1142, -1.4725 -0.9823 4.6102, 1.8503 -0.9823 0.2677, -1.1497 -0.9823 0.2677, 1.5275 -0.9823 4.6102, 1.5275 -0.9823 3.1142, 2.1023 -0.9823 0.2677, -0.8977 -0.9823 0.2677, -2.5021 -0.9823 -0.0394, 2.557 -0.9823 -0.0394, 1.1338 -0.9823 3.1142, -0.1497 -0.9823 0.2677, 0.1023 -0.9823 0.2677, -2.1497 -0.9823 0.2677, -1.8977 -0.9823 0.2677, 0.8503 -0.9823 0.2677, -1.0788 -0.9823 3.1142, 1.1023 -0.9823 0.2677, -1.6694 0.7028 4.6102, -2.6595 0.7028 4.6102, -2.6595 -0.6673 4.6102, -1.1576 -0.6673 4.6102, -1.1576 -1.2658 4.6102, -1.4725 -1.5807 4.6102, 1.2125 -1.2658 4.6102, 1.5275 -1.5807 4.6102, 1.2125 -0.6673 4.6102, 2.7145 -0.6673 4.6102, 2.7145 0.7028 4.6102, 1.7243 0.7028 4.6102, 1.1338 -1.187 3.1142, 1.5275 -1.5807 3.1142, -1.0788 -1.187 3.1142, -1.4725 -1.5807 3.1142, -2.5808 -0.5886 4.5315, 1.7243 0.624 4.5315, 2.6357 0.624 4.5315, -1.0788 -0.5886 3.1142, -1.0788 -0.5886 4.5315
            ]
        }
        coordIndex [
            0,1,2,-1,2,1,3,-1,4,5,6,-1,6,5,7,-1,8,9,10,-1,10,9,11,-1,12,13,14,-1,14,13,15,-1,16,17,18,-1,18,17,19,-1,20,21,22,-1,22,21,23,-1,22,23,2,-1,2,23,0,-1,24,25,26,-1,27,28,29,-1,30,31,32,-1,33,34,35,-1,35,36,33,-1,33,36,37,-1,33,37,38,-1,38,37,39,-1,38,39,40,-1,41,42,43,-1,43,42,44,-1,43,44,34,-1,34,44,45,-1,34,45,35,-1,35,45,46,-1,40,39,47,-1,47,39,42,-1,47,42,48,-1,49,50,51,-1,51,50,52,-1,51,52,53,-1,52,48,53,-1,53,48,42,-1,53,42,54,-1,54,42,41,-1,54,41,55,-1,55,41,56,-1,55,56,57,-1,57,56,58,-1,59,60,61,-1,61,60,62,-1,63,64,65,-1,66,67,68,-1,68,67,69,-1,44,70,61,-1,61,70,71,-1,61,71,59,-1,69,72,68,-1,68,72,73,-1,68,73,74,-1,65,75,63,-1,63,75,68,-1,63,68,42,-1,42,68,74,-1,74,76,42,-1,42,76,77,-1,42,77,44,-1,44,77,78,-1,78,79,44,-1,44,79,80,-1,44,80,70,-1,70,80,81,-1,81,82,70,-1,70,82,83,-1,70,83,84,-1,84,85,70,-1,70,85,86,-1,70,86,68,-1,68,86,87,-1,68,87,66,-1,88,64,89,-1,89,64,63,-1,89,63,90,-1,90,63,91,-1,90,91,59,-1,59,91,92,-1,59,92,60,-1,93,94,95,-1,95,94,96,-1,95,96,24,-1,97,98,99,-1,99,98,100,-1,99,100,101,-1,101,100,102,-1,101,102,103,-1,103,102,104,-1,105,104,106,-1,106,104,102,-1,106,102,107,-1,107,102,108,-1,107,108,109,-1,109,108,110,-1,111,112,113,-1,114,115,116,-1,116,115,117,-1,116,117,112,-1,118,119,120,-1,120,119,121,-1,121,122,113,-1,111,113,123,-1,123,113,122,-1,123,122,124,-1,125,92,126,-1,126,92,91,-1,126,91,127,-1,127,91,128,-1,127,128,129,-1,129,128,130,-1,131,132,133,-1,134,130,135,-1,135,130,128,-1,135,128,133,-1,133,128,136,-1,133,136,131,-1,137,27,138,-1,138,27,139,-1,138,139,140,-1,140,139,141,-1,140,141,142,-1,142,141,143,-1,144,143,145,-1,145,143,141,-1,145,141,146,-1,146,141,25,-1,146,25,147,-1,148,149,150,-1,151,152,37,-1,37,152,153,-1,154,155,156,-1,157,158,159,-1,160,161,162,-1,157,159,163,-1,149,164,150,-1,150,164,165,-1,150,165,166,-1,154,156,167,-1,159,168,169,-1,170,36,171,-1,171,36,172,-1,170,173,36,-1,36,173,162,-1,36,162,37,-1,37,162,161,-1,37,161,151,-1,162,174,160,-1,160,174,175,-1,160,175,176,-1,176,175,177,-1,176,177,178,-1,178,177,179,-1,159,180,181,-1,158,182,159,-1,159,182,183,-1,159,183,168,-1,184,185,186,-1,186,185,159,-1,186,159,187,-1,187,159,169,-1,166,188,150,-1,150,188,189,-1,150,189,156,-1,156,189,190,-1,156,190,167,-1,155,191,156,-1,156,191,192,-1,156,192,36,-1,36,192,193,-1,36,193,172,-1,184,186,177,-1,177,186,194,-1,177,194,179,-1,181,195,159,-1,159,195,196,-1,159,196,163,-1,148,150,197,-1,197,150,198,-1,197,198,199,-1,199,198,200,-1,200,198,201,-1,200,201,202,-1,203,94,204,-1,204,94,93,-1,204,93,205,-1,205,93,206,-1,205,206,207,-1,207,206,208,-1,96,30,24,-1,24,30,32,-1,24,32,25,-1,25,32,209,-1,25,209,147,-1,210,211,212,-1,212,211,102,-1,212,102,213,-1,213,102,100,-1,213,100,214,-1,214,100,215,-1,93,216,206,-1,206,216,201,-1,206,201,208,-1,208,201,198,-1,26,217,24,-1,24,217,218,-1,24,218,95,-1,95,218,219,-1,95,219,93,-1,93,219,220,-1,93,220,216,-1,216,220,221,-1,216,221,222,-1,222,221,223,-1,222,223,217,-1,217,223,224,-1,217,224,218,-1,26,225,226,-1,225,26,227,-1,227,26,25,-1,227,25,228,-1,228,25,141,-1,228,141,226,-1,226,141,229,-1,226,229,26,-1,230,231,232,-1,231,230,233,-1,233,230,229,-1,233,229,234,-1,234,229,141,-1,234,141,232,-1,232,141,139,-1,232,139,230,-1,112,117,113,-1,113,117,235,-1,113,235,211,-1,211,235,236,-1,211,236,102,-1,102,236,237,-1,102,237,108,-1,108,237,238,-1,108,238,235,-1,235,238,239,-1,235,239,236,-1,121,113,120,-1,120,113,211,-1,120,211,215,-1,215,211,210,-1,215,210,214,-1,230,136,229,-1,229,136,128,-1,229,128,26,-1,26,128,91,-1,26,91,217,-1,217,91,63,-1,217,63,222,-1,222,63,42,-1,222,42,216,-1,216,42,39,-1,216,39,201,-1,201,39,37,-1,201,37,202,-1,202,37,153,-1,156,240,150,-1,150,240,241,-1,150,241,242,-1,243,240,244,-1,244,240,156,-1,244,156,245,-1,245,156,118,-1,245,118,242,-1,242,118,120,-1,242,120,150,-1,150,120,215,-1,150,215,198,-1,198,215,100,-1,198,100,208,-1,208,100,98,-1,208,98,207,-1,27,29,139,-1,139,29,246,-1,139,246,230,-1,230,246,247,-1,230,247,136,-1,136,247,248,-1,136,248,131,-1,249,250,251,-1,251,250,252,-1,252,250,253,-1,252,253,254,-1,255,256,257,-1,258,259,260,-1,251,13,249,-1,249,13,261,-1,249,261,254,-1,254,261,262,-1,254,262,252,-1,252,262,255,-1,263,264,13,-1,13,264,19,-1,260,259,17,-1,17,259,265,-1,17,265,19,-1,19,265,257,-1,19,257,13,-1,13,257,256,-1,13,256,261,-1,266,267,268,-1,269,270,252,-1,271,272,273,-1,273,272,15,-1,252,270,251,-1,251,270,274,-1,251,274,15,-1,15,274,268,-1,15,268,273,-1,273,268,267,-1,273,267,275,-1,275,267,276,-1,275,276,277,-1,277,276,278,-1,277,278,266,-1,279,1,252,-1,252,1,0,-1,268,269,266,-1,266,269,252,-1,266,252,277,-1,277,252,0,-1,277,0,23,-1,260,280,5,-1,4,279,5,-1,5,279,252,-1,5,252,260,-1,260,252,255,-1,260,255,258,-1,258,255,257,-1,281,282,283,-1,283,282,284,-1,285,286,287,-1,287,286,288,-1,289,290,285,-1,285,290,286,-1,283,284,291,-1,271,292,289,-1,11,9,272,-1,293,294,264,-1,111,124,295,-1,295,124,293,-1,296,62,125,-1,114,297,115,-1,115,297,287,-1,115,287,298,-1,264,263,293,-1,293,263,11,-1,293,11,295,-1,295,11,272,-1,295,272,297,-1,297,272,271,-1,297,271,287,-1,287,271,289,-1,287,289,285,-1,299,300,264,-1,125,299,296,-1,296,299,264,-1,296,264,301,-1,301,264,294,-1,301,294,46,-1,46,294,119,-1,129,134,302,-1,129,302,300,-1,291,303,264,-1,304,132,248,-1,300,302,264,-1,264,302,304,-1,264,304,291,-1,304,248,291,-1,291,248,305,-1,291,305,283,-1,306,291,282,-1,282,291,284,-1,307,308,306,-1,288,286,290,-1,1,105,309,-1,142,144,310,-1,290,311,312,-1,313,109,110,-1,314,147,31,-1,282,281,306,-1,306,281,315,-1,316,288,110,-1,110,288,290,-1,110,290,313,-1,313,290,312,-1,313,312,309,-1,309,312,317,-1,309,317,1,-1,1,317,3,-1,318,319,1,-1,28,137,320,-1,31,318,314,-1,314,318,1,-1,314,1,310,-1,310,1,4,-1,310,4,142,-1,142,4,321,-1,203,97,322,-1,315,28,306,-1,306,28,320,-1,306,320,307,-1,307,320,321,-1,307,321,323,-1,323,321,4,-1,323,4,6,-1,103,105,324,-1,324,105,1,-1,324,1,322,-1,322,1,319,-1,322,319,203,-1,325,303,326,-1,326,303,291,-1,326,291,327,-1,327,291,306,-1,327,306,328,-1,328,306,308,-1,328,308,329,-1,329,308,330,-1,329,330,331,-1,331,330,332,-1,331,332,333,-1,333,332,311,-1,333,311,334,-1,334,311,290,-1,334,290,335,-1,335,290,289,-1,335,289,336,-1,336,289,292,-1,317,312,337,-1,337,312,338,-1,337,338,339,-1,339,338,340,-1,339,340,323,-1,323,340,307,-1,330,340,332,-1,332,340,338,-1,307,340,308,-1,308,340,330,-1,338,312,332,-1,332,312,311,-1,341,280,16,-1,16,280,17,-1,342,273,343,-1,343,273,275,-1,343,275,21,-1,21,275,23,-1,7,5,344,-1,344,5,280,-1,344,280,345,-1,345,280,341,-1,288,316,287,-1,287,316,298,-1,316,110,298,-1,298,110,115,-1,315,281,305,-1,305,281,283,-1,28,315,248,-1,248,315,305,-1,
        ]
    }
}
Shape{
    appearance Appearance {
        material  Material 	{
            diffuseColor 0.5019607843137255 0.5019607843137255 0.0
            specularColor 0.25098039215686274 0.25098039215686274 0.0
            ambientIntensity 0.4447
            transparency 0.0
            shininess 0.5
        }
    }
    geometry IndexedFaceSet {
        ccw TRUE
        solid FALSE
        coord DEF co Coordinate {
            point [
                -2.1497 -0.0295 3.5118, -2.1497 -0.1083 3.4331, -1.8977 -0.0295 3.5118, -1.8977 -0.1083 3.4331, -2.1497 0.065 3.5118, -1.8977 0.065 3.5118, -2.1497 0.1437 3.4331, -1.8977 0.1437 3.4331, -2.1497 -0.1083 1.1102, -2.1497 0.1437 1.1102, -1.8977 0.1437 1.1102, -1.8977 -0.1083 1.1102
            ]
        }
        coordIndex [
            0,1,2,-1,2,1,3,-1,4,0,5,-1,5,0,2,-1,6,4,7,-1,7,4,5,-1,0,4,1,-1,1,4,6,-1,1,6,8,-1,8,6,9,-1,5,2,7,-1,7,2,3,-1,7,3,10,-1,10,3,11,-1,9,6,10,-1,10,6,7,-1,11,3,8,-1,8,3,1,-1,
        ]
    }
}
Shape{
    appearance Appearance {
        material  Material 	{
            diffuseColor 0.7529411764705882 0.7529411764705882 0.7529411764705882
            specularColor 0.3764705882352941 0.3764705882352941 0.3764705882352941
            ambientIntensity 0.7529
            transparency 0.0
            shininess 0.5
        }
    }
    geometry IndexedFaceSet {
        ccw TRUE
        solid FALSE
        coord DEF co Coordinate {
            point [
                -2.1497 -0.1083 0.1102, -2.1497 -0.1083 -1.2598, -1.8977 -0.1083 0.1102, -1.8977 -0.1083 -1.2598, -1.8977 0.1437 0.1102, -1.8977 0.1437 -1.2598, -2.1497 0.1437 0.1102, -2.1497 0.1437 -1.2598, -2.1497 0.065 -1.3386, -2.1497 -0.0295 -1.3386, -1.8977 -0.0295 -1.3386, -1.8977 0.065 -1.3386
            ]
        }
        coordIndex [
            0,1,2,-1,2,1,3,-1,4,5,6,-1,6,5,7,-1,8,9,7,-1,7,9,1,-1,7,1,6,-1,6,1,0,-1,10,11,3,-1,3,11,5,-1,3,5,2,-1,2,5,4,-1,8,7,11,-1,11,7,5,-1,9,8,10,-1,10,8,11,-1,1,9,3,-1,3,9,10,-1,
        ]
    }
}
Shape{
    appearance Appearance {
        material  Material 	{
            diffuseColor 0.11372549019607843 0.11372549019607843 0.11372549019607843
            specularColor 0.058823529411764705 0.058823529411764705 0.058823529411764705
            ambientIntensity 0.1137
            transparency 0.0
            shininess 0.5
        }
    }
    geometry IndexedFaceSet {
        ccw TRUE
        solid FALSE
        coord DEF co Coordinate {
            point [
                -1.8977 -0.9823 0.2677, -1.8977 -0.6673 0.2677, -1.8977 -0.9823 0.1102, -1.8977 -0.6673 0.1102, -2.1497 -0.6673 0.2677, -2.1497 -0.6673 0.1102, -2.1497 -0.9823 0.2677, -2.1497 -0.9823 0.1102, -1.8977 0.7028 0.2677, -1.8977 1.0177 0.2677, -1.8977 0.7028 0.1102, -1.8977 1.0177 0.1102, -2.1497 1.0177 0.2677, -2.1497 0.7028 0.2677, -2.1497 1.0177 0.1102, -2.1497 0.7028 0.1102
            ]
        }
        coordIndex [
            0,1,2,-1,2,1,3,-1,1,4,3,-1,3,4,5,-1,4,6,5,-1,5,6,7,-1,6,4,0,-1,0,4,1,-1,8,9,10,-1,10,9,11,-1,12,13,14,-1,14,13,15,-1,13,8,15,-1,15,8,10,-1,13,12,8,-1,8,12,9,-1,
        ]
    }
}
Shape{
    appearance Appearance {
        material  Material 	{
            diffuseColor 0.7529411764705882 0.7529411764705882 0.7529411764705882
            specularColor 0.3764705882352941 0.3764705882352941 0.3764705882352941
            ambientIntensity 0.7529
            transparency 0.0
            shininess 0.5
        }
    }
    geometry IndexedFaceSet {
        ccw TRUE
        solid FALSE
        coord DEF co Coordinate {
            point [
                -1.1497 -0.1083 0.1102, -1.1497 -0.1083 -1.2598, -0.8977 -0.1083 0.1102, -0.8977 -0.1083 -1.2598, -1.1497 0.065 -1.3386, -1.1497 -0.0295 -1.3386, -1.1497 0.1437 -1.2598, -1.1497 0.1437 0.1102, -0.8977 0.1437 0.1102, -0.8977 0.1437 -1.2598, -0.8977 -0.0295 -1.3386, -0.8977 0.065 -1.3386, -0.1497 -0.1083 0.1102, -0.1497 -0.1083 -1.2598, 0.0363 -0.1083 0.1102, 0.1023 -0.1083 -1.2598, 0.1023 -0.1083 0.1102, -0.1497 0.065 -1.3386, -0.1497 -0.0295 -1.3386, -0.1497 0.1437 -1.2598, -0.1497 0.1437 0.1102, 0.1023 0.1437 0.1102, 0.1023 0.1437 -1.2598, 0.0363 0.1437 0.1102, 0.1023 -0.0295 -1.3386, 0.1023 0.065 -1.3386, 0.8503 -0.1083 0.1102, 0.8503 -0.1083 -1.2598, 1.1023 -0.1083 0.1102, 1.1023 -0.1083 -1.2598, 0.8503 0.065 -1.3386, 0.8503 -0.0295 -1.3386, 0.8503 0.1437 -1.2598, 0.8503 0.1437 0.1102, 1.1023 0.1437 0.1102, 1.1023 0.1437 -1.2598, 1.1023 -0.0295 -1.3386, 1.1023 0.065 -1.3386, 1.8503 -0.1083 0.1102, 1.8503 -0.1083 -1.2598, 2.1023 -0.1083 0.1102, 2.1023 -0.1083 -1.2598, 1.8503 0.065 -1.3386, 1.8503 -0.0295 -1.3386, 1.8503 0.1437 -1.2598, 1.8503 0.1437 0.1102, 2.1023 0.1437 0.1102, 2.1023 0.1437 -1.2598, 2.1023 -0.0295 -1.3386, 2.1023 0.065 -1.3386
            ]
        }
        coordIndex [
            0,1,2,-1,2,1,3,-1,4,5,6,-1,6,5,1,-1,6,1,7,-1,7,1,0,-1,8,9,7,-1,7,9,6,-1,10,11,3,-1,3,11,9,-1,3,9,2,-1,2,9,8,-1,4,6,11,-1,11,6,9,-1,5,4,10,-1,10,4,11,-1,1,5,3,-1,3,5,10,-1,12,13,14,-1,14,13,15,-1,14,15,16,-1,17,18,19,-1,19,18,13,-1,19,13,20,-1,20,13,12,-1,21,22,23,-1,23,22,19,-1,23,19,20,-1,24,25,15,-1,15,25,22,-1,15,22,16,-1,16,22,21,-1,17,19,25,-1,25,19,22,-1,18,17,24,-1,24,17,25,-1,13,18,15,-1,15,18,24,-1,26,27,28,-1,28,27,29,-1,30,31,32,-1,32,31,27,-1,32,27,33,-1,33,27,26,-1,34,35,33,-1,33,35,32,-1,36,37,29,-1,29,37,35,-1,29,35,28,-1,28,35,34,-1,30,32,37,-1,37,32,35,-1,31,30,36,-1,36,30,37,-1,27,31,29,-1,29,31,36,-1,38,39,40,-1,40,39,41,-1,42,43,44,-1,44,43,39,-1,44,39,45,-1,45,39,38,-1,46,47,45,-1,45,47,44,-1,48,49,41,-1,41,49,47,-1,41,47,40,-1,40,47,46,-1,42,44,49,-1,49,44,47,-1,43,42,48,-1,48,42,49,-1,39,43,41,-1,41,43,48,-1,
        ]
    }
}
Shape{
    appearance Appearance {
        material  Material 	{
            diffuseColor 0.5019607843137255 0.5019607843137255 0.0
            specularColor 0.25098039215686274 0.25098039215686274 0.0
            ambientIntensity 0.4447
            transparency 0.0
            shininess 0.5
        }
    }
    geometry IndexedFaceSet {
        ccw TRUE
        solid FALSE
        coord DEF co Coordinate {
            point [
                -1.1497 -0.0295 3.5118, -1.1497 -0.1083 3.4331, -0.8977 -0.0295 3.5118, -0.8977 -0.1083 3.4331, -1.1497 0.065 3.5118, -0.8977 0.065 3.5118, -1.1497 0.1437 3.4331, -0.8977 0.1437 3.4331, -1.1497 -0.1083 1.1102, -1.1497 0.1437 1.1102, -0.8977 0.1437 1.1102, -0.8977 -0.1083 1.1102, -0.1497 -0.0295 3.5118, -0.1497 -0.1083 3.4331, 0.1023 -0.0295 3.5118, 0.1023 -0.1083 3.4331, -0.1497 0.065 3.5118, 0.1023 0.065 3.5118, -0.1497 0.1437 3.4331, 0.1023 0.1437 3.4331, -0.1497 -0.1083 1.1102, -0.1497 0.1437 1.1102, 0.1023 0.1437 1.1102, 0.1023 -0.1083 1.1102, 0.8503 -0.0295 3.5118, 0.8503 -0.1083 3.4331, 1.1023 -0.0295 3.5118, 1.1023 -0.1083 3.4331, 0.8503 0.065 3.5118, 1.1023 0.065 3.5118, 0.8503 0.1437 3.4331, 1.1023 0.1437 3.4331, 0.8503 -0.1083 1.1102, 0.8503 0.1437 1.1102, 1.1023 0.1437 1.1102, 1.1023 -0.1083 1.1102, 1.8503 -0.0295 3.5118, 1.8503 -0.1083 3.4331, 2.1023 -0.0295 3.5118, 2.1023 -0.1083 3.4331, 1.8503 0.065 3.5118, 2.1023 0.065 3.5118, 1.8503 0.1437 3.4331, 2.1023 0.1437 3.4331, 1.8503 -0.1083 1.1102, 1.8503 0.1437 1.1102, 2.1023 0.1437 1.1102, 2.1023 -0.1083 1.1102
            ]
        }
        coordIndex [
            0,1,2,-1,2,1,3,-1,4,0,5,-1,5,0,2,-1,6,4,7,-1,7,4,5,-1,0,4,1,-1,1,4,6,-1,1,6,8,-1,8,6,9,-1,9,6,10,-1,10,6,7,-1,5,2,7,-1,7,2,3,-1,7,3,10,-1,10,3,11,-1,11,3,8,-1,8,3,1,-1,12,13,14,-1,14,13,15,-1,16,12,17,-1,17,12,14,-1,18,16,19,-1,19,16,17,-1,12,16,13,-1,13,16,18,-1,13,18,20,-1,20,18,21,-1,21,18,22,-1,22,18,19,-1,17,14,19,-1,19,14,15,-1,19,15,22,-1,22,15,23,-1,23,15,20,-1,20,15,13,-1,24,25,26,-1,26,25,27,-1,28,24,29,-1,29,24,26,-1,30,28,31,-1,31,28,29,-1,24,28,25,-1,25,28,30,-1,25,30,32,-1,32,30,33,-1,33,30,34,-1,34,30,31,-1,29,26,31,-1,31,26,27,-1,31,27,34,-1,34,27,35,-1,35,27,32,-1,32,27,25,-1,36,37,38,-1,38,37,39,-1,40,36,41,-1,41,36,38,-1,42,40,43,-1,43,40,41,-1,36,40,37,-1,37,40,42,-1,37,42,44,-1,44,42,45,-1,45,42,46,-1,46,42,43,-1,41,38,43,-1,43,38,39,-1,43,39,46,-1,46,39,47,-1,47,39,44,-1,44,39,37,-1,
        ]
    }
}
Shape{
    appearance Appearance {
        material  Material 	{
            diffuseColor 0.11372549019607843 0.11372549019607843 0.11372549019607843
            specularColor 0.058823529411764705 0.058823529411764705 0.058823529411764705
            ambientIntensity 0.1137
            transparency 0.0
            shininess 0.5
        }
    }
    geometry IndexedFaceSet {
        ccw TRUE
        solid FALSE
        coord DEF co Coordinate {
            point [
                2.1023 0.7028 0.2677, 2.1023 1.0177 0.2677, 2.1023 0.7028 0.1102, 2.1023 1.0177 0.1102, 1.8503 1.0177 0.2677, 1.8503 0.7028 0.2677, 1.8503 1.0177 0.1102, 1.8503 0.7028 0.1102, 1.1023 0.7028 0.2677, 1.1023 1.0177 0.2677, 1.1023 0.7028 0.1102, 1.1023 1.0177 0.1102, 0.8503 1.0177 0.2677, 0.8503 0.7028 0.2677, 0.8503 1.0177 0.1102, 0.8503 0.7028 0.1102, 0.1023 0.7028 0.2677, 0.1023 1.0177 0.2677, 0.1023 0.7028 0.1102, 0.1023 1.0177 0.1102, -0.1497 1.0177 0.2677, -0.1497 0.7028 0.2677, -0.1497 1.0177 0.1102, -0.1497 0.7028 0.1102, 0.0363 0.7028 0.1102, -0.8977 0.7028 0.2677, -0.8977 1.0177 0.2677, -0.8977 0.7028 0.1102, -0.8977 1.0177 0.1102, -1.1497 1.0177 0.2677, -1.1497 0.7028 0.2677, -1.1497 1.0177 0.1102, -1.1497 0.7028 0.1102, 2.1023 -0.9823 0.2677, 2.1023 -0.6673 0.2677, 2.1023 -0.9823 0.1102, 2.1023 -0.6673 0.1102, 1.8503 -0.6673 0.2677, 1.8503 -0.6673 0.1102, 1.8503 -0.9823 0.2677, 1.8503 -0.9823 0.1102, 1.1023 -0.9823 0.2677, 1.1023 -0.6673 0.2677, 1.1023 -0.9823 0.1102, 1.1023 -0.6673 0.1102, 0.8503 -0.6673 0.2677, 0.8503 -0.6673 0.1102, 0.8503 -0.9823 0.2677, 0.8503 -0.9823 0.1102, 0.1023 -0.9823 0.2677, 0.1023 -0.6673 0.2677, 0.1023 -0.9823 0.1102, 0.1023 -0.6673 0.1102, 0.0363 -0.6673 0.1102, -0.1497 -0.6673 0.2677, -0.1497 -0.6673 0.1102, -0.1497 -0.9823 0.2677, -0.1497 -0.9823 0.1102, -0.8977 -0.9823 0.2677, -0.8977 -0.6673 0.2677, -0.8977 -0.9823 0.1102, -0.8977 -0.6673 0.1102, -1.1497 -0.6673 0.2677, -1.1497 -0.6673 0.1102, -1.1497 -0.9823 0.2677, -1.1497 -0.9823 0.1102
            ]
        }
        coordIndex [
            0,1,2,-1,2,1,3,-1,4,5,6,-1,6,5,7,-1,5,0,7,-1,7,0,2,-1,5,4,0,-1,0,4,1,-1,8,9,10,-1,10,9,11,-1,12,13,14,-1,14,13,15,-1,13,8,15,-1,15,8,10,-1,13,12,8,-1,8,12,9,-1,16,17,18,-1,18,17,19,-1,20,21,22,-1,22,21,23,-1,23,21,24,-1,24,21,16,-1,24,16,18,-1,21,20,16,-1,16,20,17,-1,25,26,27,-1,27,26,28,-1,29,30,31,-1,31,30,32,-1,30,25,32,-1,32,25,27,-1,30,29,25,-1,25,29,26,-1,33,34,35,-1,35,34,36,-1,34,37,36,-1,36,37,38,-1,37,39,38,-1,38,39,40,-1,39,37,33,-1,33,37,34,-1,41,42,43,-1,43,42,44,-1,42,45,44,-1,44,45,46,-1,45,47,46,-1,46,47,48,-1,47,45,41,-1,41,45,42,-1,49,50,51,-1,51,50,52,-1,52,50,53,-1,53,50,54,-1,53,54,55,-1,54,56,55,-1,55,56,57,-1,56,54,49,-1,49,54,50,-1,58,59,60,-1,60,59,61,-1,59,62,61,-1,61,62,63,-1,62,64,63,-1,63,64,65,-1,64,62,58,-1,58,62,59,-1,
        ]
    }
}
Shape{
    appearance Appearance {
        material  Material 	{
            diffuseColor 0.7529411764705882 0.7529411764705882 0.7529411764705882
            specularColor 0.3764705882352941 0.3764705882352941 0.3764705882352941
            ambientIntensity 0.7529
            transparency 0.0
            shininess 0.5
        }
    }
    geometry IndexedFaceSet {
        ccw TRUE
        solid FALSE
        coord DEF co Coordinate {
            point [
                -0.202 0.4636 0.1496, -0.204 0.4636 0.1496, -0.202 0.4636 0.1102, -0.204 0.4636 0.1102, -0.2132 0.4437 0.1102, -0.2767 0.3061 0.1496, -0.2767 0.3061 0.1102, -0.2613 0.3061 0.1496, -0.2613 0.3061 0.1102, -0.238 0.3566 0.1496, -0.238 0.3566 0.1102, -0.1666 0.3566 0.1496, -0.1666 0.3566 0.1102, -0.2132 0.3566 0.1102, -0.1427 0.3061 0.1496, -0.1427 0.3061 0.1102, -0.1273 0.3061 0.1496, -0.1273 0.3061 0.1102, -0.2306 0.3727 0.1496, -0.1743 0.3727 0.1496, -0.2028 0.4329 0.1496, -0.2306 0.3727 0.1102, -0.2028 0.4329 0.1102, -0.1743 0.3727 0.1102, -0.0267 0.3061 0.1496, 0.0222 0.3061 0.1496, -0.0267 0.3061 0.1102, 0.0222 0.3061 0.1102, 0.0222 0.4636 0.1496, 0.0222 0.4636 0.1102, -0.0096 0.4636 0.1496, -0.0096 0.4636 0.1102, -0.0596 0.4579 0.1496, -0.0596 0.4579 0.1102, -0.0349 0.4626 0.1102, -0.0349 0.4626 0.1496, -0.1071 0.3829 0.1496, -0.1071 0.3829 0.1102, -0.1068 0.3902 0.1102, -0.1068 0.3902 0.1496, -0.1037 0.4092 0.1102, -0.1037 0.4092 0.1496, -0.0971 0.4257 0.1102, -0.0971 0.4257 0.1496, -0.0871 0.4399 0.1102, -0.0871 0.4399 0.1496, -0.0756 0.4499 0.1102, -0.0756 0.4499 0.1496, -0.0451 0.3072 0.1102, -0.0451 0.3072 0.1496, -0.0643 0.3116 0.1102, -0.0643 0.3116 0.1496, -0.0762 0.3177 0.1102, -0.0762 0.3177 0.1496, -0.0879 0.3281 0.1102, -0.0879 0.3281 0.1496, -0.0987 0.3443 0.1102, -0.0987 0.3443 0.1496, -0.1048 0.3618 0.1102, -0.1048 0.3618 0.1496, -0.0274 0.4467 0.1496, -0.0514 0.443 0.1496, -0.0585 0.4405 0.1496, -0.0703 0.4336 0.1496, -0.0794 0.4247 0.1496, -0.0866 0.4132 0.1496, -0.0912 0.3996 0.1496, -0.0929 0.3829 0.1496, -0.0928 0.3785 0.1496, -0.09 0.3619 0.1496, -0.0848 0.35 0.1496, -0.077 0.3396 0.1496, -0.0676 0.3321 0.1496, -0.0551 0.3263 0.1496, -0.0327 0.3229 0.1496, -0.0101 0.3223 0.1496, 0.008 0.3223 0.1496, 0.008 0.4474 0.1496, -0.0031 0.4474 0.1496, 0.008 0.4474 0.1102, 0.008 0.3223 0.1102, -0.0031 0.4474 0.1102, -0.0274 0.4467 0.1102, -0.0514 0.443 0.1102, -0.0585 0.4405 0.1102, -0.0703 0.4336 0.1102, -0.0794 0.4247 0.1102, -0.0866 0.4132 0.1102, -0.0912 0.3996 0.1102, -0.0929 0.3829 0.1102, -0.0928 0.3785 0.1102, -0.09 0.3619 0.1102, -0.0848 0.35 0.1102, -0.077 0.3396 0.1102, -0.0676 0.3321 0.1102, -0.0551 0.3263 0.1102, -0.0327 0.3229 0.1102, -0.0101 0.3223 0.1102, 0.1393 0.3061 0.1496, 0.1393 0.4636 0.1496, 0.1393 0.3061 0.1102, 0.1393 0.4636 0.1102, 0.1208 0.4636 0.1102, 0.0504 0.4636 0.1496, 0.0504 0.4636 0.1102, 0.0504 0.4474 0.1496, 0.0504 0.4474 0.1102, 0.1208 0.4474 0.1102, 0.1251 0.4474 0.1496, 0.1251 0.4474 0.1102, 0.1251 0.399 0.1496, 0.1251 0.399 0.1102, 0.1208 0.399 0.1102, 0.0504 0.399 0.1496, 0.0504 0.399 0.1102, 0.0504 0.3828 0.1496, 0.0504 0.3828 0.1102, 0.1208 0.3828 0.1102, 0.1251 0.3828 0.1496, 0.1251 0.3828 0.1102, 0.1251 0.3223 0.1496, 0.1251 0.3223 0.1102, 0.1208 0.3223 0.1102, 0.0504 0.3223 0.1496, 0.0504 0.3223 0.1102, 0.0504 0.3061 0.1496, 0.0504 0.3061 0.1102, 0.1208 0.3061 0.1102, 0.1716 0.4347 0.1496, 0.1716 0.4347 0.1102, 0.1762 0.4405 0.1102, 0.1762 0.4405 0.1496, 0.1858 0.4497 0.1102, 0.1858 0.4497 0.1496, 0.203 0.4601 0.1102, 0.203 0.4601 0.1496, 0.2173 0.465 0.1102, 0.2173 0.465 0.1496, 0.2403 0.4676 0.1102, 0.2403 0.4676 0.1496, 0.1839 0.4252 0.1496, 0.1839 0.4252 0.1102, 0.2411 0.4515 0.1496, 0.2411 0.4515 0.1102, 0.2357 0.4513 0.1102, 0.2357 0.4513 0.1496, 0.2183 0.4483 0.1102, 0.2183 0.4483 0.1496, 0.2114 0.4458 0.1102, 0.2114 0.4458 0.1496, 0.1966 0.4375 0.1102, 0.1966 0.4375 0.1496, 0.3109 0.3847 0.1496, 0.3109 0.3847 0.1102, 0.3105 0.3921 0.1102, 0.3105 0.3921 0.1496, 0.3071 0.4074 0.1102, 0.3071 0.4074 0.1496, 0.3001 0.4214 0.1102, 0.3001 0.4214 0.1496, 0.2903 0.4328 0.1102, 0.2903 0.4328 0.1496, 0.2758 0.443 0.1102, 0.2758 0.443 0.1496, 0.2598 0.4492 0.1102, 0.2598 0.4492 0.1496, 0.2402 0.3182 0.1496, 0.2402 0.3182 0.1102, 0.2527 0.3191 0.1102, 0.2527 0.3191 0.1496, 0.2687 0.3232 0.1102, 0.2687 0.3232 0.1496, 0.2839 0.3315 0.1102, 0.2839 0.3315 0.1496, 0.2953 0.3419 0.1102, 0.2953 0.3419 0.1496, 0.3038 0.3543 0.1102, 0.3038 0.3543 0.1496, 0.3088 0.3673 0.1102, 0.3088 0.3673 0.1496, 0.1839 0.3445 0.1496, 0.1839 0.3445 0.1102, 0.1926 0.3357 0.1102, 0.1926 0.3357 0.1496, 0.2066 0.3261 0.1102, 0.2066 0.3261 0.1496, 0.2217 0.3204 0.1102, 0.2217 0.3204 0.1496, 0.1716 0.3351 0.1496, 0.1716 0.3351 0.1102, 0.2401 0.3021 0.1496, 0.2401 0.3021 0.1102, 0.2322 0.3024 0.1102, 0.2322 0.3024 0.1496, 0.2202 0.3041 0.1102, 0.2197 0.3042 0.1496, 0.2197 0.3042 0.1102, 0.2018 0.3103 0.1102, 0.2018 0.3103 0.1496, 0.1855 0.3205 0.1102, 0.1855 0.3205 0.1496, 0.2577 0.3041 0.1102, 0.2647 0.3049 0.1496, 0.2647 0.3049 0.1102, 0.2835 0.3121 0.1496, 0.2835 0.3121 0.1102, 0.2987 0.3231 0.1496, 0.2987 0.3231 0.1102, 0.305 0.3296 0.1496, 0.305 0.3296 0.1102, 0.325 0.3858 0.1496, 0.325 0.3858 0.1102, 0.3228 0.365 0.1102, 0.3228 0.365 0.1496, 0.3165 0.3469 0.1102, 0.3165 0.3469 0.1496, 0.2528 0.4669 0.1102, 0.2528 0.4669 0.1496, 0.2721 0.4623 0.1102, 0.2721 0.4623 0.1496, 0.2888 0.4539 0.1102, 0.2888 0.4539 0.1496, 0.3052 0.4395 0.1102, 0.3052 0.4395 0.1496, 0.316 0.424 0.1102, 0.316 0.424 0.1496, 0.3224 0.4073 0.1102, 0.3224 0.4073 0.1496, 0.4179 0.3061 0.1496, 0.4179 0.4636 0.1496, 0.4179 0.3061 0.1102, 0.4179 0.4636 0.1102, 0.4037 0.4636 0.1496, 0.4037 0.4636 0.1102, 0.4037 0.3223 0.1496, 0.4037 0.3223 0.1102, 0.3432 0.3223 0.1496, 0.3432 0.3223 0.1102, 0.3432 0.3061 0.1496, 0.3432 0.3061 0.1102
            ]
        }
        coordIndex [
            0,1,2,-1,2,1,3,-1,3,1,4,-1,4,1,5,-1,4,5,6,-1,5,7,6,-1,6,7,8,-1,7,9,8,-1,8,9,10,-1,11,12,9,-1,9,12,13,-1,9,13,10,-1,11,14,12,-1,12,14,15,-1,14,16,15,-1,15,16,17,-1,16,0,17,-1,17,0,2,-1,18,5,1,-1,0,19,1,-1,1,19,20,-1,1,20,18,-1,16,14,11,-1,7,5,9,-1,9,5,18,-1,9,18,11,-1,11,18,19,-1,11,19,16,-1,16,19,0,-1,18,20,21,-1,21,20,22,-1,19,18,23,-1,23,18,21,-1,20,19,22,-1,22,19,23,-1,24,25,26,-1,26,25,27,-1,25,28,27,-1,27,28,29,-1,28,30,29,-1,29,30,31,-1,32,33,34,-1,32,34,35,-1,35,34,31,-1,35,31,30,-1,36,37,38,-1,36,38,39,-1,39,38,40,-1,39,40,41,-1,41,40,42,-1,41,42,43,-1,43,42,44,-1,43,44,45,-1,45,44,46,-1,45,46,47,-1,47,46,33,-1,47,33,32,-1,24,26,48,-1,24,48,49,-1,49,48,50,-1,49,50,51,-1,51,50,52,-1,51,52,53,-1,53,52,54,-1,53,54,55,-1,55,54,56,-1,55,56,57,-1,57,56,58,-1,57,58,59,-1,59,58,37,-1,59,37,36,-1,60,61,32,-1,32,61,62,-1,32,62,47,-1,47,62,63,-1,47,63,45,-1,45,63,64,-1,45,64,43,-1,43,64,65,-1,43,65,41,-1,41,65,66,-1,41,66,39,-1,39,66,67,-1,39,67,36,-1,36,67,68,-1,36,68,59,-1,59,68,69,-1,59,69,57,-1,57,69,70,-1,57,70,55,-1,55,70,71,-1,55,71,53,-1,53,71,72,-1,53,72,51,-1,51,72,73,-1,51,73,49,-1,49,73,74,-1,49,74,24,-1,24,74,75,-1,24,75,25,-1,25,75,76,-1,25,76,28,-1,28,76,77,-1,28,77,30,-1,30,77,78,-1,30,78,35,-1,35,78,60,-1,35,60,32,-1,77,76,79,-1,79,76,80,-1,78,77,81,-1,81,77,79,-1,78,81,82,-1,78,82,60,-1,60,82,83,-1,60,83,61,-1,61,83,84,-1,61,84,62,-1,62,84,85,-1,62,85,63,-1,63,85,86,-1,63,86,64,-1,64,86,87,-1,64,87,65,-1,65,87,88,-1,65,88,66,-1,66,88,89,-1,66,89,67,-1,67,89,90,-1,67,90,68,-1,68,90,91,-1,68,91,69,-1,69,91,92,-1,69,92,70,-1,70,92,93,-1,70,93,71,-1,71,93,94,-1,71,94,72,-1,72,94,95,-1,72,95,73,-1,73,95,96,-1,73,96,74,-1,74,96,97,-1,74,97,75,-1,76,75,80,-1,80,75,97,-1,98,99,100,-1,100,99,101,-1,101,99,102,-1,102,99,103,-1,102,103,104,-1,103,105,104,-1,104,105,106,-1,106,105,107,-1,107,105,108,-1,107,108,109,-1,108,110,109,-1,109,110,111,-1,111,110,112,-1,112,110,113,-1,112,113,114,-1,113,115,114,-1,114,115,116,-1,116,115,117,-1,117,115,118,-1,117,118,119,-1,118,120,119,-1,119,120,121,-1,121,120,122,-1,122,120,123,-1,122,123,124,-1,123,125,124,-1,124,125,126,-1,126,125,127,-1,127,125,98,-1,127,98,100,-1,98,125,123,-1,123,120,98,-1,98,120,118,-1,98,118,99,-1,105,103,108,-1,108,103,99,-1,108,99,110,-1,110,99,118,-1,110,118,113,-1,113,118,115,-1,128,129,130,-1,128,130,131,-1,131,130,132,-1,131,132,133,-1,133,132,134,-1,133,134,135,-1,135,134,136,-1,135,136,137,-1,137,136,138,-1,137,138,139,-1,128,140,129,-1,129,140,141,-1,142,143,144,-1,142,144,145,-1,145,144,146,-1,145,146,147,-1,147,146,148,-1,147,148,149,-1,149,148,150,-1,149,150,151,-1,151,150,141,-1,151,141,140,-1,152,153,154,-1,152,154,155,-1,155,154,156,-1,155,156,157,-1,157,156,158,-1,157,158,159,-1,159,158,160,-1,159,160,161,-1,161,160,162,-1,161,162,163,-1,163,162,164,-1,163,164,165,-1,165,164,143,-1,165,143,142,-1,166,167,168,-1,166,168,169,-1,169,168,170,-1,169,170,171,-1,171,170,172,-1,171,172,173,-1,173,172,174,-1,173,174,175,-1,175,174,176,-1,175,176,177,-1,177,176,178,-1,177,178,179,-1,179,178,153,-1,179,153,152,-1,180,181,182,-1,180,182,183,-1,183,182,184,-1,183,184,185,-1,185,184,186,-1,185,186,187,-1,187,186,167,-1,187,167,166,-1,180,188,181,-1,181,188,189,-1,190,191,192,-1,190,192,193,-1,193,192,194,-1,193,194,195,-1,194,196,195,-1,195,196,197,-1,195,197,198,-1,198,197,199,-1,198,199,200,-1,200,199,189,-1,200,189,188,-1,191,190,201,-1,201,190,202,-1,201,202,203,-1,203,202,204,-1,203,204,205,-1,205,204,206,-1,205,206,207,-1,207,206,208,-1,207,208,209,-1,210,211,212,-1,210,212,213,-1,213,212,214,-1,213,214,215,-1,215,214,209,-1,215,209,208,-1,139,138,216,-1,139,216,217,-1,217,216,218,-1,217,218,219,-1,219,218,220,-1,219,220,221,-1,221,220,222,-1,221,222,223,-1,223,222,224,-1,223,224,225,-1,225,224,226,-1,225,226,227,-1,227,226,211,-1,227,211,210,-1,140,128,131,-1,188,180,200,-1,200,180,183,-1,200,183,198,-1,198,183,185,-1,198,185,195,-1,195,185,187,-1,195,187,193,-1,193,187,166,-1,140,131,151,-1,151,131,133,-1,151,133,149,-1,149,133,135,-1,149,135,147,-1,147,135,137,-1,147,137,145,-1,145,137,139,-1,145,139,142,-1,142,139,217,-1,142,217,165,-1,165,217,219,-1,165,219,163,-1,163,219,221,-1,163,221,161,-1,161,221,223,-1,161,223,159,-1,159,223,225,-1,159,225,157,-1,157,225,227,-1,157,227,155,-1,155,227,210,-1,155,210,152,-1,152,210,179,-1,179,210,213,-1,179,213,177,-1,177,213,215,-1,177,215,175,-1,175,215,208,-1,175,208,173,-1,173,208,206,-1,173,206,171,-1,171,206,204,-1,171,204,169,-1,169,204,202,-1,169,202,166,-1,166,202,190,-1,166,190,193,-1,228,229,230,-1,230,229,231,-1,229,232,231,-1,231,232,233,-1,232,234,233,-1,233,234,235,-1,234,236,235,-1,235,236,237,-1,236,238,237,-1,237,238,239,-1,238,228,239,-1,239,228,230,-1,232,229,234,-1,234,229,228,-1,234,228,236,-1,236,228,238,-1,
        ]
    }
}
Shape{
    appearance Appearance {
        material  Material 	{
            diffuseColor 0.11372549019607843 0.11372549019607843 0.11372549019607843
            specularColor 0.058823529411764705 0.058823529411764705 0.058823529411764705
            ambientIntensity 0.1137
            transparency 0.0
            shininess 0.5
        }
    }
    geometry IndexedFaceSet {
        ccw TRUE
        solid FALSE
        coord DEF co Coordinate {
            point [
                -0.2028 0.4329 0.1102, -0.1743 0.3727 0.1102, -0.2306 0.3727 0.1102, 0.008 0.4474 0.1102, 0.008 0.3223 0.1102, -0.0031 0.4474 0.1102, -0.0101 0.3223 0.1102, -0.0274 0.4467 0.1102, -0.0327 0.3229 0.1102, -0.0514 0.443 0.1102, -0.0848 0.35 0.1102, -0.09 0.3619 0.1102, -0.0928 0.3785 0.1102, -0.0929 0.3829 0.1102, -0.0551 0.3263 0.1102, -0.0676 0.3321 0.1102, -0.077 0.3396 0.1102, -0.0912 0.3996 0.1102, -0.0866 0.4132 0.1102, -0.0794 0.4247 0.1102, -0.0703 0.4336 0.1102, -0.0585 0.4405 0.1102, 1.3306 0.624 1.1102, 1.3306 1.0177 1.1102, 1.3306 0.624 4.5315, 1.3306 1.0177 4.6102, 1.3306 0.7028 4.6102, 1.7243 0.7028 4.6102, 1.7243 1.0177 4.6102, 1.7243 0.624 4.5315, 1.7243 1.0177 1.1102, 1.7243 0.624 1.1102, -1.2757 0.7028 4.6102, -1.2757 1.0177 4.6102, -1.2757 0.624 4.5315, -1.2757 1.0177 1.1102, -1.2757 0.624 1.1102, -1.6694 0.624 4.5315, -1.6694 0.624 1.1102, -1.6694 0.7028 4.6102, -1.6694 1.0177 1.1102, -1.6694 1.0177 4.6102, -0.5631 -0.5886 3.1142, -1.0788 -0.5886 3.1142, -0.5631 -0.9823 3.1142, -1.0788 -0.9823 3.1142, 1.1338 -0.9823 3.1142, 1.1338 -0.5886 3.1142, 0.618 -0.9823 3.1142, 0.618 -0.5886 3.1142, -1.0788 -0.5886 4.5315, -1.0788 -1.187 4.5315, -1.0788 -1.187 3.1142, 1.1338 -1.187 3.1142, 1.1338 -1.187 4.5315, 1.1338 -0.5886 4.5315, -2.6595 0.7028 4.6102, -2.5808 0.624 4.5315, -2.6595 -0.6673 4.6102, -2.5808 -0.5886 4.5315, -1.1576 -0.6673 4.6102, -1.1576 -1.2658 4.6102, 1.2125 -1.2658 4.6102, 1.2125 -0.6673 4.6102, 2.7145 -0.6673 4.6102, 2.6357 -0.5886 4.5315, 2.7145 0.7028 4.6102, 2.6357 0.624 4.5315
            ]
        }
        coordIndex [
            0,1,2,-1,3,4,5,-1,5,4,6,-1,5,6,7,-1,7,6,8,-1,7,8,9,-1,10,11,8,-1,8,11,12,-1,8,12,13,-1,14,15,8,-1,8,15,16,-1,8,16,10,-1,13,17,8,-1,8,17,18,-1,8,18,19,-1,19,20,8,-1,8,20,21,-1,8,21,9,-1,22,23,24,-1,24,23,25,-1,24,25,26,-1,27,28,29,-1,29,28,30,-1,29,30,31,-1,32,33,34,-1,34,33,35,-1,34,35,36,-1,37,38,39,-1,39,38,40,-1,39,40,41,-1,42,43,44,-1,44,43,45,-1,46,47,48,-1,48,47,49,-1,43,50,45,-1,45,50,51,-1,45,51,52,-1,53,54,46,-1,46,54,55,-1,46,55,47,-1,54,53,51,-1,51,53,52,-1,32,34,26,-1,26,34,24,-1,56,57,39,-1,39,57,37,-1,58,59,56,-1,56,59,57,-1,60,50,58,-1,58,50,59,-1,61,51,60,-1,60,51,50,-1,62,54,61,-1,61,54,51,-1,63,55,62,-1,62,55,54,-1,64,65,63,-1,63,65,55,-1,66,67,64,-1,64,67,65,-1,27,29,66,-1,66,29,67,-1,
        ]
    }
}