#VRML V2.0 utf8
# 3D model generated by easyeda2kicad.py (https://github.com/uPesy/easyeda2kicad.py)

Shape{
    appearance Appearance {
        material  Material 	{
            diffuseColor 1.0 1.0 1.0
            specularColor 0.5019607843137255 0.5019607843137255 0.5019607843137255
            ambientIntensity 1.0
            transparency 0.0
            shininess 0.5
        }
    }
    geometry IndexedFaceSet {
        ccw TRUE
        solid FALSE
        coord DEF co Coordinate {
            point [
                -2.0866 -0.7776 0.0, -2.3622 -0.7776 0.0, -2.0866 -0.3051 0.0, -2.3622 -0.3051 0.0, -2.4803 -0.7776 0.1181, -2.4803 -0.3051 0.1181, -2.4785 -0.3051 0.0976, -2.4785 -0.7776 0.0976, -2.4732 -0.3051 0.0777, -2.4732 -0.7776 0.0777, -2.4645 -0.3051 0.0591, -2.4645 -0.7776 0.0591, -2.4527 -0.3051 0.0422, -2.4527 -0.7776 0.0422, -2.4381 -0.3051 0.0276, -2.4381 -0.7776 0.0276, -2.4213 -0.3051 0.0158, -2.4213 -0.7776 0.0158, -2.4026 -0.3051 0.0071, -2.4026 -0.7776 0.0071, -2.3827 -0.3051 0.0018, -2.3827 -0.7776 0.0018, -2.4803 -0.7776 0.3937, -2.4803 -0.3051 0.3937, -2.4016 -0.7776 0.3937, -2.4016 -0.3051 0.3937, -2.4016 -0.7776 0.1181, -2.4016 -0.3051 0.1181, -2.3622 -0.7776 0.0787, -2.3622 -0.3051 0.0787, -2.371 -0.7776 0.0797, -2.371 -0.3051 0.0797, -2.3793 -0.7776 0.0826, -2.3793 -0.3051 0.0826, -2.3868 -0.7776 0.0873, -2.3868 -0.3051 0.0873, -2.393 -0.7776 0.0936, -2.393 -0.3051 0.0936, -2.3977 -0.7776 0.101, -2.3977 -0.3051 0.101, -2.4006 -0.7776 0.1093, -2.4006 -0.3051 0.1093, -2.0866 -0.7776 0.0787, -2.0866 -0.3051 0.0787, 2.3622 -0.7776 0.0, 2.0866 -0.7776 0.0, 2.3622 -0.3051 0.0, 2.0866 -0.3051 0.0, 2.3827 -0.3051 0.0018, 2.3827 -0.7776 0.0018, 2.4026 -0.3051 0.0071, 2.4026 -0.7776 0.0071, 2.4213 -0.3051 0.0158, 2.4213 -0.7776 0.0158, 2.4381 -0.3051 0.0276, 2.4381 -0.7776 0.0276, 2.4527 -0.3051 0.0422, 2.4527 -0.7776 0.0422, 2.4645 -0.3051 0.0591, 2.4645 -0.7776 0.0591, 2.4732 -0.3051 0.0777, 2.4732 -0.7776 0.0777, 2.4785 -0.3051 0.0976, 2.4785 -0.7776 0.0976, 2.4803 -0.3051 0.1181, 2.4803 -0.7776 0.1181, 2.4803 -0.7776 0.3937, 2.4803 -0.3051 0.3937, 2.4016 -0.7776 0.3937, 2.4016 -0.3051 0.3937, 2.4016 -0.7776 0.1181, 2.4016 -0.3051 0.1181, 2.4006 -0.7776 0.1093, 2.4006 -0.3051 0.1093, 2.3977 -0.7776 0.101, 2.3977 -0.3051 0.101, 2.393 -0.7776 0.0936, 2.393 -0.3051 0.0936, 2.3868 -0.7776 0.0873, 2.3868 -0.3051 0.0873, 2.3793 -0.7776 0.0826, 2.3793 -0.3051 0.0826, 2.371 -0.7776 0.0797, 2.371 -0.3051 0.0797, 2.3622 -0.7776 0.0787, 2.3622 -0.3051 0.0787, 2.0866 -0.7776 0.0787, 2.0866 -0.3051 0.0787
            ]
        }
        coordIndex [
            0,1,2,-1,2,1,3,-1,4,5,6,-1,4,6,7,-1,7,6,8,-1,7,8,9,-1,9,8,10,-1,9,10,11,-1,11,10,12,-1,11,12,13,-1,13,12,14,-1,13,14,15,-1,15,14,16,-1,15,16,17,-1,17,16,18,-1,17,18,19,-1,19,18,20,-1,19,20,21,-1,21,20,3,-1,21,3,1,-1,4,22,5,-1,5,22,23,-1,22,24,23,-1,23,24,25,-1,24,26,25,-1,25,26,27,-1,28,29,30,-1,30,29,31,-1,30,31,32,-1,32,31,33,-1,32,33,34,-1,34,33,35,-1,34,35,36,-1,36,35,37,-1,36,37,38,-1,38,37,39,-1,38,39,40,-1,40,39,41,-1,40,41,26,-1,26,41,27,-1,28,42,29,-1,29,42,43,-1,42,0,43,-1,43,0,2,-1,24,22,26,-1,26,22,4,-1,26,4,40,-1,0,42,1,-1,1,42,28,-1,1,28,21,-1,21,28,30,-1,21,30,19,-1,19,30,32,-1,4,7,40,-1,40,7,9,-1,40,9,38,-1,38,9,11,-1,38,11,36,-1,36,11,13,-1,36,13,34,-1,34,13,15,-1,34,15,32,-1,32,15,17,-1,32,17,19,-1,31,18,33,-1,33,18,16,-1,33,16,35,-1,35,16,14,-1,35,14,37,-1,37,14,12,-1,37,12,39,-1,23,25,5,-1,5,25,27,-1,5,27,6,-1,6,27,41,-1,6,41,8,-1,8,41,39,-1,8,39,10,-1,10,39,12,-1,43,2,29,-1,29,2,3,-1,29,3,31,-1,31,3,20,-1,31,20,18,-1,44,45,46,-1,46,45,47,-1,44,46,48,-1,44,48,49,-1,49,48,50,-1,49,50,51,-1,51,50,52,-1,51,52,53,-1,53,52,54,-1,53,54,55,-1,55,54,56,-1,55,56,57,-1,57,56,58,-1,57,58,59,-1,59,58,60,-1,59,60,61,-1,61,60,62,-1,61,62,63,-1,63,62,64,-1,63,64,65,-1,66,65,67,-1,67,65,64,-1,68,66,69,-1,69,66,67,-1,70,68,71,-1,71,68,69,-1,70,71,72,-1,72,71,73,-1,72,73,74,-1,74,73,75,-1,74,75,76,-1,76,75,77,-1,76,77,78,-1,78,77,79,-1,78,79,80,-1,80,79,81,-1,80,81,82,-1,82,81,83,-1,82,83,84,-1,84,83,85,-1,86,84,87,-1,87,84,85,-1,45,86,47,-1,47,86,87,-1,86,45,84,-1,84,45,44,-1,84,44,82,-1,66,68,65,-1,65,68,70,-1,65,70,63,-1,63,70,72,-1,63,72,61,-1,61,72,74,-1,44,49,82,-1,82,49,51,-1,82,51,80,-1,80,51,53,-1,80,53,78,-1,78,53,55,-1,78,55,76,-1,76,55,57,-1,76,57,74,-1,74,57,59,-1,74,59,61,-1,73,60,75,-1,75,60,58,-1,75,58,77,-1,77,58,56,-1,77,56,79,-1,79,56,54,-1,79,54,81,-1,69,67,71,-1,71,67,64,-1,71,64,73,-1,73,64,62,-1,73,62,60,-1,47,87,46,-1,46,87,85,-1,46,85,48,-1,48,85,83,-1,48,83,50,-1,50,83,81,-1,50,81,52,-1,52,81,54,-1,
        ]
    }
}
Shape{
    appearance Appearance {
        material  Material 	{
            diffuseColor 0.7529411764705882 0.7529411764705882 0.7529411764705882
            specularColor 0.3764705882352941 0.3764705882352941 0.3764705882352941
            ambientIntensity 0.7529
            transparency 0.0
            shininess 0.5
        }
    }
    geometry IndexedFaceSet {
        ccw TRUE
        solid FALSE
        coord DEF co Coordinate {
            point [
                -1.8898 -0.4232 0.7913, -2.2835 -0.4232 0.7913, -2.1646 -1.0353 0.7913, -2.2835 -1.3287 0.7913, -2.0591 -1.2116 0.7913, -1.8898 -1.3287 0.7913, -1.9536 -1.0353 0.7913, -0.0641 -1.3287 0.0039, -1.8898 -1.3287 0.0039, -1.8898 -0.5248 0.0039, 0.0583 -0.5248 0.0039, 0.0631 -0.5254 0.0039, 1.8898 -1.3287 0.0039, 0.0663 -0.5255 0.0039, 1.8898 -0.5248 0.0039, -0.0641 0.3642 0.0039, -0.0526 -0.5111 0.0039, -0.0641 -0.5248 0.0039, -0.0526 -0.5241 0.0039, 0.0108 -0.5241 0.0039, -0.0497 -0.4189 0.0039, -0.0051 -0.4189 0.0039, -0.0051 -0.4578 0.0039, 0.0338 -0.5179 0.0039, 0.0338 -0.505 0.0039, 0.0108 -0.4059 0.0039, 0.0464 -0.5231 0.0039, -0.0051 -0.4708 0.0039, -0.0051 -0.5111 0.0039, -0.0469 -0.4708 0.0039, -0.0469 -0.4578 0.0039, 0.1922 -0.5241 0.0039, 0.1922 -0.4059 0.0039, 1.1811 0.3642 0.0039, 0.7874 0.3642 0.0039, 0.0731 -0.4188 0.0039, 0.0819 -0.422 0.0039, 0.0359 -0.5061 0.0039, 0.0901 -0.4274 0.0039, 0.0972 -0.4353 0.0039, 0.1058 -0.4663 0.0039, 0.1046 -0.479 0.0039, 0.1014 -0.4892 0.0039, 0.0751 -0.5113 0.0039, 0.0641 -0.5125 0.0039, 0.0837 -0.5081 0.0039, 0.091 -0.5032 0.0039, 0.0965 -0.4974 0.0039, 0.0484 -0.5108 0.0039, 0.0733 -0.5248 0.0039, 0.1318 -0.5241 0.0039, 0.0809 -0.524 0.0039, 0.0923 -0.52 0.0039, -0.0497 -0.4059 0.0039, 0.1021 -0.4444 0.0039, 0.1053 -0.4571 0.0039, 1.8898 -0.1476 0.0039, 2.2835 -0.1476 0.0039, 1.5748 0.3642 0.0039, 2.2835 0.4823 0.0039, 1.5748 0.4823 0.0039, 0.1154 -0.4371 0.0039, 0.1085 -0.426 0.0039, 0.1764 -0.4059 0.0039, 0.0979 -0.4158 0.0039, 0.0 0.3642 0.0039, 0.3937 0.3642 0.0039, 0.1018 -0.514 0.0039, 0.1107 -0.5046 0.0039, 0.1318 -0.5111 0.0039, 0.117 -0.4934 0.0039, 0.1764 -0.5111 0.0039, 0.1205 -0.4809 0.0039, 0.1217 -0.4672 0.0039, 0.12 -0.4504 0.0039, 0.0866 -0.4093 0.0039, 0.0735 -0.4055 0.0039, 0.0616 -0.4045 0.0039, 0.0475 -0.4055 0.0039, 0.0338 -0.4092 0.0039, 0.0338 -0.425 0.0039, 0.0471 -0.4193 0.0039, 0.0615 -0.4175 0.0039, -0.286 -0.5241 0.0039, -0.2687 -0.5241 0.0039, -0.1794 -0.5241 0.0039, -0.1648 -0.4917 0.0039, -0.1581 -0.5023 0.0039, -0.1483 -0.5116 0.0039, -0.136 -0.5187 0.0039, -0.1224 -0.5228 0.0039, -0.1078 -0.5241 0.0039, -0.0757 -0.5241 0.0039, -0.0757 -0.4059 0.0039, -0.109 -0.4059 0.0039, -0.1529 -0.4213 0.0039, -0.1612 -0.4306 0.0039, -0.224 -0.4059 0.0039, -0.1667 -0.4408 0.0039, -0.3937 0.3642 0.0039, -0.2399 -0.4059 0.0039, -2.2835 0.4823 0.0039, -1.5748 0.4823 0.0039, -2.2835 -0.1476 0.0039, -1.5748 0.3642 0.0039, -1.8898 -0.1476 0.0039, -1.4961 0.3642 0.0039, -1.1811 0.3642 0.0039, -0.1967 -0.5241 0.0039, -0.2079 -0.4909 0.0039, -0.2567 -0.4909 0.0039, -0.1261 -0.4078 0.0039, -0.1399 -0.4126 0.0039, -0.1527 -0.4212 0.0039, -0.1699 -0.4524 0.0039, -0.1707 -0.4635 0.0039, -0.1691 -0.4793 0.0039, -0.7874 0.3642 0.0039, 1.8898 -1.3287 0.3976, 1.8898 -0.7382 0.3976, 1.8898 -1.3287 0.2008, 1.8898 -0.7382 0.2008, -1.8898 -0.7382 0.3976, -1.8898 -1.3287 0.3976, -1.8898 -0.7382 0.2008, -1.8898 -1.3287 0.2008, 1.4173 0.3642 0.4764, 1.5748 0.3642 0.2402, 1.3386 0.3642 0.4764, 1.1811 0.3642 0.2402, 1.3386 0.3642 0.6732, 1.1811 0.3642 0.7913, 1.4173 0.3642 0.6732, 1.5748 0.3642 0.7913, 1.0236 0.3642 0.4764, 0.9449 0.3642 0.4764, 0.7874 0.3642 0.2402, 0.9449 0.3642 0.6732, 0.7874 0.3642 0.7913, 1.0236 0.3642 0.6732, 0.6299 0.3642 0.4764, 0.5512 0.3642 0.4764, 0.3937 0.3642 0.2402, 0.5512 0.3642 0.6732, 0.3937 0.3642 0.7913, 0.6299 0.3642 0.6732, 0.0 0.3642 0.2402, 0.2362 0.3642 0.4764, 0.1575 0.3642 0.4764, 0.1575 0.3642 0.6732, 0.0 0.3642 0.7913, 0.2362 0.3642 0.6732, -0.1575 0.3642 0.4764, -0.2362 0.3642 0.4764, -0.3937 0.3642 0.2402, -0.2362 0.3642 0.6732, -0.3937 0.3642 0.7913, -0.1575 0.3642 0.6732, -0.5512 0.3642 0.4764, -0.6299 0.3642 0.4764, -0.7874 0.3642 0.2402, -0.6299 0.3642 0.6732, -0.7874 0.3642 0.7913, -0.5512 0.3642 0.6732, -0.9449 0.3642 0.4764, -1.0236 0.3642 0.4764, -1.1811 0.3642 0.2402, -1.0236 0.3642 0.6732, -1.1811 0.3642 0.7913, -0.9449 0.3642 0.6732, -1.4961 0.3642 0.7913, -1.3386 0.3642 0.6732, -1.3386 0.3642 0.4764, -1.4173 0.3642 0.4764, -1.4961 0.3642 0.2402, -1.4173 0.3642 0.6732, -1.5748 0.3642 0.7913, -1.5748 0.3642 0.2402, -1.8898 0.4823 0.7913, -1.5748 0.4823 0.7913, -1.8898 0.4823 0.2008, -2.2835 0.4823 0.2008, 1.8898 -0.3445 0.7913, 1.8898 0.4823 0.7913, 1.5748 0.4823 0.7913, 1.5748 -0.3445 0.7913, 1.5748 -0.5807 0.7913, -1.8898 -0.3445 0.7913, -1.5748 -0.3445 0.7913, -1.5748 -0.5807 0.7913, 1.8898 -1.3287 0.7913, 2.2835 -1.3287 0.7913, 1.8898 -0.4232 0.7913, 2.2835 -0.4232 0.7913
            ]
        }
        coordIndex [
            0,1,2,-1,2,1,3,-1,2,3,4,-1,4,3,5,-1,4,5,6,-1,6,5,0,-1,6,0,2,-1,7,8,9,-1,10,11,7,-1,7,11,12,-1,12,11,13,-1,12,13,14,-1,15,16,17,-1,17,16,18,-1,17,18,19,-1,20,21,22,-1,23,19,24,-1,24,19,25,-1,23,26,19,-1,19,26,10,-1,19,10,17,-1,27,28,29,-1,29,28,16,-1,29,16,30,-1,31,32,33,-1,33,32,34,-1,35,36,37,-1,37,36,38,-1,37,38,39,-1,40,41,37,-1,37,41,42,-1,43,44,45,-1,45,44,46,-1,42,47,37,-1,37,47,46,-1,37,46,48,-1,48,46,44,-1,31,49,50,-1,50,49,51,-1,50,51,52,-1,22,30,20,-1,20,30,16,-1,20,16,53,-1,53,16,15,-1,53,15,25,-1,39,54,37,-1,37,54,55,-1,37,55,40,-1,13,49,14,-1,14,49,31,-1,14,31,56,-1,56,31,33,-1,56,33,57,-1,57,33,58,-1,57,58,59,-1,59,58,60,-1,61,62,63,-1,63,62,64,-1,64,15,63,-1,63,15,65,-1,63,65,32,-1,32,65,66,-1,32,66,34,-1,52,67,50,-1,50,67,68,-1,50,68,69,-1,69,68,70,-1,69,70,71,-1,70,72,71,-1,71,72,73,-1,71,73,63,-1,63,73,74,-1,63,74,61,-1,64,75,15,-1,15,75,76,-1,15,76,77,-1,77,78,15,-1,15,78,79,-1,15,79,25,-1,25,79,80,-1,25,80,24,-1,24,80,81,-1,24,81,37,-1,37,81,82,-1,37,82,35,-1,83,84,17,-1,85,86,87,-1,87,88,85,-1,85,88,89,-1,85,89,90,-1,91,92,17,-1,17,92,93,-1,17,93,15,-1,15,93,94,-1,95,96,97,-1,97,96,98,-1,15,97,99,-1,99,97,100,-1,101,102,103,-1,103,102,104,-1,103,104,105,-1,105,104,106,-1,105,106,9,-1,9,106,107,-1,90,91,85,-1,85,91,17,-1,85,17,108,-1,108,17,84,-1,108,84,109,-1,109,84,110,-1,94,111,15,-1,15,111,112,-1,15,112,97,-1,97,112,113,-1,97,113,95,-1,98,114,97,-1,97,114,115,-1,97,115,85,-1,85,115,116,-1,85,116,86,-1,10,7,17,-1,17,7,9,-1,17,9,83,-1,83,9,107,-1,83,107,100,-1,100,107,117,-1,100,117,99,-1,118,119,120,-1,120,119,121,-1,122,123,124,-1,124,123,125,-1,119,122,121,-1,121,122,124,-1,126,127,128,-1,128,127,129,-1,128,129,130,-1,130,129,131,-1,130,131,132,-1,132,131,133,-1,132,133,126,-1,126,133,127,-1,134,129,135,-1,135,129,136,-1,135,136,137,-1,137,136,138,-1,137,138,139,-1,139,138,131,-1,139,131,134,-1,134,131,129,-1,140,136,141,-1,141,136,142,-1,141,142,143,-1,143,142,144,-1,143,144,145,-1,145,144,138,-1,145,138,140,-1,140,138,136,-1,127,58,129,-1,129,58,33,-1,129,33,136,-1,136,33,34,-1,136,34,142,-1,142,34,66,-1,142,66,146,-1,147,142,148,-1,148,142,146,-1,148,146,149,-1,149,146,150,-1,149,150,151,-1,151,150,144,-1,151,144,147,-1,147,144,142,-1,152,146,153,-1,153,146,154,-1,153,154,155,-1,155,154,156,-1,155,156,157,-1,157,156,150,-1,157,150,152,-1,152,150,146,-1,158,154,159,-1,159,154,160,-1,159,160,161,-1,161,160,162,-1,161,162,163,-1,163,162,156,-1,163,156,158,-1,158,156,154,-1,164,160,165,-1,165,160,166,-1,165,166,167,-1,167,166,168,-1,167,168,169,-1,169,168,162,-1,169,162,164,-1,164,162,160,-1,170,168,171,-1,171,168,172,-1,172,168,166,-1,172,166,173,-1,173,166,174,-1,173,174,175,-1,171,175,170,-1,170,175,174,-1,170,174,176,-1,176,174,177,-1,66,65,146,-1,146,65,15,-1,146,15,154,-1,154,15,99,-1,154,99,160,-1,160,99,117,-1,160,117,166,-1,166,117,107,-1,166,107,174,-1,174,107,106,-1,174,106,177,-1,177,106,104,-1,178,179,180,-1,180,179,102,-1,180,102,181,-1,181,102,101,-1,182,183,184,-1,184,133,182,-1,182,133,131,-1,182,131,185,-1,185,131,138,-1,185,138,186,-1,179,178,176,-1,176,178,187,-1,176,187,170,-1,170,187,188,-1,170,188,168,-1,138,144,186,-1,186,144,150,-1,186,150,189,-1,189,150,156,-1,189,156,188,-1,188,156,162,-1,188,162,168,-1,190,191,192,-1,192,191,193,-1,
        ]
    }
}
Shape{
    appearance Appearance {
        material  Material 	{
            diffuseColor 0.25098039215686274 0.25098039215686274 0.25098039215686274
            specularColor 0.12549019607843137 0.12549019607843137 0.12549019607843137
            ambientIntensity 0.251
            transparency 0.0
            shininess 0.5
        }
    }
    geometry IndexedFaceSet {
        ccw TRUE
        solid FALSE
        coord DEF co Coordinate {
            point [
                1.8898 -1.3681 0.7913, 1.8898 -1.3681 0.3976, 1.8898 -1.3287 0.7853, 1.8898 -1.3287 0.3976, -1.8898 -1.3681 0.3976, -1.8898 -1.3681 0.7913, -1.8898 -1.3287 0.3976, -1.8898 -1.3287 0.7853, 1.8898 -1.7224 0.3976, 1.378 -1.7224 0.3976, -1.8898 -1.7224 0.3976, -1.378 -1.7224 0.3976, -1.378 -0.935 0.3976, -1.8898 -0.7382 0.3976, 1.378 -0.935 0.3976, 1.8898 -0.7382 0.3976, -2.2835 -1.7224 0.0039, -1.8898 -1.7224 0.0039, -2.2835 -1.7224 0.6732, -1.378 -1.7224 0.6339, 1.378 -1.7224 0.6339, 2.2835 -1.7224 0.6732, 1.8898 -1.7224 0.0039, 2.2835 -1.7224 0.0039, 2.2835 -1.6043 0.7913, 2.2835 -1.3681 0.7913, -2.2835 -1.6043 0.7913, -2.2835 -1.3681 0.7913, -1.8898 -1.3681 0.0039, -2.2835 -1.3681 0.0039, -2.2835 -1.6878 0.7567, -2.2835 -1.7066 0.7323, -2.2835 -1.7184 0.7038, -2.2835 -1.6634 0.7755, -2.2835 -1.6349 0.7873, 1.8898 -1.3681 0.0039, 2.2835 -1.3681 0.0039, 2.2835 -1.6349 0.7873, 2.2835 -1.6634 0.7755, 2.2835 -1.6878 0.7567, 2.2835 -1.7066 0.7323, 2.2835 -1.7184 0.7038, -1.6535 -0.4232 0.646, 1.8898 -0.3445 0.6339, -1.8898 -0.3445 0.6339, -1.811 -0.4232 0.646, -1.8898 -0.4232 0.646, -1.811 -0.6595 0.6823, -1.6535 -0.6595 0.6823, 1.6535 -0.6595 0.6823, 1.6535 -0.4232 0.646, 1.811 -0.4232 0.646, 1.8898 -0.4232 0.646, 1.811 -0.6595 0.6823, -1.6535 -0.6595 0.7913, -1.6535 -0.4232 0.7913, -1.811 -0.6595 0.7913, -1.811 -0.4232 0.7913
            ]
        }
        coordIndex [
            0,1,2,-1,2,1,3,-1,4,5,6,-1,6,5,7,-1,1,8,9,-1,10,4,11,-1,11,4,6,-1,11,6,12,-1,12,6,13,-1,12,13,14,-1,14,13,15,-1,14,15,9,-1,9,15,3,-1,9,3,1,-1,16,17,18,-1,18,17,10,-1,18,10,11,-1,11,19,18,-1,18,19,20,-1,18,20,21,-1,22,23,8,-1,8,23,21,-1,8,21,9,-1,9,21,20,-1,24,25,0,-1,24,0,26,-1,26,0,5,-1,26,5,27,-1,10,17,4,-1,4,17,28,-1,29,16,27,-1,27,16,18,-1,27,18,26,-1,30,18,31,-1,31,18,32,-1,30,33,18,-1,18,33,34,-1,18,34,26,-1,28,29,4,-1,4,29,27,-1,4,27,5,-1,16,29,17,-1,17,29,28,-1,1,35,8,-1,8,35,22,-1,36,35,25,-1,25,35,1,-1,25,1,0,-1,23,36,21,-1,21,36,25,-1,25,24,21,-1,21,24,37,-1,21,37,38,-1,38,39,21,-1,21,39,40,-1,21,40,41,-1,35,36,22,-1,22,36,23,-1,42,43,44,-1,42,44,45,-1,45,44,46,-1,45,46,47,-1,47,46,7,-1,47,7,48,-1,5,0,2,-1,7,5,48,-1,48,5,49,-1,48,49,42,-1,42,49,50,-1,42,50,43,-1,43,50,51,-1,43,51,52,-1,52,51,53,-1,52,53,2,-1,2,53,49,-1,2,49,5,-1,54,55,56,-1,56,55,57,-1,48,54,47,-1,47,54,56,-1,42,55,48,-1,48,55,54,-1,45,57,42,-1,42,57,55,-1,47,56,45,-1,45,56,57,-1,
        ]
    }
}
Shape{
    appearance Appearance {
        material  Material 	{
            diffuseColor 0.7529411764705882 0.7529411764705882 0.7529411764705882
            specularColor 0.3764705882352941 0.3764705882352941 0.3764705882352941
            ambientIntensity 0.7529
            transparency 0.0
            shininess 0.5
        }
    }
    geometry IndexedFaceSet {
        ccw TRUE
        solid FALSE
        coord DEF co Coordinate {
            point [
                1.8898 -0.4232 0.646, 1.8898 -1.3287 0.7853, 1.8898 -0.4232 0.7913, 1.8898 -1.3287 0.7913, -1.8898 -0.4232 0.7913, -1.8898 -1.3287 0.7913, -1.8898 -0.4232 0.646, -1.8898 -1.3287 0.7853, -1.5748 -0.3445 0.7913, -1.8898 -0.3445 0.7913, -1.5748 -0.3445 0.7126, -1.8898 -0.3445 0.6339, 1.5748 -0.3445 0.7126, 1.8898 -0.3445 0.6339, 1.5748 -0.3445 0.7913, 1.8898 -0.3445 0.7913, 2.2835 -1.3287 0.7913, -1.8898 -1.3287 0.0827, -1.8898 -1.3287 0.2008, -2.2835 -1.3287 0.0827, -1.8898 -1.3287 0.3976, -2.2835 -1.3287 0.7913, -1.8898 -1.3287 0.0039, -0.0641 -1.3287 0.0039, 1.8898 -1.3287 0.2008, 2.2835 -1.3287 0.0827, 1.8898 -1.3287 0.3976, 1.8898 -1.3287 0.0827, 1.8898 -1.3287 0.0039, 2.2835 -0.1476 0.0827, 2.2835 -0.1476 0.0039, 2.2835 0.4823 0.0039, 2.2835 -0.4232 0.2008, 2.2835 -0.4232 0.7913, 2.2835 0.4823 0.2008, 1.8898 0.4823 0.2008, 1.5748 0.4823 0.0039, 1.8898 0.4823 0.7913, 1.5748 0.4823 0.7913, -2.2835 0.4823 0.0039, -2.2835 -0.1476 0.0039, -2.2835 0.4823 0.2008, -2.2835 -0.1476 0.0827, -2.2835 -0.4232 0.2008, -2.2835 -0.4232 0.7913, 1.5748 -0.5807 0.7913, 1.5748 -0.5807 0.7126, -1.5748 -0.5807 0.7126, -1.5748 -0.5807 0.7913
            ]
        }
        coordIndex [
            0,1,2,-1,2,1,3,-1,4,5,6,-1,6,5,7,-1,8,9,10,-1,10,9,11,-1,10,11,12,-1,12,11,13,-1,12,13,14,-1,14,13,15,-1,16,3,1,-1,17,18,19,-1,19,18,20,-1,19,20,21,-1,21,20,7,-1,21,7,5,-1,22,23,17,-1,17,23,24,-1,17,24,18,-1,16,1,25,-1,1,26,25,-1,25,26,24,-1,25,24,27,-1,27,24,23,-1,27,23,28,-1,29,30,31,-1,32,33,16,-1,31,34,29,-1,29,34,32,-1,29,32,25,-1,25,32,16,-1,34,31,35,-1,35,31,36,-1,35,36,37,-1,37,36,38,-1,39,40,41,-1,41,40,42,-1,41,42,43,-1,43,42,19,-1,43,19,44,-1,44,19,21,-1,45,46,14,-1,14,46,12,-1,47,48,10,-1,10,48,8,-1,46,47,12,-1,12,47,10,-1,47,46,48,-1,48,46,45,-1,
        ]
    }
}
Shape{
    appearance Appearance {
        material  Material 	{
            diffuseColor 0.25098039215686274 0.25098039215686274 0.25098039215686274
            specularColor 0.12549019607843137 0.12549019607843137 0.12549019607843137
            ambientIntensity 0.251
            transparency 0.0
            shininess 0.5
        }
    }
    geometry IndexedFaceSet {
        ccw TRUE
        solid FALSE
        coord DEF co Coordinate {
            point [
                1.6535 -0.6595 0.7913, 1.811 -0.6595 0.7913, 1.6535 -0.4232 0.7913, 1.811 -0.4232 0.7913, 1.6535 -0.6595 0.6823, 1.6535 -0.4232 0.646, 1.811 -0.6595 0.6823, 1.811 -0.4232 0.646, -1.378 -0.935 0.6339, -1.378 -0.935 0.3976, 1.378 -0.935 0.6339, 1.378 -0.935 0.3976, -1.378 -1.7224 0.6339, -1.378 -1.7224 0.3976, 1.378 -1.7224 0.6339, 1.378 -1.7224 0.3976
            ]
        }
        coordIndex [
            0,1,2,-1,2,1,3,-1,4,0,5,-1,5,0,2,-1,6,1,4,-1,4,1,0,-1,7,3,6,-1,6,3,1,-1,5,2,7,-1,7,2,3,-1,8,9,10,-1,10,9,11,-1,12,13,8,-1,8,13,9,-1,10,11,14,-1,14,11,15,-1,8,10,12,-1,12,10,14,-1,
        ]
    }
}
Shape{
    appearance Appearance {
        material  Material 	{
            diffuseColor 0.7529411764705882 0.7529411764705882 0.7529411764705882
            specularColor 0.3764705882352941 0.3764705882352941 0.3764705882352941
            ambientIntensity 0.7529
            transparency 0.0
            shininess 0.5
        }
    }
    geometry IndexedFaceSet {
        ccw TRUE
        solid FALSE
        coord DEF co Coordinate {
            point [
                1.8898 -0.4232 0.646, 1.8898 -0.4232 0.2008, 1.8898 -0.3445 0.6339, 1.8898 0.4823 0.2008, 1.8898 -0.3445 0.7913, 1.8898 0.4823 0.7913, 1.8898 -0.4232 0.7913, 2.2835 -0.4232 0.7913, 2.2835 -0.4232 0.2008, 2.2835 0.4823 0.2008, -1.8898 -0.3445 0.7913, -1.8898 0.4823 0.7913, -1.8898 -0.3445 0.6339, -1.8898 0.4823 0.2008, -1.8898 -0.4232 0.646, -1.8898 -0.4232 0.2008, -2.2835 -0.4232 0.2008, -2.2835 -0.4232 0.7913, -1.8898 -0.4232 0.7913, -2.2835 0.4823 0.2008, -1.5748 0.4823 0.7913, -1.5748 0.3642 0.7913, -1.5748 0.4823 0.0039, -1.5748 0.3642 0.2402, -1.5748 0.3642 0.0039, 1.5748 0.3642 0.7913, 1.5748 0.4823 0.7913, 1.5748 0.3642 0.2402, 1.5748 0.4823 0.0039, 1.5748 0.3642 0.0039
            ]
        }
        coordIndex [
            0,1,2,-1,2,1,3,-1,2,3,4,-1,4,3,5,-1,6,7,0,-1,0,7,8,-1,0,8,1,-1,3,1,9,-1,9,1,8,-1,10,11,12,-1,12,11,13,-1,12,13,14,-1,14,13,15,-1,15,16,14,-1,14,16,17,-1,14,17,18,-1,15,13,16,-1,16,13,19,-1,20,21,22,-1,22,21,23,-1,22,23,24,-1,25,26,27,-1,27,26,28,-1,27,28,29,-1,
        ]
    }
}
Shape{
    appearance Appearance {
        material  Material 	{
            diffuseColor 1.0 1.0 1.0
            specularColor 0.5019607843137255 0.5019607843137255 0.5019607843137255
            ambientIntensity 1.0
            transparency 0.0
            shininess 0.5
        }
    }
    geometry IndexedFaceSet {
        ccw TRUE
        solid FALSE
        coord DEF co Coordinate {
            point [
                -1.4173 0.561 0.2706, -1.4173 0.561 0.6732, -1.3386 0.561 0.2706, -1.3386 0.561 0.6732, -1.4173 0.5413 0.2165, -1.3386 0.5413 0.2165, -1.4173 0.6791 0.2165, -1.3386 0.6791 0.2165, -1.4173 0.6791 0.1181, -1.3386 0.6791 0.1181, -1.4173 0.7972 0.1181, -1.3386 0.7972 0.1181, -1.4173 0.7972 0.0, -1.3386 0.7972 0.0, -1.4173 0.4626 0.0, -1.3386 0.4626 0.0, -1.4173 0.4035 0.4764, -1.3386 0.4035 0.4764, -1.4173 0.3642 0.4764, -1.3386 0.3642 0.4764, -1.4173 0.3642 0.6732, -1.3386 0.3642 0.6732, -1.0236 0.561 0.2706, -1.0236 0.561 0.6732, -0.9449 0.561 0.2706, -0.9449 0.561 0.6732, -1.0236 0.5413 0.2165, -0.9449 0.5413 0.2165, -1.0236 0.6791 0.2165, -0.9449 0.6791 0.2165, -1.0236 0.6791 0.1181, -0.9449 0.6791 0.1181, -1.0236 0.7972 0.1181, -0.9449 0.7972 0.1181, -1.0236 0.7972 0.0, -0.9449 0.7972 0.0, -1.0236 0.4626 0.0, -0.9449 0.4626 0.0, -1.0236 0.4035 0.4764, -0.9449 0.4035 0.4764, -1.0236 0.3642 0.4764, -0.9449 0.3642 0.4764, -1.0236 0.3642 0.6732, -0.9449 0.3642 0.6732, -0.6299 0.561 0.2706, -0.6299 0.561 0.6732, -0.5512 0.561 0.2706, -0.5512 0.561 0.6732, -0.6299 0.5413 0.2165, -0.5512 0.5413 0.2165, -0.6299 0.6791 0.2165, -0.5512 0.6791 0.2165, -0.6299 0.6791 0.1181, -0.5512 0.6791 0.1181, -0.6299 0.7972 0.1181, -0.5512 0.7972 0.1181, -0.6299 0.7972 0.0, -0.5512 0.7972 0.0, -0.6299 0.4626 0.0, -0.5512 0.4626 0.0, -0.6299 0.4035 0.4764, -0.5512 0.4035 0.4764, -0.6299 0.3642 0.4764, -0.5512 0.3642 0.4764, -0.6299 0.3642 0.6732, -0.5512 0.3642 0.6732, -0.2362 0.561 0.2706, -0.2362 0.561 0.6732, -0.1575 0.561 0.2706, -0.1575 0.561 0.6732, -0.2362 0.5413 0.2165, -0.1575 0.5413 0.2165, -0.2362 0.6791 0.2165, -0.1575 0.6791 0.2165, -0.2362 0.6791 0.1181, -0.1575 0.6791 0.1181, -0.2362 0.7972 0.1181, -0.1575 0.7972 0.1181, -0.2362 0.7972 0.0, -0.1575 0.7972 0.0, -0.2362 0.4626 0.0, -0.1575 0.4626 0.0, -0.2362 0.4035 0.4764, -0.1575 0.4035 0.4764, -0.2362 0.3642 0.4764, -0.1575 0.3642 0.4764, -0.2362 0.3642 0.6732, -0.1575 0.3642 0.6732, 0.1575 0.561 0.2706, 0.1575 0.561 0.6732, 0.2362 0.561 0.2706, 0.2362 0.561 0.6732, 0.1575 0.5413 0.2165, 0.2362 0.5413 0.2165, 0.1575 0.6791 0.2165, 0.2362 0.6791 0.2165, 0.1575 0.6791 0.1181, 0.2362 0.6791 0.1181, 0.1575 0.7972 0.1181, 0.2362 0.7972 0.1181, 0.1575 0.7972 0.0, 0.2362 0.7972 0.0, 0.1575 0.4626 0.0, 0.2362 0.4626 0.0, 0.1575 0.4035 0.4764, 0.2362 0.4035 0.4764, 0.1575 0.3642 0.4764, 0.2362 0.3642 0.4764, 0.1575 0.3642 0.6732, 0.2362 0.3642 0.6732, 0.5512 0.561 0.2706, 0.5512 0.561 0.6732, 0.6299 0.561 0.2706, 0.6299 0.561 0.6732, 0.5512 0.5413 0.2165, 0.6299 0.5413 0.2165, 0.5512 0.6791 0.2165, 0.6299 0.6791 0.2165, 0.5512 0.6791 0.1181, 0.6299 0.6791 0.1181, 0.5512 0.7972 0.1181, 0.6299 0.7972 0.1181, 0.5512 0.7972 0.0, 0.6299 0.7972 0.0, 0.5512 0.4626 0.0, 0.6299 0.4626 0.0, 0.5512 0.4035 0.4764, 0.6299 0.4035 0.4764, 0.5512 0.3642 0.4764, 0.6299 0.3642 0.4764, 0.5512 0.3642 0.6732, 0.6299 0.3642 0.6732, 0.9449 0.561 0.2706, 0.9449 0.561 0.6732, 1.0236 0.561 0.2706, 1.0236 0.561 0.6732, 0.9449 0.5413 0.2165, 1.0236 0.5413 0.2165, 0.9449 0.6791 0.2165, 1.0236 0.6791 0.2165, 0.9449 0.6791 0.1181, 1.0236 0.6791 0.1181, 0.9449 0.7972 0.1181, 1.0236 0.7972 0.1181, 0.9449 0.7972 0.0, 1.0236 0.7972 0.0, 0.9449 0.4626 0.0, 1.0236 0.4626 0.0, 0.9449 0.4035 0.4764, 1.0236 0.4035 0.4764, 0.9449 0.3642 0.4764, 1.0236 0.3642 0.4764, 0.9449 0.3642 0.6732, 1.0236 0.3642 0.6732, 1.3386 0.561 0.2706, 1.3386 0.561 0.6732, 1.4173 0.561 0.2706, 1.4173 0.561 0.6732, 1.3386 0.5413 0.2165, 1.4173 0.5413 0.2165, 1.3386 0.6791 0.2165, 1.4173 0.6791 0.2165, 1.3386 0.6791 0.1181, 1.4173 0.6791 0.1181, 1.3386 0.7972 0.1181, 1.4173 0.7972 0.1181, 1.3386 0.7972 0.0, 1.4173 0.7972 0.0, 1.3386 0.4626 0.0, 1.4173 0.4626 0.0, 1.3386 0.4035 0.4764, 1.4173 0.4035 0.4764, 1.3386 0.3642 0.4764, 1.4173 0.3642 0.4764, 1.3386 0.3642 0.6732, 1.4173 0.3642 0.6732
            ]
        }
        coordIndex [
            0,1,2,-1,2,1,3,-1,4,0,5,-1,5,0,2,-1,6,4,7,-1,7,4,5,-1,8,6,9,-1,9,6,7,-1,10,8,11,-1,11,8,9,-1,12,10,13,-1,13,10,11,-1,14,12,15,-1,15,12,13,-1,16,14,17,-1,17,14,15,-1,18,16,19,-1,19,16,17,-1,1,20,3,-1,3,20,21,-1,18,20,16,-1,16,20,1,-1,10,12,8,-1,8,12,14,-1,1,0,16,-1,16,0,4,-1,16,4,14,-1,14,4,6,-1,14,6,8,-1,5,2,3,-1,9,7,5,-1,15,13,11,-1,11,9,15,-1,15,9,5,-1,15,5,17,-1,17,5,3,-1,17,3,19,-1,19,3,21,-1,22,23,24,-1,24,23,25,-1,26,22,27,-1,27,22,24,-1,28,26,29,-1,29,26,27,-1,30,28,31,-1,31,28,29,-1,32,30,33,-1,33,30,31,-1,34,32,35,-1,35,32,33,-1,36,34,37,-1,37,34,35,-1,38,36,39,-1,39,36,37,-1,40,38,41,-1,41,38,39,-1,23,42,25,-1,25,42,43,-1,40,42,38,-1,38,42,23,-1,32,34,30,-1,30,34,36,-1,23,22,38,-1,38,22,26,-1,38,26,36,-1,36,26,28,-1,36,28,30,-1,27,24,25,-1,31,29,27,-1,37,35,33,-1,33,31,37,-1,37,31,27,-1,37,27,39,-1,39,27,25,-1,39,25,41,-1,41,25,43,-1,44,45,46,-1,46,45,47,-1,48,44,49,-1,49,44,46,-1,50,48,51,-1,51,48,49,-1,52,50,53,-1,53,50,51,-1,54,52,55,-1,55,52,53,-1,56,54,57,-1,57,54,55,-1,58,56,59,-1,59,56,57,-1,60,58,61,-1,61,58,59,-1,62,60,63,-1,63,60,61,-1,45,64,47,-1,47,64,65,-1,62,64,60,-1,60,64,45,-1,54,56,52,-1,52,56,58,-1,45,44,60,-1,60,44,48,-1,60,48,58,-1,58,48,50,-1,58,50,52,-1,49,46,47,-1,53,51,49,-1,59,57,55,-1,55,53,59,-1,59,53,49,-1,59,49,61,-1,61,49,47,-1,61,47,63,-1,63,47,65,-1,66,67,68,-1,68,67,69,-1,70,66,71,-1,71,66,68,-1,72,70,73,-1,73,70,71,-1,74,72,75,-1,75,72,73,-1,76,74,77,-1,77,74,75,-1,78,76,79,-1,79,76,77,-1,80,78,81,-1,81,78,79,-1,82,80,83,-1,83,80,81,-1,84,82,85,-1,85,82,83,-1,67,86,69,-1,69,86,87,-1,84,86,82,-1,82,86,67,-1,76,78,74,-1,74,78,80,-1,67,66,82,-1,82,66,70,-1,82,70,80,-1,80,70,72,-1,80,72,74,-1,71,68,69,-1,75,73,71,-1,81,79,77,-1,77,75,81,-1,81,75,71,-1,81,71,83,-1,83,71,69,-1,83,69,85,-1,85,69,87,-1,88,89,90,-1,90,89,91,-1,92,88,93,-1,93,88,90,-1,94,92,95,-1,95,92,93,-1,96,94,97,-1,97,94,95,-1,98,96,99,-1,99,96,97,-1,100,98,101,-1,101,98,99,-1,102,100,103,-1,103,100,101,-1,104,102,105,-1,105,102,103,-1,106,104,107,-1,107,104,105,-1,89,108,91,-1,91,108,109,-1,106,108,104,-1,104,108,89,-1,98,100,96,-1,96,100,102,-1,89,88,104,-1,104,88,92,-1,104,92,102,-1,102,92,94,-1,102,94,96,-1,93,90,91,-1,97,95,93,-1,103,101,99,-1,99,97,103,-1,103,97,93,-1,103,93,105,-1,105,93,91,-1,105,91,107,-1,107,91,109,-1,110,111,112,-1,112,111,113,-1,114,110,115,-1,115,110,112,-1,116,114,117,-1,117,114,115,-1,118,116,119,-1,119,116,117,-1,120,118,121,-1,121,118,119,-1,122,120,123,-1,123,120,121,-1,124,122,125,-1,125,122,123,-1,126,124,127,-1,127,124,125,-1,128,126,129,-1,129,126,127,-1,111,130,113,-1,113,130,131,-1,128,130,126,-1,126,130,111,-1,120,122,118,-1,118,122,124,-1,111,110,126,-1,126,110,114,-1,126,114,124,-1,124,114,116,-1,124,116,118,-1,115,112,113,-1,119,117,115,-1,125,123,121,-1,121,119,125,-1,125,119,115,-1,125,115,127,-1,127,115,113,-1,127,113,129,-1,129,113,131,-1,132,133,134,-1,134,133,135,-1,136,132,137,-1,137,132,134,-1,138,136,139,-1,139,136,137,-1,140,138,141,-1,141,138,139,-1,142,140,143,-1,143,140,141,-1,144,142,145,-1,145,142,143,-1,146,144,147,-1,147,144,145,-1,148,146,149,-1,149,146,147,-1,150,148,151,-1,151,148,149,-1,133,152,135,-1,135,152,153,-1,150,152,148,-1,148,152,133,-1,142,144,140,-1,140,144,146,-1,133,132,148,-1,148,132,136,-1,148,136,146,-1,146,136,138,-1,146,138,140,-1,137,134,135,-1,141,139,137,-1,147,145,143,-1,143,141,147,-1,147,141,137,-1,147,137,149,-1,149,137,135,-1,149,135,151,-1,151,135,153,-1,154,155,156,-1,156,155,157,-1,158,154,159,-1,159,154,156,-1,160,158,161,-1,161,158,159,-1,162,160,163,-1,163,160,161,-1,164,162,165,-1,165,162,163,-1,166,164,167,-1,167,164,165,-1,168,166,169,-1,169,166,167,-1,170,168,171,-1,171,168,169,-1,172,170,173,-1,173,170,171,-1,155,174,157,-1,157,174,175,-1,172,174,170,-1,170,174,155,-1,164,166,162,-1,162,166,168,-1,155,154,170,-1,170,154,158,-1,170,158,168,-1,168,158,160,-1,168,160,162,-1,159,156,157,-1,163,161,159,-1,169,167,165,-1,165,163,169,-1,169,163,159,-1,169,159,171,-1,171,159,157,-1,171,157,173,-1,173,157,175,-1,
        ]
    }
}
Shape{
    appearance Appearance {
        material  Material 	{
            diffuseColor 0.25098039215686274 0.25098039215686274 0.25098039215686274
            specularColor 0.12549019607843137 0.12549019607843137 0.12549019607843137
            ambientIntensity 0.251
            transparency 0.0
            shininess 0.5
        }
    }
    geometry IndexedFaceSet {
        ccw TRUE
        solid FALSE
        coord DEF co Coordinate {
            point [
                2.2835 -1.6043 0.7913, -2.2835 -1.6043 0.7913, -2.2835 -1.6349 0.7873, 2.2835 -1.6349 0.7873, -2.2835 -1.6634 0.7755, 2.2835 -1.6634 0.7755, -2.2835 -1.6878 0.7567, 2.2835 -1.6878 0.7567, -2.2835 -1.7066 0.7323, 2.2835 -1.7066 0.7323, -2.2835 -1.7184 0.7038, 2.2835 -1.7184 0.7038, -2.2835 -1.7224 0.6732, 2.2835 -1.7224 0.6732
            ]
        }
        coordIndex [
            0,1,2,-1,0,2,3,-1,3,2,4,-1,3,4,5,-1,5,4,6,-1,5,6,7,-1,7,6,8,-1,7,8,9,-1,9,8,10,-1,9,10,11,-1,11,10,12,-1,11,12,13,-1,
        ]
    }
}
Shape{
    appearance Appearance {
        material  Material 	{
            diffuseColor 0.7529411764705882 0.7529411764705882 0.7529411764705882
            specularColor 0.3764705882352941 0.3764705882352941 0.3764705882352941
            ambientIntensity 0.7529
            transparency 0.0
            shininess 0.5
        }
    }
    geometry IndexedFaceSet {
        ccw TRUE
        solid FALSE
        coord DEF co Coordinate {
            point [
                1.8898 -1.3287 0.2008, 1.8898 -0.7382 0.2008, -1.8898 -1.3287 0.2008, -1.8898 -0.7382 0.2008, 2.2835 -0.1476 0.0827, 1.8898 -0.1476 0.0827, 2.2835 -0.1476 0.0039, 1.8898 -0.1476 0.0039, 1.8898 -0.5248 0.0039, 1.8898 -1.3287 0.0827, 1.8898 -1.3287 0.0039, 2.2835 -1.3287 0.0827, -1.8898 -1.3287 0.0039, -1.8898 -1.3287 0.0827, -1.8898 -0.5248 0.0039, -1.8898 -0.1476 0.0827, -1.8898 -0.1476 0.0039, -2.2835 -0.1476 0.0827, -2.2835 -0.1476 0.0039, -2.2835 -1.3287 0.0827
            ]
        }
        coordIndex [
            0,1,2,-1,2,1,3,-1,4,5,6,-1,6,5,7,-1,7,5,8,-1,8,5,9,-1,8,9,10,-1,5,4,9,-1,9,4,11,-1,12,13,14,-1,14,13,15,-1,14,15,16,-1,15,17,16,-1,16,17,18,-1,15,13,17,-1,17,13,19,-1,
        ]
    }
}
Shape{
    appearance Appearance {
        material  Material 	{
            diffuseColor 0.25098039215686274 0.25098039215686274 0.25098039215686274
            specularColor 0.12549019607843137 0.12549019607843137 0.12549019607843137
            ambientIntensity 0.251
            transparency 0.0
            shininess 0.5
        }
    }
    geometry IndexedFaceSet {
        ccw TRUE
        solid FALSE
        coord DEF co Coordinate {
            point [
                -0.2399 -0.4059 0.0043, -0.286 -0.5241 0.0043, -0.2399 -0.4059 0.0039, -0.286 -0.5241 0.0039, -0.2687 -0.5241 0.0043, -0.2687 -0.5241 0.0039, -0.2567 -0.4909 0.0043, -0.2567 -0.4909 0.0039, -0.2079 -0.4909 0.0043, -0.2079 -0.4909 0.0039, -0.1967 -0.5241 0.0043, -0.1967 -0.5241 0.0039, -0.1794 -0.5241 0.0043, -0.1794 -0.5241 0.0039, -0.224 -0.4059 0.0043, -0.224 -0.4059 0.0039, -0.2119 -0.478 0.0043, -0.2514 -0.478 0.0043, -0.2295 -0.4286 0.0043, -0.2307 -0.4245 0.0043, -0.2314 -0.4204 0.0043, -0.2318 -0.4204 0.0043, -0.2326 -0.4245 0.0043, -0.2336 -0.4286 0.0043, -0.2119 -0.478 0.0039, -0.2514 -0.478 0.0039, -0.2295 -0.4286 0.0039, -0.2307 -0.4245 0.0039, -0.2314 -0.4204 0.0039, -0.2318 -0.4204 0.0039, -0.2326 -0.4245 0.0039, -0.2336 -0.4286 0.0039, -0.1078 -0.5241 0.0043, -0.0757 -0.5241 0.0043, -0.1078 -0.5241 0.0039, -0.0757 -0.5241 0.0039, -0.0757 -0.4059 0.0043, -0.0757 -0.4059 0.0039, -0.109 -0.4059 0.0043, -0.109 -0.4059 0.0039, -0.1707 -0.4635 0.0043, -0.1707 -0.4635 0.0039, -0.1699 -0.4524 0.0039, -0.1699 -0.4524 0.0043, -0.1667 -0.4408 0.0039, -0.1667 -0.4408 0.0043, -0.1612 -0.4306 0.0039, -0.1612 -0.4306 0.0043, -0.1529 -0.4213 0.0039, -0.1529 -0.4213 0.0043, -0.1527 -0.4212 0.0039, -0.1527 -0.4212 0.0043, -0.1399 -0.4126 0.0039, -0.1399 -0.4126 0.0043, -0.1261 -0.4078 0.0039, -0.1261 -0.4078 0.0043, -0.1224 -0.5228 0.0039, -0.1224 -0.5228 0.0043, -0.136 -0.5187 0.0039, -0.136 -0.5187 0.0043, -0.1483 -0.5116 0.0039, -0.1483 -0.5116 0.0043, -0.1581 -0.5023 0.0039, -0.1581 -0.5023 0.0043, -0.1648 -0.4917 0.0039, -0.1648 -0.4917 0.0043, -0.1691 -0.4793 0.0039, -0.1691 -0.4793 0.0043, -0.147 -0.4355 0.0043, -0.1413 -0.4294 0.0043, -0.1327 -0.4238 0.0043, -0.1229 -0.4204 0.0043, -0.1089 -0.4189 0.0043, -0.0915 -0.4189 0.0043, -0.0915 -0.5111 0.0043, -0.1083 -0.5111 0.0043, -0.1207 -0.5099 0.0043, -0.1307 -0.5068 0.0043, -0.1387 -0.502 0.0043, -0.1453 -0.4955 0.0043, -0.1503 -0.4874 0.0043, -0.1538 -0.4763 0.0043, -0.1549 -0.4639 0.0043, -0.1539 -0.4521 0.0043, -0.1511 -0.4428 0.0043, -0.1089 -0.4189 0.0039, -0.0915 -0.4189 0.0039, -0.1229 -0.4204 0.0039, -0.1327 -0.4238 0.0039, -0.1413 -0.4294 0.0039, -0.147 -0.4355 0.0039, -0.1511 -0.4428 0.0039, -0.1539 -0.4521 0.0039, -0.1549 -0.4639 0.0039, -0.1538 -0.4763 0.0039, -0.1503 -0.4874 0.0039, -0.1453 -0.4955 0.0039, -0.1387 -0.502 0.0039, -0.1307 -0.5068 0.0039, -0.1207 -0.5099 0.0039, -0.1083 -0.5111 0.0039, -0.0915 -0.5111 0.0039, -0.0526 -0.5111 0.0043, -0.0526 -0.5241 0.0043, -0.0526 -0.5111 0.0039, -0.0526 -0.5241 0.0039, 0.0108 -0.5241 0.0043, 0.0108 -0.5241 0.0039, 0.0108 -0.4059 0.0043, 0.0108 -0.4059 0.0039, -0.0497 -0.4059 0.0043, -0.0497 -0.4059 0.0039, -0.0497 -0.4189 0.0043, -0.0497 -0.4189 0.0039, -0.0051 -0.4189 0.0043, -0.0051 -0.4189 0.0039, -0.0051 -0.4578 0.0043, -0.0051 -0.4578 0.0039, -0.0469 -0.4578 0.0043, -0.0469 -0.4578 0.0039, -0.0469 -0.4708 0.0043, -0.0469 -0.4708 0.0039, -0.0051 -0.4708 0.0043, -0.0051 -0.4708 0.0039, -0.0051 -0.5111 0.0043, -0.0051 -0.5111 0.0039, 0.0338 -0.505 0.0043, 0.0338 -0.5179 0.0043, 0.0338 -0.505 0.0039, 0.0338 -0.5179 0.0039, 0.0464 -0.5231 0.0043, 0.0663 -0.5255 0.0043, 0.0663 -0.5255 0.0039, 0.0631 -0.5254 0.0039, 0.0631 -0.5254 0.0043, 0.0583 -0.5248 0.0039, 0.0464 -0.5231 0.0039, 0.0733 -0.5248 0.0039, 0.0809 -0.524 0.0043, 0.0809 -0.524 0.0039, 0.0923 -0.52 0.0043, 0.0923 -0.52 0.0039, 0.1018 -0.514 0.0043, 0.1018 -0.514 0.0039, 0.1107 -0.5046 0.0043, 0.1107 -0.5046 0.0039, 0.117 -0.4934 0.0043, 0.117 -0.4934 0.0039, 0.1205 -0.4809 0.0043, 0.1205 -0.4809 0.0039, 0.1217 -0.4672 0.0043, 0.1217 -0.4672 0.0039, 0.0616 -0.4045 0.0043, 0.0616 -0.4045 0.0039, 0.0735 -0.4055 0.0039, 0.0735 -0.4055 0.0043, 0.0866 -0.4093 0.0039, 0.0866 -0.4093 0.0043, 0.0979 -0.4158 0.0039, 0.0979 -0.4158 0.0043, 0.1085 -0.426 0.0039, 0.1085 -0.426 0.0043, 0.1154 -0.4371 0.0039, 0.1154 -0.4371 0.0043, 0.12 -0.4504 0.0039, 0.12 -0.4504 0.0043, 0.0338 -0.4092 0.0043, 0.0338 -0.4092 0.0039, 0.0475 -0.4055 0.0039, 0.0475 -0.4055 0.0043, 0.0338 -0.425 0.0043, 0.0338 -0.425 0.0039, 0.0615 -0.4175 0.0043, 0.0615 -0.4175 0.0039, 0.0471 -0.4193 0.0039, 0.0471 -0.4193 0.0043, 0.1058 -0.4663 0.0043, 0.1058 -0.4663 0.0039, 0.1053 -0.4571 0.0039, 0.1053 -0.4571 0.0043, 0.1021 -0.4444 0.0039, 0.1021 -0.4444 0.0043, 0.0972 -0.4353 0.0039, 0.0972 -0.4353 0.0043, 0.0901 -0.4274 0.0039, 0.0901 -0.4274 0.0043, 0.0819 -0.422 0.0039, 0.0819 -0.422 0.0043, 0.0731 -0.4188 0.0039, 0.0731 -0.4188 0.0043, 0.0641 -0.5125 0.0043, 0.0641 -0.5125 0.0039, 0.0751 -0.5113 0.0039, 0.0751 -0.5113 0.0043, 0.0837 -0.5081 0.0039, 0.0837 -0.5081 0.0043, 0.091 -0.5032 0.0039, 0.091 -0.5032 0.0043, 0.0965 -0.4974 0.0039, 0.0965 -0.4974 0.0043, 0.1014 -0.4892 0.0039, 0.1014 -0.4892 0.0043, 0.1046 -0.479 0.0039, 0.1046 -0.479 0.0043, 0.0359 -0.5061 0.0039, 0.0359 -0.5061 0.0043, 0.0484 -0.5108 0.0039, 0.0484 -0.5108 0.0043, 0.1318 -0.5111 0.0043, 0.1318 -0.5241 0.0043, 0.1318 -0.5111 0.0039, 0.1318 -0.5241 0.0039, 0.1922 -0.5241 0.0043, 0.1922 -0.5241 0.0039, 0.1922 -0.4059 0.0043, 0.1922 -0.4059 0.0039, 0.1764 -0.4059 0.0043, 0.1764 -0.4059 0.0039, 0.1764 -0.5111 0.0043, 0.1764 -0.5111 0.0039
            ]
        }
        coordIndex [
            0,1,2,-1,2,1,3,-1,1,4,3,-1,3,4,5,-1,4,6,5,-1,5,6,7,-1,6,8,7,-1,7,8,9,-1,8,10,9,-1,9,10,11,-1,10,12,11,-1,11,12,13,-1,12,14,13,-1,13,14,15,-1,14,0,15,-1,15,0,2,-1,16,8,17,-1,17,8,6,-1,18,14,16,-1,16,14,12,-1,16,12,8,-1,8,12,10,-1,18,19,14,-1,14,19,20,-1,14,20,0,-1,0,20,21,-1,0,21,22,-1,22,23,0,-1,0,23,17,-1,0,17,1,-1,1,17,6,-1,1,6,4,-1,16,17,24,-1,24,17,25,-1,18,16,26,-1,26,16,24,-1,18,26,27,-1,18,27,19,-1,19,27,28,-1,19,28,20,-1,21,20,29,-1,29,20,28,-1,21,29,30,-1,21,30,22,-1,22,30,31,-1,22,31,23,-1,17,23,25,-1,25,23,31,-1,32,33,34,-1,34,33,35,-1,33,36,35,-1,35,36,37,-1,36,38,37,-1,37,38,39,-1,40,41,42,-1,40,42,43,-1,43,42,44,-1,43,44,45,-1,45,44,46,-1,45,46,47,-1,47,46,48,-1,47,48,49,-1,49,48,50,-1,49,50,51,-1,51,50,52,-1,51,52,53,-1,53,52,54,-1,53,54,55,-1,55,54,39,-1,55,39,38,-1,32,34,56,-1,32,56,57,-1,57,56,58,-1,57,58,59,-1,59,58,60,-1,59,60,61,-1,61,60,62,-1,61,62,63,-1,63,62,64,-1,63,64,65,-1,65,64,66,-1,65,66,67,-1,67,66,41,-1,67,41,40,-1,45,47,68,-1,68,47,49,-1,68,49,69,-1,69,49,51,-1,69,51,70,-1,70,51,53,-1,70,53,71,-1,71,53,55,-1,71,55,72,-1,72,55,38,-1,72,38,73,-1,73,38,36,-1,73,36,74,-1,74,36,33,-1,74,33,75,-1,75,33,32,-1,75,32,76,-1,76,32,57,-1,76,57,77,-1,77,57,59,-1,77,59,78,-1,78,59,61,-1,78,61,79,-1,79,61,63,-1,79,63,80,-1,80,63,65,-1,80,65,81,-1,81,65,67,-1,81,67,82,-1,82,67,40,-1,82,40,83,-1,83,40,43,-1,83,43,84,-1,84,43,45,-1,84,45,68,-1,72,73,85,-1,85,73,86,-1,72,85,87,-1,72,87,71,-1,71,87,88,-1,71,88,70,-1,70,88,89,-1,70,89,69,-1,69,89,90,-1,69,90,68,-1,68,90,91,-1,68,91,84,-1,84,91,92,-1,84,92,83,-1,83,92,93,-1,83,93,82,-1,82,93,94,-1,82,94,81,-1,81,94,95,-1,81,95,80,-1,80,95,96,-1,80,96,79,-1,79,96,97,-1,79,97,78,-1,78,97,98,-1,78,98,77,-1,77,98,99,-1,77,99,76,-1,76,99,100,-1,76,100,75,-1,74,75,101,-1,101,75,100,-1,73,74,86,-1,86,74,101,-1,102,103,104,-1,104,103,105,-1,103,106,105,-1,105,106,107,-1,106,108,107,-1,107,108,109,-1,108,110,109,-1,109,110,111,-1,110,112,111,-1,111,112,113,-1,112,114,113,-1,113,114,115,-1,114,116,115,-1,115,116,117,-1,116,118,117,-1,117,118,119,-1,118,120,119,-1,119,120,121,-1,120,122,121,-1,121,122,123,-1,122,124,123,-1,123,124,125,-1,124,102,125,-1,125,102,104,-1,106,103,102,-1,102,124,106,-1,106,124,122,-1,106,122,108,-1,112,110,114,-1,114,110,108,-1,114,108,116,-1,116,108,122,-1,116,122,118,-1,118,122,120,-1,126,127,128,-1,128,127,129,-1,129,127,130,-1,131,132,133,-1,131,133,134,-1,134,133,135,-1,134,135,130,-1,130,135,136,-1,130,136,129,-1,132,131,137,-1,137,131,138,-1,137,138,139,-1,139,138,140,-1,139,140,141,-1,141,140,142,-1,141,142,143,-1,143,142,144,-1,143,144,145,-1,145,144,146,-1,145,146,147,-1,147,146,148,-1,147,148,149,-1,149,148,150,-1,149,150,151,-1,152,153,154,-1,152,154,155,-1,155,154,156,-1,155,156,157,-1,157,156,158,-1,157,158,159,-1,159,158,160,-1,159,160,161,-1,161,160,162,-1,161,162,163,-1,163,162,164,-1,163,164,165,-1,165,164,151,-1,165,151,150,-1,166,167,168,-1,166,168,169,-1,169,168,153,-1,169,153,152,-1,166,170,167,-1,167,170,171,-1,172,173,174,-1,172,174,175,-1,175,174,171,-1,175,171,170,-1,176,177,178,-1,176,178,179,-1,179,178,180,-1,179,180,181,-1,181,180,182,-1,181,182,183,-1,183,182,184,-1,183,184,185,-1,185,184,186,-1,185,186,187,-1,187,186,188,-1,187,188,189,-1,189,188,173,-1,189,173,172,-1,190,191,192,-1,190,192,193,-1,193,192,194,-1,193,194,195,-1,195,194,196,-1,195,196,197,-1,197,196,198,-1,197,198,199,-1,199,198,200,-1,199,200,201,-1,201,200,202,-1,201,202,203,-1,203,202,177,-1,203,177,176,-1,126,128,204,-1,126,204,205,-1,205,204,206,-1,205,206,207,-1,207,206,191,-1,207,191,190,-1,193,131,190,-1,190,131,134,-1,190,134,207,-1,207,134,130,-1,207,130,205,-1,205,130,127,-1,205,127,126,-1,170,166,175,-1,175,166,169,-1,175,169,172,-1,172,169,152,-1,172,152,189,-1,189,152,155,-1,189,155,187,-1,187,155,157,-1,187,157,185,-1,185,157,159,-1,185,159,183,-1,183,159,161,-1,183,161,181,-1,181,161,163,-1,181,163,179,-1,179,163,165,-1,179,165,176,-1,176,165,150,-1,176,150,203,-1,203,150,148,-1,203,148,201,-1,201,148,146,-1,201,146,199,-1,199,146,144,-1,199,144,197,-1,197,144,142,-1,197,142,195,-1,195,142,140,-1,195,140,193,-1,193,140,138,-1,193,138,131,-1,208,209,210,-1,210,209,211,-1,209,212,211,-1,211,212,213,-1,212,214,213,-1,213,214,215,-1,214,216,215,-1,215,216,217,-1,216,218,217,-1,217,218,219,-1,218,208,219,-1,219,208,210,-1,216,214,218,-1,218,214,212,-1,218,212,208,-1,208,212,209,-1,
        ]
    }
}
Shape{
    appearance Appearance {
        material  Material 	{
            diffuseColor 0.7529411764705882 0.7529411764705882 0.7529411764705882
            specularColor 0.3764705882352941 0.3764705882352941 0.3764705882352941
            ambientIntensity 0.7529
            transparency 0.0
            shininess 0.5
        }
    }
    geometry IndexedFaceSet {
        ccw TRUE
        solid FALSE
        coord DEF co Coordinate {
            point [
                -0.2119 -0.478 0.0039, -0.2514 -0.478 0.0039, -0.2295 -0.4286 0.0039, -0.2336 -0.4286 0.0039, -0.2307 -0.4245 0.0039, -0.2326 -0.4245 0.0039, -0.2314 -0.4204 0.0039, -0.2318 -0.4204 0.0039, -0.0915 -0.4189 0.0039, -0.0915 -0.5111 0.0039, -0.1089 -0.4189 0.0039, -0.1083 -0.5111 0.0039, -0.1207 -0.5099 0.0039, -0.1549 -0.4639 0.0039, -0.1539 -0.4521 0.0039, -0.1511 -0.4428 0.0039, -0.1229 -0.4204 0.0039, -0.1307 -0.5068 0.0039, -0.1387 -0.502 0.0039, -0.1453 -0.4955 0.0039, -0.1503 -0.4874 0.0039, -0.1538 -0.4763 0.0039, -0.147 -0.4355 0.0039, -0.1413 -0.4294 0.0039, -0.1327 -0.4238 0.0039
            ]
        }
        coordIndex [
            0,1,2,-1,2,1,3,-1,2,3,4,-1,4,3,5,-1,4,5,6,-1,6,5,7,-1,8,9,10,-1,10,9,11,-1,10,11,12,-1,13,14,10,-1,10,14,15,-1,10,15,16,-1,12,17,10,-1,10,17,18,-1,10,18,19,-1,19,20,10,-1,10,20,21,-1,10,21,13,-1,22,23,15,-1,15,23,24,-1,15,24,16,-1,
        ]
    }
}
Shape{
    appearance Appearance {
        material  Material 	{
            diffuseColor 0.25098039215686274 0.25098039215686274 0.25098039215686274
            specularColor 0.12549019607843137 0.12549019607843137 0.12549019607843137
            ambientIntensity 0.251
            transparency 0.0
            shininess 0.5
        }
    }
    geometry IndexedFaceSet {
        ccw TRUE
        solid FALSE
        coord DEF co Coordinate {
            point [
                -2.0591 -1.2116 0.7909, -2.1646 -1.0353 0.7909, -2.0591 -1.2116 0.7913, -2.1646 -1.0353 0.7913, -1.9536 -1.0353 0.7909, -1.9536 -1.0353 0.7913
            ]
        }
        coordIndex [
            0,1,2,-1,2,1,3,-1,1,4,3,-1,3,4,5,-1,4,0,5,-1,5,0,2,-1,0,4,1,-1,
        ]
    }
}