#VRML V2.0 utf8
# 3D model generated by easyeda2kicad.py (https://github.com/uPesy/easyeda2kicad.py)

Shape{
    appearance Appearance {
        material  Material 	{
            diffuseColor 0.14901960784313725 0.14901960784313725 0.14901960784313725
            specularColor 0.07450980392156863 0.07450980392156863 0.07450980392156863
            ambientIntensity 0.149
            transparency 0.0
            shininess 0.5
        }
    }
    geometry IndexedFaceSet {
        ccw TRUE
        solid FALSE
        coord DEF co Coordinate {
            point [
                2.0 -1.972 0.0, 2.0 -2.0467 0.0, 1.998 -2.0669 0.0, 2.1575 -2.0467 0.0, 2.1575 -2.0326 0.0, 2.3031 -1.7843 0.0, 2.3031 -2.0669 0.0, 2.0162 -1.972 0.0, 2.0797 -1.9539 0.0, 2.0162 -2.0326 0.0, 2.1367 -1.9049 0.0, 2.1147 -1.9293 0.0, 2.1454 -1.87 0.0, 2.0849 -1.9395 0.0, 2.0786 -1.9397 0.0, 2.0461 -1.9316 0.0, 2.0233 -1.9098 0.0, 2.0126 -1.8788 0.0, 2.029 -1.8004 0.0, 2.1286 -1.8004 0.0, 2.0384 -1.8128 0.0, 2.1191 -1.8128 0.0, 2.0188 -1.8379 0.0, 2.1389 -1.8383 0.0, 2.0121 -1.869 0.0, 2.1437 -1.8532 0.0, 2.1451 -1.8635 0.0, 2.1615 -1.8691 0.0, 2.1535 -1.8307 0.0, 2.1435 -1.8146 0.0, 1.998 -1.8802 0.0, 2.0024 -1.9046 0.0, 2.0107 -1.9199 0.0, 2.1199 -1.9437 0.0, 2.1483 -1.9168 0.0, 2.1613 -1.8761 0.0, 2.1348 -1.8054 0.0, 1.998 -1.7843 0.0, 2.0042 -1.8306 0.0, 2.0182 -1.9289 0.0, 2.0235 -1.9339 0.0, 2.0497 -1.9491 0.0, 1.9962 -1.861 0.0, 1.6969 -1.7843 0.0, 1.998 -1.8491 0.0, 1.9981 -1.8485 0.0, 1.6969 -2.0669 0.0, 1.996 -1.8689 0.0, 2.1413 -1.6793 0.0, 2.1413 -1.754 0.0, 2.0929 -1.754 0.0, 2.0929 -1.6793 0.0, 2.0767 -1.6793 0.0, 2.0 -1.651 0.0, 2.1518 -1.5692 0.0, 2.1327 -1.5409 0.0, 2.1575 -1.4269 0.0, 2.0767 -1.754 0.0, 2.0162 -1.754 0.0, 2.0162 -1.6793 0.0, 2.1575 -1.6793 0.0, 2.1575 -1.7681 0.0, 2.0 -1.7681 0.0, 2.0 -1.6793 0.0, 2.1575 -1.651 0.0, 2.1575 -1.6192 0.0, 2.1565 -1.594 0.0, 2.1015 -1.5247 0.0, 2.0768 -1.5218 0.0, 2.0 -1.5016 0.0, 2.0371 -1.5307 0.0, 2.0129 -1.5507 0.0, 2.0 -1.4862 0.0, 2.0 -1.6022 0.0, 2.0013 -1.582 0.0, 2.3031 -1.0827 0.0, 2.1575 -1.4249 0.0, 1.998 -1.0827 0.0, 2.0 -1.3522 0.0, 2.0 -1.3676 0.0, 1.6969 -1.0827 0.0, 2.0505 -1.4622 0.0, 2.0505 -1.3909 0.0, -2.313 -2.0669 0.0118, -2.313 -2.0669 0.1791, -2.4524 -2.0669 0.1791, -0.874 -2.0669 0.3583, -1.126 -2.0669 0.3583, -1.4524 -2.0669 0.1791, 0.126 -2.0669 0.3583, -0.126 -2.0669 0.3583, -0.4524 -2.0669 0.1791, 1.126 -2.0669 0.3583, 0.874 -2.0669 0.3583, 0.5476 -2.0669 0.1791, 2.4524 -2.0669 0.1791, 2.126 -2.0669 0.3583, 1.874 -2.0669 0.3583, 1.5476 -2.0669 0.1791, 0.874 -2.0669 1.6102, 1.126 -2.0669 1.6102, 1.3031 -2.0669 1.9685, 0.6969 -2.0669 1.9685, 0.5 -2.0669 1.7323, 0.874 -2.0669 1.3583, 0.5 -2.0669 0.9843, 1.126 -2.0669 1.3583, 1.5 -2.0669 0.9843, 1.5 -2.0669 1.7323, 1.874 -2.0669 1.6102, 2.126 -2.0669 1.6102, 2.3031 -2.0669 1.9685, 1.6969 -2.0669 1.9685, 1.874 -2.0669 1.3583, 2.126 -2.0669 1.3583, 2.5 -2.0669 0.9843, 2.5 -2.0669 1.7323, 2.5 -2.0669 0.2362, 2.126 -2.0669 0.6102, 1.874 -2.0669 0.6102, 1.5 -2.0669 0.2362, 0.5 -2.0669 0.2362, 0.874 -2.0669 0.6102, 1.126 -2.0669 0.6102, 1.4524 -2.0669 0.1791, 0.6969 -2.0669 0.0, 1.3031 -2.0669 0.0, -0.5 -2.0669 0.2362, -0.5 -2.0669 0.9843, -0.126 -2.0669 0.6102, 0.126 -2.0669 0.6102, 0.4524 -2.0669 0.1791, -0.3031 -2.0669 0.0, 0.3031 -2.0669 0.0, -1.5 -2.0669 0.2362, -1.5 -2.0669 0.9843, -1.126 -2.0669 0.6102, -0.874 -2.0669 0.6102, -0.5476 -2.0669 0.1791, -1.3031 -2.0669 0.0, -0.6969 -2.0669 0.0, -2.126 -2.0669 0.3583, -2.126 -2.0669 0.6102, -2.313 -2.0669 0.9843, -1.874 -2.0669 0.6102, -1.874 -2.0669 0.3583, -1.5476 -2.0669 0.1791, -2.3031 -2.0669 0.0, -1.6969 -2.0669 0.0, -2.5 -2.0669 0.2362, -2.313 -2.0669 1.9567, -2.5 -2.0669 1.7323, -2.5 -2.0669 0.9843, -1.5 -2.0669 1.7323, -1.6969 -2.0669 1.9685, -1.874 -2.0669 1.6102, -2.3031 -2.0669 1.9685, -2.126 -2.0669 1.6102, -2.126 -2.0669 1.3583, -1.874 -2.0669 1.3583, -1.126 -2.0669 1.6102, -0.874 -2.0669 1.6102, -0.6969 -2.0669 1.9685, -1.3031 -2.0669 1.9685, -1.126 -2.0669 1.3583, -0.874 -2.0669 1.3583, -0.5 -2.0669 1.7323, -0.126 -2.0669 1.6102, 0.126 -2.0669 1.6102, 0.3031 -2.0669 1.9685, -0.3031 -2.0669 1.9685, -0.126 -2.0669 1.3583, 0.126 -2.0669 1.3583, -0.5 -1.3189 1.7323, -0.4344 -1.3189 1.811, 0.4344 -1.3189 1.811, -1.4344 -1.3189 1.811, -0.5656 -1.3189 1.811, -1.5 -1.3189 1.7323, -0.5 -1.3189 1.7106, -1.5 -1.3189 1.7106, -2.313 -1.3189 1.7106, -1.5656 -1.3189 1.811, -2.5 -1.3189 1.7106, -2.5 -1.3189 1.7323, -2.313 -1.3189 1.811, -2.4344 -1.3189 1.811, -1.874 -1.3189 0.3583, -1.5656 -1.3189 0.1575, -2.126 -1.3189 0.3583, -2.313 -1.3189 0.1575, -2.126 -1.3189 0.6102, -2.313 -1.3189 0.9843, -1.874 -1.3189 0.6102, -1.5 -1.3189 0.9843, -1.5 -1.3189 0.2362, -1.126 -1.3189 0.3583, -0.874 -1.3189 0.3583, -0.5656 -1.3189 0.1575, -1.4344 -1.3189 0.1575, -1.126 -1.3189 0.6102, -0.874 -1.3189 0.6102, -0.5 -1.3189 0.9843, -0.5 -1.3189 0.2362, -0.126 -1.3189 0.3583, 0.126 -1.3189 0.3583, 0.4344 -1.3189 0.1575, -0.4344 -1.3189 0.1575, -0.126 -1.3189 0.6102, 0.126 -1.3189 0.6102, 0.5 -1.3189 0.9843, 0.5 -1.3189 0.2362, 0.874 -1.3189 0.3583, 1.126 -1.3189 0.3583, 1.4344 -1.3189 0.1575, 0.5656 -1.3189 0.1575, 0.874 -1.3189 0.6102, 1.126 -1.3189 0.6102, 1.5 -1.3189 0.9843, 1.5 -1.3189 0.2362, 1.874 -1.3189 0.3583, 2.126 -1.3189 0.3583, 2.4344 -1.3189 0.1575, 1.5656 -1.3189 0.1575, 1.874 -1.3189 0.6102, 2.126 -1.3189 0.6102, 2.5 -1.3189 0.9843, 2.5 -1.3189 0.2362, 1.5656 -1.3189 1.811, 2.4344 -1.3189 1.811, 1.5 -1.3189 1.7323, 2.5 -1.3189 1.7323, 1.5 -1.3189 1.7106, 0.5 -1.3189 1.7106, 0.5 -1.3189 1.7323, 0.5656 -1.3189 1.811, 1.4344 -1.3189 1.811, 2.5 -1.3189 1.7106, -2.5 -1.3189 0.9843, -2.5 -1.3189 0.2362, -2.4344 -1.3189 0.1575, -1.874 -1.3189 1.6102, -1.874 -1.3189 1.3583, -2.126 -1.3189 1.3583, -2.126 -1.3189 1.6102, -0.874 -1.3189 1.6102, -0.874 -1.3189 1.3583, -1.126 -1.3189 1.3583, -1.126 -1.3189 1.6102, -0.126 -1.3189 1.6102, -0.126 -1.3189 1.3583, 0.126 -1.3189 1.3583, 0.126 -1.3189 1.6102, 1.126 -1.3189 1.6102, 1.126 -1.3189 1.3583, 0.874 -1.3189 1.3583, 0.874 -1.3189 1.6102, 2.126 -1.3189 1.6102, 2.126 -1.3189 1.3583, 1.874 -1.3189 1.3583, 1.874 -1.3189 1.6102, 0.3031 -1.0827 0.0, -0.3031 -1.0827 0.0, 0.4344 -1.0827 0.1575, -0.4344 -1.0827 0.1575, -0.6969 -1.0827 0.0, -1.3031 -1.0827 0.0, -0.5656 -1.0827 0.1575, -1.4344 -1.0827 0.1575, 0.5656 -1.0827 0.1575, 1.4344 -1.0827 0.1575, 0.6969 -1.0827 0.0, 1.3031 -1.0827 0.0, 0.4344 -1.0827 1.811, -0.4344 -1.0827 1.811, 0.3031 -1.0827 1.9685, -0.3031 -1.0827 1.9685, -0.5656 -1.0827 1.811, -1.4344 -1.0827 1.811, -0.6969 -1.0827 1.9685, -1.3031 -1.0827 1.9685, 0.6969 -1.0827 1.9685, 1.3031 -1.0827 1.9685, 0.5656 -1.0827 1.811, 1.4344 -1.0827 1.811, 2.4344 -1.0827 0.1575, 1.5656 -1.0827 0.1575, -1.5656 -1.0827 1.811, -2.4344 -1.0827 1.811, -1.6969 -1.0827 1.9685, -2.3031 -1.0827 1.9685, -2.4344 -1.0827 0.1575, -1.5656 -1.0827 0.1575, -2.3031 -1.0827 0.0, -1.6969 -1.0827 0.0, 2.4344 -1.0827 1.811, 1.5656 -1.0827 1.811, 2.3031 -1.0827 1.9685, 1.6969 -1.0827 1.9685
            ]
        }
        coordIndex [
            0,1,2,-1,2,1,3,-1,4,5,3,-1,3,5,6,-1,3,6,2,-1,7,8,9,-1,9,8,4,-1,10,11,12,-1,12,11,13,-1,12,13,14,-1,14,15,12,-1,12,15,16,-1,12,16,17,-1,18,19,20,-1,20,19,21,-1,20,21,22,-1,22,21,23,-1,22,23,24,-1,24,23,25,-1,24,25,17,-1,17,25,26,-1,17,26,12,-1,27,28,5,-1,5,28,29,-1,2,30,0,-1,0,30,31,-1,0,31,32,-1,8,33,4,-1,4,33,34,-1,4,34,5,-1,5,34,35,-1,5,35,27,-1,29,36,5,-1,5,36,19,-1,5,19,37,-1,37,19,18,-1,37,18,38,-1,32,39,0,-1,0,39,40,-1,0,40,7,-1,7,40,41,-1,7,41,8,-1,42,43,44,-1,44,43,37,-1,44,37,45,-1,45,37,38,-1,2,46,30,-1,30,46,43,-1,30,43,47,-1,47,43,42,-1,48,49,50,-1,51,52,53,-1,54,55,56,-1,57,58,52,-1,52,58,59,-1,52,59,53,-1,60,5,61,-1,61,5,37,-1,61,37,62,-1,62,37,63,-1,50,51,48,-1,48,51,53,-1,48,53,60,-1,60,53,64,-1,60,64,5,-1,5,64,65,-1,5,65,66,-1,55,67,56,-1,56,67,68,-1,56,68,69,-1,69,68,70,-1,69,70,71,-1,72,69,37,-1,59,63,53,-1,53,63,37,-1,53,37,73,-1,73,37,69,-1,73,69,74,-1,74,69,71,-1,66,54,5,-1,5,54,56,-1,5,56,75,-1,75,56,76,-1,75,76,77,-1,77,76,78,-1,77,78,79,-1,43,80,37,-1,37,80,77,-1,37,77,72,-1,72,77,79,-1,72,79,81,-1,81,79,82,-1,83,84,85,-1,86,87,88,-1,89,90,91,-1,92,93,94,-1,2,6,95,-1,96,97,98,-1,99,100,101,-1,101,102,99,-1,99,102,103,-1,99,103,104,-1,104,103,105,-1,104,105,106,-1,106,105,107,-1,106,107,100,-1,100,107,108,-1,100,108,101,-1,109,110,111,-1,111,112,109,-1,109,112,108,-1,109,108,113,-1,113,108,107,-1,113,107,114,-1,114,107,115,-1,114,115,110,-1,110,115,116,-1,110,116,111,-1,46,2,98,-1,98,2,95,-1,98,95,96,-1,96,95,117,-1,96,117,118,-1,118,117,115,-1,118,115,119,-1,119,115,107,-1,119,107,97,-1,97,107,120,-1,97,120,98,-1,94,93,121,-1,121,93,105,-1,105,93,122,-1,105,122,107,-1,107,122,123,-1,107,123,120,-1,120,123,92,-1,120,92,124,-1,92,94,124,-1,124,94,125,-1,124,125,126,-1,91,90,127,-1,127,90,128,-1,128,90,129,-1,128,129,105,-1,105,129,130,-1,105,130,121,-1,121,130,89,-1,121,89,131,-1,89,91,131,-1,131,91,132,-1,131,132,133,-1,88,87,134,-1,134,87,135,-1,135,87,136,-1,135,136,128,-1,128,136,137,-1,128,137,127,-1,127,137,86,-1,127,86,138,-1,86,88,138,-1,138,88,139,-1,138,139,140,-1,141,142,143,-1,143,142,135,-1,135,142,144,-1,135,144,134,-1,134,144,145,-1,134,145,146,-1,147,148,83,-1,83,148,146,-1,83,146,84,-1,84,146,145,-1,84,145,141,-1,141,143,84,-1,84,143,149,-1,84,149,85,-1,150,151,143,-1,143,151,152,-1,143,152,149,-1,153,154,155,-1,155,154,156,-1,155,156,157,-1,157,156,150,-1,157,150,158,-1,158,150,143,-1,158,143,159,-1,159,143,135,-1,159,135,155,-1,155,135,153,-1,160,161,162,-1,162,163,160,-1,160,163,153,-1,160,153,164,-1,164,153,135,-1,164,135,165,-1,165,135,128,-1,165,128,161,-1,161,128,166,-1,161,166,162,-1,167,168,169,-1,169,170,167,-1,167,170,166,-1,167,166,171,-1,171,166,128,-1,171,128,172,-1,172,128,105,-1,172,105,168,-1,168,105,103,-1,168,103,169,-1,173,174,175,-1,176,177,178,-1,178,177,173,-1,178,173,179,-1,179,180,178,-1,178,180,181,-1,178,181,182,-1,181,183,184,-1,182,181,185,-1,185,181,184,-1,185,184,186,-1,187,188,189,-1,189,188,190,-1,189,190,191,-1,191,190,192,-1,191,192,193,-1,193,192,194,-1,193,194,187,-1,187,194,195,-1,187,195,188,-1,196,197,198,-1,198,199,196,-1,196,199,195,-1,196,195,200,-1,200,195,194,-1,200,194,201,-1,201,194,202,-1,201,202,197,-1,197,202,203,-1,197,203,198,-1,204,205,206,-1,206,207,204,-1,204,207,203,-1,204,203,208,-1,208,203,202,-1,208,202,209,-1,209,202,210,-1,209,210,205,-1,205,210,211,-1,205,211,206,-1,212,213,214,-1,214,215,212,-1,212,215,211,-1,212,211,216,-1,216,211,210,-1,216,210,217,-1,217,210,218,-1,217,218,213,-1,213,218,219,-1,213,219,214,-1,220,221,222,-1,222,223,220,-1,220,223,219,-1,220,219,224,-1,224,219,218,-1,224,218,225,-1,225,218,226,-1,225,226,221,-1,221,226,227,-1,221,227,222,-1,228,229,230,-1,230,229,231,-1,232,233,234,-1,235,236,234,-1,234,236,230,-1,234,230,232,-1,232,230,231,-1,232,231,237,-1,183,181,238,-1,238,181,192,-1,238,192,239,-1,239,192,190,-1,239,190,240,-1,241,180,242,-1,242,180,194,-1,242,194,243,-1,243,194,192,-1,243,192,244,-1,244,192,181,-1,244,181,241,-1,241,181,180,-1,245,179,246,-1,246,179,202,-1,246,202,247,-1,247,202,194,-1,247,194,248,-1,248,194,180,-1,248,180,245,-1,245,180,179,-1,175,234,173,-1,173,234,233,-1,173,233,179,-1,179,233,249,-1,179,249,202,-1,202,249,250,-1,202,250,210,-1,210,250,251,-1,210,251,233,-1,233,251,252,-1,233,252,249,-1,253,232,254,-1,254,232,218,-1,254,218,255,-1,255,218,210,-1,255,210,256,-1,256,210,233,-1,256,233,253,-1,253,233,232,-1,257,237,258,-1,258,237,226,-1,258,226,259,-1,259,226,218,-1,259,218,260,-1,260,218,232,-1,260,232,257,-1,257,232,237,-1,261,262,263,-1,263,262,264,-1,265,266,267,-1,267,266,268,-1,269,270,271,-1,271,270,272,-1,133,132,261,-1,261,132,262,-1,140,139,265,-1,265,139,266,-1,271,272,125,-1,125,272,126,-1,263,264,206,-1,206,264,207,-1,267,268,198,-1,198,268,199,-1,215,214,269,-1,269,214,270,-1,273,274,275,-1,275,274,276,-1,277,278,279,-1,279,278,280,-1,281,282,283,-1,283,282,284,-1,276,170,275,-1,275,170,169,-1,280,163,279,-1,279,163,162,-1,101,282,102,-1,102,282,281,-1,175,174,273,-1,273,174,274,-1,177,176,277,-1,277,176,278,-1,283,284,235,-1,235,284,236,-1,285,75,286,-1,286,75,77,-1,286,77,80,-1,287,288,289,-1,289,288,290,-1,290,156,289,-1,289,156,154,-1,285,286,222,-1,222,286,223,-1,186,288,185,-1,185,288,287,-1,185,287,182,-1,291,292,293,-1,293,292,294,-1,115,117,227,-1,231,116,237,-1,237,116,115,-1,237,115,226,-1,226,115,227,-1,295,296,297,-1,297,296,298,-1,239,149,238,-1,238,149,152,-1,238,152,183,-1,183,152,151,-1,183,151,184,-1,298,112,297,-1,297,112,111,-1,293,294,147,-1,147,294,148,-1,188,292,190,-1,190,292,291,-1,190,291,240,-1,229,228,295,-1,295,228,296,-1,156,290,186,-1,186,290,288,-1,156,186,150,-1,150,186,184,-1,150,184,151,-1,287,289,182,-1,182,289,154,-1,182,154,178,-1,178,154,153,-1,148,294,188,-1,188,294,292,-1,148,188,146,-1,146,188,195,-1,146,195,134,-1,291,293,240,-1,240,293,147,-1,149,239,85,-1,85,239,240,-1,85,240,83,-1,83,240,147,-1,
        ]
    }
}
Shape{
    appearance Appearance {
        material  Material 	{
            diffuseColor 0.7529411764705882 0.7529411764705882 0.7529411764705882
            specularColor 0.3764705882352941 0.3764705882352941 0.3764705882352941
            ambientIntensity 0.7529
            transparency 0.0
            shininess 0.5
        }
    }
    geometry IndexedFaceSet {
        ccw TRUE
        solid FALSE
        coord DEF co Coordinate {
            point [
                -2.126 -0.4291 0.6102, -1.874 -0.4291 0.6102, -1.874 -0.399 0.6042, -2.126 -0.399 0.6042, -1.874 -0.3735 0.5872, -2.126 -0.3735 0.5872, -1.874 -0.3564 0.5616, -2.126 -0.3564 0.5616, -1.874 -0.3504 0.5315, -2.126 -0.3504 0.5315, -2.126 -0.3504 -1.1024, -1.874 -0.3504 -1.1024, -2.126 -0.4291 -1.1811, -1.874 -0.4291 -1.1811, -2.126 -0.5236 -1.1811, -1.874 -0.5236 -1.1811, -2.126 -0.6024 -1.1024, -1.874 -0.6024 -1.1024, -2.126 -0.6024 0.2795, -1.874 -0.6024 0.2795, -2.126 -0.6084 0.3097, -1.874 -0.6084 0.3097, -2.126 -0.6254 0.3352, -1.874 -0.6254 0.3352, -2.126 -0.651 0.3523, -1.874 -0.651 0.3523, -2.126 -0.6811 0.3583, -1.874 -0.6811 0.3583, -1.874 -1.3189 0.6102, -1.874 -1.3189 0.3583, -2.126 -1.3189 0.3583, -2.126 -1.3189 0.6102, -1.874 -2.0669 0.3583, -1.874 -4.3504 0.3583, -2.126 -2.0669 0.3583, -2.126 -4.3504 0.3583, -2.126 -2.0669 0.6102, -2.126 -4.3504 0.6102, -1.874 -2.0669 0.6102, -1.874 -4.3504 0.6102, -2.126 -4.4291 0.437, -2.126 -4.4291 0.5315, -1.874 -4.4291 0.5315, -1.874 -4.4291 0.437, -2.126 0.5709 1.6102, -1.874 0.5709 1.6102, -1.874 0.601 1.6042, -2.126 0.601 1.6042, -1.874 0.6265 1.5872, -2.126 0.6265 1.5872, -1.874 0.6436 1.5616, -2.126 0.6436 1.5616, -1.874 0.6496 1.5315, -2.126 0.6496 1.5315, -2.126 0.6496 -1.1024, -1.874 0.6496 -1.1024, -2.126 0.5709 -1.1811, -1.874 0.5709 -1.1811, -2.126 0.4764 -1.1811, -1.874 0.4764 -1.1811, -2.126 0.3976 -1.1024, -1.874 0.3976 -1.1024, -2.126 0.3976 1.2795, -1.874 0.3976 1.2795, -2.126 0.3916 1.3097, -1.874 0.3916 1.3097, -2.126 0.3746 1.3352, -1.874 0.3746 1.3352, -2.126 0.349 1.3523, -1.874 0.349 1.3523, -2.126 0.3189 1.3583, -1.874 0.3189 1.3583, -1.874 -1.3189 1.6102, -1.874 -1.3189 1.3583, -2.126 -1.3189 1.3583, -2.126 -1.3189 1.6102, -1.874 -2.0669 1.3583, -1.874 -4.3504 1.3583, -2.126 -2.0669 1.3583, -2.126 -4.3504 1.3583, -2.126 -2.0669 1.6102, -2.126 -4.3504 1.6102, -1.874 -2.0669 1.6102, -1.874 -4.3504 1.6102, -2.126 -4.4291 1.437, -2.126 -4.4291 1.5315, -1.874 -4.4291 1.5315, -1.874 -4.4291 1.437
            ]
        }
        coordIndex [
            0,1,2,-1,0,2,3,-1,3,2,4,-1,3,4,5,-1,5,4,6,-1,5,6,7,-1,7,6,8,-1,7,8,9,-1,10,9,11,-1,11,9,8,-1,12,10,13,-1,13,10,11,-1,14,12,15,-1,15,12,13,-1,16,14,17,-1,17,14,15,-1,18,16,19,-1,19,16,17,-1,18,19,20,-1,20,19,21,-1,20,21,22,-1,22,21,23,-1,22,23,24,-1,24,23,25,-1,24,25,26,-1,26,25,27,-1,1,28,29,-1,29,27,1,-1,1,27,25,-1,1,25,2,-1,2,25,23,-1,15,13,17,-1,17,13,11,-1,17,11,19,-1,19,11,8,-1,19,8,21,-1,21,8,6,-1,21,6,23,-1,23,6,4,-1,23,4,2,-1,22,7,20,-1,20,7,9,-1,20,9,18,-1,30,31,26,-1,26,31,0,-1,26,0,24,-1,24,0,3,-1,24,3,22,-1,22,3,5,-1,22,5,7,-1,14,16,12,-1,12,16,18,-1,12,18,10,-1,10,18,9,-1,28,1,31,-1,31,1,0,-1,30,26,29,-1,29,26,27,-1,32,33,34,-1,34,33,35,-1,36,37,38,-1,38,37,39,-1,40,41,35,-1,35,41,37,-1,35,37,34,-1,34,37,36,-1,42,43,39,-1,39,43,33,-1,39,33,38,-1,38,33,32,-1,40,35,43,-1,43,35,33,-1,41,40,42,-1,42,40,43,-1,37,41,39,-1,39,41,42,-1,44,45,46,-1,44,46,47,-1,47,46,48,-1,47,48,49,-1,49,48,50,-1,49,50,51,-1,51,50,52,-1,51,52,53,-1,54,53,55,-1,55,53,52,-1,56,54,57,-1,57,54,55,-1,58,56,59,-1,59,56,57,-1,60,58,61,-1,61,58,59,-1,62,60,63,-1,63,60,61,-1,62,63,64,-1,64,63,65,-1,64,65,66,-1,66,65,67,-1,66,67,68,-1,68,67,69,-1,68,69,70,-1,70,69,71,-1,45,72,73,-1,59,57,61,-1,61,57,55,-1,61,55,63,-1,63,55,52,-1,63,52,65,-1,65,52,50,-1,65,50,67,-1,73,71,45,-1,45,71,69,-1,45,69,46,-1,46,69,67,-1,46,67,48,-1,48,67,50,-1,56,58,54,-1,54,58,60,-1,54,60,53,-1,74,75,70,-1,70,75,44,-1,70,44,68,-1,68,44,47,-1,68,47,66,-1,60,62,53,-1,53,62,64,-1,53,64,51,-1,51,64,66,-1,51,66,49,-1,49,66,47,-1,72,45,75,-1,75,45,44,-1,74,70,73,-1,73,70,71,-1,76,77,78,-1,78,77,79,-1,80,81,82,-1,82,81,83,-1,84,85,79,-1,79,85,81,-1,79,81,78,-1,78,81,80,-1,86,87,83,-1,83,87,77,-1,83,77,82,-1,82,77,76,-1,84,79,87,-1,87,79,77,-1,85,84,86,-1,86,84,87,-1,81,85,83,-1,83,85,86,-1,
        ]
    }
}
Shape{
    appearance Appearance {
        material  Material 	{
            diffuseColor 0.14901960784313725 0.14901960784313725 0.14901960784313725
            specularColor 0.07450980392156863 0.07450980392156863 0.07450980392156863
            ambientIntensity 0.149
            transparency 0.0
            shininess 0.5
        }
    }
    geometry IndexedFaceSet {
        ccw TRUE
        solid FALSE
        coord DEF co Coordinate {
            point [
                -1.4344 -1.3189 0.1575, -1.4344 -1.0827 0.1575, -1.3031 -1.0827 0.0, -1.5 -2.0669 0.2362, -1.5 -1.3189 0.2362, -1.4524 -2.0669 0.1791, -1.3031 -2.0669 0.0, -1.3031 -1.0827 1.9685, -1.4344 -1.0827 1.811, -1.4344 -1.3189 1.811, -1.5 -1.3189 1.7323, -1.5 -2.0669 1.7323, -1.3031 -2.0669 1.9685, 1.4344 -1.0827 1.811, 1.3031 -1.0827 1.9685, 1.4344 -1.3189 1.811, 1.3031 -2.0669 1.9685, 1.5 -1.3189 1.7323, 1.5 -2.0669 1.7323, 1.6969 -1.0827 1.9685, 1.5656 -1.0827 1.811, 1.5656 -1.3189 1.811, 1.6969 -2.0669 1.9685, 2.4344 -1.0827 1.811, 2.3031 -1.0827 1.9685, 2.4344 -1.3189 1.811, 2.3031 -2.0669 1.9685, 2.5 -1.3189 1.7323, 2.5 -2.0669 1.7323, -0.5656 -1.0827 1.811, -0.6969 -1.0827 1.9685, -0.5656 -1.3189 1.811, -0.6969 -2.0669 1.9685, -0.5 -1.3189 1.7323, -0.5 -2.0669 1.7323, -0.3031 -1.0827 1.9685, -0.4344 -1.0827 1.811, -0.4344 -1.3189 1.811, -0.3031 -2.0669 1.9685, 0.4344 -1.0827 1.811, 0.3031 -1.0827 1.9685, 0.4344 -1.3189 1.811, 0.3031 -2.0669 1.9685, 0.5 -1.3189 1.7323, 0.5 -2.0669 1.7323, 0.6969 -1.0827 1.9685, 0.5656 -1.0827 1.811, 0.5656 -1.3189 1.811, 0.6969 -2.0669 1.9685, 2.3031 -1.0827 0.0, 2.4344 -1.0827 0.1575, 2.3031 -1.7843 0.0, 2.4344 -1.3189 0.1575, 2.3031 -2.0669 0.0, 2.4524 -2.0669 0.1791, 2.5 -2.0669 0.2362, 2.5 -1.3189 0.2362, 1.3031 -2.0669 0.0, 1.3031 -1.0827 0.0, 1.4344 -1.3189 0.1575, 1.4344 -1.0827 0.1575, 1.4524 -2.0669 0.1791, 1.5 -1.3189 0.2362, 1.5 -2.0669 0.2362, 1.5656 -1.0827 0.1575, 1.6969 -1.0827 0.0, 1.5656 -1.3189 0.1575, 1.6969 -1.7843 0.0, 1.5476 -2.0669 0.1791, 1.6969 -2.0669 0.0, -0.6969 -2.0669 0.0, -0.6969 -1.0827 0.0, -0.5656 -1.3189 0.1575, -0.5656 -1.0827 0.1575, -0.5476 -2.0669 0.1791, -0.5 -1.3189 0.2362, -0.5 -2.0669 0.2362, -0.4344 -1.3189 0.1575, -0.4344 -1.0827 0.1575, -0.3031 -1.0827 0.0, -0.4524 -2.0669 0.1791, -0.3031 -2.0669 0.0, 0.3031 -2.0669 0.0, 0.3031 -1.0827 0.0, 0.4344 -1.3189 0.1575, 0.4344 -1.0827 0.1575, 0.4524 -2.0669 0.1791, 0.5 -1.3189 0.2362, 0.5 -2.0669 0.2362, 0.5656 -1.3189 0.1575, 0.5656 -1.0827 0.1575, 0.6969 -1.0827 0.0, 0.5476 -2.0669 0.1791, 0.6969 -2.0669 0.0
            ]
        }
        coordIndex [
            0,1,2,-1,3,4,5,-1,5,4,0,-1,5,0,6,-1,6,0,2,-1,7,8,9,-1,10,11,9,-1,9,11,12,-1,9,12,7,-1,13,14,15,-1,15,14,16,-1,15,16,17,-1,17,16,18,-1,19,20,21,-1,17,18,21,-1,21,18,22,-1,21,22,19,-1,23,24,25,-1,25,24,26,-1,25,26,27,-1,27,26,28,-1,29,30,31,-1,31,30,32,-1,31,32,33,-1,33,32,34,-1,35,36,37,-1,33,34,37,-1,37,34,38,-1,37,38,35,-1,39,40,41,-1,41,40,42,-1,41,42,43,-1,43,42,44,-1,45,46,47,-1,43,44,47,-1,47,44,48,-1,47,48,45,-1,49,50,51,-1,51,50,52,-1,53,51,54,-1,54,51,52,-1,54,52,55,-1,55,52,56,-1,57,58,59,-1,59,58,60,-1,57,59,61,-1,61,59,62,-1,61,62,63,-1,64,65,66,-1,66,65,67,-1,63,62,68,-1,68,62,66,-1,68,66,69,-1,69,66,67,-1,70,71,72,-1,72,71,73,-1,70,72,74,-1,74,72,75,-1,74,75,76,-1,77,78,79,-1,76,75,80,-1,80,75,77,-1,80,77,81,-1,81,77,79,-1,82,83,84,-1,84,83,85,-1,82,84,86,-1,86,84,87,-1,86,87,88,-1,89,90,91,-1,88,87,92,-1,92,87,89,-1,92,89,93,-1,93,89,91,-1,
        ]
    }
}
Shape{
    appearance Appearance {
        material  Material 	{
            diffuseColor 0.7529411764705882 0.7529411764705882 0.7529411764705882
            specularColor 0.3764705882352941 0.3764705882352941 0.3764705882352941
            ambientIntensity 0.7529
            transparency 0.0
            shininess 0.5
        }
    }
    geometry IndexedFaceSet {
        ccw TRUE
        solid FALSE
        coord DEF co Coordinate {
            point [
                -1.126 -0.4291 0.6102, -0.874 -0.4291 0.6102, -0.874 -0.399 0.6042, -1.126 -0.399 0.6042, -0.874 -0.3735 0.5872, -1.126 -0.3735 0.5872, -0.874 -0.3564 0.5616, -1.126 -0.3564 0.5616, -0.874 -0.3504 0.5315, -1.126 -0.3504 0.5315, -1.126 -0.3504 -1.1024, -0.874 -0.3504 -1.1024, -1.126 -0.4291 -1.1811, -0.874 -0.4291 -1.1811, -1.126 -0.5236 -1.1811, -0.874 -0.5236 -1.1811, -1.126 -0.6024 -1.1024, -0.874 -0.6024 -1.1024, -1.126 -0.6024 0.2795, -0.874 -0.6024 0.2795, -1.126 -0.6084 0.3097, -0.874 -0.6084 0.3097, -1.126 -0.6254 0.3352, -0.874 -0.6254 0.3352, -1.126 -0.651 0.3523, -0.874 -0.651 0.3523, -1.126 -0.6811 0.3583, -0.874 -0.6811 0.3583, -0.874 -1.3189 0.6102, -0.874 -1.3189 0.3583, -1.126 -1.3189 0.3583, -1.126 -1.3189 0.6102, -0.874 -2.0669 0.3583, -0.874 -4.3504 0.3583, -1.126 -2.0669 0.3583, -1.126 -4.3504 0.3583, -1.126 -2.0669 0.6102, -1.126 -4.3504 0.6102, -0.874 -2.0669 0.6102, -0.874 -4.3504 0.6102, -1.126 -4.4291 0.437, -1.126 -4.4291 0.5315, -0.874 -4.4291 0.5315, -0.874 -4.4291 0.437, -1.126 0.5709 1.6102, -0.874 0.5709 1.6102, -0.874 0.601 1.6042, -1.126 0.601 1.6042, -0.874 0.6265 1.5872, -1.126 0.6265 1.5872, -0.874 0.6436 1.5616, -1.126 0.6436 1.5616, -0.874 0.6496 1.5315, -1.126 0.6496 1.5315, -1.126 0.6496 -1.1024, -0.874 0.6496 -1.1024, -1.126 0.5709 -1.1811, -0.874 0.5709 -1.1811, -1.126 0.4764 -1.1811, -0.874 0.4764 -1.1811, -1.126 0.3976 -1.1024, -0.874 0.3976 -1.1024, -1.126 0.3976 1.2795, -0.874 0.3976 1.2795, -1.126 0.3916 1.3097, -0.874 0.3916 1.3097, -1.126 0.3746 1.3352, -0.874 0.3746 1.3352, -1.126 0.349 1.3523, -0.874 0.349 1.3523, -1.126 0.3189 1.3583, -0.874 0.3189 1.3583, -0.874 -1.3189 1.6102, -0.874 -1.3189 1.3583, -1.126 -1.3189 1.3583, -1.126 -1.3189 1.6102, -0.874 -2.0669 1.3583, -0.874 -4.3504 1.3583, -1.126 -2.0669 1.3583, -1.126 -4.3504 1.3583, -1.126 -2.0669 1.6102, -1.126 -4.3504 1.6102, -0.874 -2.0669 1.6102, -0.874 -4.3504 1.6102, -1.126 -4.4291 1.437, -1.126 -4.4291 1.5315, -0.874 -4.4291 1.5315, -0.874 -4.4291 1.437, -0.126 -0.4291 0.6102, 0.126 -0.4291 0.6102, 0.126 -0.399 0.6042, -0.126 -0.399 0.6042, 0.126 -0.3735 0.5872, -0.126 -0.3735 0.5872, 0.126 -0.3564 0.5616, -0.126 -0.3564 0.5616, 0.126 -0.3504 0.5315, -0.126 -0.3504 0.5315, -0.126 -0.3504 -1.1024, 0.126 -0.3504 -1.1024, -0.126 -0.4291 -1.1811, 0.126 -0.4291 -1.1811, -0.126 -0.5236 -1.1811, 0.126 -0.5236 -1.1811, -0.126 -0.6024 -1.1024, 0.126 -0.6024 -1.1024, -0.126 -0.6024 0.2795, 0.126 -0.6024 0.2795, -0.126 -0.6084 0.3097, 0.126 -0.6084 0.3097, -0.126 -0.6254 0.3352, 0.126 -0.6254 0.3352, -0.126 -0.651 0.3523, 0.126 -0.651 0.3523, -0.126 -0.6811 0.3583, 0.126 -0.6811 0.3583, 0.126 -1.3189 0.6102, 0.126 -1.3189 0.3583, -0.126 -1.3189 0.3583, -0.126 -1.3189 0.6102, 0.126 -2.0669 0.3583, 0.126 -4.3504 0.3583, -0.126 -2.0669 0.3583, -0.126 -4.3504 0.3583, -0.126 -2.0669 0.6102, -0.126 -4.3504 0.6102, 0.126 -2.0669 0.6102, 0.126 -4.3504 0.6102, -0.126 -4.4291 0.437, -0.126 -4.4291 0.5315, 0.126 -4.4291 0.5315, 0.126 -4.4291 0.437, -0.126 0.5709 1.6102, 0.126 0.5709 1.6102, 0.126 0.601 1.6042, -0.126 0.601 1.6042, 0.126 0.6265 1.5872, -0.126 0.6265 1.5872, 0.126 0.6436 1.5616, -0.126 0.6436 1.5616, 0.126 0.6496 1.5315, -0.126 0.6496 1.5315, -0.126 0.6496 -1.1024, 0.126 0.6496 -1.1024, -0.126 0.5709 -1.1811, 0.126 0.5709 -1.1811, -0.126 0.4764 -1.1811, 0.126 0.4764 -1.1811, -0.126 0.3976 -1.1024, 0.126 0.3976 -1.1024, -0.126 0.3976 1.2795, 0.126 0.3976 1.2795, -0.126 0.3916 1.3097, 0.126 0.3916 1.3097, -0.126 0.3746 1.3352, 0.126 0.3746 1.3352, -0.126 0.349 1.3523, 0.126 0.349 1.3523, -0.126 0.3189 1.3583, 0.126 0.3189 1.3583, 0.126 -1.3189 1.6102, 0.126 -1.3189 1.3583, -0.126 -1.3189 1.3583, -0.126 -1.3189 1.6102, 0.126 -2.0669 1.3583, 0.126 -4.3504 1.3583, -0.126 -2.0669 1.3583, -0.126 -4.3504 1.3583, -0.126 -2.0669 1.6102, -0.126 -4.3504 1.6102, 0.126 -2.0669 1.6102, 0.126 -4.3504 1.6102, -0.126 -4.4291 1.437, -0.126 -4.4291 1.5315, 0.126 -4.4291 1.5315, 0.126 -4.4291 1.437, 0.874 -0.4291 0.6102, 1.126 -0.4291 0.6102, 1.126 -0.399 0.6042, 0.874 -0.399 0.6042, 1.126 -0.3735 0.5872, 0.874 -0.3735 0.5872, 1.126 -0.3564 0.5616, 0.874 -0.3564 0.5616, 1.126 -0.3504 0.5315, 0.874 -0.3504 0.5315, 0.874 -0.3504 -1.1024, 1.126 -0.3504 -1.1024, 0.874 -0.4291 -1.1811, 1.126 -0.4291 -1.1811, 0.874 -0.5236 -1.1811, 1.126 -0.5236 -1.1811, 0.874 -0.6024 -1.1024, 1.126 -0.6024 -1.1024, 0.874 -0.6024 0.2795, 1.126 -0.6024 0.2795, 0.874 -0.6084 0.3097, 1.126 -0.6084 0.3097, 0.874 -0.6254 0.3352, 1.126 -0.6254 0.3352, 0.874 -0.651 0.3523, 1.126 -0.651 0.3523, 0.874 -0.6811 0.3583, 1.126 -0.6811 0.3583, 1.126 -1.3189 0.6102, 1.126 -1.3189 0.3583, 0.874 -1.3189 0.3583, 0.874 -1.3189 0.6102, 1.126 -2.0669 0.3583, 1.126 -4.3504 0.3583, 0.874 -2.0669 0.3583, 0.874 -4.3504 0.3583, 0.874 -2.0669 0.6102, 0.874 -4.3504 0.6102, 1.126 -2.0669 0.6102, 1.126 -4.3504 0.6102, 0.874 -4.4291 0.437, 0.874 -4.4291 0.5315, 1.126 -4.4291 0.5315, 1.126 -4.4291 0.437, 0.874 0.5709 1.6102, 1.126 0.5709 1.6102, 1.126 0.601 1.6042, 0.874 0.601 1.6042, 1.126 0.6265 1.5872, 0.874 0.6265 1.5872, 1.126 0.6436 1.5616, 0.874 0.6436 1.5616, 1.126 0.6496 1.5315, 0.874 0.6496 1.5315, 0.874 0.6496 -1.1024, 1.126 0.6496 -1.1024, 0.874 0.5709 -1.1811, 1.126 0.5709 -1.1811, 0.874 0.4764 -1.1811, 1.126 0.4764 -1.1811, 0.874 0.3976 -1.1024, 1.126 0.3976 -1.1024, 0.874 0.3976 1.2795, 1.126 0.3976 1.2795, 0.874 0.3916 1.3097, 1.126 0.3916 1.3097, 0.874 0.3746 1.3352, 1.126 0.3746 1.3352, 0.874 0.349 1.3523, 1.126 0.349 1.3523, 0.874 0.3189 1.3583, 1.126 0.3189 1.3583, 1.126 -1.3189 1.6102, 1.126 -1.3189 1.3583, 0.874 -1.3189 1.3583, 0.874 -1.3189 1.6102, 1.126 -2.0669 1.3583, 1.126 -4.3504 1.3583, 0.874 -2.0669 1.3583, 0.874 -4.3504 1.3583, 0.874 -2.0669 1.6102, 0.874 -4.3504 1.6102, 1.126 -2.0669 1.6102, 1.126 -4.3504 1.6102, 0.874 -4.4291 1.437, 0.874 -4.4291 1.5315, 1.126 -4.4291 1.5315, 1.126 -4.4291 1.437, 1.874 -0.4291 0.6102, 2.126 -0.4291 0.6102, 2.126 -0.399 0.6042, 1.874 -0.399 0.6042, 2.126 -0.3735 0.5872, 1.874 -0.3735 0.5872, 2.126 -0.3564 0.5616, 1.874 -0.3564 0.5616, 2.126 -0.3504 0.5315, 1.874 -0.3504 0.5315, 1.874 -0.3504 -1.1024, 2.126 -0.3504 -1.1024, 1.874 -0.4291 -1.1811, 2.126 -0.4291 -1.1811, 1.874 -0.5236 -1.1811, 2.126 -0.5236 -1.1811, 1.874 -0.6024 -1.1024, 2.126 -0.6024 -1.1024, 1.874 -0.6024 0.2795, 2.126 -0.6024 0.2795, 1.874 -0.6084 0.3097, 2.126 -0.6084 0.3097, 1.874 -0.6254 0.3352, 2.126 -0.6254 0.3352, 1.874 -0.651 0.3523, 2.126 -0.651 0.3523, 1.874 -0.6811 0.3583, 2.126 -0.6811 0.3583, 2.126 -1.3189 0.6102, 2.126 -1.3189 0.3583, 1.874 -1.3189 0.3583, 1.874 -1.3189 0.6102, 2.126 -2.0669 0.3583, 2.126 -4.3504 0.3583, 1.874 -2.0669 0.3583, 1.874 -4.3504 0.3583, 1.874 -2.0669 0.6102, 1.874 -4.3504 0.6102, 2.126 -2.0669 0.6102, 2.126 -4.3504 0.6102, 1.874 -4.4291 0.437, 1.874 -4.4291 0.5315, 2.126 -4.4291 0.5315, 2.126 -4.4291 0.437, 1.874 0.5709 1.6102, 2.126 0.5709 1.6102, 2.126 0.601 1.6042, 1.874 0.601 1.6042, 2.126 0.6265 1.5872, 1.874 0.6265 1.5872, 2.126 0.6436 1.5616, 1.874 0.6436 1.5616, 2.126 0.6496 1.5315, 1.874 0.6496 1.5315, 1.874 0.6496 -1.1024, 2.126 0.6496 -1.1024, 1.874 0.5709 -1.1811, 2.126 0.5709 -1.1811, 1.874 0.4764 -1.1811, 2.126 0.4764 -1.1811, 1.874 0.3976 -1.1024, 2.126 0.3976 -1.1024, 1.874 0.3976 1.2795, 2.126 0.3976 1.2795, 1.874 0.3916 1.3097, 2.126 0.3916 1.3097, 1.874 0.3746 1.3352, 2.126 0.3746 1.3352, 1.874 0.349 1.3523, 2.126 0.349 1.3523, 1.874 0.3189 1.3583, 2.126 0.3189 1.3583, 2.126 -1.3189 1.6102, 2.126 -1.3189 1.3583, 1.874 -1.3189 1.3583, 1.874 -1.3189 1.6102, 2.126 -2.0669 1.3583, 2.126 -4.3504 1.3583, 1.874 -2.0669 1.3583, 1.874 -4.3504 1.3583, 1.874 -2.0669 1.6102, 1.874 -4.3504 1.6102, 2.126 -2.0669 1.6102, 2.126 -4.3504 1.6102, 1.874 -4.4291 1.437, 1.874 -4.4291 1.5315, 2.126 -4.4291 1.5315, 2.126 -4.4291 1.437, 2.1575 -1.4269 0.0394, 2.1575 -1.4249 0.0394, 2.1575 -1.4269 0.0, 2.1575 -1.4249 0.0, 2.0 -1.3522 0.0394, 2.0 -1.3522 0.0, 2.0 -1.3676 0.0394, 2.0 -1.3676 0.0, 2.0505 -1.3909 0.0394, 2.0505 -1.3909 0.0, 2.0505 -1.4622 0.0394, 2.0505 -1.4622 0.0, 2.0 -1.4862 0.0394, 2.0 -1.4862 0.0, 2.0 -1.5016 0.0394, 2.0 -1.5016 0.0, 2.0666 -1.4546 0.0394, 2.1268 -1.4261 0.0394, 2.0666 -1.3983 0.0394, 2.0666 -1.3983 0.0, 2.1268 -1.4261 0.0, 2.0666 -1.4546 0.0, 2.0 -1.6022 0.0394, 2.0 -1.651 0.0394, 2.0 -1.6022 0.0, 2.0 -1.651 0.0, 2.1575 -1.651 0.0394, 2.1575 -1.651 0.0, 2.1575 -1.6192 0.0394, 2.1575 -1.6192 0.0, 2.1518 -1.5692 0.0394, 2.1518 -1.5692 0.0, 2.1565 -1.594 0.0, 2.1565 -1.594 0.0394, 2.0768 -1.5218 0.0394, 2.0768 -1.5218 0.0, 2.1015 -1.5247 0.0, 2.1015 -1.5247 0.0394, 2.1327 -1.5409 0.0, 2.1327 -1.5409 0.0394, 2.0013 -1.582 0.0, 2.0013 -1.582 0.0394, 2.0129 -1.5507 0.0, 2.0129 -1.5507 0.0394, 2.0371 -1.5307 0.0, 2.0371 -1.5307 0.0394, 2.0202 -1.5738 0.0394, 2.0168 -1.5962 0.0394, 2.0162 -1.6188 0.0394, 2.0162 -1.6369 0.0394, 2.1413 -1.6369 0.0394, 2.1413 -1.6258 0.0394, 2.1406 -1.6015 0.0394, 2.1369 -1.5774 0.0394, 2.1285 -1.56 0.0394, 2.1082 -1.5428 0.0394, 2.0768 -1.5359 0.0394, 2.0571 -1.5385 0.0394, 2.0342 -1.5512 0.0394, 2.1413 -1.6369 0.0, 2.0162 -1.6369 0.0, 2.1413 -1.6258 0.0, 2.1406 -1.6015 0.0, 2.1369 -1.5774 0.0, 2.1285 -1.56 0.0, 2.1082 -1.5428 0.0, 2.0768 -1.5359 0.0, 2.0571 -1.5385 0.0, 2.0342 -1.5512 0.0, 2.0202 -1.5738 0.0, 2.0168 -1.5962 0.0, 2.0162 -1.6188 0.0, 2.0 -1.7681 0.0394, 2.1575 -1.7681 0.0394, 2.0 -1.7681 0.0, 2.1575 -1.7681 0.0, 2.1575 -1.6793 0.0394, 2.1575 -1.6793 0.0, 2.1413 -1.6793 0.0394, 2.1413 -1.6793 0.0, 2.1413 -1.754 0.0394, 2.1413 -1.754 0.0, 2.0929 -1.754 0.0394, 2.0929 -1.754 0.0, 2.0929 -1.6793 0.0394, 2.0929 -1.6793 0.0, 2.0767 -1.6793 0.0394, 2.0767 -1.6793 0.0, 2.0767 -1.754 0.0394, 2.0767 -1.754 0.0, 2.0162 -1.754 0.0394, 2.0162 -1.754 0.0, 2.0162 -1.6793 0.0394, 2.0162 -1.6793 0.0, 2.0 -1.6793 0.0394, 2.0 -1.6793 0.0, 2.1286 -1.8004 0.0394, 2.1286 -1.8004 0.0, 2.1348 -1.8054 0.0, 2.1348 -1.8054 0.0394, 2.1435 -1.8146 0.0, 2.1435 -1.8146 0.0394, 2.1535 -1.8307 0.0, 2.1535 -1.8307 0.0394, 2.1615 -1.8691 0.0, 2.1615 -1.8691 0.0394, 2.1191 -1.8128 0.0394, 2.1191 -1.8128 0.0, 2.1454 -1.87 0.0394, 2.1454 -1.87 0.0, 2.1451 -1.8635 0.0, 2.1451 -1.8635 0.0394, 2.1437 -1.8532 0.0, 2.1437 -1.8532 0.0394, 2.1389 -1.8383 0.0, 2.1389 -1.8383 0.0394, 2.0786 -1.9397 0.0394, 2.0786 -1.9397 0.0, 2.0849 -1.9395 0.0, 2.0849 -1.9395 0.0394, 2.1147 -1.9293 0.0, 2.1147 -1.9293 0.0394, 2.1367 -1.9049 0.0, 2.1367 -1.9049 0.0394, 2.0121 -1.869 0.0394, 2.0121 -1.869 0.0, 2.0126 -1.8788 0.0, 2.0126 -1.8788 0.0394, 2.0233 -1.9098 0.0, 2.0233 -1.9098 0.0394, 2.0461 -1.9316 0.0, 2.0461 -1.9316 0.0394, 2.0384 -1.8128 0.0394, 2.0384 -1.8128 0.0, 2.0188 -1.8379 0.0, 2.0188 -1.8379 0.0394, 2.029 -1.8004 0.0394, 2.029 -1.8004 0.0, 1.996 -1.8689 0.0394, 1.996 -1.8689 0.0, 1.9962 -1.861 0.0, 1.9962 -1.861 0.0394, 1.998 -1.8491 0.0, 1.9981 -1.8485 0.0394, 1.9981 -1.8485 0.0, 2.0042 -1.8306 0.0, 2.0042 -1.8306 0.0394, 1.998 -1.8802 0.0, 2.0024 -1.9046 0.0394, 2.0024 -1.9046 0.0, 2.0107 -1.9199 0.0394, 2.0107 -1.9199 0.0, 2.0182 -1.9289 0.0394, 2.0182 -1.9289 0.0, 2.0235 -1.9339 0.0394, 2.0235 -1.9339 0.0, 2.0797 -1.9539 0.0394, 2.0797 -1.9539 0.0, 2.0497 -1.9491 0.0, 2.0497 -1.9491 0.0394, 2.1613 -1.8761 0.0, 2.1613 -1.8761 0.0394, 2.1483 -1.9168 0.0, 2.1483 -1.9168 0.0394, 2.1199 -1.9437 0.0, 2.1199 -1.9437 0.0394, 2.0 -2.0467 0.0394, 2.1575 -2.0467 0.0394, 2.0 -2.0467 0.0, 2.1575 -2.0467 0.0, 2.1575 -2.0326 0.0394, 2.1575 -2.0326 0.0, 2.0162 -2.0326 0.0394, 2.0162 -2.0326 0.0, 2.0162 -1.972 0.0394, 2.0162 -1.972 0.0, 2.0 -1.972 0.0394, 2.0 -1.972 0.0
            ]
        }
        coordIndex [
            0,1,2,-1,0,2,3,-1,3,2,4,-1,3,4,5,-1,5,4,6,-1,5,6,7,-1,7,6,8,-1,7,8,9,-1,10,9,11,-1,11,9,8,-1,12,10,13,-1,13,10,11,-1,14,12,15,-1,15,12,13,-1,16,14,17,-1,17,14,15,-1,18,16,19,-1,19,16,17,-1,18,19,20,-1,20,19,21,-1,20,21,22,-1,22,21,23,-1,22,23,24,-1,24,23,25,-1,24,25,26,-1,26,25,27,-1,1,28,29,-1,29,27,1,-1,1,27,25,-1,1,25,2,-1,2,25,23,-1,15,13,17,-1,17,13,11,-1,17,11,19,-1,19,11,8,-1,19,8,21,-1,21,8,6,-1,21,6,23,-1,23,6,4,-1,23,4,2,-1,22,7,20,-1,20,7,9,-1,20,9,18,-1,30,31,26,-1,26,31,0,-1,26,0,24,-1,24,0,3,-1,24,3,22,-1,22,3,5,-1,22,5,7,-1,14,16,12,-1,12,16,18,-1,12,18,10,-1,10,18,9,-1,28,1,31,-1,31,1,0,-1,30,26,29,-1,29,26,27,-1,32,33,34,-1,34,33,35,-1,36,37,38,-1,38,37,39,-1,40,41,35,-1,35,41,37,-1,35,37,34,-1,34,37,36,-1,42,43,39,-1,39,43,33,-1,39,33,38,-1,38,33,32,-1,40,35,43,-1,43,35,33,-1,41,40,42,-1,42,40,43,-1,37,41,39,-1,39,41,42,-1,44,45,46,-1,44,46,47,-1,47,46,48,-1,47,48,49,-1,49,48,50,-1,49,50,51,-1,51,50,52,-1,51,52,53,-1,54,53,55,-1,55,53,52,-1,56,54,57,-1,57,54,55,-1,58,56,59,-1,59,56,57,-1,60,58,61,-1,61,58,59,-1,62,60,63,-1,63,60,61,-1,62,63,64,-1,64,63,65,-1,64,65,66,-1,66,65,67,-1,66,67,68,-1,68,67,69,-1,68,69,70,-1,70,69,71,-1,45,72,73,-1,59,57,61,-1,61,57,55,-1,61,55,63,-1,63,55,52,-1,63,52,65,-1,65,52,50,-1,65,50,67,-1,73,71,45,-1,45,71,69,-1,45,69,46,-1,46,69,67,-1,46,67,48,-1,48,67,50,-1,56,58,54,-1,54,58,60,-1,54,60,53,-1,74,75,70,-1,70,75,44,-1,70,44,68,-1,68,44,47,-1,68,47,66,-1,60,62,53,-1,53,62,64,-1,53,64,51,-1,51,64,66,-1,51,66,49,-1,49,66,47,-1,72,45,75,-1,75,45,44,-1,74,70,73,-1,73,70,71,-1,76,77,78,-1,78,77,79,-1,80,81,82,-1,82,81,83,-1,84,85,79,-1,79,85,81,-1,79,81,78,-1,78,81,80,-1,86,87,83,-1,83,87,77,-1,83,77,82,-1,82,77,76,-1,84,79,87,-1,87,79,77,-1,85,84,86,-1,86,84,87,-1,81,85,83,-1,83,85,86,-1,88,89,90,-1,88,90,91,-1,91,90,92,-1,91,92,93,-1,93,92,94,-1,93,94,95,-1,95,94,96,-1,95,96,97,-1,98,97,99,-1,99,97,96,-1,100,98,101,-1,101,98,99,-1,102,100,103,-1,103,100,101,-1,104,102,105,-1,105,102,103,-1,106,104,107,-1,107,104,105,-1,106,107,108,-1,108,107,109,-1,108,109,110,-1,110,109,111,-1,110,111,112,-1,112,111,113,-1,112,113,114,-1,114,113,115,-1,89,116,117,-1,117,115,89,-1,89,115,113,-1,89,113,90,-1,90,113,111,-1,103,101,105,-1,105,101,99,-1,105,99,107,-1,107,99,96,-1,107,96,109,-1,109,96,94,-1,109,94,111,-1,111,94,92,-1,111,92,90,-1,110,95,108,-1,108,95,97,-1,108,97,106,-1,118,119,114,-1,114,119,88,-1,114,88,112,-1,112,88,91,-1,112,91,110,-1,110,91,93,-1,110,93,95,-1,102,104,100,-1,100,104,106,-1,100,106,98,-1,98,106,97,-1,116,89,119,-1,119,89,88,-1,118,114,117,-1,117,114,115,-1,120,121,122,-1,122,121,123,-1,124,125,126,-1,126,125,127,-1,128,129,123,-1,123,129,125,-1,123,125,122,-1,122,125,124,-1,130,131,127,-1,127,131,121,-1,127,121,126,-1,126,121,120,-1,128,123,131,-1,131,123,121,-1,129,128,130,-1,130,128,131,-1,125,129,127,-1,127,129,130,-1,132,133,134,-1,132,134,135,-1,135,134,136,-1,135,136,137,-1,137,136,138,-1,137,138,139,-1,139,138,140,-1,139,140,141,-1,142,141,143,-1,143,141,140,-1,144,142,145,-1,145,142,143,-1,146,144,147,-1,147,144,145,-1,148,146,149,-1,149,146,147,-1,150,148,151,-1,151,148,149,-1,150,151,152,-1,152,151,153,-1,152,153,154,-1,154,153,155,-1,154,155,156,-1,156,155,157,-1,156,157,158,-1,158,157,159,-1,133,160,161,-1,147,145,149,-1,149,145,143,-1,149,143,151,-1,151,143,140,-1,151,140,153,-1,153,140,138,-1,153,138,155,-1,161,159,133,-1,133,159,157,-1,133,157,134,-1,134,157,155,-1,134,155,136,-1,136,155,138,-1,144,146,142,-1,142,146,148,-1,142,148,141,-1,162,163,158,-1,158,163,132,-1,158,132,156,-1,156,132,135,-1,156,135,154,-1,148,150,141,-1,141,150,152,-1,141,152,139,-1,139,152,154,-1,139,154,137,-1,137,154,135,-1,160,133,163,-1,163,133,132,-1,162,158,161,-1,161,158,159,-1,164,165,166,-1,166,165,167,-1,168,169,170,-1,170,169,171,-1,172,173,167,-1,167,173,169,-1,167,169,166,-1,166,169,168,-1,174,175,171,-1,171,175,165,-1,171,165,170,-1,170,165,164,-1,172,167,175,-1,175,167,165,-1,173,172,174,-1,174,172,175,-1,169,173,171,-1,171,173,174,-1,176,177,178,-1,176,178,179,-1,179,178,180,-1,179,180,181,-1,181,180,182,-1,181,182,183,-1,183,182,184,-1,183,184,185,-1,186,185,187,-1,187,185,184,-1,188,186,189,-1,189,186,187,-1,190,188,191,-1,191,188,189,-1,192,190,193,-1,193,190,191,-1,194,192,195,-1,195,192,193,-1,194,195,196,-1,196,195,197,-1,196,197,198,-1,198,197,199,-1,198,199,200,-1,200,199,201,-1,200,201,202,-1,202,201,203,-1,177,204,205,-1,205,203,177,-1,177,203,201,-1,177,201,178,-1,178,201,199,-1,191,189,193,-1,193,189,187,-1,193,187,195,-1,195,187,184,-1,195,184,197,-1,197,184,182,-1,197,182,199,-1,199,182,180,-1,199,180,178,-1,198,183,196,-1,196,183,185,-1,196,185,194,-1,206,207,202,-1,202,207,176,-1,202,176,200,-1,200,176,179,-1,200,179,198,-1,198,179,181,-1,198,181,183,-1,190,192,188,-1,188,192,194,-1,188,194,186,-1,186,194,185,-1,204,177,207,-1,207,177,176,-1,206,202,205,-1,205,202,203,-1,208,209,210,-1,210,209,211,-1,212,213,214,-1,214,213,215,-1,216,217,211,-1,211,217,213,-1,211,213,210,-1,210,213,212,-1,218,219,215,-1,215,219,209,-1,215,209,214,-1,214,209,208,-1,216,211,219,-1,219,211,209,-1,217,216,218,-1,218,216,219,-1,213,217,215,-1,215,217,218,-1,220,221,222,-1,220,222,223,-1,223,222,224,-1,223,224,225,-1,225,224,226,-1,225,226,227,-1,227,226,228,-1,227,228,229,-1,230,229,231,-1,231,229,228,-1,232,230,233,-1,233,230,231,-1,234,232,235,-1,235,232,233,-1,236,234,237,-1,237,234,235,-1,238,236,239,-1,239,236,237,-1,238,239,240,-1,240,239,241,-1,240,241,242,-1,242,241,243,-1,242,243,244,-1,244,243,245,-1,244,245,246,-1,246,245,247,-1,221,248,249,-1,235,233,237,-1,237,233,231,-1,237,231,239,-1,239,231,228,-1,239,228,241,-1,241,228,226,-1,241,226,243,-1,249,247,221,-1,221,247,245,-1,221,245,222,-1,222,245,243,-1,222,243,224,-1,224,243,226,-1,232,234,230,-1,230,234,236,-1,230,236,229,-1,250,251,246,-1,246,251,220,-1,246,220,244,-1,244,220,223,-1,244,223,242,-1,236,238,229,-1,229,238,240,-1,229,240,227,-1,227,240,242,-1,227,242,225,-1,225,242,223,-1,248,221,251,-1,251,221,220,-1,250,246,249,-1,249,246,247,-1,252,253,254,-1,254,253,255,-1,256,257,258,-1,258,257,259,-1,260,261,255,-1,255,261,257,-1,255,257,254,-1,254,257,256,-1,262,263,259,-1,259,263,253,-1,259,253,258,-1,258,253,252,-1,260,255,263,-1,263,255,253,-1,261,260,262,-1,262,260,263,-1,257,261,259,-1,259,261,262,-1,264,265,266,-1,264,266,267,-1,267,266,268,-1,267,268,269,-1,269,268,270,-1,269,270,271,-1,271,270,272,-1,271,272,273,-1,274,273,275,-1,275,273,272,-1,276,274,277,-1,277,274,275,-1,278,276,279,-1,279,276,277,-1,280,278,281,-1,281,278,279,-1,282,280,283,-1,283,280,281,-1,282,283,284,-1,284,283,285,-1,284,285,286,-1,286,285,287,-1,286,287,288,-1,288,287,289,-1,288,289,290,-1,290,289,291,-1,265,292,293,-1,293,291,265,-1,265,291,289,-1,265,289,266,-1,266,289,287,-1,279,277,281,-1,281,277,275,-1,281,275,283,-1,283,275,272,-1,283,272,285,-1,285,272,270,-1,285,270,287,-1,287,270,268,-1,287,268,266,-1,286,271,284,-1,284,271,273,-1,284,273,282,-1,294,295,290,-1,290,295,264,-1,290,264,288,-1,288,264,267,-1,288,267,286,-1,286,267,269,-1,286,269,271,-1,278,280,276,-1,276,280,282,-1,276,282,274,-1,274,282,273,-1,292,265,295,-1,295,265,264,-1,294,290,293,-1,293,290,291,-1,296,297,298,-1,298,297,299,-1,300,301,302,-1,302,301,303,-1,304,305,299,-1,299,305,301,-1,299,301,298,-1,298,301,300,-1,306,307,303,-1,303,307,297,-1,303,297,302,-1,302,297,296,-1,304,299,307,-1,307,299,297,-1,305,304,306,-1,306,304,307,-1,301,305,303,-1,303,305,306,-1,308,309,310,-1,308,310,311,-1,311,310,312,-1,311,312,313,-1,313,312,314,-1,313,314,315,-1,315,314,316,-1,315,316,317,-1,318,317,319,-1,319,317,316,-1,320,318,321,-1,321,318,319,-1,322,320,323,-1,323,320,321,-1,324,322,325,-1,325,322,323,-1,326,324,327,-1,327,324,325,-1,326,327,328,-1,328,327,329,-1,328,329,330,-1,330,329,331,-1,330,331,332,-1,332,331,333,-1,332,333,334,-1,334,333,335,-1,309,336,337,-1,323,321,325,-1,325,321,319,-1,325,319,327,-1,327,319,316,-1,327,316,329,-1,329,316,314,-1,329,314,331,-1,337,335,309,-1,309,335,333,-1,309,333,310,-1,310,333,331,-1,310,331,312,-1,312,331,314,-1,320,322,318,-1,318,322,324,-1,318,324,317,-1,338,339,334,-1,334,339,308,-1,334,308,332,-1,332,308,311,-1,332,311,330,-1,324,326,317,-1,317,326,328,-1,317,328,315,-1,315,328,330,-1,315,330,313,-1,313,330,311,-1,336,309,339,-1,339,309,308,-1,338,334,337,-1,337,334,335,-1,340,341,342,-1,342,341,343,-1,344,345,346,-1,346,345,347,-1,348,349,343,-1,343,349,345,-1,343,345,342,-1,342,345,344,-1,350,351,347,-1,347,351,341,-1,347,341,346,-1,346,341,340,-1,348,343,351,-1,351,343,341,-1,349,348,350,-1,350,348,351,-1,345,349,347,-1,347,349,350,-1,352,353,354,-1,354,353,355,-1,353,356,355,-1,355,356,357,-1,356,358,357,-1,357,358,359,-1,358,360,359,-1,359,360,361,-1,360,362,361,-1,361,362,363,-1,362,364,363,-1,363,364,365,-1,364,366,365,-1,365,366,367,-1,366,352,367,-1,367,352,354,-1,353,352,368,-1,368,369,353,-1,353,369,370,-1,353,370,356,-1,366,364,362,-1,358,356,360,-1,360,356,370,-1,360,370,362,-1,362,370,368,-1,362,368,366,-1,366,368,352,-1,370,369,371,-1,371,369,372,-1,368,370,373,-1,373,370,371,-1,369,368,372,-1,372,368,373,-1,374,375,376,-1,376,375,377,-1,375,378,377,-1,377,378,379,-1,378,380,379,-1,379,380,381,-1,382,383,384,-1,382,384,385,-1,385,384,381,-1,385,381,380,-1,386,387,388,-1,386,388,389,-1,389,388,390,-1,389,390,391,-1,391,390,383,-1,391,383,382,-1,374,376,392,-1,374,392,393,-1,393,392,394,-1,393,394,395,-1,395,394,396,-1,395,396,397,-1,397,396,387,-1,397,387,386,-1,398,399,374,-1,374,399,400,-1,374,400,375,-1,375,400,401,-1,375,401,378,-1,378,401,402,-1,378,402,380,-1,380,402,403,-1,380,403,385,-1,385,403,404,-1,385,404,382,-1,382,404,405,-1,382,405,391,-1,391,405,406,-1,391,406,389,-1,389,406,407,-1,389,407,386,-1,386,407,408,-1,386,408,397,-1,397,408,409,-1,397,409,395,-1,395,409,410,-1,395,410,393,-1,393,410,398,-1,393,398,374,-1,402,401,411,-1,411,401,412,-1,403,402,413,-1,413,402,411,-1,403,413,414,-1,403,414,404,-1,404,414,415,-1,404,415,405,-1,405,415,416,-1,405,416,406,-1,406,416,417,-1,406,417,407,-1,407,417,418,-1,407,418,408,-1,408,418,419,-1,408,419,409,-1,409,419,420,-1,409,420,410,-1,410,420,421,-1,410,421,398,-1,398,421,422,-1,398,422,399,-1,399,422,423,-1,399,423,400,-1,401,400,412,-1,412,400,423,-1,424,425,426,-1,426,425,427,-1,425,428,427,-1,427,428,429,-1,428,430,429,-1,429,430,431,-1,430,432,431,-1,431,432,433,-1,432,434,433,-1,433,434,435,-1,434,436,435,-1,435,436,437,-1,436,438,437,-1,437,438,439,-1,438,440,439,-1,439,440,441,-1,440,442,441,-1,441,442,443,-1,442,444,443,-1,443,444,445,-1,444,446,445,-1,445,446,447,-1,446,424,447,-1,447,424,426,-1,424,446,444,-1,444,442,424,-1,424,442,440,-1,424,440,425,-1,430,428,432,-1,432,428,425,-1,432,425,434,-1,434,425,440,-1,434,440,436,-1,436,440,438,-1,448,449,450,-1,448,450,451,-1,451,450,452,-1,451,452,453,-1,453,452,454,-1,453,454,455,-1,455,454,456,-1,455,456,457,-1,448,458,449,-1,449,458,459,-1,460,461,462,-1,460,462,463,-1,463,462,464,-1,463,464,465,-1,465,464,466,-1,465,466,467,-1,467,466,459,-1,467,459,458,-1,468,469,470,-1,468,470,471,-1,471,470,472,-1,471,472,473,-1,473,472,474,-1,473,474,475,-1,475,474,461,-1,475,461,460,-1,476,477,478,-1,476,478,479,-1,479,478,480,-1,479,480,481,-1,481,480,482,-1,481,482,483,-1,483,482,469,-1,483,469,468,-1,484,485,486,-1,484,486,487,-1,487,486,477,-1,487,477,476,-1,484,488,485,-1,485,488,489,-1,490,491,492,-1,490,492,493,-1,493,492,494,-1,493,494,495,-1,494,496,495,-1,495,496,497,-1,495,497,498,-1,498,497,489,-1,498,489,488,-1,491,490,499,-1,499,490,500,-1,499,500,501,-1,501,500,502,-1,501,502,503,-1,503,502,504,-1,503,504,505,-1,505,504,506,-1,505,506,507,-1,508,509,510,-1,508,510,511,-1,511,510,507,-1,511,507,506,-1,457,456,512,-1,457,512,513,-1,513,512,514,-1,513,514,515,-1,515,514,516,-1,515,516,517,-1,517,516,509,-1,517,509,508,-1,488,484,498,-1,498,484,487,-1,508,511,483,-1,483,511,481,-1,481,511,506,-1,481,506,504,-1,458,448,451,-1,458,451,467,-1,467,451,453,-1,467,453,455,-1,504,502,481,-1,481,502,500,-1,481,500,479,-1,479,500,490,-1,479,490,476,-1,476,490,493,-1,476,493,487,-1,487,493,495,-1,487,495,498,-1,483,468,508,-1,508,468,471,-1,508,471,517,-1,517,471,473,-1,517,473,515,-1,515,473,475,-1,515,475,513,-1,513,475,460,-1,513,460,457,-1,457,460,463,-1,457,463,455,-1,455,463,465,-1,455,465,467,-1,518,519,520,-1,520,519,521,-1,519,522,521,-1,521,522,523,-1,522,524,523,-1,523,524,525,-1,524,526,525,-1,525,526,527,-1,526,528,527,-1,527,528,529,-1,528,518,529,-1,529,518,520,-1,522,519,524,-1,524,519,518,-1,524,518,526,-1,526,518,528,-1,
        ]
    }
}
Shape{
    appearance Appearance {
        material  Material 	{
            diffuseColor 0.14901960784313725 0.14901960784313725 0.14901960784313725
            specularColor 0.07450980392156863 0.07450980392156863 0.07450980392156863
            ambientIntensity 0.149
            transparency 0.0
            shininess 0.5
        }
    }
    geometry IndexedFaceSet {
        ccw TRUE
        solid FALSE
        coord DEF co Coordinate {
            point [
                2.1268 -1.4261 0.0, 2.0666 -1.4546 0.0, 2.0666 -1.3983 0.0, 2.1413 -1.6369 0.0, 2.0162 -1.6369 0.0, 2.1413 -1.6258 0.0, 2.0162 -1.6188 0.0, 2.1406 -1.6015 0.0, 2.0168 -1.5962 0.0, 2.1369 -1.5774 0.0, 2.0202 -1.5738 0.0, 2.0342 -1.5512 0.0, 2.0571 -1.5385 0.0, 2.0768 -1.5359 0.0, 2.1082 -1.5428 0.0, 2.1285 -1.56 0.0
            ]
        }
        coordIndex [
            0,1,2,-1,3,4,5,-1,5,4,6,-1,5,6,7,-1,7,6,8,-1,7,8,9,-1,10,11,8,-1,8,11,12,-1,8,12,13,-1,13,14,8,-1,8,14,15,-1,8,15,9,-1,
        ]
    }
}