#VRML V2.0 utf8
# 3D model generated by easyeda2kicad.py (https://github.com/uPesy/easyeda2kicad.py)

Shape{
    appearance Appearance {
        material  Material 	{
            diffuseColor 0.14901960784313725 0.14901960784313725 0.14901960784313725
            specularColor 0.07450980392156863 0.07450980392156863 0.07450980392156863
            ambientIntensity 0.149
            transparency 0.0
            shininess 0.5
        }
    }
    geometry IndexedFaceSet {
        ccw TRUE
        solid FALSE
        coord DEF co Coordinate {
            point [
                2.1969 -4.511 0.7598, 2.1575 -4.4716 0.7205, 2.1969 -4.511 0.3661, 2.1575 -4.4716 0.4055, 1.8425 -4.4716 0.7205, 1.8031 -4.511 0.7598, 1.8031 -4.511 0.3661, 1.8425 -4.4716 0.4055, 2.1575 -3.7236 0.4055, 1.8425 -3.7236 0.4055, 2.1575 -3.7236 0.7205, 1.8425 -3.7236 0.7205, 1.1969 -4.511 0.7598, 1.1575 -4.4716 0.7205, 1.1969 -4.511 0.3661, 1.1575 -4.4716 0.4055, 0.8425 -4.4716 0.7205, 0.8031 -4.511 0.7598, 0.8031 -4.511 0.3661, 0.8425 -4.4716 0.4055, 1.1575 -3.7236 0.4055, 0.8425 -3.7236 0.4055, 1.1575 -3.7236 0.7205, 0.8425 -3.7236 0.7205, 0.1969 -4.511 0.7598, 0.1575 -4.4716 0.7205, 0.1969 -4.511 0.3661, 0.1575 -4.4716 0.4055, -0.1575 -4.4716 0.7205, -0.1969 -4.511 0.7598, -0.1969 -4.511 0.3661, -0.1575 -4.4716 0.4055, 0.1575 -3.7236 0.4055, -0.1575 -3.7236 0.4055, 0.1575 -3.7236 0.7205, -0.1575 -3.7236 0.7205, -2.5984 -4.511 0.2224, -2.5984 -4.511 0.0787, -2.3976 -4.511 0.0787, -2.3976 -4.511 0.2224, -2.5984 -4.511 1.063, -2.3976 -4.511 1.063, -2.5984 -4.511 2.0472, -2.3976 -4.511 2.0472, -1.8031 -4.511 1.7598, -1.5 -4.511 2.0472, -2.1969 -4.511 1.7598, -2.1969 -4.511 1.3661, -1.8031 -4.511 1.3661, -1.5 -4.511 1.063, -1.8031 -4.511 0.7598, -2.1969 -4.511 0.7598, -2.1969 -4.511 0.3661, -1.8031 -4.511 0.3661, -1.5 -4.511 0.2224, -0.8031 -4.511 1.7598, -0.5 -4.511 2.0472, -1.1969 -4.511 1.7598, -1.1969 -4.511 1.3661, -0.8031 -4.511 1.3661, -0.5 -4.511 1.063, -0.8031 -4.511 0.7598, -1.1969 -4.511 0.7598, -1.1969 -4.511 0.3661, -0.8031 -4.511 0.3661, -0.5 -4.511 0.2224, 0.1969 -4.511 1.7598, 0.5 -4.511 2.0472, -0.1969 -4.511 1.7598, -0.1969 -4.511 1.3661, 0.1969 -4.511 1.3661, 0.5 -4.511 1.063, 0.5 -4.511 0.2224, 1.1969 -4.511 1.7598, 1.5 -4.511 2.0472, 0.8031 -4.511 1.7598, 0.8031 -4.511 1.3661, 1.1969 -4.511 1.3661, 1.5 -4.511 1.063, 1.5 -4.511 0.2224, 2.1969 -4.511 1.7598, 2.5984 -4.511 2.0472, 1.8031 -4.511 1.7598, 1.8031 -4.511 1.3661, 2.1969 -4.511 1.3661, 2.5984 -4.511 1.063, 2.5984 -4.511 0.2224, -1.5 -4.511 0.0787, -0.5 -4.511 0.0787, 0.5 -4.511 0.0787, 1.5 -4.511 0.0787, 2.5984 -4.511 0.0787, 2.1575 -4.4716 1.7205, 2.1575 -4.4716 1.4055, 1.8425 -4.4716 1.7205, 1.8425 -4.4716 1.4055
            ]
        }
        coordIndex [
            0,1,2,-1,2,1,3,-1,1,0,4,-1,4,0,5,-1,6,7,5,-1,5,7,4,-1,2,3,6,-1,6,3,7,-1,3,8,7,-1,7,8,9,-1,8,10,9,-1,9,10,11,-1,1,10,3,-1,3,10,8,-1,4,11,1,-1,1,11,10,-1,7,9,4,-1,4,9,11,-1,12,13,14,-1,14,13,15,-1,13,12,16,-1,16,12,17,-1,18,19,17,-1,17,19,16,-1,14,15,18,-1,18,15,19,-1,15,20,19,-1,19,20,21,-1,20,22,21,-1,21,22,23,-1,13,22,15,-1,15,22,20,-1,16,23,13,-1,13,23,22,-1,19,21,16,-1,16,21,23,-1,24,25,26,-1,26,25,27,-1,25,24,28,-1,28,24,29,-1,30,31,29,-1,29,31,28,-1,26,27,30,-1,30,27,31,-1,27,32,31,-1,31,32,33,-1,32,34,33,-1,33,34,35,-1,25,34,27,-1,27,34,32,-1,28,35,25,-1,25,35,34,-1,31,33,28,-1,28,33,35,-1,36,37,38,-1,36,39,40,-1,40,39,41,-1,40,41,42,-1,42,41,43,-1,44,45,46,-1,46,45,43,-1,46,43,47,-1,47,43,41,-1,47,41,48,-1,48,41,49,-1,48,49,44,-1,44,49,45,-1,50,49,51,-1,51,49,41,-1,51,41,52,-1,52,41,39,-1,52,39,53,-1,53,39,54,-1,53,54,50,-1,50,54,49,-1,55,56,57,-1,57,56,45,-1,57,45,58,-1,58,45,49,-1,58,49,59,-1,59,49,60,-1,59,60,55,-1,55,60,56,-1,61,60,62,-1,62,60,49,-1,62,49,63,-1,63,49,54,-1,63,54,64,-1,64,54,65,-1,64,65,61,-1,61,65,60,-1,66,67,68,-1,68,67,56,-1,68,56,69,-1,69,56,60,-1,69,60,70,-1,70,60,71,-1,70,71,66,-1,66,71,67,-1,24,71,29,-1,29,71,60,-1,29,60,30,-1,30,60,65,-1,30,65,26,-1,26,65,72,-1,26,72,24,-1,24,72,71,-1,73,74,75,-1,75,74,67,-1,75,67,76,-1,76,67,71,-1,76,71,77,-1,77,71,78,-1,77,78,73,-1,73,78,74,-1,12,78,17,-1,17,78,71,-1,17,71,18,-1,18,71,72,-1,18,72,14,-1,14,72,79,-1,14,79,12,-1,12,79,78,-1,80,81,82,-1,82,81,74,-1,82,74,83,-1,83,74,78,-1,83,78,84,-1,84,78,85,-1,84,85,80,-1,80,85,81,-1,0,85,5,-1,5,85,78,-1,5,78,6,-1,6,78,79,-1,6,79,2,-1,2,79,86,-1,2,86,0,-1,0,86,85,-1,36,38,39,-1,39,38,87,-1,39,87,54,-1,54,87,88,-1,54,88,65,-1,65,88,89,-1,65,89,72,-1,72,89,90,-1,72,90,79,-1,79,90,91,-1,79,91,86,-1,80,92,84,-1,84,92,93,-1,92,80,94,-1,94,80,82,-1,83,95,82,-1,82,95,94,-1,84,93,83,-1,83,93,95,-1,
        ]
    }
}
Shape{
    appearance Appearance {
        material  Material 	{
            diffuseColor 0.7529411764705882 0.7529411764705882 0.7529411764705882
            specularColor 0.3764705882352941 0.3764705882352941 0.3764705882352941
            ambientIntensity 0.7529
            transparency 0.0
            shininess 0.5
        }
    }
    geometry IndexedFaceSet {
        ccw TRUE
        solid FALSE
        coord DEF co Coordinate {
            point [
                1.8425 -4.4716 1.4055, 1.8425 -3.7236 1.4055, 1.8425 -4.4716 1.7205, 1.8425 -3.7236 1.7205
            ]
        }
        coordIndex [
            0,1,2,-1,2,1,3,-1,
        ]
    }
}
Shape{
    appearance Appearance {
        material  Material 	{
            diffuseColor 0.14901960784313725 0.14901960784313725 0.14901960784313725
            specularColor 0.07450980392156863 0.07450980392156863 0.07450980392156863
            ambientIntensity 0.149
            transparency 0.0
            shininess 0.5
        }
    }
    geometry IndexedFaceSet {
        ccw TRUE
        solid FALSE
        coord DEF co Coordinate {
            point [
                1.8425 -3.7236 1.7205, 1.8425 -3.7236 1.4055, 2.1575 -3.7236 1.7205, 2.1575 -3.7236 1.4055, 1.8425 -4.4716 1.7205, 2.1575 -4.4716 1.7205, 2.1575 -4.4716 1.4055, 1.8425 -4.4716 1.4055, 1.1969 -4.511 1.7598, 1.1575 -4.4716 1.7205, 1.1969 -4.511 1.3661, 1.1575 -4.4716 1.4055, 0.8425 -4.4716 1.7205, 0.8031 -4.511 1.7598, 0.8031 -4.511 1.3661, 0.8425 -4.4716 1.4055
            ]
        }
        coordIndex [
            0,1,2,-1,2,1,3,-1,4,0,5,-1,5,0,2,-1,5,2,6,-1,6,2,3,-1,6,3,7,-1,7,3,1,-1,8,9,10,-1,10,9,11,-1,9,8,12,-1,12,8,13,-1,14,15,13,-1,13,15,12,-1,10,11,14,-1,14,11,15,-1,
        ]
    }
}
Shape{
    appearance Appearance {
        material  Material 	{
            diffuseColor 0.7529411764705882 0.7529411764705882 0.7529411764705882
            specularColor 0.3764705882352941 0.3764705882352941 0.3764705882352941
            ambientIntensity 0.7529
            transparency 0.0
            shininess 0.5
        }
    }
    geometry IndexedFaceSet {
        ccw TRUE
        solid FALSE
        coord DEF co Coordinate {
            point [
                0.8425 -4.4716 1.4055, 0.8425 -3.7236 1.4055, 0.8425 -4.4716 1.7205, 0.8425 -3.7236 1.7205
            ]
        }
        coordIndex [
            0,1,2,-1,2,1,3,-1,
        ]
    }
}
Shape{
    appearance Appearance {
        material  Material 	{
            diffuseColor 0.14901960784313725 0.14901960784313725 0.14901960784313725
            specularColor 0.07450980392156863 0.07450980392156863 0.07450980392156863
            ambientIntensity 0.149
            transparency 0.0
            shininess 0.5
        }
    }
    geometry IndexedFaceSet {
        ccw TRUE
        solid FALSE
        coord DEF co Coordinate {
            point [
                0.8425 -3.7236 1.7205, 0.8425 -3.7236 1.4055, 1.1575 -3.7236 1.7205, 1.1575 -3.7236 1.4055, 0.8425 -4.4716 1.7205, 1.1575 -4.4716 1.7205, 1.1575 -4.4716 1.4055, 0.8425 -4.4716 1.4055, 0.1969 -4.511 1.7598, 0.1575 -4.4716 1.7205, 0.1969 -4.511 1.3661, 0.1575 -4.4716 1.4055, -0.1575 -4.4716 1.7205, -0.1969 -4.511 1.7598, -0.1969 -4.511 1.3661, -0.1575 -4.4716 1.4055
            ]
        }
        coordIndex [
            0,1,2,-1,2,1,3,-1,4,0,5,-1,5,0,2,-1,5,2,6,-1,6,2,3,-1,6,3,7,-1,7,3,1,-1,8,9,10,-1,10,9,11,-1,9,8,12,-1,12,8,13,-1,14,15,13,-1,13,15,12,-1,10,11,14,-1,14,11,15,-1,
        ]
    }
}
Shape{
    appearance Appearance {
        material  Material 	{
            diffuseColor 0.7529411764705882 0.7529411764705882 0.7529411764705882
            specularColor 0.3764705882352941 0.3764705882352941 0.3764705882352941
            ambientIntensity 0.7529
            transparency 0.0
            shininess 0.5
        }
    }
    geometry IndexedFaceSet {
        ccw TRUE
        solid FALSE
        coord DEF co Coordinate {
            point [
                -0.1575 -4.4716 1.4055, -0.1575 -3.7236 1.4055, -0.1575 -4.4716 1.7205, -0.1575 -3.7236 1.7205
            ]
        }
        coordIndex [
            0,1,2,-1,2,1,3,-1,
        ]
    }
}
Shape{
    appearance Appearance {
        material  Material 	{
            diffuseColor 0.14901960784313725 0.14901960784313725 0.14901960784313725
            specularColor 0.07450980392156863 0.07450980392156863 0.07450980392156863
            ambientIntensity 0.149
            transparency 0.0
            shininess 0.5
        }
    }
    geometry IndexedFaceSet {
        ccw TRUE
        solid FALSE
        coord DEF co Coordinate {
            point [
                -0.1575 -3.7236 1.7205, -0.1575 -3.7236 1.4055, 0.1575 -3.7236 1.7205, 0.1575 -3.7236 1.4055, -0.1575 -4.4716 1.7205, 0.1575 -4.4716 1.7205, 0.1575 -4.4716 1.4055, -0.1575 -4.4716 1.4055, -0.3533 -2.8403 0.0787, -0.3331 -2.8016 0.0787, -0.2954 -2.8326 0.0787, -0.3331 -2.6771 0.0787, -0.3177 -2.6889 0.0787, -0.3177 -2.7898 0.0787, -0.2025 -2.6669 0.0787, -0.172 -2.6944 0.0787, -0.2461 -2.6561 0.0787, -0.1593 -2.7316 0.0787, -0.159 -2.7396 0.0787, -0.1692 -2.7801 0.0787, -0.1963 -2.8086 0.0787, -0.235 -2.822 0.0787, -0.2863 -2.8143 0.0787, -0.2858 -2.6642 0.0787, -0.2474 -2.8226 0.0787, -0.2672 -2.6582 0.0787, -0.2543 -2.6564 0.0787, -0.1186 -2.8176 0.0787, -0.1413 -2.7382 0.0787, -0.3533 -1.1646 0.0787, -0.154 -2.6879 0.0787, -0.1877 -2.6524 0.0787, -0.2385 -2.6362 0.0787, -0.2472 -2.6359 0.0787, -0.2953 -2.646 0.0787, -0.3154 -2.6585 0.0787, -0.3269 -2.6693 0.0787, -0.0252 -2.8378 0.0787, -0.2334 -2.8403 0.0787, -0.1186 -2.8378 0.0787, -0.2029 -2.8348 0.0787, -0.1837 -2.8244 0.0787, -0.1725 -2.8151 0.0787, -0.1663 -2.8084 0.0787, -0.1473 -2.7756 0.0787, -0.3533 -4.511 0.0787, -0.2475 -2.8428 0.0787, -0.273 -2.8402 0.0787, -0.2723 -2.8403 0.0787, -0.2573 -2.8425 0.0787, -0.0429 -2.8176 0.0787, -0.0429 -2.6409 0.0787, -0.0252 -2.6409 0.0787, 2.5984 -1.1646 0.0787, 2.5984 -2.8403 0.0787, 2.5984 -4.511 0.0787, -0.4846 -2.6611 0.0787, -0.3912 -2.6611 0.0787, -0.3912 -2.7217 0.0787, -0.4846 -2.7217 0.0787, -0.4846 -2.7419 0.0787, -0.5199 -2.8378 0.0787, -0.4846 -2.8378 0.0787, -0.3735 -2.8378 0.0787, -0.3735 -2.6409 0.0787, -0.4846 -2.6409 0.0787, -0.6221 -2.648 0.0787, -0.6576 -2.6719 0.0787, -0.8 -2.6409 0.0787, -0.6777 -2.7109 0.0787, -0.6814 -2.7418 0.0787, -0.7066 -2.8378 0.0787, -0.6703 -2.7914 0.0787, -0.6418 -2.824 0.0787, -0.5199 -2.6409 0.0787, -0.5596 -2.6409 0.0787, -0.5912 -2.6421 0.0787, -2.5984 -1.1646 0.0787, -0.8025 -2.6409 0.0787, -2.5984 -2.8403 0.0787, -0.8934 -2.8378 0.0787, -0.8742 -2.8378 0.0787, -0.8451 -2.7747 0.0787, -0.7559 -2.7747 0.0787, -0.7259 -2.8378 0.0787, -0.6022 -2.8367 0.0787, -0.5809 -2.8378 0.0787, -0.3912 -2.7419 0.0787, -0.3912 -2.8176 0.0787, -0.4846 -2.8176 0.0787, -2.5984 -4.511 0.0787, -2.5984 -1.1646 0.315, 2.5984 -1.1646 0.315, 2.5984 -1.5189 1.811, 2.5984 -1.1646 1.811, 2.5984 -1.1646 2.0472, 2.5984 -4.511 2.0472, 2.5984 -1.5189 0.315, -2.5984 -1.1646 1.811, -2.5984 -1.1646 2.0472, -2.5984 -1.5189 0.315, -2.5984 -4.511 2.0472, -2.5984 -1.5189 1.811, -2.5984 -1.5189 1.7264, -2.3622 -1.5189 1.811, -2.3622 -1.5189 1.7264, -2.5984 -1.5189 1.063, -2.3622 -1.5189 1.063, -2.3622 -1.5189 0.315, -1.874 -1.5189 0.4843, -1.5 -1.5189 0.315, -2.126 -1.5189 0.4843, -2.126 -1.5189 0.6417, -1.874 -1.5189 0.6417, -1.5 -1.5189 1.063, -1.874 -1.5189 1.4843, -2.126 -1.5189 1.4843, -2.126 -1.5189 1.6417, -1.874 -1.5189 1.6417, -1.5 -1.5189 1.7264, -0.874 -1.5189 0.4843, -0.5 -1.5189 0.315, -1.126 -1.5189 0.4843, -1.126 -1.5189 0.6417, -0.874 -1.5189 0.6417, -0.5 -1.5189 1.063, -0.874 -1.5189 1.4843, -1.126 -1.5189 1.4843, -1.126 -1.5189 1.6417, -0.874 -1.5189 1.6417, -0.5 -1.5189 1.7264, 0.126 -1.5189 0.4843, 0.5 -1.5189 0.315, -0.126 -1.5189 0.4843, -0.126 -1.5189 0.6417, 0.126 -1.5189 0.6417, 0.5 -1.5189 1.063, 0.126 -1.5189 1.4843, -0.126 -1.5189 1.4843, -0.126 -1.5189 1.6417, 0.126 -1.5189 1.6417, 0.5 -1.5189 1.7264, 1.126 -1.5189 0.4843, 1.5 -1.5189 0.315, 0.874 -1.5189 0.4843, 0.874 -1.5189 0.6417, 1.126 -1.5189 0.6417, 1.5 -1.5189 1.063, 1.126 -1.5189 1.4843, 0.874 -1.5189 1.4843, 0.874 -1.5189 1.6417, 1.126 -1.5189 1.6417, 1.5 -1.5189 1.7264, 2.126 -1.5189 0.4843, 1.874 -1.5189 0.4843, 1.874 -1.5189 0.6417, 2.126 -1.5189 0.6417, 2.5984 -1.5189 1.063, 2.126 -1.5189 1.4843, 1.874 -1.5189 1.4843, 1.874 -1.5189 1.6417, 2.126 -1.5189 1.6417, 2.5984 -1.5189 1.7264, -1.5 -1.5189 1.811, -0.5 -1.5189 1.811, 0.5 -1.5189 1.811, 1.5 -1.5189 1.811, -2.1575 -4.4716 0.4055, -2.1575 -3.7236 0.4055, -2.1575 -4.4716 0.7205, -2.1575 -3.7236 0.7205, -1.8425 -4.4716 0.7205, -1.8425 -3.7236 0.7205, -1.8425 -4.4716 0.4055, -1.8425 -3.7236 0.4055, -1.8425 -4.4716 1.7205, -1.8425 -3.7236 1.7205, -1.8425 -4.4716 1.4055, -1.8425 -3.7236 1.4055, -2.1575 -4.4716 1.4055, -2.1575 -3.7236 1.4055
            ]
        }
        coordIndex [
            0,1,2,-1,2,1,3,-1,4,0,5,-1,5,0,2,-1,5,2,6,-1,6,2,3,-1,6,3,7,-1,7,3,1,-1,8,9,10,-1,11,12,13,-1,14,15,16,-1,16,15,17,-1,16,17,18,-1,18,19,16,-1,16,19,20,-1,16,20,21,-1,13,12,22,-1,22,12,23,-1,22,23,24,-1,24,23,25,-1,24,25,21,-1,21,25,26,-1,21,26,16,-1,27,28,29,-1,29,28,30,-1,29,30,31,-1,31,32,29,-1,29,32,33,-1,29,33,34,-1,34,35,29,-1,29,35,36,-1,29,36,11,-1,37,38,39,-1,39,38,40,-1,39,40,41,-1,41,42,39,-1,39,42,43,-1,39,43,27,-1,27,43,44,-1,27,44,28,-1,45,46,38,-1,10,47,8,-1,8,47,48,-1,8,48,45,-1,45,48,49,-1,45,49,46,-1,50,27,51,-1,51,27,29,-1,51,29,52,-1,52,29,53,-1,52,53,37,-1,37,53,54,-1,37,54,38,-1,38,54,55,-1,38,55,45,-1,56,57,58,-1,59,60,61,-1,62,63,8,-1,8,63,64,-1,13,9,11,-1,11,9,8,-1,11,8,29,-1,29,8,64,-1,29,64,65,-1,66,67,68,-1,67,69,68,-1,68,69,70,-1,68,70,71,-1,71,70,72,-1,71,72,73,-1,58,59,56,-1,56,59,61,-1,56,61,65,-1,65,61,74,-1,65,74,29,-1,29,74,75,-1,29,75,76,-1,76,66,29,-1,29,66,68,-1,29,68,77,-1,77,68,78,-1,77,78,79,-1,79,78,80,-1,79,80,81,-1,82,83,81,-1,81,83,84,-1,81,84,79,-1,79,84,71,-1,73,85,71,-1,71,85,86,-1,71,86,79,-1,79,86,61,-1,87,88,60,-1,60,88,89,-1,60,89,61,-1,61,89,62,-1,61,62,79,-1,79,62,8,-1,79,8,90,-1,90,8,45,-1,77,91,29,-1,29,91,92,-1,29,92,53,-1,93,94,95,-1,96,55,54,-1,95,96,93,-1,93,96,54,-1,93,54,97,-1,97,54,53,-1,97,53,92,-1,98,99,94,-1,94,99,95,-1,100,91,77,-1,79,90,101,-1,77,79,100,-1,100,79,101,-1,100,101,102,-1,102,101,99,-1,102,99,98,-1,99,101,95,-1,95,101,96,-1,97,92,100,-1,100,92,91,-1,94,93,98,-1,98,93,102,-1,103,102,104,-1,103,105,106,-1,106,105,107,-1,106,107,100,-1,100,107,108,-1,109,110,111,-1,111,110,108,-1,111,108,112,-1,112,108,107,-1,112,107,113,-1,113,107,114,-1,113,114,109,-1,109,114,110,-1,115,114,116,-1,116,114,107,-1,116,107,117,-1,117,107,105,-1,117,105,118,-1,118,105,119,-1,118,119,115,-1,115,119,114,-1,120,121,122,-1,122,121,110,-1,122,110,123,-1,123,110,114,-1,123,114,124,-1,124,114,125,-1,124,125,120,-1,120,125,121,-1,126,125,127,-1,127,125,114,-1,127,114,128,-1,128,114,119,-1,128,119,129,-1,129,119,130,-1,129,130,126,-1,126,130,125,-1,131,132,133,-1,133,132,121,-1,133,121,134,-1,134,121,125,-1,134,125,135,-1,135,125,136,-1,135,136,131,-1,131,136,132,-1,137,136,138,-1,138,136,125,-1,138,125,139,-1,139,125,130,-1,139,130,140,-1,140,130,141,-1,140,141,137,-1,137,141,136,-1,142,143,144,-1,144,143,132,-1,144,132,145,-1,145,132,136,-1,145,136,146,-1,146,136,147,-1,146,147,142,-1,142,147,143,-1,148,147,149,-1,149,147,136,-1,149,136,150,-1,150,136,141,-1,150,141,151,-1,151,141,152,-1,151,152,148,-1,148,152,147,-1,153,97,154,-1,154,97,143,-1,154,143,155,-1,155,143,147,-1,155,147,156,-1,156,147,157,-1,156,157,153,-1,153,157,97,-1,158,157,159,-1,159,157,147,-1,159,147,160,-1,160,147,152,-1,160,152,161,-1,161,152,162,-1,161,162,158,-1,158,162,157,-1,103,104,105,-1,105,104,163,-1,105,163,119,-1,119,163,164,-1,119,164,130,-1,130,164,165,-1,130,165,141,-1,141,165,166,-1,141,166,152,-1,152,166,93,-1,152,93,162,-1,167,168,169,-1,169,168,170,-1,169,170,171,-1,171,170,172,-1,171,172,173,-1,173,172,174,-1,173,174,167,-1,167,174,168,-1,174,172,168,-1,168,172,170,-1,175,176,177,-1,177,176,178,-1,177,178,179,-1,179,178,180,-1,
        ]
    }
}
Shape{
    appearance Appearance {
        material  Material 	{
            diffuseColor 0.7529411764705882 0.7529411764705882 0.7529411764705882
            specularColor 0.3764705882352941 0.3764705882352941 0.3764705882352941
            ambientIntensity 0.7529
            transparency 0.0
            shininess 0.5
        }
    }
    geometry IndexedFaceSet {
        ccw TRUE
        solid FALSE
        coord DEF co Coordinate {
            point [
                -2.1575 -4.4716 1.4055, -2.1575 -3.7236 1.4055, -2.1575 -4.4716 1.7205, -2.1575 -3.7236 1.7205
            ]
        }
        coordIndex [
            0,1,2,-1,2,1,3,-1,
        ]
    }
}
Shape{
    appearance Appearance {
        material  Material 	{
            diffuseColor 0.14901960784313725 0.14901960784313725 0.14901960784313725
            specularColor 0.07450980392156863 0.07450980392156863 0.07450980392156863
            ambientIntensity 0.149
            transparency 0.0
            shininess 0.5
        }
    }
    geometry IndexedFaceSet {
        ccw TRUE
        solid FALSE
        coord DEF co Coordinate {
            point [
                -2.1575 -4.4716 1.7205, -2.1575 -3.7236 1.7205, -1.8425 -4.4716 1.7205, -1.8425 -3.7236 1.7205, -2.1575 -3.7236 1.4055, -1.8425 -3.7236 1.4055, -2.1969 -4.511 0.3661, -2.1575 -4.4716 0.4055, -2.1969 -4.511 0.7598, -2.1575 -4.4716 0.7205, -1.8031 -4.511 0.3661, -1.8425 -4.4716 0.4055, -1.8425 -4.4716 0.7205, -1.8031 -4.511 0.7598, -2.1969 -4.511 1.3661, -2.1575 -4.4716 1.4055, -2.1969 -4.511 1.7598, -1.8031 -4.511 1.3661, -1.8425 -4.4716 1.4055, -1.8031 -4.511 1.7598
            ]
        }
        coordIndex [
            0,1,2,-1,2,1,3,-1,1,4,3,-1,3,4,5,-1,6,7,8,-1,8,7,9,-1,10,11,6,-1,6,11,7,-1,12,13,9,-1,9,13,8,-1,13,12,10,-1,10,12,11,-1,14,15,16,-1,16,15,0,-1,17,18,14,-1,14,18,15,-1,2,19,0,-1,0,19,16,-1,19,2,17,-1,17,2,18,-1,
        ]
    }
}
Shape{
    appearance Appearance {
        material  Material 	{
            diffuseColor 0.7529411764705882 0.7529411764705882 0.7529411764705882
            specularColor 0.3764705882352941 0.3764705882352941 0.3764705882352941
            ambientIntensity 0.7529
            transparency 0.0
            shininess 0.5
        }
    }
    geometry IndexedFaceSet {
        ccw TRUE
        solid FALSE
        coord DEF co Coordinate {
            point [
                -2.126 -0.4559 0.6417, -2.126 -1.5189 0.6417, -1.874 -0.4559 0.6417, -1.874 -1.5189 0.6417, -1.874 -0.4258 0.6357, -2.126 -0.4258 0.6357, -1.874 -0.4002 0.6187, -2.126 -0.4002 0.6187, -1.874 -0.3832 0.5931, -2.126 -0.3832 0.5931, -1.874 -0.3772 0.563, -2.126 -0.3772 0.563, -2.126 -0.3772 -1.122, -1.874 -0.3772 -1.122, -2.126 -0.4362 -1.1811, -1.874 -0.4362 -1.1811, -2.126 -0.4756 -1.1811, -1.874 -0.4756 -1.1811, -2.126 -0.5346 -1.122, -1.874 -0.5346 -1.122, -2.126 -0.5346 0.4055, -1.874 -0.5346 0.4055, -2.126 -0.5406 0.4356, -1.874 -0.5406 0.4356, -2.126 -0.5577 0.4612, -1.874 -0.5577 0.4612, -2.126 -0.5832 0.4783, -1.874 -0.5832 0.4783, -2.126 -0.6134 0.4843, -1.874 -0.6134 0.4843, -2.126 -1.5189 0.4843, -1.874 -1.5189 0.4843, -2.126 0.5441 1.6417, -2.126 -1.5189 1.6417, -1.874 0.5441 1.6417, -1.874 -1.5189 1.6417, -1.874 0.5742 1.6357, -2.126 0.5742 1.6357, -1.874 0.5998 1.6187, -2.126 0.5998 1.6187, -1.874 0.6168 1.5931, -2.126 0.6168 1.5931, -1.874 0.6228 1.563, -2.126 0.6228 1.563, -2.126 0.6228 -1.122, -1.874 0.6228 -1.122, -2.126 0.5638 -1.1811, -1.874 0.5638 -1.1811, -2.126 0.5244 -1.1811, -1.874 0.5244 -1.1811, -2.126 0.4654 -1.122, -1.874 0.4654 -1.122, -2.126 0.4654 1.4055, -1.874 0.4654 1.4055, -2.126 0.4594 1.4356, -1.874 0.4594 1.4356, -2.126 0.4423 1.4612, -1.874 0.4423 1.4612, -2.126 0.4168 1.4783, -1.874 0.4168 1.4783, -2.126 0.3866 1.4843, -1.874 0.3866 1.4843, -2.126 -1.5189 1.4843, -1.874 -1.5189 1.4843, -0.8 -2.6409 0.1181, -0.8025 -2.6409 0.1181, -0.8 -2.6409 0.0787, -0.8025 -2.6409 0.0787, -0.8934 -2.8378 0.1181, -0.8934 -2.8378 0.0787, -0.8742 -2.8378 0.1181, -0.8742 -2.8378 0.0787, -0.8451 -2.7747 0.1181, -0.8451 -2.7747 0.0787, -0.7559 -2.7747 0.1181, -0.7559 -2.7747 0.0787, -0.7259 -2.8378 0.1181, -0.7259 -2.8378 0.0787, -0.7066 -2.8378 0.1181, -0.7066 -2.8378 0.0787, -0.8358 -2.7545 0.1181, -0.7654 -2.7545 0.1181, -0.8011 -2.6793 0.1181, -0.8358 -2.7545 0.0787, -0.8011 -2.6793 0.0787, -0.7654 -2.7545 0.0787, -0.5809 -2.8378 0.1181, -0.5199 -2.8378 0.1181, -0.5809 -2.8378 0.0787, -0.5199 -2.8378 0.0787, -0.5199 -2.6409 0.1181, -0.5199 -2.6409 0.0787, -0.5596 -2.6409 0.1181, -0.5596 -2.6409 0.0787, -0.6221 -2.648 0.1181, -0.6221 -2.648 0.0787, -0.5912 -2.6421 0.0787, -0.5912 -2.6421 0.1181, -0.6814 -2.7418 0.1181, -0.6814 -2.7418 0.0787, -0.6777 -2.7109 0.0787, -0.6777 -2.7109 0.1181, -0.6576 -2.6719 0.0787, -0.6576 -2.6719 0.1181, -0.6022 -2.8367 0.0787, -0.6022 -2.8367 0.1181, -0.6418 -2.824 0.0787, -0.6418 -2.824 0.1181, -0.6703 -2.7914 0.0787, -0.6703 -2.7914 0.1181, -0.6606 -2.7663 0.1181, -0.6445 -2.7951 0.1181, -0.6164 -2.8126 0.1181, -0.5885 -2.8168 0.1181, -0.5601 -2.8176 0.1181, -0.5376 -2.8176 0.1181, -0.5376 -2.6611 0.1181, -0.5514 -2.6611 0.1181, -0.5818 -2.6621 0.1181, -0.6119 -2.6667 0.1181, -0.6337 -2.6771 0.1181, -0.6551 -2.7025 0.1181, -0.6637 -2.7418 0.1181, -0.5376 -2.6611 0.0787, -0.5376 -2.8176 0.0787, -0.5514 -2.6611 0.0787, -0.5818 -2.6621 0.0787, -0.6119 -2.6667 0.0787, -0.6337 -2.6771 0.0787, -0.6551 -2.7025 0.0787, -0.6637 -2.7418 0.0787, -0.6606 -2.7663 0.0787, -0.6445 -2.7951 0.0787, -0.6164 -2.8126 0.0787, -0.5885 -2.8168 0.0787, -0.5601 -2.8176 0.0787, -0.3735 -2.8378 0.1181, -0.3735 -2.6409 0.1181, -0.3735 -2.8378 0.0787, -0.3735 -2.6409 0.0787, -0.4846 -2.6409 0.1181, -0.4846 -2.6409 0.0787, -0.4846 -2.6611 0.1181, -0.4846 -2.6611 0.0787, -0.3912 -2.6611 0.1181, -0.3912 -2.6611 0.0787, -0.3912 -2.7217 0.1181, -0.3912 -2.7217 0.0787, -0.4846 -2.7217 0.1181, -0.4846 -2.7217 0.0787, -0.4846 -2.7419 0.1181, -0.4846 -2.7419 0.0787, -0.3912 -2.7419 0.1181, -0.3912 -2.7419 0.0787, -0.3912 -2.8176 0.1181, -0.3912 -2.8176 0.0787, -0.4846 -2.8176 0.1181, -0.4846 -2.8176 0.0787, -0.4846 -2.8378 0.1181, -0.4846 -2.8378 0.0787, -0.3331 -2.6771 0.1181, -0.3331 -2.6771 0.0787, -0.3269 -2.6693 0.0787, -0.3269 -2.6693 0.1181, -0.3154 -2.6585 0.0787, -0.3154 -2.6585 0.1181, -0.2953 -2.646 0.0787, -0.2953 -2.646 0.1181, -0.2472 -2.6359 0.0787, -0.2472 -2.6359 0.1181, -0.3177 -2.6889 0.1181, -0.3177 -2.6889 0.0787, -0.2461 -2.6561 0.1181, -0.2461 -2.6561 0.0787, -0.2543 -2.6564 0.0787, -0.2543 -2.6564 0.1181, -0.2672 -2.6582 0.0787, -0.2672 -2.6582 0.1181, -0.2858 -2.6642 0.0787, -0.2858 -2.6642 0.1181, -0.159 -2.7396 0.1181, -0.159 -2.7396 0.0787, -0.1593 -2.7316 0.0787, -0.1593 -2.7316 0.1181, -0.172 -2.6944 0.0787, -0.172 -2.6944 0.1181, -0.2025 -2.6669 0.0787, -0.2025 -2.6669 0.1181, -0.2474 -2.8226 0.1181, -0.2474 -2.8226 0.0787, -0.235 -2.822 0.0787, -0.235 -2.822 0.1181, -0.1963 -2.8086 0.0787, -0.1963 -2.8086 0.1181, -0.1692 -2.7801 0.0787, -0.1692 -2.7801 0.1181, -0.3177 -2.7898 0.1181, -0.3177 -2.7898 0.0787, -0.2863 -2.8143 0.0787, -0.2863 -2.8143 0.1181, -0.3331 -2.8016 0.1181, -0.3331 -2.8016 0.0787, -0.2475 -2.8428 0.1181, -0.2475 -2.8428 0.0787, -0.2573 -2.8425 0.0787, -0.2573 -2.8425 0.1181, -0.2723 -2.8403 0.0787, -0.273 -2.8402 0.1181, -0.273 -2.8402 0.0787, -0.2954 -2.8326 0.0787, -0.2954 -2.8326 0.1181, -0.2334 -2.8403 0.0787, -0.2029 -2.8348 0.1181, -0.2029 -2.8348 0.0787, -0.1837 -2.8244 0.1181, -0.1837 -2.8244 0.0787, -0.1725 -2.8151 0.1181, -0.1725 -2.8151 0.0787, -0.1663 -2.8084 0.1181, -0.1663 -2.8084 0.0787, -0.1413 -2.7382 0.1181, -0.1413 -2.7382 0.0787, -0.1473 -2.7756 0.0787, -0.1473 -2.7756 0.1181, -0.2385 -2.6362 0.0787, -0.2385 -2.6362 0.1181, -0.1877 -2.6524 0.0787, -0.1877 -2.6524 0.1181, -0.154 -2.6879 0.0787, -0.154 -2.6879 0.1181, -0.0252 -2.8378 0.1181, -0.0252 -2.6409 0.1181, -0.0252 -2.8378 0.0787, -0.0252 -2.6409 0.0787, -0.0429 -2.6409 0.1181, -0.0429 -2.6409 0.0787, -0.0429 -2.8176 0.1181, -0.0429 -2.8176 0.0787, -0.1186 -2.8176 0.1181, -0.1186 -2.8176 0.0787, -0.1186 -2.8378 0.1181, -0.1186 -2.8378 0.0787
            ]
        }
        coordIndex [
            0,1,2,-1,2,1,3,-1,0,2,4,-1,0,4,5,-1,5,4,6,-1,5,6,7,-1,7,6,8,-1,7,8,9,-1,9,8,10,-1,9,10,11,-1,12,11,13,-1,13,11,10,-1,14,12,15,-1,15,12,13,-1,16,14,17,-1,17,14,15,-1,18,16,19,-1,19,16,17,-1,20,18,21,-1,21,18,19,-1,20,21,22,-1,22,21,23,-1,22,23,24,-1,24,23,25,-1,24,25,26,-1,26,25,27,-1,26,27,28,-1,28,27,29,-1,30,28,31,-1,31,28,29,-1,24,9,22,-1,22,9,11,-1,22,11,20,-1,16,18,14,-1,14,18,20,-1,14,20,12,-1,12,20,11,-1,30,1,28,-1,28,1,0,-1,28,0,26,-1,26,0,5,-1,26,5,24,-1,24,5,7,-1,24,7,9,-1,2,3,31,-1,31,29,2,-1,2,29,27,-1,2,27,4,-1,4,27,25,-1,17,15,19,-1,19,15,13,-1,19,13,21,-1,21,13,10,-1,21,10,23,-1,23,10,8,-1,23,8,25,-1,25,8,6,-1,25,6,4,-1,32,33,34,-1,34,33,35,-1,32,34,36,-1,32,36,37,-1,37,36,38,-1,37,38,39,-1,39,38,40,-1,39,40,41,-1,41,40,42,-1,41,42,43,-1,44,43,45,-1,45,43,42,-1,46,44,47,-1,47,44,45,-1,48,46,49,-1,49,46,47,-1,50,48,51,-1,51,48,49,-1,52,50,53,-1,53,50,51,-1,52,53,54,-1,54,53,55,-1,54,55,56,-1,56,55,57,-1,56,57,58,-1,58,57,59,-1,58,59,60,-1,60,59,61,-1,62,60,63,-1,63,60,61,-1,48,50,46,-1,46,50,52,-1,62,33,60,-1,60,33,32,-1,60,32,58,-1,58,32,37,-1,58,37,56,-1,37,39,56,-1,56,39,41,-1,56,41,54,-1,54,41,43,-1,54,43,52,-1,52,43,44,-1,52,44,46,-1,34,35,63,-1,49,47,51,-1,51,47,45,-1,51,45,53,-1,53,45,42,-1,53,42,55,-1,55,42,40,-1,55,40,57,-1,63,61,34,-1,34,61,59,-1,34,59,36,-1,36,59,57,-1,36,57,38,-1,38,57,40,-1,64,65,66,-1,66,65,67,-1,65,68,67,-1,67,68,69,-1,68,70,69,-1,69,70,71,-1,70,72,71,-1,71,72,73,-1,72,74,73,-1,73,74,75,-1,74,76,75,-1,75,76,77,-1,76,78,77,-1,77,78,79,-1,78,64,79,-1,79,64,66,-1,80,68,65,-1,64,81,65,-1,65,81,82,-1,65,82,80,-1,78,76,74,-1,70,68,72,-1,72,68,80,-1,72,80,74,-1,74,80,81,-1,74,81,78,-1,78,81,64,-1,80,82,83,-1,83,82,84,-1,81,80,85,-1,85,80,83,-1,82,81,84,-1,84,81,85,-1,86,87,88,-1,88,87,89,-1,87,90,89,-1,89,90,91,-1,90,92,91,-1,91,92,93,-1,94,95,96,-1,94,96,97,-1,97,96,93,-1,97,93,92,-1,98,99,100,-1,98,100,101,-1,101,100,102,-1,101,102,103,-1,103,102,95,-1,103,95,94,-1,86,88,104,-1,86,104,105,-1,105,104,106,-1,105,106,107,-1,107,106,108,-1,107,108,109,-1,109,108,99,-1,109,99,98,-1,110,111,107,-1,107,111,112,-1,107,112,105,-1,105,112,113,-1,105,113,86,-1,86,113,114,-1,86,114,87,-1,87,114,115,-1,87,115,90,-1,90,115,116,-1,90,116,92,-1,92,116,117,-1,92,117,97,-1,97,117,118,-1,97,118,94,-1,94,118,119,-1,94,119,103,-1,103,119,120,-1,103,120,101,-1,101,120,121,-1,101,121,98,-1,98,121,122,-1,98,122,109,-1,109,122,110,-1,109,110,107,-1,116,115,123,-1,123,115,124,-1,117,116,125,-1,125,116,123,-1,117,125,126,-1,117,126,118,-1,118,126,127,-1,118,127,119,-1,119,127,128,-1,119,128,120,-1,120,128,129,-1,120,129,121,-1,121,129,130,-1,121,130,122,-1,122,130,131,-1,122,131,110,-1,110,131,132,-1,110,132,111,-1,111,132,133,-1,111,133,112,-1,112,133,134,-1,112,134,113,-1,113,134,135,-1,113,135,114,-1,115,114,124,-1,124,114,135,-1,136,137,138,-1,138,137,139,-1,137,140,139,-1,139,140,141,-1,140,142,141,-1,141,142,143,-1,142,144,143,-1,143,144,145,-1,144,146,145,-1,145,146,147,-1,146,148,147,-1,147,148,149,-1,148,150,149,-1,149,150,151,-1,150,152,151,-1,151,152,153,-1,152,154,153,-1,153,154,155,-1,154,156,155,-1,155,156,157,-1,156,158,157,-1,157,158,159,-1,158,136,159,-1,159,136,138,-1,136,158,156,-1,156,154,136,-1,136,154,152,-1,136,152,137,-1,142,140,144,-1,144,140,137,-1,144,137,146,-1,146,137,152,-1,146,152,148,-1,148,152,150,-1,160,161,162,-1,160,162,163,-1,163,162,164,-1,163,164,165,-1,165,164,166,-1,165,166,167,-1,167,166,168,-1,167,168,169,-1,160,170,161,-1,161,170,171,-1,172,173,174,-1,172,174,175,-1,175,174,176,-1,175,176,177,-1,177,176,178,-1,177,178,179,-1,179,178,171,-1,179,171,170,-1,180,181,182,-1,180,182,183,-1,183,182,184,-1,183,184,185,-1,185,184,186,-1,185,186,187,-1,187,186,173,-1,187,173,172,-1,188,189,190,-1,188,190,191,-1,191,190,192,-1,191,192,193,-1,193,192,194,-1,193,194,195,-1,195,194,181,-1,195,181,180,-1,196,197,198,-1,196,198,199,-1,199,198,189,-1,199,189,188,-1,196,200,197,-1,197,200,201,-1,202,203,204,-1,202,204,205,-1,205,204,206,-1,205,206,207,-1,206,208,207,-1,207,208,209,-1,207,209,210,-1,210,209,201,-1,210,201,200,-1,203,202,211,-1,211,202,212,-1,211,212,213,-1,213,212,214,-1,213,214,215,-1,215,214,216,-1,215,216,217,-1,217,216,218,-1,217,218,219,-1,220,221,222,-1,220,222,223,-1,223,222,219,-1,223,219,218,-1,169,168,224,-1,169,224,225,-1,225,224,226,-1,225,226,227,-1,227,226,228,-1,227,228,229,-1,229,228,221,-1,229,221,220,-1,200,196,210,-1,210,196,199,-1,220,223,195,-1,195,223,193,-1,193,223,218,-1,193,218,216,-1,170,160,163,-1,170,163,179,-1,179,163,165,-1,179,165,167,-1,216,214,193,-1,193,214,212,-1,193,212,191,-1,191,212,202,-1,191,202,188,-1,188,202,205,-1,188,205,199,-1,199,205,207,-1,199,207,210,-1,195,180,220,-1,220,180,183,-1,220,183,229,-1,229,183,185,-1,229,185,227,-1,227,185,187,-1,227,187,225,-1,225,187,172,-1,225,172,169,-1,169,172,175,-1,169,175,167,-1,167,175,177,-1,167,177,179,-1,230,231,232,-1,232,231,233,-1,231,234,233,-1,233,234,235,-1,234,236,235,-1,235,236,237,-1,236,238,237,-1,237,238,239,-1,238,240,239,-1,239,240,241,-1,240,230,241,-1,241,230,232,-1,234,231,236,-1,236,231,230,-1,236,230,238,-1,238,230,240,-1,
        ]
    }
}
Shape{
    appearance Appearance {
        material  Material 	{
            diffuseColor 0.14901960784313725 0.14901960784313725 0.14901960784313725
            specularColor 0.07450980392156863 0.07450980392156863 0.07450980392156863
            ambientIntensity 0.149
            transparency 0.0
            shininess 0.5
        }
    }
    geometry IndexedFaceSet {
        ccw TRUE
        solid FALSE
        coord DEF co Coordinate {
            point [
                -0.8358 -2.7545 0.0787, -0.8011 -2.6793 0.0787, -0.7654 -2.7545 0.0787, -0.5376 -2.6611 0.0787, -0.5376 -2.8176 0.0787, -0.5514 -2.6611 0.0787, -0.5601 -2.8176 0.0787, -0.5818 -2.6621 0.0787, -0.5885 -2.8168 0.0787, -0.6119 -2.6667 0.0787, -0.6164 -2.8126 0.0787, -0.6445 -2.7951 0.0787, -0.6606 -2.7663 0.0787, -0.6637 -2.7418 0.0787, -0.6551 -2.7025 0.0787, -0.6337 -2.6771 0.0787, -0.8425 -4.4716 1.4055, -0.8425 -3.7236 1.4055, -1.1575 -4.4716 1.4055, -1.1575 -3.7236 1.4055, -0.8425 -4.4716 1.7205, -0.8425 -3.7236 1.7205, -1.1575 -4.4716 1.7205, -1.1575 -3.7236 1.7205
            ]
        }
        coordIndex [
            0,1,2,-1,3,4,5,-1,5,4,6,-1,5,6,7,-1,7,6,8,-1,7,8,9,-1,10,11,8,-1,8,11,12,-1,8,12,13,-1,13,14,8,-1,8,14,15,-1,8,15,9,-1,16,17,18,-1,18,17,19,-1,20,21,16,-1,16,21,17,-1,22,23,20,-1,20,23,21,-1,23,19,21,-1,21,19,17,-1,
        ]
    }
}
Shape{
    appearance Appearance {
        material  Material 	{
            diffuseColor 0.7529411764705882 0.7529411764705882 0.7529411764705882
            specularColor 0.3764705882352941 0.3764705882352941 0.3764705882352941
            ambientIntensity 0.7529
            transparency 0.0
            shininess 0.5
        }
    }
    geometry IndexedFaceSet {
        ccw TRUE
        solid FALSE
        coord DEF co Coordinate {
            point [
                -1.1575 -4.4716 1.4055, -1.1575 -3.7236 1.4055, -1.1575 -4.4716 1.7205, -1.1575 -3.7236 1.7205
            ]
        }
        coordIndex [
            0,1,2,-1,2,1,3,-1,
        ]
    }
}
Shape{
    appearance Appearance {
        material  Material 	{
            diffuseColor 0.14901960784313725 0.14901960784313725 0.14901960784313725
            specularColor 0.07450980392156863 0.07450980392156863 0.07450980392156863
            ambientIntensity 0.149
            transparency 0.0
            shininess 0.5
        }
    }
    geometry IndexedFaceSet {
        ccw TRUE
        solid FALSE
        coord DEF co Coordinate {
            point [
                -0.8031 -4.511 1.3661, -0.8425 -4.4716 1.4055, -1.1969 -4.511 1.3661, -1.1575 -4.4716 1.4055, -1.1969 -4.511 1.7598, -1.1575 -4.4716 1.7205, -0.8425 -4.4716 1.7205, -0.8031 -4.511 1.7598, -1.1575 -4.4716 0.4055, -1.1575 -3.7236 0.4055, -1.1575 -4.4716 0.7205, -1.1575 -3.7236 0.7205, -0.8425 -4.4716 0.7205, -0.8425 -3.7236 0.7205, -0.8425 -4.4716 0.4055, -0.8425 -3.7236 0.4055, -0.8031 -4.511 0.3661, -1.1969 -4.511 0.3661, -1.1969 -4.511 0.7598, -0.8031 -4.511 0.7598
            ]
        }
        coordIndex [
            0,1,2,-1,2,1,3,-1,2,3,4,-1,4,3,5,-1,6,7,5,-1,5,7,4,-1,7,6,0,-1,0,6,1,-1,8,9,10,-1,10,9,11,-1,10,11,12,-1,12,11,13,-1,12,13,14,-1,14,13,15,-1,15,13,9,-1,9,13,11,-1,14,15,8,-1,8,15,9,-1,16,14,17,-1,17,14,8,-1,17,8,18,-1,18,8,10,-1,12,19,10,-1,10,19,18,-1,19,12,16,-1,16,12,14,-1,
        ]
    }
}
Shape{
    appearance Appearance {
        material  Material 	{
            diffuseColor 0.7529411764705882 0.7529411764705882 0.7529411764705882
            specularColor 0.3764705882352941 0.3764705882352941 0.3764705882352941
            ambientIntensity 0.7529
            transparency 0.0
            shininess 0.5
        }
    }
    geometry IndexedFaceSet {
        ccw TRUE
        solid FALSE
        coord DEF co Coordinate {
            point [
                -1.126 -0.4559 0.6417, -1.126 -1.5189 0.6417, -0.874 -0.4559 0.6417, -0.874 -1.5189 0.6417, -0.874 -0.4384 0.6398, -1.126 -0.4384 0.6398, -0.874 -0.4217 0.6339, -1.126 -0.4217 0.6339, -0.874 -0.4068 0.6246, -1.126 -0.4068 0.6246, -0.874 -0.3943 0.6121, -1.126 -0.3943 0.6121, -0.874 -0.385 0.5972, -1.126 -0.385 0.5972, -0.874 -0.3791 0.5805, -1.126 -0.3791 0.5805, -0.874 -0.3772 0.563, -1.126 -0.3772 0.563, -1.126 -0.3772 -1.122, -0.874 -0.3772 -1.122, -1.126 -0.4362 -1.1811, -0.874 -0.4362 -1.1811, -1.126 -0.4756 -1.1811, -0.874 -0.4756 -1.1811, -1.126 -0.5346 -1.122, -0.874 -0.5346 -1.122, -1.126 -0.5346 0.4055, -0.874 -0.5346 0.4055, -1.126 -0.5366 0.423, -0.874 -0.5366 0.423, -1.126 -0.5424 0.4397, -0.874 -0.5424 0.4397, -1.126 -0.5518 0.4546, -0.874 -0.5518 0.4546, -1.126 -0.5643 0.4671, -0.874 -0.5643 0.4671, -1.126 -0.5792 0.4765, -0.874 -0.5792 0.4765, -1.126 -0.5959 0.4823, -0.874 -0.5959 0.4823, -1.126 -0.6134 0.4843, -0.874 -0.6134 0.4843, -1.126 -1.5189 0.4843, -0.874 -1.5189 0.4843, -1.126 0.5441 1.6417, -1.126 -1.5189 1.6417, -0.874 0.5441 1.6417, -0.874 -1.5189 1.6417, -0.874 0.5616 1.6398, -1.126 0.5616 1.6398, -0.874 0.5783 1.6339, -1.126 0.5783 1.6339, -0.874 0.5932 1.6246, -1.126 0.5932 1.6246, -0.874 0.6057 1.6121, -1.126 0.6057 1.6121, -0.874 0.615 1.5972, -1.126 0.615 1.5972, -0.874 0.6209 1.5805, -1.126 0.6209 1.5805, -0.874 0.6228 1.563, -1.126 0.6228 1.563, -1.126 0.6228 -1.122, -0.874 0.6228 -1.122, -1.126 0.5638 -1.1811, -0.874 0.5638 -1.1811, -1.126 0.5244 -1.1811, -0.874 0.5244 -1.1811, -1.126 0.4654 -1.122, -0.874 0.4654 -1.122, -1.126 0.4654 1.4055, -0.874 0.4654 1.4055, -1.126 0.4634 1.423, -0.874 0.4634 1.423, -1.126 0.4576 1.4397, -0.874 0.4576 1.4397, -1.126 0.4482 1.4546, -0.874 0.4482 1.4546, -1.126 0.4357 1.4671, -0.874 0.4357 1.4671, -1.126 0.4208 1.4765, -0.874 0.4208 1.4765, -1.126 0.4041 1.4823, -0.874 0.4041 1.4823, -1.126 0.3866 1.4843, -0.874 0.3866 1.4843, -1.126 -1.5189 1.4843, -0.874 -1.5189 1.4843, -0.126 -0.4559 0.6417, -0.126 -1.5189 0.6417, 0.126 -0.4559 0.6417, 0.126 -1.5189 0.6417, 0.126 -0.4384 0.6398, -0.126 -0.4384 0.6398, 0.126 -0.4217 0.6339, -0.126 -0.4217 0.6339, 0.126 -0.4068 0.6246, -0.126 -0.4068 0.6246, 0.126 -0.3943 0.6121, -0.126 -0.3943 0.6121, 0.126 -0.385 0.5972, -0.126 -0.385 0.5972, 0.126 -0.3791 0.5805, -0.126 -0.3791 0.5805, 0.126 -0.3772 0.563, -0.126 -0.3772 0.563, -0.126 -0.3772 -1.122, 0.126 -0.3772 -1.122, -0.126 -0.4362 -1.1811, 0.126 -0.4362 -1.1811, -0.126 -0.4756 -1.1811, 0.126 -0.4756 -1.1811, -0.126 -0.5346 -1.122, 0.126 -0.5346 -1.122, -0.126 -0.5346 0.4055, 0.126 -0.5346 0.4055, -0.126 -0.5366 0.423, 0.126 -0.5366 0.423, -0.126 -0.5424 0.4397, 0.126 -0.5424 0.4397, -0.126 -0.5518 0.4546, 0.126 -0.5518 0.4546, -0.126 -0.5643 0.4671, 0.126 -0.5643 0.4671, -0.126 -0.5792 0.4765, 0.126 -0.5792 0.4765, -0.126 -0.5959 0.4823, 0.126 -0.5959 0.4823, -0.126 -0.6134 0.4843, 0.126 -0.6134 0.4843, -0.126 -1.5189 0.4843, 0.126 -1.5189 0.4843, -0.126 0.5441 1.6417, -0.126 -1.5189 1.6417, 0.126 0.5441 1.6417, 0.126 -1.5189 1.6417, 0.126 0.5616 1.6398, -0.126 0.5616 1.6398, 0.126 0.5783 1.6339, -0.126 0.5783 1.6339, 0.126 0.5932 1.6246, -0.126 0.5932 1.6246, 0.126 0.6057 1.6121, -0.126 0.6057 1.6121, 0.126 0.615 1.5972, -0.126 0.615 1.5972, 0.126 0.6209 1.5805, -0.126 0.6209 1.5805, 0.126 0.6228 1.563, -0.126 0.6228 1.563, -0.126 0.6228 -1.122, 0.126 0.6228 -1.122, -0.126 0.5638 -1.1811, 0.126 0.5638 -1.1811, -0.126 0.5244 -1.1811, 0.126 0.5244 -1.1811, -0.126 0.4654 -1.122, 0.126 0.4654 -1.122, -0.126 0.4654 1.4055, 0.126 0.4654 1.4055, -0.126 0.4634 1.423, 0.126 0.4634 1.423, -0.126 0.4576 1.4397, 0.126 0.4576 1.4397, -0.126 0.4482 1.4546, 0.126 0.4482 1.4546, -0.126 0.4357 1.4671, 0.126 0.4357 1.4671, -0.126 0.4208 1.4765, 0.126 0.4208 1.4765, -0.126 0.4041 1.4823, 0.126 0.4041 1.4823, -0.126 0.3866 1.4843, 0.126 0.3866 1.4843, -0.126 -1.5189 1.4843, 0.126 -1.5189 1.4843, 0.874 -0.4559 0.6417, 0.874 -1.5189 0.6417, 1.126 -0.4559 0.6417, 1.126 -1.5189 0.6417, 1.126 -0.4384 0.6398, 0.874 -0.4384 0.6398, 1.126 -0.4217 0.6339, 0.874 -0.4217 0.6339, 1.126 -0.4068 0.6246, 0.874 -0.4068 0.6246, 1.126 -0.3943 0.6121, 0.874 -0.3943 0.6121, 1.126 -0.385 0.5972, 0.874 -0.385 0.5972, 1.126 -0.3791 0.5805, 0.874 -0.3791 0.5805, 1.126 -0.3772 0.563, 0.874 -0.3772 0.563, 0.874 -0.3772 -1.122, 1.126 -0.3772 -1.122, 0.874 -0.4362 -1.1811, 1.126 -0.4362 -1.1811, 0.874 -0.4756 -1.1811, 1.126 -0.4756 -1.1811, 0.874 -0.5346 -1.122, 1.126 -0.5346 -1.122, 0.874 -0.5346 0.4055, 1.126 -0.5346 0.4055, 0.874 -0.5366 0.423, 1.126 -0.5366 0.423, 0.874 -0.5424 0.4397, 1.126 -0.5424 0.4397, 0.874 -0.5518 0.4546, 1.126 -0.5518 0.4546, 0.874 -0.5643 0.4671, 1.126 -0.5643 0.4671, 0.874 -0.5792 0.4765, 1.126 -0.5792 0.4765, 0.874 -0.5959 0.4823, 1.126 -0.5959 0.4823, 0.874 -0.6134 0.4843, 1.126 -0.6134 0.4843, 0.874 -1.5189 0.4843, 1.126 -1.5189 0.4843, 0.874 0.5441 1.6417, 0.874 -1.5189 1.6417, 1.126 0.5441 1.6417, 1.126 -1.5189 1.6417, 1.126 0.5616 1.6398, 0.874 0.5616 1.6398, 1.126 0.5783 1.6339, 0.874 0.5783 1.6339, 1.126 0.5932 1.6246, 0.874 0.5932 1.6246, 1.126 0.6057 1.6121, 0.874 0.6057 1.6121, 1.126 0.615 1.5972, 0.874 0.615 1.5972, 1.126 0.6209 1.5805, 0.874 0.6209 1.5805, 1.126 0.6228 1.563, 0.874 0.6228 1.563, 0.874 0.6228 -1.122, 1.126 0.6228 -1.122, 0.874 0.5638 -1.1811, 1.126 0.5638 -1.1811, 0.874 0.5244 -1.1811, 1.126 0.5244 -1.1811, 0.874 0.4654 -1.122, 1.126 0.4654 -1.122, 0.874 0.4654 1.4055, 1.126 0.4654 1.4055, 0.874 0.4634 1.423, 1.126 0.4634 1.423, 0.874 0.4576 1.4397, 1.126 0.4576 1.4397, 0.874 0.4482 1.4546, 1.126 0.4482 1.4546, 0.874 0.4357 1.4671, 1.126 0.4357 1.4671, 0.874 0.4208 1.4765, 1.126 0.4208 1.4765, 0.874 0.4041 1.4823, 1.126 0.4041 1.4823, 0.874 0.3866 1.4843, 1.126 0.3866 1.4843, 0.874 -1.5189 1.4843, 1.126 -1.5189 1.4843, 1.874 -0.4559 0.6417, 1.874 -1.5189 0.6417, 2.126 -0.4559 0.6417, 2.126 -1.5189 0.6417, 2.126 -0.4384 0.6398, 1.874 -0.4384 0.6398, 2.126 -0.4217 0.6339, 1.874 -0.4217 0.6339, 2.126 -0.4068 0.6246, 1.874 -0.4068 0.6246, 2.126 -0.3943 0.6121, 1.874 -0.3943 0.6121, 2.126 -0.385 0.5972, 1.874 -0.385 0.5972, 2.126 -0.3791 0.5805, 1.874 -0.3791 0.5805, 2.126 -0.3772 0.563, 1.874 -0.3772 0.563, 1.874 -0.3772 -1.122, 2.126 -0.3772 -1.122, 1.874 -0.4362 -1.1811, 2.126 -0.4362 -1.1811, 1.874 -0.4756 -1.1811, 2.126 -0.4756 -1.1811, 1.874 -0.5346 -1.122, 2.126 -0.5346 -1.122, 1.874 -0.5346 0.4055, 2.126 -0.5346 0.4055, 1.874 -0.5366 0.423, 2.126 -0.5366 0.423, 1.874 -0.5424 0.4397, 2.126 -0.5424 0.4397, 1.874 -0.5518 0.4546, 2.126 -0.5518 0.4546, 1.874 -0.5643 0.4671, 2.126 -0.5643 0.4671, 1.874 -0.5792 0.4765, 2.126 -0.5792 0.4765, 1.874 -0.5959 0.4823, 2.126 -0.5959 0.4823, 1.874 -0.6134 0.4843, 2.126 -0.6134 0.4843, 1.874 -1.5189 0.4843, 2.126 -1.5189 0.4843, 1.874 0.5441 1.6417, 1.874 -1.5189 1.6417, 2.126 0.5441 1.6417, 2.126 -1.5189 1.6417, 2.126 0.5616 1.6398, 1.874 0.5616 1.6398, 2.126 0.5783 1.6339, 1.874 0.5783 1.6339, 2.126 0.5932 1.6246, 1.874 0.5932 1.6246, 2.126 0.6057 1.6121, 1.874 0.6057 1.6121, 2.126 0.615 1.5972, 1.874 0.615 1.5972, 2.126 0.6209 1.5805, 1.874 0.6209 1.5805, 2.126 0.6228 1.563, 1.874 0.6228 1.563, 1.874 0.6228 -1.122, 2.126 0.6228 -1.122, 1.874 0.5638 -1.1811, 2.126 0.5638 -1.1811, 1.874 0.5244 -1.1811, 2.126 0.5244 -1.1811, 1.874 0.4654 -1.122, 2.126 0.4654 -1.122, 1.874 0.4654 1.4055, 2.126 0.4654 1.4055, 1.874 0.4634 1.423, 2.126 0.4634 1.423, 1.874 0.4576 1.4397, 2.126 0.4576 1.4397, 1.874 0.4482 1.4546, 2.126 0.4482 1.4546, 1.874 0.4357 1.4671, 2.126 0.4357 1.4671, 1.874 0.4208 1.4765, 2.126 0.4208 1.4765, 1.874 0.4041 1.4823, 2.126 0.4041 1.4823, 1.874 0.3866 1.4843, 2.126 0.3866 1.4843, 1.874 -1.5189 1.4843, 2.126 -1.5189 1.4843
            ]
        }
        coordIndex [
            0,1,2,-1,2,1,3,-1,0,2,4,-1,0,4,5,-1,5,4,6,-1,5,6,7,-1,7,6,8,-1,7,8,9,-1,9,8,10,-1,9,10,11,-1,11,10,12,-1,11,12,13,-1,13,12,14,-1,13,14,15,-1,15,14,16,-1,15,16,17,-1,18,17,19,-1,19,17,16,-1,20,18,21,-1,21,18,19,-1,22,20,23,-1,23,20,21,-1,24,22,25,-1,25,22,23,-1,26,24,27,-1,27,24,25,-1,26,27,28,-1,28,27,29,-1,28,29,30,-1,30,29,31,-1,30,31,32,-1,32,31,33,-1,32,33,34,-1,34,33,35,-1,34,35,36,-1,36,35,37,-1,36,37,38,-1,38,37,39,-1,38,39,40,-1,40,39,41,-1,42,40,43,-1,43,40,41,-1,42,1,40,-1,40,1,0,-1,40,0,38,-1,38,0,36,-1,26,28,17,-1,17,28,30,-1,17,30,15,-1,15,30,32,-1,7,9,34,-1,34,9,11,-1,34,11,32,-1,32,11,13,-1,32,13,15,-1,36,0,34,-1,34,0,5,-1,34,5,7,-1,22,24,20,-1,20,24,26,-1,20,26,18,-1,18,26,17,-1,3,43,2,-1,2,43,41,-1,33,31,16,-1,41,39,2,-1,2,39,37,-1,2,37,4,-1,4,37,35,-1,4,35,6,-1,6,35,8,-1,16,14,33,-1,33,14,12,-1,33,12,35,-1,35,12,10,-1,35,10,8,-1,23,21,25,-1,25,21,19,-1,25,19,27,-1,27,19,16,-1,27,16,29,-1,29,16,31,-1,44,45,46,-1,46,45,47,-1,44,46,48,-1,44,48,49,-1,49,48,50,-1,49,50,51,-1,51,50,52,-1,51,52,53,-1,53,52,54,-1,53,54,55,-1,55,54,56,-1,55,56,57,-1,57,56,58,-1,57,58,59,-1,59,58,60,-1,59,60,61,-1,62,61,63,-1,63,61,60,-1,64,62,65,-1,65,62,63,-1,66,64,67,-1,67,64,65,-1,68,66,69,-1,69,66,67,-1,70,68,71,-1,71,68,69,-1,70,71,72,-1,72,71,73,-1,72,73,74,-1,74,73,75,-1,74,75,76,-1,76,75,77,-1,76,77,78,-1,78,77,79,-1,78,79,80,-1,80,79,81,-1,80,81,82,-1,82,81,83,-1,82,83,84,-1,84,83,85,-1,86,84,87,-1,87,84,85,-1,70,72,61,-1,61,72,74,-1,61,74,59,-1,59,74,76,-1,66,68,64,-1,64,68,70,-1,64,70,62,-1,62,70,61,-1,51,53,78,-1,78,53,55,-1,78,55,76,-1,76,55,57,-1,76,57,59,-1,86,45,84,-1,84,45,44,-1,84,44,82,-1,82,44,80,-1,80,44,78,-1,78,44,49,-1,78,49,51,-1,77,75,60,-1,60,58,77,-1,77,58,56,-1,77,56,79,-1,79,56,54,-1,79,54,52,-1,67,65,69,-1,69,65,63,-1,69,63,71,-1,71,63,60,-1,71,60,73,-1,73,60,75,-1,47,87,46,-1,46,87,85,-1,85,83,46,-1,46,83,81,-1,46,81,48,-1,48,81,79,-1,48,79,50,-1,50,79,52,-1,88,89,90,-1,90,89,91,-1,88,90,92,-1,88,92,93,-1,93,92,94,-1,93,94,95,-1,95,94,96,-1,95,96,97,-1,97,96,98,-1,97,98,99,-1,99,98,100,-1,99,100,101,-1,101,100,102,-1,101,102,103,-1,103,102,104,-1,103,104,105,-1,106,105,107,-1,107,105,104,-1,108,106,109,-1,109,106,107,-1,110,108,111,-1,111,108,109,-1,112,110,113,-1,113,110,111,-1,114,112,115,-1,115,112,113,-1,114,115,116,-1,116,115,117,-1,116,117,118,-1,118,117,119,-1,118,119,120,-1,120,119,121,-1,120,121,122,-1,122,121,123,-1,122,123,124,-1,124,123,125,-1,124,125,126,-1,126,125,127,-1,126,127,128,-1,128,127,129,-1,130,128,131,-1,131,128,129,-1,130,89,128,-1,128,89,88,-1,128,88,126,-1,126,88,124,-1,114,116,105,-1,105,116,118,-1,105,118,103,-1,103,118,120,-1,95,97,122,-1,122,97,99,-1,122,99,120,-1,120,99,101,-1,120,101,103,-1,124,88,122,-1,122,88,93,-1,122,93,95,-1,110,112,108,-1,108,112,114,-1,108,114,106,-1,106,114,105,-1,91,131,90,-1,90,131,129,-1,121,119,104,-1,129,127,90,-1,90,127,125,-1,90,125,92,-1,92,125,123,-1,92,123,94,-1,94,123,96,-1,104,102,121,-1,121,102,100,-1,121,100,123,-1,123,100,98,-1,123,98,96,-1,111,109,113,-1,113,109,107,-1,113,107,115,-1,115,107,104,-1,115,104,117,-1,117,104,119,-1,132,133,134,-1,134,133,135,-1,132,134,136,-1,132,136,137,-1,137,136,138,-1,137,138,139,-1,139,138,140,-1,139,140,141,-1,141,140,142,-1,141,142,143,-1,143,142,144,-1,143,144,145,-1,145,144,146,-1,145,146,147,-1,147,146,148,-1,147,148,149,-1,150,149,151,-1,151,149,148,-1,152,150,153,-1,153,150,151,-1,154,152,155,-1,155,152,153,-1,156,154,157,-1,157,154,155,-1,158,156,159,-1,159,156,157,-1,158,159,160,-1,160,159,161,-1,160,161,162,-1,162,161,163,-1,162,163,164,-1,164,163,165,-1,164,165,166,-1,166,165,167,-1,166,167,168,-1,168,167,169,-1,168,169,170,-1,170,169,171,-1,170,171,172,-1,172,171,173,-1,174,172,175,-1,175,172,173,-1,158,160,149,-1,149,160,162,-1,149,162,147,-1,147,162,164,-1,154,156,152,-1,152,156,158,-1,152,158,150,-1,150,158,149,-1,139,141,166,-1,166,141,143,-1,166,143,164,-1,164,143,145,-1,164,145,147,-1,174,133,172,-1,172,133,132,-1,172,132,170,-1,170,132,168,-1,168,132,166,-1,166,132,137,-1,166,137,139,-1,165,163,148,-1,148,146,165,-1,165,146,144,-1,165,144,167,-1,167,144,142,-1,167,142,140,-1,155,153,157,-1,157,153,151,-1,157,151,159,-1,159,151,148,-1,159,148,161,-1,161,148,163,-1,135,175,134,-1,134,175,173,-1,173,171,134,-1,134,171,169,-1,134,169,136,-1,136,169,167,-1,136,167,138,-1,138,167,140,-1,176,177,178,-1,178,177,179,-1,176,178,180,-1,176,180,181,-1,181,180,182,-1,181,182,183,-1,183,182,184,-1,183,184,185,-1,185,184,186,-1,185,186,187,-1,187,186,188,-1,187,188,189,-1,189,188,190,-1,189,190,191,-1,191,190,192,-1,191,192,193,-1,194,193,195,-1,195,193,192,-1,196,194,197,-1,197,194,195,-1,198,196,199,-1,199,196,197,-1,200,198,201,-1,201,198,199,-1,202,200,203,-1,203,200,201,-1,202,203,204,-1,204,203,205,-1,204,205,206,-1,206,205,207,-1,206,207,208,-1,208,207,209,-1,208,209,210,-1,210,209,211,-1,210,211,212,-1,212,211,213,-1,212,213,214,-1,214,213,215,-1,214,215,216,-1,216,215,217,-1,218,216,219,-1,219,216,217,-1,218,177,216,-1,216,177,176,-1,216,176,214,-1,214,176,212,-1,202,204,193,-1,193,204,206,-1,193,206,191,-1,191,206,208,-1,183,185,210,-1,210,185,187,-1,210,187,208,-1,208,187,189,-1,208,189,191,-1,212,176,210,-1,210,176,181,-1,210,181,183,-1,198,200,196,-1,196,200,202,-1,196,202,194,-1,194,202,193,-1,179,219,178,-1,178,219,217,-1,209,207,192,-1,217,215,178,-1,178,215,213,-1,178,213,180,-1,180,213,211,-1,180,211,182,-1,182,211,184,-1,192,190,209,-1,209,190,188,-1,209,188,211,-1,211,188,186,-1,211,186,184,-1,199,197,201,-1,201,197,195,-1,201,195,203,-1,203,195,192,-1,203,192,205,-1,205,192,207,-1,220,221,222,-1,222,221,223,-1,220,222,224,-1,220,224,225,-1,225,224,226,-1,225,226,227,-1,227,226,228,-1,227,228,229,-1,229,228,230,-1,229,230,231,-1,231,230,232,-1,231,232,233,-1,233,232,234,-1,233,234,235,-1,235,234,236,-1,235,236,237,-1,238,237,239,-1,239,237,236,-1,240,238,241,-1,241,238,239,-1,242,240,243,-1,243,240,241,-1,244,242,245,-1,245,242,243,-1,246,244,247,-1,247,244,245,-1,246,247,248,-1,248,247,249,-1,248,249,250,-1,250,249,251,-1,250,251,252,-1,252,251,253,-1,252,253,254,-1,254,253,255,-1,254,255,256,-1,256,255,257,-1,256,257,258,-1,258,257,259,-1,258,259,260,-1,260,259,261,-1,262,260,263,-1,263,260,261,-1,246,248,237,-1,237,248,250,-1,237,250,235,-1,235,250,252,-1,242,244,240,-1,240,244,246,-1,240,246,238,-1,238,246,237,-1,227,229,254,-1,254,229,231,-1,254,231,252,-1,252,231,233,-1,252,233,235,-1,262,221,260,-1,260,221,220,-1,260,220,258,-1,258,220,256,-1,256,220,254,-1,254,220,225,-1,254,225,227,-1,253,251,236,-1,236,234,253,-1,253,234,232,-1,253,232,255,-1,255,232,230,-1,255,230,228,-1,243,241,245,-1,245,241,239,-1,245,239,247,-1,247,239,236,-1,247,236,249,-1,249,236,251,-1,223,263,222,-1,222,263,261,-1,261,259,222,-1,222,259,257,-1,222,257,224,-1,224,257,255,-1,224,255,226,-1,226,255,228,-1,264,265,266,-1,266,265,267,-1,264,266,268,-1,264,268,269,-1,269,268,270,-1,269,270,271,-1,271,270,272,-1,271,272,273,-1,273,272,274,-1,273,274,275,-1,275,274,276,-1,275,276,277,-1,277,276,278,-1,277,278,279,-1,279,278,280,-1,279,280,281,-1,282,281,283,-1,283,281,280,-1,284,282,285,-1,285,282,283,-1,286,284,287,-1,287,284,285,-1,288,286,289,-1,289,286,287,-1,290,288,291,-1,291,288,289,-1,290,291,292,-1,292,291,293,-1,292,293,294,-1,294,293,295,-1,294,295,296,-1,296,295,297,-1,296,297,298,-1,298,297,299,-1,298,299,300,-1,300,299,301,-1,300,301,302,-1,302,301,303,-1,302,303,304,-1,304,303,305,-1,306,304,307,-1,307,304,305,-1,306,265,304,-1,304,265,264,-1,304,264,302,-1,302,264,300,-1,290,292,281,-1,281,292,294,-1,281,294,279,-1,279,294,296,-1,271,273,298,-1,298,273,275,-1,298,275,296,-1,296,275,277,-1,296,277,279,-1,300,264,298,-1,298,264,269,-1,298,269,271,-1,286,288,284,-1,284,288,290,-1,284,290,282,-1,282,290,281,-1,267,307,266,-1,266,307,305,-1,297,295,280,-1,305,303,266,-1,266,303,301,-1,266,301,268,-1,268,301,299,-1,268,299,270,-1,270,299,272,-1,280,278,297,-1,297,278,276,-1,297,276,299,-1,299,276,274,-1,299,274,272,-1,287,285,289,-1,289,285,283,-1,289,283,291,-1,291,283,280,-1,291,280,293,-1,293,280,295,-1,308,309,310,-1,310,309,311,-1,308,310,312,-1,308,312,313,-1,313,312,314,-1,313,314,315,-1,315,314,316,-1,315,316,317,-1,317,316,318,-1,317,318,319,-1,319,318,320,-1,319,320,321,-1,321,320,322,-1,321,322,323,-1,323,322,324,-1,323,324,325,-1,326,325,327,-1,327,325,324,-1,328,326,329,-1,329,326,327,-1,330,328,331,-1,331,328,329,-1,332,330,333,-1,333,330,331,-1,334,332,335,-1,335,332,333,-1,334,335,336,-1,336,335,337,-1,336,337,338,-1,338,337,339,-1,338,339,340,-1,340,339,341,-1,340,341,342,-1,342,341,343,-1,342,343,344,-1,344,343,345,-1,344,345,346,-1,346,345,347,-1,346,347,348,-1,348,347,349,-1,350,348,351,-1,351,348,349,-1,334,336,325,-1,325,336,338,-1,325,338,323,-1,323,338,340,-1,330,332,328,-1,328,332,334,-1,328,334,326,-1,326,334,325,-1,315,317,342,-1,342,317,319,-1,342,319,340,-1,340,319,321,-1,340,321,323,-1,350,309,348,-1,348,309,308,-1,348,308,346,-1,346,308,344,-1,344,308,342,-1,342,308,313,-1,342,313,315,-1,341,339,324,-1,324,322,341,-1,341,322,320,-1,341,320,343,-1,343,320,318,-1,343,318,316,-1,331,329,333,-1,333,329,327,-1,333,327,335,-1,335,327,324,-1,335,324,337,-1,337,324,339,-1,311,351,310,-1,310,351,349,-1,349,347,310,-1,310,347,345,-1,310,345,312,-1,312,345,343,-1,312,343,314,-1,314,343,316,-1,
        ]
    }
}