#VRML V2.0 utf8
# 3D model generated by easyeda2kicad.py (https://github.com/uPesy/easyeda2kicad.py)

Shape{
    appearance Appearance {
        material  Material 	{
            diffuseColor 0.25098039215686274 0.25098039215686274 0.25098039215686274
            specularColor 0.12549019607843137 0.12549019607843137 0.12549019607843137
            ambientIntensity 0.251
            transparency 0.0
            shininess 0.5
        }
    }
    geometry IndexedFaceSet {
        ccw TRUE
        solid FALSE
        coord DEF co Coordinate {
            point [
                0.0704 2.1496 1.0868, 0.0704 2.1496 1.0339, -0.0581 2.1496 1.0339, 0.0704 2.1496 1.2985, 0.0704 2.1496 1.2594, -0.0581 2.1496 1.2594, -0.1091 2.1496 1.433, -0.1191 2.1496 1.4342, -0.0661 2.1496 1.4342, 2.0866 2.1496 0.2008, 1.4675 2.1496 0.2008, 1.4675 2.1496 1.0339, -0.204 2.1496 1.4177, -0.204 2.1496 1.375, -0.24 2.1496 1.375, -0.2121 2.1496 1.0874, -0.2067 2.1496 1.0868, -0.24 2.1496 1.0868, -0.3711 2.1496 1.206, -0.3711 2.1496 1.1633, -0.3961 2.1496 1.1633, 0.186 2.1496 1.329, 0.1603 2.1496 1.3072, 0.0704 2.1496 1.4342, 0.2912 2.1496 1.4342, 0.2702 2.1496 1.4195, 0.237 2.1496 1.3805, 0.2189 2.1496 1.3446, 0.2143 2.1496 1.343, 0.4855 2.1496 1.4485, 0.4414 2.1496 1.4642, 1.4675 2.1496 3.937, 0.0704 2.1496 3.937, 0.3536 2.1496 1.4633, 0.3066 2.1496 1.4449, 0.3992 2.1496 1.4689, 0.5092 2.1496 1.4342, 1.4675 2.1496 1.4342, 0.5131 2.1496 1.4319, 1.4675 2.1496 1.2985, 0.7169 2.1496 1.2985, 0.7086 2.1496 1.3173, 0.6858 2.1496 1.3465, 0.614 2.1496 1.3874, 0.5766 2.1496 1.392, 0.5354 2.1496 1.4128, 0.5657 2.1496 1.3914, 0.5548 2.1496 1.3901, 0.6793 2.1496 1.3526, 0.6492 2.1496 1.3738, 0.6611 2.1496 1.1098, 0.6905 2.1496 1.1349, 1.4675 2.1496 1.0868, 0.6268 2.1496 1.093, 0.7122 2.1496 1.1659, 0.7258 2.1496 1.2012, 1.4675 2.1496 1.2594, 0.7303 2.1496 1.2383, 0.7301 2.1496 1.2474, 0.7279 2.1496 1.2594, 0.7237 2.1496 1.2831, 0.6146 2.1496 1.0894, 0.6134 2.1496 1.0868, 0.6051 2.1496 1.069, 0.591 2.1496 1.0516, 0.0704 2.1496 0.2008, 0.5015 2.1496 1.0277, 0.5245 2.1496 1.0248, 0.5281 2.1496 1.0249, 0.5505 2.1496 1.0284, 0.5637 2.1496 1.0339, 0.5724 2.1496 1.0376, 0.4355 2.1496 1.0868, 0.4356 2.1496 1.0864, 0.4468 2.1496 1.0653, 0.4614 2.1496 1.0489, 0.4803 2.1496 1.0358, 0.4852 2.1496 1.0339, 0.1293 2.1496 1.2512, 0.125 2.1496 1.2203, 0.3144 2.1496 1.1428, 0.3079 2.1496 1.1453, 0.2967 2.1496 1.1994, 0.1601 2.1496 1.1302, 0.1859 2.1496 1.1083, 0.4533 2.1496 1.1833, 0.3262 2.1496 1.2497, 0.4699 2.1496 1.1984, 0.49 2.1496 1.2092, 0.3202 2.1496 1.1386, 0.1413 2.1496 1.1564, 0.1843 2.1496 1.2276, 0.1887 2.1496 1.2459, 0.196 2.1496 1.2594, 0.6682 2.1496 1.2594, 0.1294 2.1496 1.1864, 0.3005 2.1496 1.1463, 0.2996 2.1496 1.1462, 0.2968 2.1496 1.1456, 0.6626 2.1496 1.2024, 0.6513 2.1496 1.1831, 0.6032 2.1496 1.1733, 0.6343 2.1496 1.1657, 0.6136 2.1496 1.1529, 0.5681 2.1496 1.2047, 0.5875 2.1496 1.1913, 0.6706 2.1496 1.2402, 0.6694 2.1496 1.2256, 0.5471 2.1496 1.2128, 0.5245 2.1496 1.2155, 0.5129 2.1496 1.2149, 0.33 2.1496 1.1169, 0.3297 2.1496 1.1206, 0.4296 2.1496 1.1292, 0.3278 2.1496 1.1278, 0.3242 2.1496 1.1343, 0.2031 2.1496 1.1692, 0.1927 2.1496 1.184, 0.1861 2.1496 1.2009, 0.1838 2.1496 1.2193, 0.3078 2.1496 1.0883, 0.3141 2.1496 1.0908, 0.3202 2.1496 1.0952, 0.3224 2.1496 1.0974, 0.3266 2.1496 1.1034, 0.3291 2.1496 1.1098, 0.4301 2.1496 1.1099, 0.4296 2.1496 1.1197, 0.2149 2.1496 1.0941, 0.2465 2.1496 1.0875, 0.3024 2.1496 1.0875, 0.2948 2.1496 1.1453, 0.2521 2.1496 1.1453, 0.2351 2.1496 1.1486, 0.2184 2.1496 1.1563, 0.2044 2.1496 1.1678, 0.2654 2.1496 1.2933, 0.6596 2.1496 1.2843, 0.6677 2.1496 1.2632, 0.2578 2.1496 1.2933, 0.1976 2.1496 1.2622, 0.2085 2.1496 1.2745, 0.2232 2.1496 1.2847, 0.2398 2.1496 1.2911, 0.2859 2.1496 1.3503, 0.3073 2.1496 1.3759, 0.5254 2.1496 1.3209, 0.3097 2.1496 1.3781, 0.3363 2.1496 1.3966, 0.5109 2.1496 1.3509, 0.6498 2.1496 1.2985, 0.5322 2.1496 1.3246, 0.2666 2.1496 1.2985, 0.2712 2.1496 1.3197, 0.5535 2.1496 1.3323, 0.5757 2.1496 1.3351, 0.5855 2.1496 1.3346, 0.4896 2.1496 1.3763, 0.3661 2.1496 1.408, 0.4642 2.1496 1.3949, 0.3983 2.1496 1.4119, 0.4332 2.1496 1.4075, 0.609 2.1496 1.329, 0.6301 2.1496 1.3178, 0.6465 2.1496 1.3032, 0.154 2.1496 1.2985, 0.1409 2.1496 1.2802, 0.1326 2.1496 1.2594, -0.4226 2.1496 1.2214, -0.4226 2.1496 1.206, -0.4382 2.1496 1.2594, -0.4256 2.1496 1.1031, -0.4382 2.1496 1.0868, -0.4256 2.1496 1.0879, -0.3961 2.1496 1.0868, -0.3711 2.1496 1.1031, -0.3961 2.1496 1.1031, -0.3711 2.1496 1.148, -0.3961 2.1496 1.148, -0.4188 2.1496 1.148, -0.4188 2.1496 1.1633, -0.3961 2.1496 1.206, -0.3961 2.1496 1.0879, -0.3539 2.1496 1.0879, -0.3449 2.1496 1.0868, -0.3539 2.1496 1.2214, -0.1117 2.1496 1.0868, -0.1115 2.1496 1.0868, -0.1319 2.1496 1.0879, -0.0791 2.1496 1.1337, -0.0814 2.1496 1.1603, -0.0757 2.1496 1.129, -0.0733 2.1496 1.1231, -0.1486 2.1496 1.0879, -0.1713 2.1496 1.1085, -0.1486 2.1496 1.1493, -0.1713 2.1496 1.0913, -0.0923 2.1496 1.0868, -0.0859 2.1496 1.0892, -0.0661 2.1496 1.0868, -0.0749 2.1496 1.1002, -0.0729 2.1496 1.1058, -0.0973 2.1496 1.1834, -0.0661 2.1496 1.2594, -0.0848 2.1496 1.1785, -0.0814 2.1496 1.1765, -0.0844 2.1496 1.1381, -0.0918 2.1496 1.1417, -0.091 2.1496 1.1667, -0.1037 2.1496 1.1445, -0.1183 2.1496 1.1712, -0.1126 2.1496 1.1718, -0.1015 2.1496 1.1705, -0.1319 2.1496 1.1027, -0.1315 2.1496 1.1027, -0.1274 2.1496 1.0968, -0.0802 2.1496 1.0932, -0.0784 2.1496 1.095, -0.1219 2.1496 1.0917, -0.1183 2.1496 1.0894, -0.0721 2.1496 1.1134, -0.0721 2.1496 1.1161, -0.1781 2.1496 1.1043, -0.179 2.1496 1.104, -0.179 2.1496 1.1395, -0.1721 2.1496 1.1635, -0.174 2.1496 1.1689, -0.1415 2.1496 1.1747, -0.1142 2.1496 1.1854, -0.1247 2.1496 1.1844, -0.1316 2.1496 1.1822, -0.1319 2.1496 1.1485, -0.1313 2.1496 1.1559, -0.1296 2.1496 1.1618, -0.1277 2.1496 1.1653, -0.1475 2.1496 1.1614, -0.1721 2.1496 1.151, -0.1449 2.1496 1.1692, -0.1714 2.1496 1.1575, -0.1251 2.1496 1.168, -0.1222 2.1496 1.1699, -0.1789 2.1496 1.1396, -0.1761 2.1496 1.1424, -0.174 2.1496 1.1459, -0.179 2.1496 1.0884, -0.179 2.1496 1.0868, -0.1813 2.1496 1.0875, -0.1877 2.1496 1.0868, -0.2311 2.1496 1.1812, -0.2311 2.1496 1.1649, -0.1771 2.1496 1.1734, -0.179 2.1496 1.1751, -0.179 2.1496 1.2594, -0.1821 2.1496 1.1778, -0.1877 2.1496 1.1811, -0.2349 2.1496 1.1071, -0.2328 2.1496 1.1018, -0.2297 2.1496 1.0974, -0.197 2.1496 1.1842, -0.2085 2.1496 1.1854, -0.24 2.1496 1.2594, -0.2202 2.1496 1.1844, -0.2301 2.1496 1.1296, -0.2332 2.1496 1.125, -0.235 2.1496 1.1201, -0.2357 2.1496 1.1138, -0.2249 2.1496 1.0932, -0.221 2.1496 1.0908, -0.2069 2.1496 1.1718, -0.2019 2.1496 1.1715, -0.1886 2.1496 1.159, -0.1975 2.1496 1.1703, -0.1937 2.1496 1.1683, -0.1888 2.1496 1.1568, -0.1894 2.1496 1.1542, -0.1906 2.1496 1.1519, -0.1923 2.1496 1.1501, -0.1982 2.1496 1.1465, -0.2174 2.1496 1.1707, -0.2085 2.1496 1.142, -0.2269 2.1496 1.1673, -0.215 2.1496 1.1393, -0.2261 2.1496 1.1332, -0.1912 2.1496 1.1661, -0.1897 2.1496 1.1639, -0.1889 2.1496 1.1617, -0.1886 2.1496 1.1005, -0.1967 2.1496 1.1298, -0.1867 2.1496 1.1344, -0.1988 2.1496 1.0993, -0.1995 2.1496 1.0993, -0.2077 2.1496 1.1252, -0.2081 2.1496 1.1003, -0.2185 2.1496 1.1122, -0.2183 2.1496 1.1143, -0.2124 2.1496 1.1019, -0.2139 2.1496 1.1028, -0.2158 2.1496 1.1045, -0.2173 2.1496 1.1066, -0.2182 2.1496 1.109, -0.2176 2.1496 1.1169, -0.2163 2.1496 1.1191, -0.2142 2.1496 1.1213, -0.4872 2.1496 1.3361, -0.4382 2.1496 1.3361, -0.5008 2.1496 1.2996, -0.4382 2.1496 1.2985, -0.5199 2.1496 1.2996, -2.2047 2.1496 1.2985, -2.2047 2.1496 1.4342, -0.469 2.1496 1.4331, -0.4382 2.1496 1.4342, -0.4316 2.1496 1.3361, -0.4188 2.1496 1.2996, -0.3961 2.1496 1.2985, -0.3998 2.1496 1.2996, -0.3961 2.1496 1.4342, -0.4382 2.1496 1.4006, -0.4506 2.1496 1.4331, -0.3449 2.1496 1.2985, -0.3431 2.1496 1.3024, -0.3204 2.1496 1.2996, -0.3218 2.1496 1.4331, -0.3449 2.1496 1.4342, -0.2711 2.1496 1.4342, -0.2711 2.1496 1.2985, -0.2837 2.1496 1.2996, -0.2837 2.1496 1.4331, -0.3887 2.1496 1.3439, -0.3822 2.1496 1.3301, -0.377 2.1496 1.4108, -0.3852 2.1496 1.3992, -0.3722 2.1496 1.3183, -0.3583 2.1496 1.3083, -0.3449 2.1496 1.3031, -0.3722 2.1496 1.4154, -0.3422 2.1496 1.4308, -0.3449 2.1496 1.4298, -0.3583 2.1496 1.4249, -0.3902 2.1496 1.3864, -0.3924 2.1496 1.3681, -0.392 2.1496 1.3595, -0.24 2.1496 1.4342, -0.2555 2.1496 1.4331, -0.24 2.1496 1.4331, -0.204 2.1496 1.3148, -0.24 2.1496 1.3148, -0.204 2.1496 1.3597, -0.24 2.1496 1.3597, -0.2517 2.1496 1.3597, -0.2585 2.1496 1.3148, -0.2517 2.1496 1.375, -0.2555 2.1496 1.4177, -0.24 2.1496 1.4177, -0.1867 2.1496 1.2996, -0.179 2.1496 1.2985, -0.24 2.1496 1.2985, -0.2585 2.1496 1.2996, -0.24 2.1496 1.2996, -0.1867 2.1496 1.4331, -0.179 2.1496 1.4342, -2.0866 2.1496 0.0, -2.2047 2.1496 0.0, -2.0866 2.1496 0.2008, -2.2047 2.1496 1.0339, -0.4382 2.1496 0.2008, -0.1427 2.1496 1.4342, -0.1459 2.1496 1.4339, -0.16 2.1496 1.4299, -0.16 2.1496 1.4119, -0.16 2.1496 1.3217, -0.16 2.1496 1.3051, -0.1578 2.1496 1.304, -0.1434 2.1496 1.2993, -0.1349 2.1496 1.2985, -0.145 2.1496 1.4178, -0.1286 2.1496 1.4198, -0.1585 2.1496 1.4127, -0.1221 2.1496 1.4194, -0.1107 2.1496 1.4169, -0.1003 2.1496 1.4118, -0.0804 2.1496 1.3832, -0.0782 2.1496 1.3648, -0.1256 2.1496 1.3127, -0.0922 2.1496 1.405, -0.0913 2.1496 1.404, -0.1469 2.1496 1.3158, -0.1318 2.1496 1.313, -0.0849 2.1496 1.3947, -0.0784 2.1496 1.3586, -0.0808 2.1496 1.3455, -0.0853 2.1496 1.335, -0.0913 2.1496 1.3268, -0.0952 2.1496 1.3231, -0.1141 2.1496 1.3139, -0.1042 2.1496 1.3172, -0.1284 2.1496 1.4353, -0.0661 2.1496 3.937, -0.179 2.1496 3.937, -0.0697 2.1496 1.403, -0.0794 2.1496 1.4157, -0.0827 2.1496 1.4188, -0.0952 2.1496 1.4276, -0.0661 2.1496 1.3335, -0.0627 2.1496 1.3421, -0.0581 2.1496 1.2985, -0.0601 2.1496 1.3638, -0.0604 2.1496 1.3708, -0.0581 2.1496 1.4342, -0.0634 2.1496 1.3882, -0.0661 2.1496 1.3945, -0.088 2.1496 1.3067, -0.0772 2.1496 1.3156, -0.0661 2.1496 1.2985, -0.0761 2.1496 1.3168, -0.0682 2.1496 1.3282, -0.1231 2.1496 1.2974, -0.115 2.1496 1.2978, -0.1114 2.1496 1.2985, -0.1006 2.1496 1.3007, -0.1371 2.1496 1.179, -0.1971 2.1496 1.0857, -0.179 2.1496 1.0339, -0.0661 2.1496 1.0339, -0.0926 2.1496 1.0868, -0.1023 2.1496 1.0857, -0.3185 2.1496 1.1832, -0.3359 2.1496 1.1832, -0.3449 2.1496 1.2594, -0.3961 2.1496 1.2214, -0.3961 2.1496 1.2594, -0.2978 2.1496 1.0868, -0.288 2.1496 1.1116, -0.29 2.1496 1.1037, -0.2904 2.1496 1.1037, -0.2711 2.1496 1.2594, -0.2711 2.1496 1.16, -0.2925 2.1496 1.1115, -0.2912 2.1496 1.107, -0.2711 2.1496 1.0868, -0.2711 2.1496 1.1152, -0.2444 2.1496 1.1832, -0.2631 2.1496 1.1832, -0.2817 2.1496 1.0881, -0.2812 2.1496 1.0868, -0.2744 2.1496 1.0708, -0.24 2.1496 1.0339, -0.2478 2.1496 1.0444, -0.2478 2.1496 1.0593, -0.268 2.1496 1.0612, -0.2711 2.1496 1.0647, -0.2711 2.1496 1.0648, -0.2512 2.1496 1.0581, -0.2573 2.1496 1.0574, -0.2711 2.1496 1.046, -0.2653 2.1496 1.0438, -0.2711 2.1496 1.0339, -0.2586 2.1496 1.043, -0.2549 2.1496 1.0432, -0.2615 2.1496 1.0579, -0.2652 2.1496 1.0593, -0.2926 2.1496 1.0735, -0.285 2.1496 1.0588, -0.3449 2.1496 1.0339, -0.2789 2.1496 1.0514, -0.2778 2.1496 1.0504, -0.2719 2.1496 1.0463, 2.2047 2.1496 3.937, 2.2047 2.1496 1.4342, 2.2047 2.1496 1.2985, 2.2047 2.1496 1.2594, 2.2047 2.1496 1.0868, 2.2047 2.1496 1.0339, 2.2047 2.1496 0.0, 2.0866 2.1496 0.0, -0.0547 2.1496 1.3148, -0.0547 2.1496 1.2996, 0.0157 2.1496 1.2996, -0.0015 2.1496 1.4331, -0.0015 2.1496 1.3148, 0.0157 2.1496 1.4331, -0.0581 2.1496 1.0868, -0.0561 2.1496 1.0879, 0.0157 2.1496 1.0879, -0.0561 2.1496 1.1031, -0.053 2.1496 1.206, -0.0015 2.1496 1.148, -0.0015 2.1496 1.1031, -0.0492 2.1496 1.148, -0.0492 2.1496 1.1633, -0.0015 2.1496 1.1633, -0.0015 2.1496 1.206, 0.0157 2.1496 1.2214, -0.053 2.1496 1.2214, -0.0581 2.1496 3.937, -0.3961 2.1496 1.0339, -0.4382 2.1496 1.0339, -0.24 2.1496 3.937, -0.2711 2.1496 3.937, -0.3449 2.1496 3.937, -0.3961 2.1496 3.937, -0.4382 2.1496 3.937, -2.2047 2.1496 3.937, -0.5859 2.1496 1.0879, -0.5669 2.1496 1.0879, -0.6679 2.1496 1.0879, -0.6543 2.1496 1.1244, -0.5988 2.1496 1.1244, -0.687 2.1496 1.0879, -2.2047 2.1496 1.0868, -2.2047 2.1496 1.2594, -0.6361 2.1496 1.2214, -0.5559 2.1496 1.1322, -0.5591 2.1496 1.1478, -0.6177 2.1496 1.2214, -0.5595 2.1496 1.1563, -0.5573 2.1496 1.1747, -0.5493 2.1496 1.1184, -0.5394 2.1496 1.1066, -0.5254 2.1496 1.0966, -0.4508 2.1496 1.2214, -0.4508 2.1496 1.0879, -0.4876 2.1496 1.0879, -0.5102 2.1496 1.0907, -0.5394 2.1496 1.2037, -0.5441 2.1496 1.1991, -0.5523 2.1496 1.1875, -0.4889 2.1496 1.2214, -0.5093 2.1496 1.2191, -0.5254 2.1496 1.2132, -0.3961 2.1496 0.2008, -0.3449 2.1496 0.2008, -0.2711 2.1496 0.2008, -0.24 2.1496 0.2008, -0.179 2.1496 0.2008, -0.0661 2.1496 0.2008, -0.0581 2.1496 0.2008, -0.9016 0.063 0.2008, -2.0866 -0.8031 0.2008, -0.0984 -0.0551 0.2008, 0.0984 -0.0551 0.2008, -1.0984 0.063 0.2008, -1.0984 -0.0551 0.2008, -0.9016 -0.0551 0.2008, -0.0984 0.063 0.2008, 0.9016 0.063 0.2008, 1.0984 0.063 0.2008, 1.0984 -0.0551 0.2008, 2.0866 -0.8031 0.2008, 0.9016 -0.0551 0.2008, 0.0984 0.063 0.2008, 2.2047 -0.8031 0.0, 2.0866 -0.8031 0.0, 2.2835 2.0709 0.0, 2.2835 -0.7244 0.0, 2.2251 -0.8005 0.0, 2.2729 -0.7638 0.0, 2.2604 -0.7801 0.0, 2.2441 -0.7926 0.0, 2.2604 2.1265 0.0, 2.2729 2.1102 0.0, 2.2441 2.1391 0.0, 2.2251 2.1469 0.0, 2.2808 2.0912 0.0, 2.2808 -0.7448 0.0, -2.2835 -0.7244 3.937, -2.2835 2.0709 3.937, -2.2835 -0.7244 0.0, -2.2835 2.0709 0.0, -2.2047 -0.8031 3.937, -2.2047 -0.8031 0.0, -2.0866 -0.8031 0.0, -1.7181 -0.8031 0.5098, -1.7697 -0.8031 0.5312, 2.2047 -0.8031 3.937, -1.4487 -0.8031 0.7166, -1.456 -0.8031 0.6612, -1.4774 -0.8031 0.6096, -1.5114 -0.8031 0.5652, -1.8141 -0.8031 0.5652, -1.8481 -0.8031 0.6096, -1.8695 -0.8031 0.6612, -1.5557 -0.8031 0.5312, -1.6073 -0.8031 0.5098, -1.6627 -0.8031 0.5025, -1.8767 -0.8031 0.7166, -1.8695 -0.8031 0.772, -1.8481 -0.8031 0.8236, -1.8141 -0.8031 0.8679, -1.7697 -0.8031 0.9019, -1.7181 -0.8031 0.9233, -1.5557 -0.8031 0.9019, -1.6073 -0.8031 0.9233, -1.6627 -0.8031 0.9306, -1.5114 -0.8031 0.8679, -1.4774 -0.8031 0.8236, -1.456 -0.8031 0.772, 2.2835 -0.7244 3.937, 2.2835 2.0709 3.937, -2.2047 2.0709 4.0158, -2.2047 -0.7244 4.0158, 2.2047 2.0709 4.0158, 2.2047 -0.7244 4.0158, -2.2251 2.1469 0.0, -2.2729 2.1102 0.0, -2.2604 2.1265 0.0, -2.2441 2.1391 0.0, -2.2604 -0.7801 0.0, -2.2729 -0.7638 0.0, -2.2441 -0.7926 0.0, -2.2251 -0.8005 0.0, -2.2808 -0.7448 0.0, -2.2808 2.0912 0.0
            ]
        }
        coordIndex [
            0,1,2,-1,3,4,5,-1,6,7,8,-1,9,10,11,-1,12,13,14,-1,15,16,17,-1,18,19,20,-1,21,22,23,-1,23,22,3,-1,24,25,23,-1,23,25,26,-1,26,27,23,-1,23,27,28,-1,23,28,21,-1,29,30,31,-1,32,33,34,-1,31,30,32,-1,32,30,35,-1,32,35,33,-1,29,31,36,-1,36,31,37,-1,36,37,38,-1,39,40,37,-1,37,40,41,-1,37,41,42,-1,37,43,38,-1,38,43,44,-1,38,44,45,-1,45,44,46,-1,45,46,47,-1,42,48,37,-1,37,48,49,-1,37,49,43,-1,50,51,52,-1,50,52,53,-1,51,54,52,-1,52,54,55,-1,52,55,56,-1,56,55,57,-1,57,58,56,-1,56,58,59,-1,56,59,39,-1,39,59,60,-1,39,60,40,-1,61,53,62,-1,62,53,52,-1,62,52,63,-1,63,52,64,-1,65,66,67,-1,65,67,10,-1,67,68,10,-1,10,68,69,-1,10,69,11,-1,11,69,70,-1,11,70,52,-1,52,70,71,-1,52,71,64,-1,0,72,1,-1,1,72,73,-1,1,73,74,-1,74,75,1,-1,1,75,76,-1,1,76,77,-1,78,79,4,-1,80,81,82,-1,83,84,0,-1,85,86,87,-1,87,86,88,-1,80,82,89,-1,83,0,90,-1,91,92,86,-1,86,92,93,-1,86,93,94,-1,4,79,0,-1,0,79,95,-1,0,95,90,-1,81,96,82,-1,82,96,97,-1,82,97,98,-1,99,100,101,-1,101,100,102,-1,101,102,103,-1,104,94,105,-1,105,94,106,-1,105,106,101,-1,101,106,107,-1,101,107,99,-1,104,108,94,-1,94,108,109,-1,94,109,86,-1,86,109,110,-1,86,110,88,-1,111,112,113,-1,113,112,114,-1,113,114,82,-1,82,114,115,-1,82,115,89,-1,116,117,82,-1,82,117,118,-1,82,118,86,-1,86,118,119,-1,86,119,91,-1,120,121,72,-1,72,121,122,-1,72,122,123,-1,123,124,72,-1,72,124,125,-1,72,125,126,-1,126,125,111,-1,126,111,127,-1,127,111,113,-1,84,128,0,-1,0,128,129,-1,0,129,72,-1,72,129,130,-1,72,130,120,-1,98,131,82,-1,82,131,132,-1,82,132,133,-1,133,134,82,-1,82,134,135,-1,82,135,116,-1,136,137,138,-1,138,94,136,-1,136,94,93,-1,136,93,139,-1,139,93,140,-1,140,141,139,-1,139,141,142,-1,139,142,143,-1,144,145,146,-1,145,147,146,-1,146,147,148,-1,146,148,149,-1,150,146,151,-1,137,136,150,-1,150,136,152,-1,150,152,146,-1,146,152,153,-1,146,153,144,-1,151,154,150,-1,150,154,155,-1,150,155,156,-1,149,148,157,-1,157,148,158,-1,157,158,159,-1,159,158,160,-1,159,160,161,-1,162,163,156,-1,156,163,164,-1,156,164,150,-1,22,165,3,-1,3,165,166,-1,3,166,4,-1,4,166,167,-1,4,167,78,-1,168,169,170,-1,170,169,171,-1,170,171,172,-1,172,171,173,-1,172,173,174,-1,175,176,177,-1,177,176,178,-1,178,176,179,-1,179,176,171,-1,179,171,180,-1,180,171,169,-1,180,169,20,-1,20,169,181,-1,20,181,18,-1,173,182,174,-1,174,182,183,-1,174,183,184,-1,184,183,185,-1,186,187,188,-1,189,190,191,-1,191,190,192,-1,188,187,193,-1,194,195,196,-1,196,195,193,-1,197,198,199,-1,199,200,201,-1,202,203,204,-1,204,203,205,-1,189,206,190,-1,190,206,207,-1,190,207,208,-1,208,207,209,-1,210,211,209,-1,209,211,212,-1,209,212,208,-1,213,214,188,-1,188,214,215,-1,198,216,199,-1,199,216,217,-1,199,217,200,-1,215,218,188,-1,188,218,219,-1,188,219,186,-1,201,220,199,-1,199,220,221,-1,199,221,203,-1,203,221,192,-1,203,192,205,-1,205,192,190,-1,222,223,224,-1,225,226,227,-1,202,228,203,-1,203,228,229,-1,203,229,230,-1,231,232,209,-1,209,232,233,-1,209,233,234,-1,235,195,236,-1,222,224,194,-1,227,237,225,-1,225,237,235,-1,225,235,238,-1,238,235,236,-1,234,239,209,-1,209,239,240,-1,209,240,210,-1,224,241,194,-1,194,241,242,-1,194,242,195,-1,195,242,243,-1,195,243,236,-1,244,245,246,-1,246,245,247,-1,248,249,17,-1,250,251,252,-1,252,251,253,-1,252,253,254,-1,255,256,17,-1,17,256,257,-1,254,258,252,-1,252,258,259,-1,252,259,260,-1,260,259,261,-1,260,261,248,-1,262,263,249,-1,249,263,264,-1,249,264,17,-1,17,264,265,-1,17,265,255,-1,257,266,17,-1,17,266,267,-1,17,267,15,-1,268,269,270,-1,270,269,271,-1,270,271,272,-1,270,273,268,-1,268,273,274,-1,268,274,275,-1,275,276,268,-1,268,276,277,-1,268,277,278,-1,278,277,279,-1,278,279,280,-1,280,279,281,-1,280,281,249,-1,249,281,282,-1,249,282,262,-1,283,284,272,-1,272,284,285,-1,272,285,270,-1,286,287,223,-1,223,287,288,-1,223,288,224,-1,286,289,287,-1,287,289,290,-1,287,290,291,-1,291,290,292,-1,291,293,294,-1,292,295,291,-1,291,295,296,-1,291,296,297,-1,297,298,291,-1,291,298,299,-1,291,299,293,-1,294,300,291,-1,291,300,301,-1,291,301,302,-1,303,304,305,-1,305,304,306,-1,305,306,307,-1,308,309,310,-1,310,309,311,-1,304,312,306,-1,306,312,313,-1,306,313,314,-1,314,313,315,-1,314,315,316,-1,316,315,317,-1,316,317,311,-1,311,317,318,-1,311,318,310,-1,319,320,321,-1,322,323,324,-1,319,321,325,-1,325,321,326,-1,325,326,324,-1,324,326,327,-1,324,327,322,-1,328,329,314,-1,330,331,316,-1,329,332,314,-1,314,332,333,-1,314,333,319,-1,319,333,334,-1,319,334,320,-1,330,316,335,-1,322,336,323,-1,323,336,337,-1,323,337,316,-1,316,337,338,-1,316,338,335,-1,331,339,316,-1,316,339,340,-1,316,340,314,-1,314,340,341,-1,314,341,328,-1,324,342,343,-1,343,342,344,-1,345,346,347,-1,347,346,348,-1,348,346,349,-1,349,346,350,-1,349,350,351,-1,351,350,352,-1,351,352,14,-1,14,352,353,-1,14,353,12,-1,354,355,356,-1,343,352,324,-1,324,352,350,-1,324,350,325,-1,325,350,357,-1,325,357,356,-1,356,357,358,-1,356,358,354,-1,344,342,359,-1,359,342,360,-1,359,360,354,-1,361,362,363,-1,363,362,364,-1,363,364,365,-1,366,367,360,-1,360,367,368,-1,360,368,369,-1,370,371,355,-1,371,372,355,-1,355,372,373,-1,355,373,374,-1,375,376,370,-1,354,360,355,-1,355,360,369,-1,355,369,370,-1,370,369,377,-1,370,377,375,-1,376,378,370,-1,370,378,379,-1,370,379,380,-1,381,382,383,-1,380,384,370,-1,370,384,385,-1,370,385,386,-1,386,385,387,-1,387,385,383,-1,383,385,388,-1,383,388,381,-1,382,389,383,-1,383,389,390,-1,383,390,391,-1,391,392,383,-1,383,392,393,-1,383,393,394,-1,394,393,395,-1,7,396,397,-1,397,396,366,-1,397,366,398,-1,8,399,400,-1,400,401,8,-1,8,401,402,-1,8,402,6,-1,403,404,405,-1,406,407,408,-1,408,407,409,-1,408,409,8,-1,8,409,410,-1,8,410,399,-1,411,412,413,-1,413,412,414,-1,413,414,415,-1,416,417,203,-1,203,417,418,-1,203,418,413,-1,413,418,419,-1,413,419,411,-1,374,416,252,-1,252,416,203,-1,252,203,250,-1,250,203,230,-1,250,230,226,-1,226,230,420,-1,226,420,227,-1,421,247,422,-1,422,247,245,-1,422,245,423,-1,197,199,424,-1,424,199,423,-1,424,423,425,-1,425,423,187,-1,187,423,245,-1,187,245,193,-1,193,245,244,-1,193,244,196,-1,426,427,428,-1,168,170,429,-1,429,170,430,-1,429,430,185,-1,185,430,428,-1,185,428,184,-1,184,428,427,-1,184,427,431,-1,432,433,434,-1,428,435,426,-1,426,435,436,-1,426,436,437,-1,437,436,432,-1,437,432,438,-1,438,432,434,-1,439,440,17,-1,17,440,441,-1,248,17,260,-1,260,17,441,-1,260,441,435,-1,435,441,442,-1,435,442,436,-1,443,440,444,-1,444,440,439,-1,444,439,445,-1,446,447,448,-1,449,450,439,-1,439,450,451,-1,439,451,445,-1,421,422,16,-1,16,422,446,-1,16,446,17,-1,17,446,448,-1,17,448,439,-1,439,448,452,-1,439,452,453,-1,454,455,456,-1,456,455,457,-1,456,457,446,-1,446,457,458,-1,446,458,447,-1,453,459,439,-1,439,459,460,-1,439,460,449,-1,461,462,463,-1,461,463,431,-1,462,464,463,-1,463,464,465,-1,463,465,456,-1,456,465,466,-1,456,466,454,-1,31,467,37,-1,37,467,468,-1,37,468,39,-1,39,468,469,-1,39,469,56,-1,56,469,470,-1,56,470,52,-1,52,470,471,-1,52,471,11,-1,11,471,472,-1,11,472,9,-1,9,472,473,-1,9,473,474,-1,475,476,405,-1,405,476,477,-1,478,408,23,-1,404,406,405,-1,405,406,408,-1,405,408,475,-1,475,408,478,-1,475,478,479,-1,5,405,3,-1,3,405,477,-1,3,477,23,-1,23,477,480,-1,23,480,478,-1,481,482,483,-1,482,481,484,-1,484,481,5,-1,484,5,485,-1,486,487,488,-1,488,487,484,-1,488,484,489,-1,489,484,485,-1,489,485,490,-1,490,485,491,-1,2,481,0,-1,0,481,483,-1,0,483,4,-1,4,483,492,-1,4,492,5,-1,5,492,493,-1,5,493,485,-1,7,397,8,-1,8,397,494,-1,8,494,408,-1,408,494,32,-1,408,32,23,-1,23,32,34,-1,23,34,24,-1,2,423,481,-1,481,423,199,-1,481,199,5,-1,5,199,203,-1,5,203,405,-1,405,203,413,-1,405,413,403,-1,403,413,415,-1,374,252,355,-1,355,252,260,-1,355,260,356,-1,356,260,435,-1,356,435,325,-1,325,435,428,-1,325,428,319,-1,319,428,430,-1,319,430,314,-1,314,430,170,-1,314,170,306,-1,431,463,184,-1,184,463,495,-1,184,495,174,-1,174,495,496,-1,174,496,172,-1,366,360,398,-1,398,360,342,-1,398,342,497,-1,497,342,324,-1,497,324,498,-1,498,324,323,-1,498,323,499,-1,499,323,316,-1,499,316,500,-1,500,316,311,-1,500,311,501,-1,501,311,309,-1,501,309,502,-1,503,504,172,-1,505,506,507,-1,507,503,505,-1,505,503,172,-1,505,172,508,-1,509,510,511,-1,512,504,513,-1,513,504,514,-1,513,514,515,-1,515,514,516,-1,512,517,504,-1,504,517,518,-1,504,518,519,-1,520,170,521,-1,521,170,172,-1,521,172,522,-1,522,172,504,-1,522,504,523,-1,523,504,519,-1,310,307,308,-1,308,307,306,-1,308,306,510,-1,510,306,170,-1,510,170,511,-1,511,170,514,-1,524,525,514,-1,514,525,526,-1,514,526,516,-1,520,527,170,-1,170,527,528,-1,170,528,514,-1,514,528,529,-1,514,529,524,-1,511,508,509,-1,509,508,172,-1,509,172,364,-1,364,172,496,-1,364,496,365,-1,365,496,495,-1,365,495,530,-1,530,495,463,-1,530,463,531,-1,531,463,456,-1,531,456,532,-1,532,456,446,-1,532,446,533,-1,533,446,422,-1,533,422,534,-1,534,422,423,-1,534,423,535,-1,535,423,2,-1,535,2,536,-1,536,2,1,-1,536,1,65,-1,65,1,77,-1,65,77,66,-1,65,10,537,-1,538,539,540,-1,541,542,538,-1,538,542,543,-1,538,543,539,-1,539,543,544,-1,545,10,546,-1,546,10,9,-1,546,9,547,-1,547,9,548,-1,547,548,549,-1,548,538,549,-1,549,538,540,-1,549,540,545,-1,545,540,550,-1,545,550,10,-1,10,550,544,-1,10,544,537,-1,537,544,543,-1,534,535,537,-1,537,535,536,-1,537,536,65,-1,531,532,537,-1,537,532,533,-1,537,533,534,-1,538,363,541,-1,541,363,365,-1,541,365,537,-1,537,365,530,-1,537,530,531,-1,551,552,474,-1,474,553,551,-1,551,553,554,-1,551,554,555,-1,556,557,558,-1,559,560,561,-1,561,560,562,-1,474,473,553,-1,553,473,562,-1,553,562,563,-1,563,562,560,-1,555,554,558,-1,558,554,564,-1,558,564,556,-1,565,566,567,-1,567,566,568,-1,569,570,538,-1,538,570,571,-1,572,573,538,-1,552,551,548,-1,548,551,574,-1,575,576,548,-1,548,576,577,-1,548,577,578,-1,573,579,538,-1,538,579,580,-1,538,580,581,-1,578,582,548,-1,548,582,583,-1,548,583,538,-1,538,583,584,-1,538,584,572,-1,581,585,538,-1,538,585,586,-1,538,586,569,-1,569,586,587,-1,587,588,569,-1,569,588,589,-1,569,589,590,-1,591,574,592,-1,592,574,569,-1,592,569,593,-1,593,569,590,-1,591,594,574,-1,574,594,595,-1,574,595,548,-1,548,595,596,-1,548,596,575,-1,554,553,597,-1,597,553,598,-1,599,600,601,-1,601,600,602,-1,362,361,571,-1,571,567,362,-1,362,567,568,-1,362,568,603,-1,604,605,606,-1,607,608,609,-1,609,608,610,-1,571,570,567,-1,567,570,610,-1,567,610,611,-1,611,610,608,-1,603,568,606,-1,606,568,612,-1,606,612,604,-1,548,9,552,-1,552,9,474,-1,363,538,361,-1,361,538,571,-1,
        ]
    }
}
Shape{
    appearance Appearance {
        material  Material 	{
            diffuseColor 0.5019607843137255 0.5019607843137255 0.5019607843137255
            specularColor 0.25098039215686274 0.25098039215686274 0.25098039215686274
            ambientIntensity 0.502
            transparency 0.0
            shininess 0.5
        }
    }
    geometry IndexedFaceSet {
        ccw TRUE
        solid FALSE
        coord DEF co Coordinate {
            point [
                -1.6627 -0.8028 0.9306, -1.6627 -0.8031 0.9306, -1.7181 -0.8028 0.9233, -1.7181 -0.8031 0.9233, -1.7697 -0.8028 0.9019, -1.7697 -0.8031 0.9019, -1.8141 -0.8028 0.8679, -1.8141 -0.8031 0.8679, -1.8481 -0.8028 0.8236, -1.8481 -0.8031 0.8236, -1.8695 -0.8028 0.772, -1.8695 -0.8031 0.772, -1.8767 -0.8028 0.7166, -1.8767 -0.8031 0.7166, -1.8695 -0.8028 0.6612, -1.8695 -0.8031 0.6612, -1.8481 -0.8028 0.6096, -1.8481 -0.8031 0.6096, -1.8141 -0.8028 0.5652, -1.8141 -0.8031 0.5652, -1.7697 -0.8028 0.5312, -1.7697 -0.8031 0.5312, -1.7181 -0.8028 0.5098, -1.7181 -0.8031 0.5098, -1.6627 -0.8028 0.5025, -1.6627 -0.8031 0.5025, -1.6073 -0.8028 0.5098, -1.6073 -0.8031 0.5098, -1.5557 -0.8028 0.5312, -1.5557 -0.8031 0.5312, -1.5114 -0.8028 0.5652, -1.5114 -0.8031 0.5652, -1.4774 -0.8028 0.6096, -1.4774 -0.8031 0.6096, -1.456 -0.8028 0.6612, -1.456 -0.8031 0.6612, -1.4487 -0.8028 0.7166, -1.4487 -0.8031 0.7166, -1.456 -0.8028 0.772, -1.456 -0.8031 0.772, -1.4774 -0.8028 0.8236, -1.4774 -0.8031 0.8236, -1.5114 -0.8028 0.8679, -1.5114 -0.8031 0.8679, -1.5557 -0.8028 0.9019, -1.5557 -0.8031 0.9019, -1.6073 -0.8028 0.9233, -1.6073 -0.8031 0.9233, -1.6627 -0.8028 0.7166
            ]
        }
        coordIndex [
            0,1,2,-1,2,1,3,-1,2,3,4,-1,4,3,5,-1,4,5,6,-1,6,5,7,-1,6,7,8,-1,8,7,9,-1,8,9,10,-1,10,9,11,-1,10,11,12,-1,12,11,13,-1,12,13,14,-1,14,13,15,-1,14,15,16,-1,16,15,17,-1,16,17,18,-1,18,17,19,-1,18,19,20,-1,20,19,21,-1,20,21,22,-1,22,21,23,-1,22,23,24,-1,24,23,25,-1,24,25,26,-1,26,25,27,-1,26,27,28,-1,28,27,29,-1,28,29,30,-1,30,29,31,-1,30,31,32,-1,32,31,33,-1,32,33,34,-1,34,33,35,-1,34,35,36,-1,36,35,37,-1,36,37,38,-1,38,37,39,-1,38,39,40,-1,40,39,41,-1,40,41,42,-1,42,41,43,-1,42,43,44,-1,44,43,45,-1,44,45,46,-1,46,45,47,-1,46,47,0,-1,0,47,1,-1,20,22,48,-1,48,22,24,-1,48,24,26,-1,14,16,48,-1,48,16,18,-1,48,18,20,-1,8,10,48,-1,48,10,12,-1,48,12,14,-1,2,4,48,-1,48,4,6,-1,48,6,8,-1,44,46,48,-1,48,46,0,-1,48,0,2,-1,38,40,48,-1,48,40,42,-1,48,42,44,-1,32,34,48,-1,48,34,36,-1,48,36,38,-1,26,28,48,-1,48,28,30,-1,48,30,32,-1,
        ]
    }
}
Shape{
    appearance Appearance {
        material  Material 	{
            diffuseColor 1.0 1.0 1.0
            specularColor 0.5019607843137255 0.5019607843137255 0.5019607843137255
            ambientIntensity 1.0
            transparency 0.0
            shininess 0.5
        }
    }
    geometry IndexedFaceSet {
        ccw TRUE
        solid FALSE
        coord DEF co Coordinate {
            point [
                1.0984 0.063 -1.6142, 1.0984 0.063 0.2008, 1.0984 -0.0551 -1.6142, 1.0984 -0.0551 0.2008, 0.9016 -0.0551 -1.6142, 0.9016 -0.0551 0.2008, 0.9016 0.063 0.2008, 0.9016 0.063 -1.6142, 0.0984 -0.0551 -1.6142, 0.0984 -0.0551 0.2008, -0.0984 -0.0551 -1.6142, -0.0984 -0.0551 0.2008, 0.0984 0.063 -1.6142, 0.0984 0.063 0.2008, -0.0984 0.063 0.2008, -0.0984 0.063 -1.6142, -0.9016 0.063 -1.6142, -0.9016 0.063 0.2008, -0.9016 -0.0551 -1.6142, -0.9016 -0.0551 0.2008, -1.0984 -0.0551 -1.6142, -1.0984 -0.0551 0.2008, -1.0984 0.063 0.2008, -1.0984 0.063 -1.6142
            ]
        }
        coordIndex [
            0,1,2,-1,2,1,3,-1,2,3,4,-1,4,3,5,-1,5,6,4,-1,4,6,7,-1,6,1,7,-1,7,1,0,-1,7,0,4,-1,4,0,2,-1,8,9,10,-1,10,9,11,-1,12,13,8,-1,8,13,9,-1,14,13,15,-1,15,13,12,-1,11,14,10,-1,10,14,15,-1,12,8,15,-1,15,8,10,-1,16,17,18,-1,18,17,19,-1,18,19,20,-1,20,19,21,-1,21,22,20,-1,20,22,23,-1,22,17,23,-1,23,17,16,-1,23,16,20,-1,20,16,18,-1,
        ]
    }
}
Shape{
    appearance Appearance {
        material  Material 	{
            diffuseColor 0.25098039215686274 0.25098039215686274 0.25098039215686274
            specularColor 0.12549019607843137 0.12549019607843137 0.12549019607843137
            ambientIntensity 0.251
            transparency 0.0
            shininess 0.5
        }
    }
    geometry IndexedFaceSet {
        ccw TRUE
        solid FALSE
        coord DEF co Coordinate {
            point [
                2.2047 -0.8031 3.937, 2.2047 -0.8031 0.0, 2.2251 -0.8005 0.0, 2.2251 -0.8005 3.937, 2.2441 -0.7926 0.0, 2.2441 -0.7926 3.937, 2.2604 -0.7801 0.0, 2.2604 -0.7801 3.937, 2.2729 -0.7638 0.0, 2.2729 -0.7638 3.937, 2.2808 -0.7448 0.0, 2.2808 -0.7448 3.937, 2.2835 -0.7244 0.0, 2.2835 -0.7244 3.937, 2.2047 -0.7244 4.0158, -2.2047 -0.7244 4.0158, -2.2047 -0.7448 4.0131, 2.2047 -0.7448 4.0131, -2.2047 -0.7638 4.0052, 2.2047 -0.7638 4.0052, -2.2047 -0.7801 3.9927, 2.2047 -0.7801 3.9927, -2.2047 -0.7926 3.9764, 2.2047 -0.7926 3.9764, -2.2047 -0.8005 3.9574, 2.2047 -0.8005 3.9574, -2.2047 -0.8031 3.937, -2.2835 -0.7244 3.937, -2.2835 -0.7244 0.0, -2.2808 -0.7448 0.0, -2.2808 -0.7448 3.937, -2.2729 -0.7638 0.0, -2.2729 -0.7638 3.937, -2.2604 -0.7801 0.0, -2.2604 -0.7801 3.937, -2.2441 -0.7926 0.0, -2.2441 -0.7926 3.937, -2.2251 -0.8005 0.0, -2.2251 -0.8005 3.937, -2.2047 -0.8031 0.0, 2.2808 -0.7244 3.9574, 2.2782 -0.7441 3.9574, 2.2388 -0.7441 4.0052, 2.2224 -0.7346 4.0131, 2.2191 -0.7388 4.0131, 2.21 -0.7441 4.0131, 2.2244 -0.7297 4.0131, 2.2428 -0.7346 4.0052, 2.2585 -0.7388 3.9927, 2.2251 -0.7244 4.0131, 2.2326 -0.7522 4.0052, 2.2149 -0.7421 4.0131, 2.2244 -0.7585 4.0052, 2.2149 -0.7624 4.0052, 2.2441 -0.7244 4.0052, 2.2604 -0.7244 3.9927, 2.2729 -0.7244 3.9764, 2.2529 -0.7522 3.9927, 2.2441 -0.7638 3.9927, 2.2326 -0.7726 3.9927, 2.2191 -0.7782 3.9927, 2.2706 -0.7421 3.9764, 2.2638 -0.7585 3.9764, 2.2529 -0.7726 3.9764, 2.2388 -0.7835 3.9764, 2.2224 -0.7903 3.9764, 2.2706 -0.7624 3.9574, 2.2585 -0.7782 3.9574, 2.2428 -0.7903 3.9574, 2.2244 -0.7979 3.9574, -2.2244 -0.7979 3.9574, -2.2244 -0.7585 4.0052, -2.2149 -0.7421 4.0131, -2.2191 -0.7388 4.0131, -2.2251 -0.7244 4.0131, -2.2244 -0.7297 4.0131, -2.21 -0.7441 4.0131, -2.2149 -0.7624 4.0052, -2.2191 -0.7782 3.9927, -2.2326 -0.7522 4.0052, -2.2224 -0.7346 4.0131, -2.2388 -0.7441 4.0052, -2.2428 -0.7346 4.0052, -2.2441 -0.7244 4.0052, -2.2326 -0.7726 3.9927, -2.2441 -0.7638 3.9927, -2.2529 -0.7522 3.9927, -2.2585 -0.7388 3.9927, -2.2604 -0.7244 3.9927, -2.2224 -0.7903 3.9764, -2.2388 -0.7835 3.9764, -2.2529 -0.7726 3.9764, -2.2638 -0.7585 3.9764, -2.2706 -0.7421 3.9764, -2.2729 -0.7244 3.9764, -2.2428 -0.7903 3.9574, -2.2585 -0.7782 3.9574, -2.2706 -0.7624 3.9574, -2.2782 -0.7441 3.9574, -2.2808 -0.7244 3.9574, 2.2835 2.0709 3.937, 2.2835 2.0709 0.0, 2.2808 2.0912 0.0, 2.2047 2.1496 0.0, 2.2047 2.1496 1.0339, 2.2251 2.1469 0.0, 2.2047 2.1496 1.0868, 2.2808 2.0912 3.937, 2.2729 2.1102 0.0, 2.2729 2.1102 3.937, 2.2604 2.1265 0.0, 2.2604 2.1265 3.937, 2.2441 2.1391 0.0, 2.2441 2.1391 3.937, 2.2251 2.1469 3.937, 2.2047 2.1496 1.2594, 2.2047 2.1496 1.2985, 2.2047 2.1496 1.4342, 2.2047 2.1496 3.937, 2.2047 2.0709 4.0158, 2.2251 2.0709 4.0131, 2.2441 2.0709 4.0052, 2.2604 2.0709 3.9927, 2.2729 2.0709 3.9764, 2.2808 2.0709 3.9574, -2.2047 2.0709 4.0158, -2.2251 2.0709 4.0131, -2.2441 2.0709 4.0052, -2.2604 2.0709 3.9927, -2.2729 2.0709 3.9764, -2.2808 2.0709 3.9574, -2.2835 2.0709 3.937, -2.2251 2.1469 3.937, -2.2047 2.1496 3.937, -2.2047 2.1496 1.4342, -2.2047 2.1496 1.2985, -2.2251 2.1469 0.0, -2.2047 2.1496 1.2594, -2.2047 2.1496 1.0868, -2.2047 2.1496 1.0339, -2.2047 2.1496 0.0, -2.2441 2.1391 0.0, -2.2441 2.1391 3.937, -2.2604 2.1265 0.0, -2.2604 2.1265 3.937, -2.2729 2.1102 0.0, -2.2729 2.1102 3.937, -2.2808 2.0912 0.0, -2.2808 2.0912 3.937, -2.2835 2.0709 0.0, 2.2047 2.1469 3.9574, 2.2244 2.1443 3.9574, 2.2244 2.105 4.0052, 2.2149 2.0885 4.0131, 2.2191 2.0853 4.0131, 2.2244 2.0761 4.0131, 2.21 2.0906 4.0131, 2.2149 2.1089 4.0052, 2.2191 2.1246 3.9927, 2.2047 2.0912 4.0131, 2.2326 2.0987 4.0052, 2.2224 2.0811 4.0131, 2.2388 2.0906 4.0052, 2.2428 2.0811 4.0052, 2.2047 2.1102 4.0052, 2.2047 2.1265 3.9927, 2.2047 2.1391 3.9764, 2.2326 2.1191 3.9927, 2.2441 2.1102 3.9927, 2.2529 2.0987 3.9927, 2.2585 2.0853 3.9927, 2.2224 2.1367 3.9764, 2.2388 2.1299 3.9764, 2.2529 2.1191 3.9764, 2.2638 2.105 3.9764, 2.2706 2.0885 3.9764, 2.2428 2.1367 3.9574, 2.2585 2.1246 3.9574, 2.2706 2.1089 3.9574, 2.2782 2.0906 3.9574, -2.2782 2.0906 3.9574, -2.2388 2.0906 4.0052, -2.2224 2.0811 4.0131, -2.2191 2.0853 4.0131, -2.2047 2.0912 4.0131, -2.21 2.0906 4.0131, -2.2244 2.0761 4.0131, -2.2428 2.0811 4.0052, -2.2585 2.0853 3.9927, -2.2326 2.0987 4.0052, -2.2149 2.0885 4.0131, -2.2244 2.105 4.0052, -2.2149 2.1089 4.0052, -2.2047 2.1102 4.0052, -2.2529 2.0987 3.9927, -2.2441 2.1102 3.9927, -2.2326 2.1191 3.9927, -2.2191 2.1246 3.9927, -2.2047 2.1265 3.9927, -2.2706 2.0885 3.9764, -2.2638 2.105 3.9764, -2.2529 2.1191 3.9764, -2.2388 2.1299 3.9764, -2.2224 2.1367 3.9764, -2.2047 2.1391 3.9764, -2.2706 2.1089 3.9574, -2.2585 2.1246 3.9574, -2.2428 2.1367 3.9574, -2.2244 2.1443 3.9574, -2.2047 2.1469 3.9574, 1.4675 2.1496 3.937, 0.0704 2.1496 3.937, -0.0581 2.1496 3.937, -0.0661 2.1496 3.937, -0.179 2.1496 3.937, -0.24 2.1496 3.937, -0.2711 2.1496 3.937, -0.3449 2.1496 3.937, -0.3961 2.1496 3.937, -0.4382 2.1496 3.937
            ]
        }
        coordIndex [
            0,1,2,-1,0,2,3,-1,3,2,4,-1,3,4,5,-1,5,4,6,-1,5,6,7,-1,7,6,8,-1,7,8,9,-1,9,8,10,-1,9,10,11,-1,11,10,12,-1,11,12,13,-1,14,15,16,-1,14,16,17,-1,17,16,18,-1,17,18,19,-1,19,18,20,-1,19,20,21,-1,21,20,22,-1,21,22,23,-1,23,22,24,-1,23,24,25,-1,25,24,26,-1,25,26,0,-1,27,28,29,-1,27,29,30,-1,30,29,31,-1,30,31,32,-1,32,31,33,-1,32,33,34,-1,34,33,35,-1,34,35,36,-1,36,35,37,-1,36,37,38,-1,38,37,39,-1,38,39,26,-1,13,40,41,-1,42,43,44,-1,14,17,45,-1,44,43,14,-1,46,14,43,-1,46,43,47,-1,47,43,42,-1,47,42,48,-1,49,14,46,-1,50,51,52,-1,52,51,45,-1,52,45,53,-1,53,45,17,-1,53,17,19,-1,49,46,54,-1,54,46,47,-1,54,47,55,-1,55,47,48,-1,55,48,56,-1,57,50,58,-1,58,50,52,-1,58,52,59,-1,59,52,53,-1,59,53,60,-1,60,53,19,-1,60,19,21,-1,61,57,62,-1,62,57,58,-1,62,58,63,-1,63,58,59,-1,63,59,64,-1,64,59,60,-1,64,60,65,-1,65,60,21,-1,65,21,23,-1,40,61,41,-1,41,61,62,-1,41,62,66,-1,66,62,63,-1,66,63,67,-1,67,63,64,-1,67,64,68,-1,68,64,65,-1,68,65,69,-1,69,65,23,-1,69,23,25,-1,13,41,11,-1,11,41,66,-1,11,66,9,-1,9,66,67,-1,9,67,7,-1,7,67,68,-1,7,68,5,-1,5,68,69,-1,5,69,3,-1,3,69,25,-1,3,25,0,-1,51,14,45,-1,40,56,61,-1,61,56,48,-1,61,48,57,-1,57,48,42,-1,57,42,50,-1,50,42,44,-1,50,44,51,-1,51,44,14,-1,26,24,70,-1,71,72,73,-1,15,74,75,-1,73,72,15,-1,76,15,72,-1,76,72,77,-1,77,72,71,-1,77,71,78,-1,16,15,76,-1,79,80,81,-1,81,80,75,-1,81,75,82,-1,82,75,74,-1,82,74,83,-1,16,76,18,-1,18,76,77,-1,18,77,20,-1,20,77,78,-1,20,78,22,-1,84,79,85,-1,85,79,81,-1,85,81,86,-1,86,81,82,-1,86,82,87,-1,87,82,83,-1,87,83,88,-1,89,84,90,-1,90,84,85,-1,90,85,91,-1,91,85,86,-1,91,86,92,-1,92,86,87,-1,92,87,93,-1,93,87,88,-1,93,88,94,-1,24,89,70,-1,70,89,90,-1,70,90,95,-1,95,90,91,-1,95,91,96,-1,96,91,92,-1,96,92,97,-1,97,92,93,-1,97,93,98,-1,98,93,94,-1,98,94,99,-1,26,70,38,-1,38,70,95,-1,38,95,36,-1,36,95,96,-1,36,96,34,-1,34,96,97,-1,34,97,32,-1,32,97,98,-1,32,98,30,-1,30,98,99,-1,30,99,27,-1,80,15,75,-1,24,22,89,-1,89,22,78,-1,89,78,84,-1,84,78,71,-1,84,71,79,-1,79,71,73,-1,79,73,80,-1,80,73,15,-1,100,101,102,-1,103,104,105,-1,105,104,106,-1,100,102,107,-1,107,102,108,-1,107,108,109,-1,109,108,110,-1,109,110,111,-1,111,110,112,-1,111,112,113,-1,113,112,105,-1,113,105,114,-1,114,105,106,-1,114,106,115,-1,115,116,114,-1,114,116,117,-1,114,117,118,-1,119,14,49,-1,119,49,120,-1,120,49,54,-1,120,54,121,-1,121,54,55,-1,121,55,122,-1,122,55,56,-1,122,56,123,-1,123,56,40,-1,123,40,124,-1,124,40,13,-1,124,13,100,-1,15,125,126,-1,15,126,74,-1,74,126,127,-1,74,127,83,-1,83,127,128,-1,83,128,88,-1,88,128,129,-1,88,129,94,-1,94,129,130,-1,94,130,99,-1,99,130,131,-1,99,131,27,-1,132,133,134,-1,134,135,136,-1,136,135,137,-1,137,138,136,-1,136,138,139,-1,136,139,140,-1,134,136,132,-1,132,136,141,-1,132,141,142,-1,142,141,143,-1,142,143,144,-1,144,143,145,-1,144,145,146,-1,146,145,147,-1,146,147,148,-1,148,147,149,-1,148,149,131,-1,118,150,151,-1,152,153,154,-1,119,120,155,-1,154,153,119,-1,156,119,153,-1,156,153,157,-1,157,153,152,-1,157,152,158,-1,159,119,156,-1,160,161,162,-1,162,161,155,-1,162,155,163,-1,163,155,120,-1,163,120,121,-1,159,156,164,-1,164,156,157,-1,164,157,165,-1,165,157,158,-1,165,158,166,-1,167,160,168,-1,168,160,162,-1,168,162,169,-1,169,162,163,-1,169,163,170,-1,170,163,121,-1,170,121,122,-1,171,167,172,-1,172,167,168,-1,172,168,173,-1,173,168,169,-1,173,169,174,-1,174,169,170,-1,174,170,175,-1,175,170,122,-1,175,122,123,-1,150,171,151,-1,151,171,172,-1,151,172,176,-1,176,172,173,-1,176,173,177,-1,177,173,174,-1,177,174,178,-1,178,174,175,-1,178,175,179,-1,179,175,123,-1,179,123,124,-1,118,151,114,-1,114,151,176,-1,114,176,113,-1,113,176,177,-1,113,177,111,-1,111,177,178,-1,111,178,109,-1,109,178,179,-1,109,179,107,-1,107,179,124,-1,107,124,100,-1,161,119,155,-1,150,166,171,-1,171,166,158,-1,171,158,167,-1,167,158,152,-1,167,152,160,-1,160,152,154,-1,160,154,161,-1,161,154,119,-1,131,130,180,-1,181,182,183,-1,125,184,185,-1,183,182,125,-1,186,125,182,-1,186,182,187,-1,187,182,181,-1,187,181,188,-1,126,125,186,-1,189,190,191,-1,191,190,185,-1,191,185,192,-1,192,185,184,-1,192,184,193,-1,126,186,127,-1,127,186,187,-1,127,187,128,-1,128,187,188,-1,128,188,129,-1,194,189,195,-1,195,189,191,-1,195,191,196,-1,196,191,192,-1,196,192,197,-1,197,192,193,-1,197,193,198,-1,199,194,200,-1,200,194,195,-1,200,195,201,-1,201,195,196,-1,201,196,202,-1,202,196,197,-1,202,197,203,-1,203,197,198,-1,203,198,204,-1,130,199,180,-1,180,199,200,-1,180,200,205,-1,205,200,201,-1,205,201,206,-1,206,201,202,-1,206,202,207,-1,207,202,203,-1,207,203,208,-1,208,203,204,-1,208,204,209,-1,131,180,148,-1,148,180,205,-1,148,205,146,-1,146,205,206,-1,146,206,144,-1,144,206,207,-1,144,207,142,-1,142,207,208,-1,142,208,132,-1,132,208,209,-1,132,209,133,-1,190,125,185,-1,130,129,199,-1,199,129,188,-1,199,188,194,-1,194,188,181,-1,194,181,189,-1,189,181,183,-1,189,183,190,-1,190,183,125,-1,125,119,159,-1,125,159,184,-1,184,159,164,-1,184,164,193,-1,193,164,165,-1,193,165,198,-1,198,165,166,-1,198,166,204,-1,204,166,150,-1,204,150,209,-1,150,118,210,-1,210,211,150,-1,150,211,212,-1,150,212,209,-1,209,212,213,-1,209,213,214,-1,214,215,209,-1,209,215,216,-1,209,216,217,-1,217,218,209,-1,209,218,219,-1,209,219,133,-1,
        ]
    }
}
Shape{
    appearance Appearance {
        material  Material 	{
            diffuseColor 1.0 1.0 1.0
            specularColor 0.5019607843137255 0.5019607843137255 0.5019607843137255
            ambientIntensity 1.0
            transparency 0.0
            shininess 0.5
        }
    }
    geometry IndexedFaceSet {
        ccw TRUE
        solid FALSE
        coord DEF co Coordinate {
            point [
                -0.0547 2.1535 1.3148, -0.0547 2.1535 1.2996, -0.0547 2.1496 1.3148, -0.0547 2.1496 1.2996, -0.0015 2.1535 1.3148, -0.0015 2.1496 1.3148, -0.0015 2.1535 1.4331, -0.0015 2.1496 1.4331, 0.0157 2.1535 1.4331, 0.0157 2.1496 1.4331, 0.0157 2.1535 1.2996, 0.0157 2.1496 1.2996, -0.1231 2.1535 1.2974, -0.1231 2.1496 1.2974, -0.1434 2.1535 1.2993, -0.1349 2.1496 1.2985, -0.1434 2.1496 1.2993, -0.1578 2.1496 1.304, -0.1578 2.1535 1.304, -0.16 2.1496 1.3051, -0.16 2.1535 1.3051, -0.16 2.1535 1.3217, -0.16 2.1496 1.3217, -0.1469 2.1496 1.3158, -0.1469 2.1535 1.3158, -0.1318 2.1496 1.313, -0.1318 2.1535 1.313, -0.1256 2.1496 1.3127, -0.1256 2.1535 1.3127, -0.1141 2.1496 1.3139, -0.1141 2.1535 1.3139, -0.1042 2.1496 1.3172, -0.1042 2.1535 1.3172, -0.0952 2.1496 1.3231, -0.0952 2.1535 1.3231, -0.0913 2.1496 1.3268, -0.0913 2.1535 1.3268, -0.0853 2.1496 1.335, -0.0853 2.1535 1.335, -0.0808 2.1496 1.3455, -0.0808 2.1535 1.3455, -0.0784 2.1496 1.3586, -0.0784 2.1535 1.3586, -0.0782 2.1496 1.3648, -0.0782 2.1535 1.3648, -0.0804 2.1496 1.3832, -0.0804 2.1535 1.3832, -0.0849 2.1496 1.3947, -0.0849 2.1535 1.3947, -0.0913 2.1496 1.404, -0.0913 2.1535 1.404, -0.0922 2.1496 1.405, -0.0922 2.1535 1.405, -0.1003 2.1496 1.4118, -0.1003 2.1535 1.4118, -0.1107 2.1496 1.4169, -0.1107 2.1535 1.4169, -0.1221 2.1496 1.4194, -0.1221 2.1535 1.4194, -0.1286 2.1496 1.4198, -0.1286 2.1535 1.4198, -0.145 2.1496 1.4178, -0.145 2.1535 1.4178, -0.1585 2.1496 1.4127, -0.1585 2.1535 1.4127, -0.16 2.1496 1.4119, -0.16 2.1535 1.4119, -0.16 2.1535 1.4299, -0.16 2.1496 1.4299, -0.1284 2.1496 1.4353, -0.1284 2.1535 1.4353, -0.1427 2.1496 1.4342, -0.1459 2.1535 1.4339, -0.1459 2.1496 1.4339, -0.1191 2.1496 1.4342, -0.1091 2.1535 1.433, -0.1091 2.1496 1.433, -0.0952 2.1496 1.4276, -0.0952 2.1535 1.4276, -0.0827 2.1496 1.4188, -0.0827 2.1535 1.4188, -0.0794 2.1496 1.4157, -0.0794 2.1535 1.4157, -0.0697 2.1496 1.403, -0.0661 2.1496 1.3945, -0.0634 2.1535 1.3882, -0.0697 2.1535 1.403, -0.0634 2.1496 1.3882, -0.0604 2.1496 1.3708, -0.0604 2.1535 1.3708, -0.0601 2.1496 1.3638, -0.0601 2.1535 1.3638, -0.0627 2.1496 1.3421, -0.0661 2.1496 1.3335, -0.0682 2.1535 1.3282, -0.0627 2.1535 1.3421, -0.0682 2.1496 1.3282, -0.0761 2.1496 1.3168, -0.0761 2.1535 1.3168, -0.0772 2.1496 1.3156, -0.0772 2.1535 1.3156, -0.1006 2.1496 1.3007, -0.088 2.1535 1.3067, -0.088 2.1496 1.3067, -0.1114 2.1496 1.2985, -0.115 2.1535 1.2978, -0.1006 2.1535 1.3007, -0.115 2.1496 1.2978, -0.2585 2.1535 1.3148, -0.2585 2.1535 1.2996, -0.2585 2.1496 1.3148, -0.2585 2.1496 1.2996, -0.204 2.1496 1.3148, -0.204 2.1535 1.3148, -0.24 2.1496 1.3148, -0.204 2.1535 1.3597, -0.204 2.1496 1.3597, -0.2517 2.1535 1.3597, -0.24 2.1496 1.3597, -0.2517 2.1496 1.3597, -0.2517 2.1535 1.375, -0.2517 2.1496 1.375, -0.204 2.1496 1.375, -0.204 2.1535 1.375, -0.24 2.1496 1.375, -0.204 2.1535 1.4177, -0.204 2.1496 1.4177, -0.2555 2.1496 1.4177, -0.2555 2.1535 1.4177, -0.24 2.1496 1.4177, -0.2555 2.1535 1.4331, -0.2555 2.1496 1.4331, -0.1867 2.1496 1.4331, -0.1867 2.1535 1.4331, -0.24 2.1496 1.4331, -0.1867 2.1535 1.2996, -0.1867 2.1496 1.2996, -0.24 2.1496 1.2996, -0.3722 2.1535 1.3183, -0.3584 2.1535 1.3273, -0.3583 2.1535 1.3083, -0.3498 2.1535 1.3213, -0.3431 2.1535 1.3024, -0.3388 2.1535 1.317, -0.3204 2.1535 1.2996, -0.3203 2.1535 1.3148, -0.2837 2.1535 1.2996, -0.301 2.1535 1.3148, -0.2837 2.1535 1.4331, -0.301 2.1535 1.4177, -0.3218 2.1535 1.4331, -0.3211 2.1535 1.4177, -0.3227 2.1535 1.4177, -0.3422 2.1535 1.4308, -0.3397 2.1535 1.4155, -0.3583 2.1535 1.4249, -0.351 2.1535 1.411, -0.3722 2.1535 1.4154, -0.3596 2.1535 1.4052, -0.377 2.1535 1.4108, -0.3634 2.1535 1.4015, -0.3852 2.1535 1.3992, -0.3685 2.1535 1.394, -0.3902 2.1535 1.3864, -0.3723 2.1535 1.3843, -0.3924 2.1535 1.3681, -0.3743 2.1535 1.3676, -0.392 2.1535 1.3595, -0.3737 2.1535 1.3582, -0.3887 2.1535 1.3439, -0.371 2.1535 1.3462, -0.3822 2.1535 1.3301, -0.3663 2.1535 1.3364, -0.36 2.1535 1.3288, -0.3204 2.1496 1.2996, -0.2837 2.1496 1.2996, -0.3722 2.1496 1.3183, -0.3431 2.1496 1.3024, -0.3449 2.1496 1.3031, -0.3583 2.1496 1.3083, -0.3822 2.1496 1.3301, -0.3887 2.1496 1.3439, -0.392 2.1496 1.3595, -0.3924 2.1496 1.3681, -0.3902 2.1496 1.3864, -0.3852 2.1496 1.3992, -0.377 2.1496 1.4108, -0.3722 2.1496 1.4154, -0.3583 2.1496 1.4249, -0.3449 2.1496 1.4298, -0.3422 2.1496 1.4308, -0.3218 2.1496 1.4331, -0.2837 2.1496 1.4331, -0.3211 2.1496 1.4177, -0.301 2.1496 1.4177, -0.301 2.1496 1.3148, -0.3203 2.1496 1.3148, -0.36 2.1496 1.3288, -0.3584 2.1496 1.3273, -0.3498 2.1496 1.3213, -0.3388 2.1496 1.317, -0.3743 2.1496 1.3676, -0.3737 2.1496 1.3582, -0.371 2.1496 1.3462, -0.3663 2.1496 1.3364, -0.3596 2.1496 1.4052, -0.3634 2.1496 1.4015, -0.3685 2.1496 1.394, -0.3723 2.1496 1.3843, -0.3227 2.1496 1.4177, -0.3397 2.1496 1.4155, -0.351 2.1496 1.411
            ]
        }
        coordIndex [
            0,1,2,-1,2,1,3,-1,4,0,5,-1,5,0,2,-1,6,4,7,-1,7,4,5,-1,8,6,9,-1,9,6,7,-1,10,8,11,-1,11,8,9,-1,1,10,3,-1,3,10,11,-1,6,8,4,-1,4,8,10,-1,4,10,0,-1,0,10,1,-1,12,13,14,-1,14,13,15,-1,15,16,14,-1,14,16,17,-1,14,17,18,-1,18,17,19,-1,18,19,20,-1,21,20,22,-1,22,20,19,-1,21,22,23,-1,21,23,24,-1,24,23,25,-1,24,25,26,-1,26,25,27,-1,26,27,28,-1,28,27,29,-1,28,29,30,-1,30,29,31,-1,30,31,32,-1,32,31,33,-1,32,33,34,-1,34,33,35,-1,34,35,36,-1,36,35,37,-1,36,37,38,-1,38,37,39,-1,38,39,40,-1,40,39,41,-1,40,41,42,-1,42,41,43,-1,42,43,44,-1,44,43,45,-1,44,45,46,-1,46,45,47,-1,46,47,48,-1,48,47,49,-1,48,49,50,-1,50,49,51,-1,50,51,52,-1,52,51,53,-1,52,53,54,-1,54,53,55,-1,54,55,56,-1,56,55,57,-1,56,57,58,-1,58,57,59,-1,58,59,60,-1,60,59,61,-1,60,61,62,-1,62,61,63,-1,62,63,64,-1,64,63,65,-1,64,65,66,-1,67,66,68,-1,68,66,65,-1,69,70,71,-1,71,70,72,-1,71,72,73,-1,73,72,67,-1,73,67,68,-1,70,69,74,-1,70,74,75,-1,74,76,75,-1,75,76,77,-1,75,77,78,-1,78,77,79,-1,78,79,80,-1,80,79,81,-1,80,81,82,-1,82,81,83,-1,84,85,83,-1,83,85,86,-1,83,86,82,-1,84,87,85,-1,85,87,88,-1,85,88,89,-1,89,88,90,-1,89,90,91,-1,91,90,92,-1,93,94,92,-1,92,94,95,-1,92,95,91,-1,93,96,94,-1,94,96,97,-1,94,97,98,-1,98,97,99,-1,98,99,100,-1,101,102,103,-1,103,102,100,-1,103,100,99,-1,104,105,101,-1,101,105,106,-1,101,106,102,-1,104,107,105,-1,105,107,13,-1,105,13,12,-1,54,56,75,-1,46,48,86,-1,86,48,82,-1,75,56,70,-1,91,44,89,-1,89,44,46,-1,89,46,85,-1,85,46,86,-1,56,58,70,-1,70,58,60,-1,70,60,72,-1,72,60,62,-1,72,62,67,-1,67,62,64,-1,67,64,66,-1,20,21,18,-1,18,21,24,-1,18,24,14,-1,14,24,26,-1,14,26,12,-1,12,26,28,-1,12,28,105,-1,105,28,30,-1,105,30,106,-1,106,30,32,-1,106,32,102,-1,102,32,34,-1,102,34,100,-1,100,34,36,-1,100,36,98,-1,98,36,38,-1,98,38,94,-1,94,38,95,-1,95,38,40,-1,95,40,91,-1,91,40,42,-1,91,42,44,-1,48,50,82,-1,82,50,52,-1,82,52,80,-1,80,52,54,-1,80,54,78,-1,78,54,75,-1,108,109,110,-1,110,109,111,-1,112,113,114,-1,114,113,108,-1,114,108,110,-1,115,113,116,-1,116,113,112,-1,115,116,117,-1,117,116,118,-1,117,118,119,-1,120,117,121,-1,121,117,119,-1,122,123,124,-1,124,123,120,-1,124,120,121,-1,125,123,126,-1,126,123,122,-1,127,128,129,-1,129,128,125,-1,129,125,126,-1,130,128,131,-1,131,128,127,-1,132,133,134,-1,134,133,130,-1,134,130,131,-1,135,133,136,-1,136,133,132,-1,111,109,137,-1,137,109,135,-1,137,135,136,-1,135,109,108,-1,108,113,135,-1,135,113,115,-1,135,115,133,-1,128,130,125,-1,125,130,133,-1,125,133,123,-1,123,133,115,-1,123,115,120,-1,120,115,117,-1,138,139,140,-1,140,139,141,-1,140,141,142,-1,142,141,143,-1,142,143,144,-1,144,143,145,-1,144,145,146,-1,146,145,147,-1,146,147,148,-1,148,147,149,-1,148,149,150,-1,149,151,150,-1,150,151,152,-1,150,152,153,-1,153,152,154,-1,153,154,155,-1,155,154,156,-1,155,156,157,-1,157,156,158,-1,157,158,159,-1,159,158,160,-1,159,160,161,-1,161,160,162,-1,161,162,163,-1,163,162,164,-1,163,164,165,-1,165,164,166,-1,165,166,167,-1,167,166,168,-1,167,168,169,-1,169,168,170,-1,169,170,171,-1,171,170,172,-1,171,172,138,-1,138,172,173,-1,138,173,139,-1,144,146,174,-1,174,146,175,-1,176,138,140,-1,144,174,177,-1,144,177,142,-1,142,177,178,-1,142,178,140,-1,140,178,179,-1,140,179,176,-1,138,176,180,-1,138,180,171,-1,171,180,181,-1,171,181,169,-1,169,181,182,-1,169,182,167,-1,167,182,183,-1,167,183,165,-1,165,183,184,-1,165,184,163,-1,163,184,185,-1,163,185,161,-1,161,185,186,-1,161,186,159,-1,159,186,187,-1,159,187,157,-1,157,187,188,-1,189,153,188,-1,188,153,155,-1,188,155,157,-1,189,190,153,-1,153,190,191,-1,153,191,150,-1,148,150,192,-1,192,150,191,-1,146,148,175,-1,175,148,192,-1,151,149,193,-1,193,149,194,-1,149,147,194,-1,194,147,195,-1,147,145,195,-1,195,145,196,-1,173,197,198,-1,173,198,139,-1,139,198,199,-1,139,199,141,-1,141,199,200,-1,141,200,143,-1,143,200,196,-1,143,196,145,-1,166,201,202,-1,166,202,168,-1,168,202,203,-1,168,203,170,-1,170,203,204,-1,170,204,172,-1,172,204,197,-1,172,197,173,-1,158,205,206,-1,158,206,160,-1,160,206,207,-1,160,207,162,-1,162,207,208,-1,162,208,164,-1,164,208,201,-1,164,201,166,-1,151,193,209,-1,151,209,152,-1,152,209,210,-1,152,210,154,-1,154,210,211,-1,154,211,156,-1,156,211,205,-1,156,205,158,-1,
        ]
    }
}
Shape{
    appearance Appearance {
        material  Material 	{
            diffuseColor 0.25098039215686274 0.25098039215686274 0.25098039215686274
            specularColor 0.12549019607843137 0.12549019607843137 0.12549019607843137
            ambientIntensity 0.251
            transparency 0.0
            shininess 0.5
        }
    }
    geometry IndexedFaceSet {
        ccw TRUE
        solid FALSE
        coord DEF co Coordinate {
            point [
                -0.3498 2.1496 1.3213, -0.3584 2.1496 1.3273, -0.3227 2.1496 1.4177, -0.301 2.1496 1.4177, -0.301 2.1496 1.3148, -0.3211 2.1496 1.4177, -0.3203 2.1496 1.3148, -0.3388 2.1496 1.317, -0.36 2.1496 1.3288, -0.3663 2.1496 1.3364, -0.371 2.1496 1.3462, -0.3743 2.1496 1.3676, -0.3596 2.1496 1.4052, -0.351 2.1496 1.411, -0.3723 2.1496 1.3843, -0.3685 2.1496 1.394, -0.3634 2.1496 1.4015, -0.3737 2.1496 1.3582, -0.3397 2.1496 1.4155
            ]
        }
        coordIndex [
            0,1,2,-1,3,4,5,-1,5,4,6,-1,5,6,2,-1,2,6,7,-1,2,7,0,-1,1,8,2,-1,2,8,9,-1,2,9,10,-1,11,12,13,-1,14,15,11,-1,11,15,16,-1,11,16,12,-1,10,17,2,-1,2,17,11,-1,2,11,18,-1,18,11,13,-1,
        ]
    }
}
Shape{
    appearance Appearance {
        material  Material 	{
            diffuseColor 1.0 1.0 1.0
            specularColor 0.5019607843137255 0.5019607843137255 0.5019607843137255
            ambientIntensity 1.0
            transparency 0.0
            shininess 0.5
        }
    }
    geometry IndexedFaceSet {
        ccw TRUE
        solid FALSE
        coord DEF co Coordinate {
            point [
                -0.4371 2.1535 1.3512, -0.4316 2.1535 1.3361, -0.4819 2.1535 1.3512, -0.4872 2.1535 1.3361, -0.4571 2.1535 1.4067, -0.4506 2.1535 1.4331, -0.3998 2.1535 1.2996, -0.4188 2.1535 1.2996, -0.4582 2.1535 1.4106, -0.4592 2.1535 1.416, -0.469 2.1535 1.4331, -0.4596 2.1535 1.416, -0.4607 2.1535 1.4104, -0.4617 2.1535 1.4067, -0.5199 2.1535 1.2996, -0.5008 2.1535 1.2996, -0.469 2.1496 1.4331, -0.5199 2.1496 1.2996, -0.4506 2.1496 1.4331, -0.3998 2.1496 1.2996, -0.4382 2.1496 1.4006, -0.4188 2.1496 1.2996, -0.4316 2.1496 1.3361, -0.4872 2.1496 1.3361, -0.4382 2.1496 1.3361, -0.5008 2.1496 1.2996, -0.4371 2.1496 1.3512, -0.4819 2.1496 1.3512, -0.4617 2.1496 1.4067, -0.4596 2.1496 1.416, -0.4607 2.1496 1.4104, -0.4592 2.1496 1.416, -0.4571 2.1496 1.4067, -0.4582 2.1496 1.4106
            ]
        }
        coordIndex [
            0,1,2,-1,2,1,3,-1,4,5,0,-1,0,5,6,-1,0,6,1,-1,1,6,7,-1,4,8,5,-1,5,8,9,-1,5,9,10,-1,10,9,11,-1,10,11,12,-1,12,13,10,-1,10,13,2,-1,10,2,14,-1,14,2,3,-1,14,3,15,-1,10,14,16,-1,16,14,17,-1,5,10,18,-1,18,10,16,-1,19,6,20,-1,20,6,5,-1,20,5,18,-1,7,6,21,-1,21,6,19,-1,1,7,22,-1,22,7,21,-1,23,3,24,-1,24,3,1,-1,24,1,22,-1,15,3,25,-1,25,3,23,-1,14,15,17,-1,17,15,25,-1,0,2,26,-1,26,2,27,-1,2,13,27,-1,27,13,28,-1,11,29,30,-1,11,30,12,-1,12,30,28,-1,12,28,13,-1,11,9,29,-1,29,9,31,-1,4,32,33,-1,4,33,8,-1,8,33,31,-1,8,31,9,-1,4,0,32,-1,32,0,26,-1,
        ]
    }
}
Shape{
    appearance Appearance {
        material  Material 	{
            diffuseColor 0.25098039215686274 0.25098039215686274 0.25098039215686274
            specularColor 0.12549019607843137 0.12549019607843137 0.12549019607843137
            ambientIntensity 0.251
            transparency 0.0
            shininess 0.5
        }
    }
    geometry IndexedFaceSet {
        ccw TRUE
        solid FALSE
        coord DEF co Coordinate {
            point [
                -0.4596 2.1496 1.416, -0.4592 2.1496 1.416, -0.4607 2.1496 1.4104, -0.4582 2.1496 1.4106, -0.4617 2.1496 1.4067, -0.4571 2.1496 1.4067, -0.4819 2.1496 1.3512, -0.4371 2.1496 1.3512
            ]
        }
        coordIndex [
            0,1,2,-1,2,1,3,-1,2,3,4,-1,4,3,5,-1,4,5,6,-1,6,5,7,-1,
        ]
    }
}
Shape{
    appearance Appearance {
        material  Material 	{
            diffuseColor 1.0 1.0 1.0
            specularColor 0.5019607843137255 0.5019607843137255 0.5019607843137255
            ambientIntensity 1.0
            transparency 0.0
            shininess 0.5
        }
    }
    geometry IndexedFaceSet {
        ccw TRUE
        solid FALSE
        coord DEF co Coordinate {
            point [
                -0.0561 2.1535 1.1031, -0.0561 2.1535 1.0879, -0.0561 2.1496 1.1031, -0.0561 2.1496 1.0879, -0.0015 2.1535 1.1031, -0.0015 2.1496 1.1031, -0.0015 2.1535 1.148, -0.0015 2.1496 1.148, -0.0492 2.1535 1.148, -0.0492 2.1496 1.148, -0.0492 2.1535 1.1633, -0.0492 2.1496 1.1633, -0.0015 2.1535 1.1633, -0.0015 2.1496 1.1633, -0.0015 2.1535 1.206, -0.0015 2.1496 1.206, -0.053 2.1535 1.206, -0.053 2.1496 1.206, -0.053 2.1535 1.2214, -0.053 2.1496 1.2214, 0.0157 2.1535 1.2214, 0.0157 2.1496 1.2214, 0.0157 2.1535 1.0879, 0.0157 2.1496 1.0879, -0.1319 2.1535 1.0879, -0.1486 2.1535 1.0879, -0.1319 2.1535 1.1027, -0.1486 2.1535 1.1493, -0.1096 2.1535 1.1327, -0.1319 2.1535 1.1357, -0.1319 2.1535 1.1266, -0.1315 2.1535 1.1027, -0.1227 2.1535 1.1051, -0.1274 2.1535 1.0968, -0.1179 2.1535 1.1019, -0.1319 2.1535 1.1255, -0.1308 2.1535 1.118, -0.1284 2.1535 1.1121, -0.1248 2.1535 1.1072, -0.0918 2.1535 1.1417, -0.0844 2.1535 1.1381, -0.0949 2.1535 1.1281, -0.0934 2.1535 1.1269, -0.1319 2.1535 1.1485, -0.1313 2.1535 1.1559, -0.1475 2.1535 1.1614, -0.1296 2.1535 1.1618, -0.1449 2.1535 1.1692, -0.1277 2.1535 1.1653, -0.1415 2.1535 1.1747, -0.1251 2.1535 1.168, -0.1371 2.1535 1.179, -0.1222 2.1535 1.1699, -0.1316 2.1535 1.1822, -0.1183 2.1535 1.1712, -0.1247 2.1535 1.1844, -0.1126 2.1535 1.1718, -0.1142 2.1535 1.1854, -0.1015 2.1535 1.1705, -0.0973 2.1535 1.1834, -0.091 2.1535 1.1667, -0.0848 2.1535 1.1785, -0.0814 2.1535 1.1603, -0.0814 2.1535 1.1765, -0.0914 2.1535 1.1244, -0.0791 2.1535 1.1337, -0.09 2.1535 1.1213, -0.0757 2.1535 1.129, -0.0892 2.1535 1.1175, -0.0924 2.1535 1.1051, -0.0802 2.1535 1.0932, -0.0939 2.1535 1.1037, -0.0859 2.1535 1.0892, -0.0972 2.1535 1.1014, -0.0923 2.1535 1.0868, -0.101 2.1535 1.1, -0.1023 2.1535 1.0857, -0.1066 2.1535 1.0994, -0.1117 2.1535 1.0868, -0.1129 2.1535 1.1001, -0.1183 2.1535 1.0894, -0.1219 2.1535 1.0917, -0.0984 2.1535 1.13, -0.1037 2.1535 1.1445, -0.0733 2.1535 1.1231, -0.0721 2.1535 1.1161, -0.089 2.1535 1.1148, -0.0721 2.1535 1.1134, -0.0894 2.1535 1.111, -0.0729 2.1535 1.1058, -0.0905 2.1535 1.1079, -0.0749 2.1535 1.1002, -0.0784 2.1535 1.095, -0.1142 2.1496 1.1854, -0.0973 2.1496 1.1834, -0.0848 2.1496 1.1785, -0.0814 2.1496 1.1765, -0.0814 2.1496 1.1603, -0.091 2.1496 1.1667, -0.1015 2.1496 1.1705, -0.1126 2.1496 1.1718, -0.1183 2.1496 1.1712, -0.1222 2.1496 1.1699, -0.1251 2.1496 1.168, -0.1277 2.1496 1.1653, -0.1296 2.1496 1.1618, -0.1313 2.1496 1.1559, -0.1319 2.1496 1.1485, -0.1037 2.1496 1.1445, -0.0918 2.1496 1.1417, -0.0844 2.1496 1.1381, -0.0791 2.1496 1.1337, -0.0757 2.1496 1.129, -0.0733 2.1496 1.1231, -0.0721 2.1496 1.1161, -0.0721 2.1496 1.1134, -0.0729 2.1496 1.1058, -0.0749 2.1496 1.1002, -0.0784 2.1496 1.095, -0.0802 2.1496 1.0932, -0.1023 2.1496 1.0857, -0.0926 2.1496 1.0868, -0.0923 2.1496 1.0868, -0.0859 2.1496 1.0892, -0.1115 2.1496 1.0868, -0.1117 2.1496 1.0868, -0.1183 2.1496 1.0894, -0.1219 2.1496 1.0917, -0.1274 2.1496 1.0968, -0.1315 2.1496 1.1027, -0.1319 2.1496 1.1027, -0.1319 2.1496 1.0879, -0.1486 2.1496 1.0879, -0.1486 2.1496 1.1493, -0.1475 2.1496 1.1614, -0.1449 2.1496 1.1692, -0.1415 2.1496 1.1747, -0.1371 2.1496 1.179, -0.1316 2.1496 1.1822, -0.1247 2.1496 1.1844, -0.0934 2.1496 1.1269, -0.0949 2.1496 1.1281, -0.0984 2.1496 1.13, -0.1096 2.1496 1.1327, -0.089 2.1496 1.1148, -0.0892 2.1496 1.1175, -0.09 2.1496 1.1213, -0.0914 2.1496 1.1244, -0.0939 2.1496 1.1037, -0.0924 2.1496 1.1051, -0.0905 2.1496 1.1079, -0.0894 2.1496 1.111, -0.1066 2.1496 1.0994, -0.101 2.1496 1.1, -0.0972 2.1496 1.1014, -0.1248 2.1496 1.1072, -0.1227 2.1496 1.1051, -0.1179 2.1496 1.1019, -0.1129 2.1496 1.1001, -0.1319 2.1496 1.1266, -0.1319 2.1496 1.1255, -0.1308 2.1496 1.118, -0.1284 2.1496 1.1121, -0.1319 2.1496 1.1357
            ]
        }
        coordIndex [
            0,1,2,-1,2,1,3,-1,4,0,5,-1,5,0,2,-1,6,4,7,-1,7,4,5,-1,8,6,9,-1,9,6,7,-1,10,8,11,-1,11,8,9,-1,12,10,13,-1,13,10,11,-1,14,12,15,-1,15,12,13,-1,16,14,17,-1,17,14,15,-1,18,16,19,-1,19,16,17,-1,20,18,21,-1,21,18,19,-1,22,20,23,-1,23,20,21,-1,1,22,3,-1,3,22,23,-1,22,1,0,-1,0,4,22,-1,22,4,6,-1,22,6,20,-1,16,18,14,-1,14,18,20,-1,14,20,12,-1,12,20,6,-1,12,6,10,-1,10,6,8,-1,24,25,26,-1,26,25,27,-1,28,29,27,-1,27,29,30,-1,31,32,33,-1,33,32,34,-1,30,35,27,-1,27,35,36,-1,27,36,26,-1,26,36,37,-1,26,37,31,-1,31,37,38,-1,31,38,32,-1,39,40,41,-1,41,40,42,-1,43,27,44,-1,44,27,45,-1,44,45,46,-1,46,45,47,-1,46,47,48,-1,48,47,49,-1,48,49,50,-1,50,49,51,-1,50,51,52,-1,52,51,53,-1,52,53,54,-1,54,53,55,-1,54,55,56,-1,56,55,57,-1,56,57,58,-1,58,57,59,-1,58,59,60,-1,60,59,61,-1,60,61,62,-1,62,61,63,-1,42,40,64,-1,64,40,65,-1,64,65,66,-1,66,65,67,-1,66,67,68,-1,69,70,71,-1,71,70,72,-1,71,72,73,-1,73,72,74,-1,73,74,75,-1,75,74,76,-1,75,76,77,-1,77,76,78,-1,77,78,79,-1,79,78,80,-1,79,80,34,-1,34,80,81,-1,34,81,33,-1,28,27,82,-1,82,27,43,-1,82,43,41,-1,41,43,83,-1,41,83,39,-1,67,84,68,-1,68,84,85,-1,68,85,86,-1,86,85,87,-1,86,87,88,-1,88,87,89,-1,88,89,90,-1,90,89,91,-1,90,91,69,-1,69,91,92,-1,69,92,70,-1,57,93,94,-1,57,94,59,-1,59,94,95,-1,59,95,61,-1,61,95,96,-1,61,96,63,-1,62,63,97,-1,97,63,96,-1,62,97,98,-1,62,98,60,-1,60,98,99,-1,60,99,58,-1,58,99,100,-1,58,100,56,-1,56,100,101,-1,56,101,54,-1,54,101,102,-1,54,102,52,-1,52,102,103,-1,52,103,50,-1,50,103,104,-1,50,104,48,-1,48,104,105,-1,48,105,46,-1,46,105,106,-1,46,106,44,-1,44,106,107,-1,44,107,43,-1,83,43,108,-1,108,43,107,-1,83,108,109,-1,83,109,39,-1,39,109,110,-1,39,110,40,-1,40,110,111,-1,40,111,65,-1,65,111,112,-1,65,112,67,-1,67,112,113,-1,67,113,84,-1,84,113,114,-1,84,114,85,-1,85,114,115,-1,85,115,87,-1,87,115,116,-1,87,116,89,-1,89,116,117,-1,89,117,91,-1,91,117,118,-1,91,118,92,-1,92,118,119,-1,92,119,70,-1,120,76,121,-1,121,76,74,-1,121,74,122,-1,122,74,72,-1,122,72,123,-1,123,72,70,-1,123,70,119,-1,120,124,76,-1,76,124,78,-1,124,125,78,-1,78,125,126,-1,78,126,80,-1,80,126,127,-1,80,127,81,-1,81,127,128,-1,81,128,33,-1,33,128,129,-1,33,129,31,-1,26,31,130,-1,130,31,129,-1,24,26,131,-1,131,26,130,-1,25,24,132,-1,132,24,131,-1,27,25,133,-1,133,25,132,-1,27,133,134,-1,27,134,45,-1,45,134,135,-1,45,135,47,-1,47,135,136,-1,47,136,49,-1,49,136,137,-1,49,137,51,-1,51,137,138,-1,51,138,53,-1,53,138,139,-1,53,139,55,-1,55,139,93,-1,55,93,57,-1,42,140,141,-1,42,141,41,-1,41,141,142,-1,41,142,82,-1,82,142,143,-1,82,143,28,-1,86,144,145,-1,86,145,68,-1,68,145,146,-1,68,146,66,-1,66,146,147,-1,66,147,64,-1,64,147,140,-1,64,140,42,-1,71,148,149,-1,71,149,69,-1,69,149,150,-1,69,150,90,-1,90,150,151,-1,90,151,88,-1,88,151,144,-1,88,144,86,-1,77,152,153,-1,77,153,75,-1,75,153,154,-1,75,154,73,-1,73,154,148,-1,73,148,71,-1,38,155,156,-1,38,156,32,-1,32,156,157,-1,32,157,34,-1,34,157,158,-1,34,158,79,-1,79,158,152,-1,79,152,77,-1,30,159,160,-1,30,160,35,-1,35,160,161,-1,35,161,36,-1,36,161,162,-1,36,162,37,-1,37,162,155,-1,37,155,38,-1,30,29,159,-1,159,29,163,-1,29,28,163,-1,163,28,143,-1,
        ]
    }
}
Shape{
    appearance Appearance {
        material  Material 	{
            diffuseColor 0.25098039215686274 0.25098039215686274 0.25098039215686274
            specularColor 0.12549019607843137 0.12549019607843137 0.12549019607843137
            ambientIntensity 0.251
            transparency 0.0
            shininess 0.5
        }
    }
    geometry IndexedFaceSet {
        ccw TRUE
        solid FALSE
        coord DEF co Coordinate {
            point [
                -0.1319 2.1496 1.1255, -0.1319 2.1496 1.1266, -0.0934 2.1496 1.1269, -0.1319 2.1496 1.1357, -0.1096 2.1496 1.1327, -0.0984 2.1496 1.13, -0.0949 2.1496 1.1281, -0.1308 2.1496 1.118, -0.0914 2.1496 1.1244, -0.1284 2.1496 1.1121, -0.0924 2.1496 1.1051, -0.0939 2.1496 1.1037, -0.1227 2.1496 1.1051, -0.0905 2.1496 1.1079, -0.1179 2.1496 1.1019, -0.1129 2.1496 1.1001, -0.1066 2.1496 1.0994, -0.09 2.1496 1.1213, -0.0892 2.1496 1.1175, -0.1248 2.1496 1.1072, -0.089 2.1496 1.1148, -0.0894 2.1496 1.111, -0.0972 2.1496 1.1014, -0.101 2.1496 1.1
            ]
        }
        coordIndex [
            0,1,2,-1,1,3,4,-1,4,5,1,-1,1,5,6,-1,1,6,2,-1,0,2,7,-1,7,2,8,-1,7,8,9,-1,10,11,12,-1,10,12,13,-1,14,12,15,-1,15,12,16,-1,8,17,9,-1,9,17,18,-1,9,18,19,-1,19,18,20,-1,19,20,12,-1,12,20,21,-1,12,21,13,-1,11,22,12,-1,12,22,23,-1,12,23,16,-1,
        ]
    }
}
Shape{
    appearance Appearance {
        material  Material 	{
            diffuseColor 1.0 1.0 1.0
            specularColor 0.5019607843137255 0.5019607843137255 0.5019607843137255
            ambientIntensity 1.0
            transparency 0.0
            shininess 0.5
        }
    }
    geometry IndexedFaceSet {
        ccw TRUE
        solid FALSE
        coord DEF co Coordinate {
            point [
                -0.1713 2.1496 1.1085, -0.1713 2.1535 1.1085, -0.1781 2.1535 1.1043, -0.1988 2.1535 1.0993, -0.1988 2.1496 1.0993, -0.1886 2.1496 1.1005, -0.1886 2.1535 1.1005, -0.179 2.1496 1.104, -0.1781 2.1496 1.1043, -0.1713 2.1535 1.0913, -0.1713 2.1496 1.0913, -0.1813 2.1535 1.0875, -0.179 2.1496 1.0884, -0.1971 2.1496 1.0857, -0.1971 2.1535 1.0857, -0.1877 2.1496 1.0868, -0.1813 2.1496 1.0875, -0.2121 2.1535 1.0874, -0.2067 2.1496 1.0868, -0.2121 2.1496 1.0874, -0.221 2.1496 1.0908, -0.221 2.1535 1.0908, -0.2249 2.1496 1.0932, -0.2249 2.1535 1.0932, -0.2297 2.1496 1.0974, -0.2297 2.1535 1.0974, -0.2328 2.1496 1.1018, -0.2328 2.1535 1.1018, -0.2349 2.1496 1.1071, -0.2349 2.1535 1.1071, -0.2357 2.1496 1.1138, -0.2357 2.1535 1.1138, -0.235 2.1496 1.1201, -0.235 2.1535 1.1201, -0.2332 2.1496 1.125, -0.2332 2.1535 1.125, -0.2301 2.1496 1.1296, -0.2301 2.1535 1.1296, -0.2261 2.1496 1.1332, -0.2261 2.1535 1.1332, -0.215 2.1496 1.1393, -0.215 2.1535 1.1393, -0.2085 2.1496 1.142, -0.2085 2.1535 1.142, -0.1982 2.1496 1.1465, -0.1982 2.1535 1.1465, -0.1923 2.1496 1.1501, -0.1923 2.1535 1.1501, -0.1906 2.1496 1.1519, -0.1906 2.1535 1.1519, -0.1894 2.1496 1.1542, -0.1894 2.1535 1.1542, -0.1888 2.1496 1.1568, -0.1888 2.1535 1.1568, -0.1886 2.1496 1.159, -0.1886 2.1535 1.159, -0.1889 2.1496 1.1617, -0.1889 2.1535 1.1617, -0.1897 2.1496 1.1639, -0.1897 2.1535 1.1639, -0.1912 2.1496 1.1661, -0.1912 2.1535 1.1661, -0.1937 2.1496 1.1683, -0.1937 2.1535 1.1683, -0.1975 2.1496 1.1703, -0.1975 2.1535 1.1703, -0.2019 2.1496 1.1715, -0.2019 2.1535 1.1715, -0.2069 2.1496 1.1718, -0.2069 2.1535 1.1718, -0.2174 2.1496 1.1707, -0.2174 2.1535 1.1707, -0.2269 2.1496 1.1673, -0.2269 2.1535 1.1673, -0.2311 2.1496 1.1649, -0.2311 2.1535 1.1649, -0.2311 2.1535 1.1812, -0.2311 2.1496 1.1812, -0.2202 2.1496 1.1844, -0.2202 2.1535 1.1844, -0.2085 2.1496 1.1854, -0.2085 2.1535 1.1854, -0.197 2.1496 1.1842, -0.197 2.1535 1.1842, -0.1877 2.1496 1.1811, -0.1877 2.1535 1.1811, -0.1821 2.1496 1.1778, -0.1821 2.1535 1.1778, -0.1771 2.1535 1.1734, -0.179 2.1496 1.1751, -0.1771 2.1496 1.1734, -0.174 2.1496 1.1689, -0.174 2.1535 1.1689, -0.1721 2.1496 1.1635, -0.1721 2.1535 1.1635, -0.1714 2.1496 1.1575, -0.1714 2.1535 1.1575, -0.1721 2.1496 1.151, -0.1721 2.1535 1.151, -0.174 2.1496 1.1459, -0.174 2.1535 1.1459, -0.1761 2.1496 1.1424, -0.1761 2.1535 1.1424, -0.1967 2.1496 1.1298, -0.1967 2.1535 1.1298, -0.1867 2.1535 1.1344, -0.1789 2.1496 1.1396, -0.1789 2.1535 1.1396, -0.179 2.1496 1.1395, -0.1867 2.1496 1.1344, -0.2077 2.1496 1.1252, -0.2077 2.1535 1.1252, -0.2142 2.1496 1.1213, -0.2142 2.1535 1.1213, -0.2163 2.1496 1.1191, -0.2163 2.1535 1.1191, -0.2176 2.1496 1.1169, -0.2176 2.1535 1.1169, -0.2183 2.1496 1.1143, -0.2183 2.1535 1.1143, -0.2185 2.1496 1.1122, -0.2185 2.1535 1.1122, -0.2182 2.1496 1.109, -0.2182 2.1535 1.109, -0.2173 2.1496 1.1066, -0.2173 2.1535 1.1066, -0.2158 2.1496 1.1045, -0.2158 2.1535 1.1045, -0.2139 2.1496 1.1028, -0.2139 2.1535 1.1028, -0.2124 2.1496 1.1019, -0.2124 2.1535 1.1019, -0.2081 2.1496 1.1003, -0.2081 2.1535 1.1003, -0.1995 2.1496 1.0993, -0.1995 2.1535 1.0993, -0.3185 2.1535 1.1832, -0.3359 2.1535 1.1832, -0.3185 2.1496 1.1832, -0.3359 2.1496 1.1832, -0.2925 2.1535 1.1115, -0.2925 2.1496 1.1115, -0.2912 2.1496 1.107, -0.2912 2.1535 1.107, -0.2904 2.1496 1.1037, -0.2904 2.1535 1.1037, -0.29 2.1535 1.1037, -0.29 2.1496 1.1037, -0.288 2.1535 1.1116, -0.288 2.1496 1.1116, -0.2631 2.1496 1.1832, -0.2631 2.1535 1.1832, -0.2711 2.1496 1.16, -0.2444 2.1535 1.1832, -0.2444 2.1496 1.1832, -0.2817 2.1496 1.0881, -0.2817 2.1535 1.0881, -0.2711 2.1496 1.1152, -0.2744 2.1496 1.0708, -0.2744 2.1535 1.0708, -0.2812 2.1496 1.0868, -0.2711 2.1496 1.0648, -0.2711 2.1535 1.0647, -0.2711 2.1496 1.0647, -0.268 2.1496 1.0612, -0.268 2.1535 1.0612, -0.2652 2.1496 1.0593, -0.2652 2.1535 1.0593, -0.2615 2.1496 1.0579, -0.2615 2.1535 1.0579, -0.2573 2.1496 1.0574, -0.2573 2.1535 1.0574, -0.2512 2.1496 1.0581, -0.2512 2.1535 1.0581, -0.2478 2.1496 1.0593, -0.2478 2.1535 1.0593, -0.2478 2.1535 1.0444, -0.2478 2.1496 1.0444, -0.2549 2.1496 1.0432, -0.2549 2.1535 1.0432, -0.2586 2.1496 1.043, -0.2586 2.1535 1.043, -0.2653 2.1496 1.0438, -0.2653 2.1535 1.0438, -0.2711 2.1496 1.046, -0.2719 2.1535 1.0463, -0.2719 2.1496 1.0463, -0.2778 2.1496 1.0504, -0.2778 2.1535 1.0504, -0.2789 2.1496 1.0514, -0.2789 2.1535 1.0514, -0.285 2.1496 1.0588, -0.285 2.1535 1.0588, -0.2926 2.1496 1.0735, -0.2926 2.1535 1.0735, -0.2978 2.1496 1.0868, -0.4256 2.1535 1.1031, -0.4256 2.1535 1.0879, -0.4256 2.1496 1.1031, -0.4256 2.1496 1.0879, -0.3711 2.1496 1.1031, -0.3711 2.1535 1.1031, -0.3961 2.1496 1.1031, -0.3711 2.1535 1.148, -0.3711 2.1496 1.148, -0.4188 2.1496 1.148, -0.4188 2.1535 1.148, -0.3961 2.1496 1.148, -0.4188 2.1535 1.1633, -0.4188 2.1496 1.1633, -0.3711 2.1496 1.1633, -0.3711 2.1535 1.1633, -0.3961 2.1496 1.1633, -0.3711 2.1535 1.206, -0.3711 2.1496 1.206, -0.4226 2.1496 1.206, -0.4226 2.1535 1.206, -0.3961 2.1496 1.206, -0.4226 2.1535 1.2214, -0.4226 2.1496 1.2214, -0.3539 2.1496 1.2214, -0.3539 2.1535 1.2214, -0.3961 2.1496 1.2214, -0.3539 2.1535 1.0879, -0.3539 2.1496 1.0879, -0.3961 2.1496 1.0879, -0.5394 2.1535 1.1066, -0.5256 2.1535 1.1156, -0.5254 2.1535 1.0966, -0.517 2.1535 1.1096, -0.5102 2.1535 1.0907, -0.5059 2.1535 1.1053, -0.4876 2.1535 1.0879, -0.4874 2.1535 1.1031, -0.4508 2.1535 1.0879, -0.4681 2.1535 1.1031, -0.4508 2.1535 1.2214, -0.4681 2.1535 1.206, -0.4889 2.1535 1.2214, -0.4882 2.1535 1.206, -0.4898 2.1535 1.206, -0.5093 2.1535 1.2191, -0.5068 2.1535 1.2038, -0.5254 2.1535 1.2132, -0.5182 2.1535 1.1993, -0.5394 2.1535 1.2037, -0.5267 2.1535 1.1935, -0.5441 2.1535 1.1991, -0.5305 2.1535 1.1898, -0.5523 2.1535 1.1875, -0.5356 2.1535 1.1823, -0.5573 2.1535 1.1747, -0.5394 2.1535 1.1726, -0.5595 2.1535 1.1563, -0.5414 2.1535 1.1559, -0.5591 2.1535 1.1478, -0.5408 2.1535 1.1465, -0.5559 2.1535 1.1322, -0.5381 2.1535 1.1345, -0.5493 2.1535 1.1184, -0.5334 2.1535 1.1247, -0.5271 2.1535 1.117, -0.4876 2.1496 1.0879, -0.4508 2.1496 1.0879, -0.5102 2.1496 1.0907, -0.5254 2.1496 1.0966, -0.5394 2.1496 1.1066, -0.5493 2.1496 1.1184, -0.5559 2.1496 1.1322, -0.5591 2.1496 1.1478, -0.5595 2.1496 1.1563, -0.5573 2.1496 1.1747, -0.5523 2.1496 1.1875, -0.5441 2.1496 1.1991, -0.5394 2.1496 1.2037, -0.5254 2.1496 1.2132, -0.5093 2.1496 1.2191, -0.4889 2.1496 1.2214, -0.4508 2.1496 1.2214, -0.4882 2.1496 1.206, -0.4681 2.1496 1.206, -0.4681 2.1496 1.1031, -0.4874 2.1496 1.1031, -0.5271 2.1496 1.117, -0.5256 2.1496 1.1156, -0.517 2.1496 1.1096, -0.5059 2.1496 1.1053, -0.5414 2.1496 1.1559, -0.5408 2.1496 1.1465, -0.5381 2.1496 1.1345, -0.5334 2.1496 1.1247, -0.5267 2.1496 1.1935, -0.5305 2.1496 1.1898, -0.5356 2.1496 1.1823, -0.5394 2.1496 1.1726, -0.4898 2.1496 1.206, -0.5068 2.1496 1.2038, -0.5182 2.1496 1.1993
            ]
        }
        coordIndex [
            0,1,2,-1,3,4,5,-1,3,5,6,-1,6,5,7,-1,6,7,2,-1,2,7,8,-1,2,8,0,-1,9,1,10,-1,10,1,0,-1,9,10,11,-1,11,10,12,-1,13,14,15,-1,15,14,11,-1,15,11,16,-1,16,11,12,-1,14,13,17,-1,17,13,18,-1,18,19,17,-1,17,19,20,-1,17,20,21,-1,21,20,22,-1,21,22,23,-1,23,22,24,-1,23,24,25,-1,25,24,26,-1,25,26,27,-1,27,26,28,-1,27,28,29,-1,29,28,30,-1,29,30,31,-1,31,30,32,-1,31,32,33,-1,33,32,34,-1,33,34,35,-1,35,34,36,-1,35,36,37,-1,37,36,38,-1,37,38,39,-1,39,38,40,-1,39,40,41,-1,41,40,42,-1,41,42,43,-1,43,42,44,-1,43,44,45,-1,45,44,46,-1,45,46,47,-1,47,46,48,-1,47,48,49,-1,49,48,50,-1,49,50,51,-1,51,50,52,-1,51,52,53,-1,53,52,54,-1,53,54,55,-1,55,54,56,-1,55,56,57,-1,57,56,58,-1,57,58,59,-1,59,58,60,-1,59,60,61,-1,61,60,62,-1,61,62,63,-1,63,62,64,-1,63,64,65,-1,65,64,66,-1,65,66,67,-1,67,66,68,-1,67,68,69,-1,69,68,70,-1,69,70,71,-1,71,70,72,-1,71,72,73,-1,73,72,74,-1,73,74,75,-1,76,75,77,-1,77,75,74,-1,76,77,78,-1,76,78,79,-1,79,78,80,-1,79,80,81,-1,81,80,82,-1,81,82,83,-1,83,82,84,-1,83,84,85,-1,85,84,86,-1,85,86,87,-1,87,86,88,-1,88,86,89,-1,89,90,88,-1,88,90,91,-1,88,91,92,-1,92,91,93,-1,92,93,94,-1,94,93,95,-1,94,95,96,-1,96,95,97,-1,96,97,98,-1,98,97,99,-1,98,99,100,-1,100,99,101,-1,100,101,102,-1,103,104,105,-1,102,101,106,-1,102,106,107,-1,107,106,108,-1,107,108,105,-1,105,108,109,-1,105,109,103,-1,104,103,110,-1,104,110,111,-1,111,110,112,-1,111,112,113,-1,113,112,114,-1,113,114,115,-1,115,114,116,-1,115,116,117,-1,117,116,118,-1,117,118,119,-1,119,118,120,-1,119,120,121,-1,121,120,122,-1,121,122,123,-1,123,122,124,-1,123,124,125,-1,125,124,126,-1,125,126,127,-1,127,126,128,-1,127,128,129,-1,129,128,130,-1,129,130,131,-1,131,130,132,-1,131,132,133,-1,133,132,134,-1,133,134,135,-1,135,134,4,-1,135,4,3,-1,61,63,85,-1,85,63,83,-1,111,43,104,-1,104,43,45,-1,21,23,127,-1,127,23,25,-1,127,25,125,-1,125,25,27,-1,125,27,123,-1,123,27,29,-1,123,29,121,-1,121,29,31,-1,121,31,119,-1,119,31,33,-1,119,33,117,-1,117,33,35,-1,117,35,115,-1,115,35,37,-1,115,37,113,-1,113,37,39,-1,113,39,111,-1,111,39,41,-1,111,41,43,-1,14,3,11,-1,11,3,6,-1,11,6,9,-1,9,6,2,-1,9,2,1,-1,63,65,83,-1,83,65,67,-1,83,67,81,-1,81,67,69,-1,81,69,79,-1,79,69,71,-1,79,71,76,-1,76,71,73,-1,76,73,75,-1,127,129,21,-1,21,129,131,-1,21,131,17,-1,17,131,133,-1,17,133,14,-1,14,133,135,-1,14,135,3,-1,85,87,61,-1,61,87,88,-1,61,88,59,-1,59,88,92,-1,59,92,57,-1,57,92,94,-1,57,94,55,-1,55,94,96,-1,55,96,53,-1,53,96,98,-1,53,98,51,-1,51,98,100,-1,51,100,49,-1,49,100,102,-1,49,102,47,-1,47,102,107,-1,47,107,45,-1,45,107,105,-1,45,105,104,-1,136,137,138,-1,138,137,139,-1,140,136,141,-1,141,136,138,-1,140,141,142,-1,140,142,143,-1,143,142,144,-1,143,144,145,-1,146,145,147,-1,147,145,144,-1,148,146,149,-1,149,146,147,-1,150,151,152,-1,152,151,148,-1,152,148,149,-1,153,151,154,-1,154,151,150,-1,155,156,157,-1,157,156,153,-1,157,153,154,-1,158,159,160,-1,160,159,156,-1,160,156,155,-1,158,161,159,-1,159,161,162,-1,161,163,162,-1,162,163,164,-1,162,164,165,-1,165,164,166,-1,165,166,167,-1,167,166,168,-1,167,168,169,-1,169,168,170,-1,169,170,171,-1,171,170,172,-1,171,172,173,-1,173,172,174,-1,173,174,175,-1,176,175,177,-1,177,175,174,-1,176,177,178,-1,176,178,179,-1,179,178,180,-1,179,180,181,-1,181,180,182,-1,181,182,183,-1,183,182,184,-1,183,184,185,-1,184,186,185,-1,185,186,187,-1,185,187,188,-1,188,187,189,-1,188,189,190,-1,190,189,191,-1,190,191,192,-1,192,191,193,-1,192,193,194,-1,139,137,195,-1,195,137,194,-1,195,194,193,-1,143,145,194,-1,137,136,194,-1,194,136,140,-1,194,140,143,-1,151,153,148,-1,148,153,156,-1,148,156,146,-1,175,176,173,-1,173,176,179,-1,173,179,171,-1,171,179,181,-1,171,181,169,-1,169,181,183,-1,169,183,167,-1,167,183,185,-1,167,185,165,-1,145,146,194,-1,194,146,156,-1,194,156,192,-1,156,159,192,-1,192,159,162,-1,192,162,190,-1,190,162,165,-1,190,165,188,-1,188,165,185,-1,196,197,198,-1,198,197,199,-1,200,201,202,-1,202,201,196,-1,202,196,198,-1,203,201,204,-1,204,201,200,-1,205,206,207,-1,207,206,203,-1,207,203,204,-1,208,206,209,-1,209,206,205,-1,210,211,212,-1,212,211,208,-1,212,208,209,-1,213,211,214,-1,214,211,210,-1,215,216,217,-1,217,216,213,-1,217,213,214,-1,218,216,219,-1,219,216,215,-1,220,221,222,-1,222,221,218,-1,222,218,219,-1,223,221,224,-1,224,221,220,-1,199,197,225,-1,225,197,223,-1,225,223,224,-1,223,197,196,-1,196,201,223,-1,223,201,203,-1,223,203,221,-1,216,218,213,-1,213,218,221,-1,213,221,211,-1,211,221,203,-1,211,203,208,-1,208,203,206,-1,226,227,228,-1,228,227,229,-1,228,229,230,-1,230,229,231,-1,230,231,232,-1,232,231,233,-1,232,233,234,-1,234,233,235,-1,234,235,236,-1,236,235,237,-1,236,237,238,-1,237,239,238,-1,238,239,240,-1,238,240,241,-1,241,240,242,-1,241,242,243,-1,243,242,244,-1,243,244,245,-1,245,244,246,-1,245,246,247,-1,247,246,248,-1,247,248,249,-1,249,248,250,-1,249,250,251,-1,251,250,252,-1,251,252,253,-1,253,252,254,-1,253,254,255,-1,255,254,256,-1,255,256,257,-1,257,256,258,-1,257,258,259,-1,259,258,260,-1,259,260,226,-1,226,260,261,-1,226,261,227,-1,232,234,262,-1,262,234,263,-1,232,262,264,-1,232,264,230,-1,230,264,265,-1,230,265,228,-1,228,265,266,-1,228,266,226,-1,226,266,267,-1,226,267,259,-1,259,267,268,-1,259,268,257,-1,257,268,269,-1,257,269,255,-1,255,269,270,-1,255,270,253,-1,253,270,271,-1,253,271,251,-1,251,271,272,-1,251,272,249,-1,249,272,273,-1,249,273,247,-1,247,273,274,-1,247,274,245,-1,245,274,275,-1,245,275,243,-1,243,275,276,-1,243,276,241,-1,241,276,277,-1,241,277,238,-1,236,238,278,-1,278,238,277,-1,234,236,263,-1,263,236,278,-1,239,237,279,-1,279,237,280,-1,237,235,280,-1,280,235,281,-1,235,233,281,-1,281,233,282,-1,261,283,284,-1,261,284,227,-1,227,284,285,-1,227,285,229,-1,229,285,286,-1,229,286,231,-1,231,286,282,-1,231,282,233,-1,254,287,288,-1,254,288,256,-1,256,288,289,-1,256,289,258,-1,258,289,290,-1,258,290,260,-1,260,290,283,-1,260,283,261,-1,246,291,292,-1,246,292,248,-1,248,292,293,-1,248,293,250,-1,250,293,294,-1,250,294,252,-1,252,294,287,-1,252,287,254,-1,239,279,295,-1,239,295,240,-1,240,295,296,-1,240,296,242,-1,242,296,297,-1,242,297,244,-1,244,297,291,-1,244,291,246,-1,
        ]
    }
}
Shape{
    appearance Appearance {
        material  Material 	{
            diffuseColor 0.25098039215686274 0.25098039215686274 0.25098039215686274
            specularColor 0.12549019607843137 0.12549019607843137 0.12549019607843137
            ambientIntensity 0.251
            transparency 0.0
            shininess 0.5
        }
    }
    geometry IndexedFaceSet {
        ccw TRUE
        solid FALSE
        coord DEF co Coordinate {
            point [
                -0.517 2.1496 1.1096, -0.5256 2.1496 1.1156, -0.4898 2.1496 1.206, -0.4681 2.1496 1.206, -0.4681 2.1496 1.1031, -0.4882 2.1496 1.206, -0.4874 2.1496 1.1031, -0.5059 2.1496 1.1053, -0.5271 2.1496 1.117, -0.5334 2.1496 1.1247, -0.5381 2.1496 1.1345, -0.5414 2.1496 1.1559, -0.5267 2.1496 1.1935, -0.5182 2.1496 1.1993, -0.5394 2.1496 1.1726, -0.5356 2.1496 1.1823, -0.5305 2.1496 1.1898, -0.5408 2.1496 1.1465, -0.5068 2.1496 1.2038
            ]
        }
        coordIndex [
            0,1,2,-1,3,4,5,-1,5,4,6,-1,5,6,2,-1,2,6,7,-1,2,7,0,-1,1,8,2,-1,2,8,9,-1,2,9,10,-1,11,12,13,-1,14,15,11,-1,11,15,16,-1,11,16,12,-1,10,17,2,-1,2,17,11,-1,2,11,18,-1,18,11,13,-1,
        ]
    }
}
Shape{
    appearance Appearance {
        material  Material 	{
            diffuseColor 1.0 1.0 1.0
            specularColor 0.5019607843137255 0.5019607843137255 0.5019607843137255
            ambientIntensity 1.0
            transparency 0.0
            shininess 0.5
        }
    }
    geometry IndexedFaceSet {
        ccw TRUE
        solid FALSE
        coord DEF co Coordinate {
            point [
                -0.6042 2.1535 1.1395, -0.5988 2.1535 1.1244, -0.649 2.1535 1.1395, -0.6543 2.1535 1.1244, -0.6242 2.1535 1.195, -0.6177 2.1535 1.2214, -0.5669 2.1535 1.0879, -0.5859 2.1535 1.0879, -0.6253 2.1535 1.1989, -0.6264 2.1535 1.2043, -0.6361 2.1535 1.2214, -0.6268 2.1535 1.2043, -0.6278 2.1535 1.1987, -0.6288 2.1535 1.195, -0.687 2.1535 1.0879, -0.6679 2.1535 1.0879, -0.6361 2.1496 1.2214, -0.687 2.1496 1.0879, -0.6177 2.1496 1.2214, -0.5669 2.1496 1.0879, -0.5859 2.1496 1.0879, -0.5988 2.1496 1.1244, -0.6543 2.1496 1.1244, -0.6679 2.1496 1.0879, -0.6042 2.1496 1.1395, -0.649 2.1496 1.1395, -0.6288 2.1496 1.195, -0.6268 2.1496 1.2043, -0.6278 2.1496 1.1987, -0.6264 2.1496 1.2043, -0.6242 2.1496 1.195, -0.6253 2.1496 1.1989
            ]
        }
        coordIndex [
            0,1,2,-1,2,1,3,-1,4,5,0,-1,0,5,6,-1,0,6,1,-1,1,6,7,-1,4,8,5,-1,5,8,9,-1,5,9,10,-1,10,9,11,-1,10,11,12,-1,12,13,10,-1,10,13,2,-1,10,2,14,-1,14,2,3,-1,14,3,15,-1,10,14,16,-1,16,14,17,-1,5,10,18,-1,18,10,16,-1,6,5,19,-1,19,5,18,-1,7,6,20,-1,20,6,19,-1,1,7,21,-1,21,7,20,-1,3,1,22,-1,22,1,21,-1,15,3,23,-1,23,3,22,-1,14,15,17,-1,17,15,23,-1,0,2,24,-1,24,2,25,-1,2,13,25,-1,25,13,26,-1,11,27,28,-1,11,28,12,-1,12,28,26,-1,12,26,13,-1,11,9,27,-1,27,9,29,-1,4,30,31,-1,4,31,8,-1,8,31,29,-1,8,29,9,-1,4,0,30,-1,30,0,24,-1,
        ]
    }
}
Shape{
    appearance Appearance {
        material  Material 	{
            diffuseColor 0.25098039215686274 0.25098039215686274 0.25098039215686274
            specularColor 0.12549019607843137 0.12549019607843137 0.12549019607843137
            ambientIntensity 0.251
            transparency 0.0
            shininess 0.5
        }
    }
    geometry IndexedFaceSet {
        ccw TRUE
        solid FALSE
        coord DEF co Coordinate {
            point [
                -0.6268 2.1496 1.2043, -0.6264 2.1496 1.2043, -0.6278 2.1496 1.1987, -0.6253 2.1496 1.1989, -0.6288 2.1496 1.195, -0.6242 2.1496 1.195, -0.649 2.1496 1.1395, -0.6042 2.1496 1.1395
            ]
        }
        coordIndex [
            0,1,2,-1,2,1,3,-1,2,3,4,-1,4,3,5,-1,4,5,6,-1,6,5,7,-1,
        ]
    }
}
Shape{
    appearance Appearance {
        material  Material 	{
            diffuseColor 1.0 1.0 1.0
            specularColor 0.5019607843137255 0.5019607843137255 0.5019607843137255
            ambientIntensity 1.0
            transparency 0.0
            shininess 0.5
        }
    }
    geometry IndexedFaceSet {
        ccw TRUE
        solid FALSE
        coord DEF co Coordinate {
            point [
                0.6051 2.1535 1.069, 0.591 2.1535 1.0516, 0.6136 2.1535 1.1529, 0.6301 2.1535 1.3178, 0.609 2.1535 1.329, 0.614 2.1535 1.3874, 0.5548 2.1535 1.3901, 0.5254 2.1535 1.3209, 0.5109 2.1535 1.3509, 0.4296 2.1535 1.1197, 0.4296 2.1535 1.1292, 0.5099 2.1535 1.1524, 0.5189 2.1535 1.1552, 0.6343 2.1535 1.1657, 0.6268 2.1535 1.093, 0.6146 2.1535 1.0894, 0.5766 2.1535 1.392, 0.4957 2.1535 1.1409, 0.4913 2.1535 1.1332, 0.4301 2.1535 1.1099, 0.2967 2.1535 1.1994, 0.3262 2.1535 1.2497, 0.4533 2.1535 1.1833, 0.5254 2.1535 1.1558, 0.5343 2.1535 1.1547, 0.5471 2.1535 1.2128, 0.5426 2.1535 1.1515, 0.5681 2.1535 1.2047, 0.5501 2.1535 1.1463, 0.5875 2.1535 1.1913, 0.5549 2.1535 1.141, 0.6032 2.1535 1.1733, 0.5596 2.1535 1.133, 0.5621 2.1535 1.124, 0.49 2.1535 1.2092, 0.5129 2.1535 1.2149, 0.5245 2.1535 1.2155, 0.5021 2.1535 1.1475, 0.5501 2.1535 1.0912, 0.5425 2.1535 1.086, 0.5724 2.1535 1.0376, 0.5337 2.1535 1.0827, 0.2654 2.1535 1.2933, 0.2578 2.1535 1.2933, 0.2189 2.1535 1.3446, 0.2398 2.1535 1.2911, 0.2143 2.1535 1.343, 0.2232 2.1535 1.2847, 0.186 2.1535 1.329, 0.1603 2.1535 1.3072, 0.5354 2.1535 1.4128, 0.4896 2.1535 1.3763, 0.5131 2.1535 1.4319, 0.4642 2.1535 1.3949, 0.4855 2.1535 1.4485, 0.5855 2.1535 1.3346, 0.5757 2.1535 1.3351, 0.5657 2.1535 1.3914, 0.5535 2.1535 1.3323, 0.5322 2.1535 1.3246, 0.4699 2.1535 1.1984, 0.1601 2.1535 1.1302, 0.2044 2.1535 1.1678, 0.1859 2.1535 1.1083, 0.2184 2.1535 1.1563, 0.2149 2.1535 1.0941, 0.2351 2.1535 1.1486, 0.2465 2.1535 1.0875, 0.2521 2.1535 1.1453, 0.3024 2.1535 1.0875, 0.2948 2.1535 1.1453, 0.3078 2.1535 1.0883, 0.5561 2.1535 1.0981, 0.5601 2.1535 1.1059, 0.5622 2.1535 1.1147, 0.2085 2.1535 1.2745, 0.1976 2.1535 1.2622, 0.1409 2.1535 1.2802, 0.1887 2.1535 1.2459, 0.1293 2.1535 1.2512, 0.1843 2.1535 1.2276, 0.125 2.1535 1.2203, 0.1838 2.1535 1.2193, 0.1294 2.1535 1.1864, 0.1861 2.1535 1.2009, 0.1413 2.1535 1.1564, 0.1927 2.1535 1.184, 0.2031 2.1535 1.1692, 0.2702 2.1535 1.4195, 0.3073 2.1535 1.3759, 0.237 2.1535 1.3805, 0.2859 2.1535 1.3503, 0.2712 2.1535 1.3197, 0.6677 2.1535 1.2632, 0.7301 2.1535 1.2474, 0.6706 2.1535 1.2402, 0.7303 2.1535 1.2383, 0.6694 2.1535 1.2256, 0.7258 2.1535 1.2012, 0.6626 2.1535 1.2024, 0.7122 2.1535 1.1659, 0.6513 2.1535 1.1831, 0.6905 2.1535 1.1349, 0.6611 2.1535 1.1098, 0.4889 2.1535 1.1246, 0.4886 2.1535 1.1154, 0.4356 2.1535 1.0864, 0.4906 2.1535 1.1062, 0.4468 2.1535 1.0653, 0.4948 2.1535 1.098, 0.4614 2.1535 1.0489, 0.5009 2.1535 1.0911, 0.4803 2.1535 1.0358, 0.5082 2.1535 1.086, 0.5015 2.1535 1.0277, 0.5165 2.1535 1.0828, 0.5245 2.1535 1.0248, 0.5254 2.1535 1.0818, 0.5281 2.1535 1.0249, 0.5505 2.1535 1.0284, 0.4414 2.1535 1.4642, 0.4332 2.1535 1.4075, 0.3992 2.1535 1.4689, 0.3983 2.1535 1.4119, 0.3536 2.1535 1.4633, 0.3661 2.1535 1.408, 0.3066 2.1535 1.4449, 0.3363 2.1535 1.3966, 0.3097 2.1535 1.3781, 0.6492 2.1535 1.3738, 0.6793 2.1535 1.3526, 0.6465 2.1535 1.3032, 0.6858 2.1535 1.3465, 0.6596 2.1535 1.2843, 0.7086 2.1535 1.3173, 0.7237 2.1535 1.2831, 0.2996 2.1535 1.1462, 0.3224 2.1535 1.0974, 0.3202 2.1535 1.0952, 0.2968 2.1535 1.1456, 0.3141 2.1535 1.0908, 0.33 2.1535 1.1169, 0.3291 2.1535 1.1098, 0.3266 2.1535 1.1034, 0.3079 2.1535 1.1453, 0.3144 2.1535 1.1428, 0.3297 2.1535 1.1206, 0.3202 2.1535 1.1386, 0.3242 2.1535 1.1343, 0.3278 2.1535 1.1278, 0.3005 2.1535 1.1463, 0.154 2.1496 1.2985, 0.1409 2.1496 1.2802, 0.1326 2.1496 1.2594, 0.1293 2.1496 1.2512, 0.125 2.1496 1.2203, 0.1603 2.1496 1.3072, 0.186 2.1496 1.329, 0.2143 2.1496 1.343, 0.2189 2.1496 1.3446, 0.237 2.1496 1.3805, 0.2702 2.1496 1.4195, 0.2912 2.1496 1.4342, 0.3066 2.1496 1.4449, 0.3536 2.1496 1.4633, 0.3992 2.1496 1.4689, 0.4414 2.1496 1.4642, 0.4855 2.1496 1.4485, 0.5092 2.1496 1.4342, 0.5131 2.1496 1.4319, 0.5354 2.1496 1.4128, 0.5548 2.1496 1.3901, 0.5657 2.1496 1.3914, 0.5766 2.1496 1.392, 0.614 2.1496 1.3874, 0.6492 2.1496 1.3738, 0.6793 2.1496 1.3526, 0.6858 2.1496 1.3465, 0.7279 2.1496 1.2594, 0.7237 2.1496 1.2831, 0.7169 2.1496 1.2985, 0.7086 2.1496 1.3173, 0.7301 2.1496 1.2474, 0.7303 2.1496 1.2383, 0.7258 2.1496 1.2012, 0.7122 2.1496 1.1659, 0.6905 2.1496 1.1349, 0.6611 2.1496 1.1098, 0.6268 2.1496 1.093, 0.6146 2.1496 1.0894, 0.6134 2.1496 1.0868, 0.6051 2.1496 1.069, 0.591 2.1496 1.0516, 0.5724 2.1496 1.0376, 0.5637 2.1496 1.0339, 0.5505 2.1496 1.0284, 0.5281 2.1496 1.0249, 0.5245 2.1496 1.0248, 0.4296 2.1496 1.1197, 0.5015 2.1496 1.0277, 0.4852 2.1496 1.0339, 0.4803 2.1496 1.0358, 0.4614 2.1496 1.0489, 0.4468 2.1496 1.0653, 0.4356 2.1496 1.0864, 0.4355 2.1496 1.0868, 0.4301 2.1496 1.1099, 0.4296 2.1496 1.1292, 0.2967 2.1496 1.1994, 0.3262 2.1496 1.2497, 0.4533 2.1496 1.1833, 0.4699 2.1496 1.1984, 0.49 2.1496 1.2092, 0.5129 2.1496 1.2149, 0.5245 2.1496 1.2155, 0.5471 2.1496 1.2128, 0.5681 2.1496 1.2047, 0.5875 2.1496 1.1913, 0.6032 2.1496 1.1733, 0.6136 2.1496 1.1529, 0.6343 2.1496 1.1657, 0.6513 2.1496 1.1831, 0.6626 2.1496 1.2024, 0.6694 2.1496 1.2256, 0.6706 2.1496 1.2402, 0.6682 2.1496 1.2594, 0.6677 2.1496 1.2632, 0.6596 2.1496 1.2843, 0.6498 2.1496 1.2985, 0.6465 2.1496 1.3032, 0.6301 2.1496 1.3178, 0.609 2.1496 1.329, 0.5855 2.1496 1.3346, 0.5757 2.1496 1.3351, 0.5535 2.1496 1.3323, 0.5322 2.1496 1.3246, 0.5254 2.1496 1.3209, 0.5109 2.1496 1.3509, 0.4896 2.1496 1.3763, 0.4642 2.1496 1.3949, 0.4332 2.1496 1.4075, 0.3983 2.1496 1.4119, 0.3661 2.1496 1.408, 0.3363 2.1496 1.3966, 0.3097 2.1496 1.3781, 0.3073 2.1496 1.3759, 0.2859 2.1496 1.3503, 0.2712 2.1496 1.3197, 0.2666 2.1496 1.2985, 0.2654 2.1496 1.2933, 0.2578 2.1496 1.2933, 0.2398 2.1496 1.2911, 0.2232 2.1496 1.2847, 0.2085 2.1496 1.2745, 0.1976 2.1496 1.2622, 0.196 2.1496 1.2594, 0.1887 2.1496 1.2459, 0.1843 2.1496 1.2276, 0.1838 2.1496 1.2193, 0.1861 2.1496 1.2009, 0.1927 2.1496 1.184, 0.2031 2.1496 1.1692, 0.2044 2.1496 1.1678, 0.2184 2.1496 1.1563, 0.2351 2.1496 1.1486, 0.2521 2.1496 1.1453, 0.2948 2.1496 1.1453, 0.2968 2.1496 1.1456, 0.2996 2.1496 1.1462, 0.3005 2.1496 1.1463, 0.3079 2.1496 1.1453, 0.3144 2.1496 1.1428, 0.3202 2.1496 1.1386, 0.3242 2.1496 1.1343, 0.3278 2.1496 1.1278, 0.3297 2.1496 1.1206, 0.33 2.1496 1.1169, 0.3291 2.1496 1.1098, 0.3266 2.1496 1.1034, 0.3224 2.1496 1.0974, 0.3202 2.1496 1.0952, 0.3141 2.1496 1.0908, 0.3078 2.1496 1.0883, 0.3024 2.1496 1.0875, 0.2465 2.1496 1.0875, 0.2149 2.1496 1.0941, 0.1859 2.1496 1.1083, 0.1601 2.1496 1.1302, 0.1413 2.1496 1.1564, 0.1294 2.1496 1.1864, 0.5254 2.1496 1.1558, 0.5189 2.1496 1.1552, 0.5099 2.1496 1.1524, 0.5021 2.1496 1.1475, 0.4957 2.1496 1.1409, 0.4913 2.1496 1.1332, 0.4889 2.1496 1.1246, 0.4886 2.1496 1.1154, 0.4906 2.1496 1.1062, 0.4948 2.1496 1.098, 0.5009 2.1496 1.0911, 0.5082 2.1496 1.086, 0.5165 2.1496 1.0828, 0.5254 2.1496 1.0818, 0.5337 2.1496 1.0827, 0.5425 2.1496 1.086, 0.5501 2.1496 1.0912, 0.5561 2.1496 1.0981, 0.5601 2.1496 1.1059, 0.5622 2.1496 1.1147, 0.5621 2.1496 1.124, 0.5596 2.1496 1.133, 0.5549 2.1496 1.141, 0.5501 2.1496 1.1463, 0.5426 2.1496 1.1515, 0.5343 2.1496 1.1547
            ]
        }
        coordIndex [
            0,1,2,-1,3,4,5,-1,6,7,8,-1,9,10,11,-1,11,10,12,-1,13,14,2,-1,2,14,15,-1,2,15,0,-1,5,4,16,-1,17,18,19,-1,20,21,10,-1,10,21,22,-1,10,22,12,-1,12,22,23,-1,24,25,26,-1,26,25,27,-1,26,27,28,-1,28,27,29,-1,28,29,30,-1,30,29,31,-1,30,31,32,-1,32,31,2,-1,32,2,33,-1,34,35,24,-1,24,35,36,-1,24,36,25,-1,9,11,19,-1,19,11,37,-1,19,37,17,-1,38,1,39,-1,39,1,40,-1,39,40,41,-1,42,43,44,-1,44,43,45,-1,44,45,46,-1,46,45,47,-1,46,47,48,-1,48,47,49,-1,6,8,50,-1,50,8,51,-1,50,51,52,-1,52,51,53,-1,52,53,54,-1,4,55,16,-1,16,55,56,-1,16,56,57,-1,57,56,58,-1,57,58,6,-1,6,58,59,-1,6,59,7,-1,23,22,24,-1,24,22,60,-1,24,60,34,-1,61,62,63,-1,63,62,64,-1,63,64,65,-1,65,64,66,-1,65,66,67,-1,67,66,68,-1,67,68,69,-1,69,68,70,-1,69,70,71,-1,38,72,1,-1,1,72,73,-1,1,73,2,-1,2,73,74,-1,2,74,33,-1,47,75,49,-1,49,75,76,-1,49,76,77,-1,77,76,78,-1,77,78,79,-1,79,78,80,-1,79,80,81,-1,81,80,82,-1,81,82,83,-1,83,82,84,-1,83,84,85,-1,85,84,86,-1,85,86,61,-1,61,86,87,-1,61,87,62,-1,88,89,90,-1,90,89,91,-1,90,91,44,-1,44,91,92,-1,44,92,42,-1,93,94,95,-1,95,94,96,-1,95,96,97,-1,97,96,98,-1,97,98,99,-1,99,98,100,-1,99,100,101,-1,101,100,102,-1,101,102,13,-1,13,102,103,-1,13,103,14,-1,18,104,19,-1,19,104,105,-1,19,105,106,-1,106,105,107,-1,106,107,108,-1,108,107,109,-1,108,109,110,-1,110,109,111,-1,110,111,112,-1,112,111,113,-1,112,113,114,-1,114,113,115,-1,114,115,116,-1,116,115,117,-1,116,117,118,-1,118,117,41,-1,118,41,119,-1,119,41,40,-1,54,53,120,-1,120,53,121,-1,120,121,122,-1,122,121,123,-1,122,123,124,-1,124,123,125,-1,124,125,126,-1,126,125,127,-1,126,127,88,-1,88,127,128,-1,88,128,89,-1,5,129,3,-1,3,129,130,-1,3,130,131,-1,131,130,132,-1,131,132,133,-1,133,132,134,-1,133,134,93,-1,93,134,135,-1,93,135,94,-1,136,137,138,-1,70,139,71,-1,71,139,136,-1,71,136,140,-1,140,136,138,-1,141,142,136,-1,136,142,143,-1,136,143,137,-1,144,145,146,-1,145,147,146,-1,146,147,148,-1,146,148,149,-1,141,136,146,-1,146,136,150,-1,146,150,144,-1,151,49,152,-1,152,49,77,-1,152,77,153,-1,153,77,79,-1,153,79,154,-1,154,79,81,-1,154,81,155,-1,151,156,49,-1,49,156,157,-1,49,157,48,-1,48,157,158,-1,48,158,46,-1,46,158,159,-1,46,159,44,-1,44,159,160,-1,44,160,90,-1,90,160,161,-1,90,161,88,-1,126,88,162,-1,162,88,161,-1,162,163,126,-1,126,163,164,-1,126,164,124,-1,124,164,165,-1,124,165,122,-1,122,165,166,-1,122,166,120,-1,120,166,167,-1,120,167,54,-1,54,167,52,-1,52,167,168,-1,52,168,169,-1,52,169,170,-1,52,170,50,-1,50,170,171,-1,50,171,6,-1,6,171,172,-1,6,172,57,-1,57,172,173,-1,57,173,16,-1,16,173,174,-1,16,174,5,-1,5,174,175,-1,5,175,129,-1,129,175,176,-1,129,176,130,-1,130,176,177,-1,130,177,132,-1,178,94,179,-1,179,94,135,-1,179,135,180,-1,180,135,134,-1,180,134,181,-1,181,134,132,-1,181,132,177,-1,178,182,94,-1,94,182,183,-1,94,183,96,-1,96,183,184,-1,96,184,98,-1,98,184,185,-1,98,185,100,-1,100,185,186,-1,100,186,102,-1,102,186,187,-1,102,187,103,-1,103,187,188,-1,103,188,14,-1,14,188,189,-1,14,189,15,-1,15,189,190,-1,15,190,0,-1,190,191,0,-1,0,191,192,-1,0,192,1,-1,1,192,193,-1,1,193,40,-1,40,193,194,-1,40,194,119,-1,194,195,119,-1,119,195,196,-1,119,196,118,-1,118,196,197,-1,118,197,116,-1,198,9,19,-1,116,197,199,-1,200,112,199,-1,199,112,114,-1,199,114,116,-1,200,201,112,-1,112,201,202,-1,112,202,110,-1,110,202,203,-1,110,203,108,-1,108,203,204,-1,108,204,106,-1,106,204,205,-1,106,205,19,-1,19,205,206,-1,19,206,198,-1,10,9,207,-1,207,9,198,-1,20,10,208,-1,208,10,207,-1,21,20,209,-1,209,20,208,-1,22,21,210,-1,210,21,209,-1,22,210,211,-1,22,211,60,-1,60,211,212,-1,60,212,34,-1,34,212,213,-1,34,213,35,-1,35,213,214,-1,35,214,36,-1,36,214,215,-1,36,215,25,-1,25,215,216,-1,25,216,27,-1,27,216,217,-1,27,217,29,-1,29,217,218,-1,29,218,31,-1,31,218,219,-1,31,219,2,-1,2,219,220,-1,2,220,13,-1,13,220,221,-1,13,221,101,-1,101,221,222,-1,101,222,99,-1,99,222,223,-1,99,223,97,-1,97,223,224,-1,97,224,95,-1,93,95,224,-1,224,225,93,-1,93,225,226,-1,93,226,227,-1,228,131,227,-1,227,131,133,-1,227,133,93,-1,228,229,131,-1,131,229,230,-1,131,230,3,-1,3,230,231,-1,3,231,4,-1,4,231,232,-1,4,232,55,-1,55,232,233,-1,55,233,56,-1,56,233,234,-1,56,234,58,-1,58,234,235,-1,58,235,59,-1,59,235,236,-1,59,236,7,-1,7,236,237,-1,7,237,8,-1,8,237,238,-1,8,238,51,-1,51,238,239,-1,51,239,53,-1,53,239,240,-1,53,240,121,-1,121,240,241,-1,121,241,123,-1,123,241,242,-1,123,242,125,-1,125,242,243,-1,125,243,127,-1,127,243,244,-1,127,244,128,-1,128,244,245,-1,128,245,89,-1,89,245,246,-1,89,246,91,-1,91,246,247,-1,91,247,92,-1,92,247,42,-1,42,247,248,-1,42,248,249,-1,43,42,250,-1,250,42,249,-1,43,250,251,-1,43,251,45,-1,45,251,252,-1,45,252,47,-1,47,252,253,-1,47,253,75,-1,75,253,254,-1,75,254,76,-1,76,254,255,-1,76,255,78,-1,255,256,78,-1,78,256,257,-1,78,257,80,-1,80,257,258,-1,80,258,82,-1,82,258,259,-1,82,259,84,-1,84,259,260,-1,84,260,86,-1,86,260,261,-1,86,261,87,-1,87,261,262,-1,87,262,62,-1,62,262,263,-1,62,263,64,-1,64,263,264,-1,64,264,66,-1,66,264,265,-1,66,265,68,-1,70,68,266,-1,266,68,265,-1,70,266,267,-1,70,267,139,-1,139,267,268,-1,139,268,136,-1,136,268,269,-1,136,269,150,-1,150,269,270,-1,150,270,144,-1,144,270,271,-1,144,271,145,-1,145,271,272,-1,145,272,147,-1,147,272,273,-1,147,273,148,-1,148,273,274,-1,148,274,149,-1,149,274,275,-1,149,275,146,-1,146,275,276,-1,146,276,141,-1,141,276,277,-1,141,277,142,-1,142,277,278,-1,142,278,143,-1,143,278,279,-1,143,279,137,-1,137,279,280,-1,137,280,138,-1,138,280,281,-1,138,281,140,-1,140,281,282,-1,140,282,71,-1,71,282,283,-1,71,283,69,-1,67,69,284,-1,284,69,283,-1,67,284,285,-1,67,285,65,-1,65,285,286,-1,65,286,63,-1,63,286,287,-1,63,287,61,-1,61,287,288,-1,61,288,85,-1,85,288,289,-1,85,289,83,-1,83,289,155,-1,83,155,81,-1,23,290,291,-1,23,291,12,-1,12,291,292,-1,12,292,11,-1,11,292,293,-1,11,293,37,-1,37,293,294,-1,37,294,17,-1,17,294,295,-1,17,295,18,-1,18,295,296,-1,18,296,104,-1,104,296,297,-1,104,297,105,-1,105,297,298,-1,105,298,107,-1,107,298,299,-1,107,299,109,-1,109,299,300,-1,109,300,111,-1,111,300,301,-1,111,301,113,-1,113,301,302,-1,113,302,115,-1,115,302,303,-1,115,303,117,-1,117,303,304,-1,117,304,41,-1,41,304,305,-1,41,305,39,-1,39,305,306,-1,39,306,38,-1,38,306,307,-1,38,307,72,-1,72,307,308,-1,72,308,73,-1,73,308,309,-1,73,309,74,-1,74,309,310,-1,74,310,33,-1,33,310,311,-1,33,311,32,-1,32,311,312,-1,32,312,30,-1,30,312,313,-1,30,313,28,-1,28,313,314,-1,28,314,26,-1,26,314,315,-1,26,315,24,-1,24,315,290,-1,24,290,23,-1,
        ]
    }
}
Shape{
    appearance Appearance {
        material  Material 	{
            diffuseColor 0.25098039215686274 0.25098039215686274 0.25098039215686274
            specularColor 0.12549019607843137 0.12549019607843137 0.12549019607843137
            ambientIntensity 0.251
            transparency 0.0
            shininess 0.5
        }
    }
    geometry IndexedFaceSet {
        ccw TRUE
        solid FALSE
        coord DEF co Coordinate {
            point [
                0.5254 2.1496 1.0818, 0.5501 2.1496 1.1463, 0.5549 2.1496 1.141, 0.5254 2.1496 1.1558, 0.5189 2.1496 1.1552, 0.5165 2.1496 1.0828, 0.5343 2.1496 1.1547, 0.5426 2.1496 1.1515, 0.5009 2.1496 1.0911, 0.4957 2.1496 1.1409, 0.5021 2.1496 1.1475, 0.5601 2.1496 1.1059, 0.5561 2.1496 1.0981, 0.5501 2.1496 1.0912, 0.5082 2.1496 1.086, 0.5099 2.1496 1.1524, 0.5425 2.1496 1.086, 0.5337 2.1496 1.0827, 0.5596 2.1496 1.133, 0.5621 2.1496 1.124, 0.5622 2.1496 1.1147, 0.4906 2.1496 1.1062, 0.4886 2.1496 1.1154, 0.4948 2.1496 1.098, 0.4889 2.1496 1.1246, 0.4913 2.1496 1.1332
            ]
        }
        coordIndex [
            0,1,2,-1,3,0,4,-1,4,0,5,-1,3,6,0,-1,0,6,7,-1,0,7,1,-1,8,9,10,-1,11,12,2,-1,2,12,13,-1,5,14,4,-1,4,14,8,-1,4,8,15,-1,15,8,10,-1,13,16,2,-1,2,16,17,-1,2,17,0,-1,18,19,2,-1,2,19,20,-1,2,20,11,-1,21,22,23,-1,23,22,24,-1,23,24,8,-1,8,24,25,-1,8,25,9,-1,
        ]
    }
}