#VRML V2.0 utf8
# 3D model generated by easyeda2kicad.py (https://github.com/uPesy/easyeda2kicad.py)

Shape{
    appearance Appearance {
        material  Material 	{
            diffuseColor 0.20784313725490197 0.20784313725490197 0.20784313725490197
            specularColor 0.01568627450980392 0.01568627450980392 0.01568627450980392
            ambientIntensity 0.298
            transparency 0.0
            shininess 0.5
        }
    }
    geometry IndexedFaceSet {
        ccw TRUE
        solid FALSE
        coord DEF co Coordinate {
            point [
                0.0674 0.0213 0.0295, 0.0752 0.0205 0.0295, 0.0504 -0.0378 0.0295, 0.0581 0.0293 0.0295, 0.049 0.0269 0.0295, 0.0336 0.029 0.0295, -0.0067 0.029 0.0295, -0.0163 0.0295 0.0295, -0.0067 0.0204 0.0295, -0.0086 -0.0411 0.0295, -0.0086 -0.0497 0.0295, 0.0336 -0.0497 0.0295, 0.5553 -0.26 0.0295, -0.0163 -0.26 0.0295, 0.1034 0.0083 0.0295, 0.0988 0.0156 0.0295, 0.144 0.029 0.0295, 0.0917 0.0225 0.0295, 0.0842 0.0268 0.0295, 0.0578 0.0201 0.0295, 0.049 -0.037 0.0295, 0.049 0.0163 0.0295, 0.0754 0.0293 0.0295, 0.0734 0.0295 0.0295, 0.1546 0.029 0.0295, 0.023 -0.0142 0.0295, 0.023 -0.0411 0.0295, -0.0048 -0.0142 0.0295, -0.0048 -0.0056 0.0295, 0.023 -0.0056 0.0295, 0.023 0.0204 0.0295, 0.088 -0.0471 0.0295, 0.0943 -0.043 0.0295, 0.1143 -0.0497 0.0295, 0.1002 -0.0368 0.0295, 0.1143 -0.0411 0.0295, 0.1044 -0.0293 0.0295, 0.144 -0.0411 0.0295, 0.1068 -0.021 0.0295, 0.1075 -0.0118 0.0295, 0.1064 -0.0006 0.0295, 0.0811 0.0183 0.0295, 0.0865 0.0147 0.0295, 0.0913 0.0094 0.0295, 0.097 -0.0112 0.0295, 0.0962 -0.0197 0.0295, 0.094 -0.0265 0.0295, 0.0765 -0.0412 0.0295, 0.0692 -0.042 0.0295, 0.0823 -0.0391 0.0295, 0.0871 -0.0359 0.0295, 0.0908 -0.032 0.0295, 0.0587 -0.0409 0.0295, 0.0945 0.0034 0.0295, 0.0966 -0.0051 0.0295, 0.5553 0.0295 0.0295, 0.1546 -0.0497 0.0295, 0.0706 -0.0507 0.0295, 0.0803 -0.0497 0.0295, 0.049 -0.0456 0.0295, 0.0574 -0.0491 0.0295, 0.0685 -0.0507 0.0295, 0.5553 0.26 0.0295, -0.0163 0.26 0.0295, 0.0675 0.03 0.0295, 0.0605 0.0295 0.0295, -0.1229 0.029 0.0295, -0.1335 0.029 0.0295, -0.0835 -0.0281 0.0295, -0.0789 -0.0352 0.0295, -0.0931 -0.0497 0.0295, -0.0725 -0.0414 0.0295, -0.0642 -0.0462 0.0295, -0.1447 -0.0276 0.0295, -0.1122 -0.0276 0.0295, -0.1527 -0.0497 0.0295, -0.1047 -0.0497 0.0295, -0.1642 -0.0497 0.0295, -0.5553 -0.26 0.0295, -0.0552 -0.0489 0.0295, -0.0454 -0.0497 0.0295, -0.024 -0.0497 0.0295, -0.5553 0.0295 0.0295, -0.0668 0.0246 0.0295, -0.0754 0.0188 0.0295, -0.024 0.029 0.0295, -0.0462 0.029 0.0295, -0.0576 0.0278 0.0295, -0.0755 0.0187 0.0295, -0.081 0.0126 0.0295, -0.0847 0.0058 0.0295, -0.0868 -0.002 0.0295, -0.0874 -0.0094 0.0295, -0.0863 -0.0199 0.0295, -0.5553 0.26 0.0295, -0.5749 0.26 0.0475, -0.5749 -0.26 0.0475, -0.5906 0.2757 0.2264, -0.5906 -0.2757 0.2264, 0.4528 0.2953 0.2264, 0.5709 0.2953 0.2264, 0.4528 0.2918 0.187, 0.5553 0.2796 0.0475, 0.2953 0.2918 0.187, -0.5709 0.2953 0.2264, -0.4528 0.2953 0.2264, -0.5553 0.2796 0.0475, -0.4528 0.2918 0.187, -0.2953 0.2918 0.187, -0.2953 0.2953 0.2264, 0.2953 0.2953 0.2264, 0.5749 -0.26 0.0475, 0.5749 0.26 0.0475, 0.5906 -0.2757 0.2264, 0.5906 0.2757 0.2264, 0.5553 -0.2796 0.0475, 0.5709 -0.2953 0.2264, 0.4528 -0.2953 0.2264, 0.2953 -0.2918 0.187, 0.2953 -0.2953 0.2264, 0.0787 -0.2953 0.2264, 0.4528 -0.2918 0.187, 0.0787 -0.2918 0.187, -0.0787 -0.2953 0.2264, -0.2953 -0.2953 0.2264, -0.0787 -0.2918 0.187, -0.2953 -0.2918 0.187, -0.4528 -0.2953 0.2264, -0.5709 -0.2953 0.2264, -0.4528 -0.2918 0.187, -0.5553 -0.2796 0.0475, -0.5783 0.2635 0.3659, -0.5783 -0.2635 0.3659, -0.5587 -0.2831 0.3659, -0.2953 -0.2932 0.25, -0.0787 -0.2932 0.25, -0.4528 -0.2932 0.25, 0.5587 -0.2831 0.3659, 0.0787 -0.2932 0.25, 0.4528 -0.2932 0.25, 0.2953 -0.2932 0.25, 0.5783 -0.2635 0.3659, 0.5783 0.2635 0.3659, 0.5587 0.2831 0.3659, 0.4528 0.2932 0.25, 0.2953 0.2932 0.25, -0.5587 0.2831 0.3659, -0.4528 0.2932 0.25, -0.2953 0.2932 0.25, -0.442 -0.1949 0.3839, -0.4459 -0.2044 0.3839, 0.5587 -0.2635 0.3839, -0.4522 -0.2126 0.3839, -0.5587 -0.2635 0.3839, -0.4902 -0.2227 0.3839, -0.4997 -0.2188 0.3839, -0.4522 -0.1569 0.3839, -0.4459 -0.165 0.3839, 0.5587 0.2635 0.3839, -0.442 -0.1745 0.3839, -0.4406 -0.1847 0.3839, -0.4902 -0.1467 0.3839, -0.5587 0.2635 0.3839, -0.4997 -0.1506 0.3839, -0.5078 -0.1569 0.3839, -0.5078 -0.2126 0.3839, -0.5141 -0.2044 0.3839, -0.518 -0.1949 0.3839, -0.5194 -0.1847 0.3839, -0.518 -0.1745 0.3839, -0.5141 -0.165 0.3839, -0.48 -0.1453 0.3839, -0.4698 -0.1467 0.3839, -0.4603 -0.1506 0.3839, -0.4603 -0.2188 0.3839, -0.4698 -0.2227 0.3839, -0.48 -0.2241 0.3839
            ]
        }
        coordIndex [
            0,1,2,-1,3,4,5,-1,5,6,7,-1,6,8,7,-1,7,8,9,-1,7,9,10,-1,11,12,10,-1,10,12,13,-1,10,13,7,-1,14,15,16,-1,16,15,17,-1,16,17,18,-1,0,2,19,-1,19,2,20,-1,19,20,21,-1,18,22,16,-1,16,22,23,-1,16,23,24,-1,25,26,27,-1,27,26,9,-1,27,9,28,-1,28,9,8,-1,28,8,29,-1,29,8,30,-1,31,32,33,-1,33,32,34,-1,33,34,35,-1,35,34,36,-1,35,36,37,-1,4,21,5,-1,5,21,20,-1,5,20,11,-1,36,38,37,-1,37,38,39,-1,37,39,16,-1,16,39,40,-1,16,40,14,-1,1,41,2,-1,2,41,42,-1,2,42,43,-1,44,45,2,-1,2,45,46,-1,47,48,49,-1,49,48,50,-1,46,51,2,-1,2,51,50,-1,2,50,52,-1,52,50,48,-1,43,53,2,-1,2,53,54,-1,2,54,44,-1,55,12,56,-1,56,12,57,-1,56,57,33,-1,33,57,58,-1,33,58,31,-1,20,59,11,-1,11,59,60,-1,11,60,12,-1,12,60,61,-1,12,61,57,-1,56,24,55,-1,55,24,23,-1,55,23,62,-1,62,23,63,-1,63,23,64,-1,63,64,65,-1,66,67,7,-1,68,69,70,-1,70,69,71,-1,70,71,72,-1,73,74,75,-1,75,74,76,-1,77,75,78,-1,78,75,76,-1,78,76,13,-1,13,76,70,-1,72,79,70,-1,70,79,80,-1,70,80,13,-1,13,80,81,-1,13,81,7,-1,77,78,67,-1,67,78,82,-1,67,82,7,-1,66,83,84,-1,81,85,7,-1,7,85,86,-1,7,86,66,-1,66,86,87,-1,66,87,83,-1,84,88,66,-1,66,88,89,-1,66,89,90,-1,90,91,66,-1,66,91,92,-1,66,92,70,-1,70,92,93,-1,70,93,68,-1,3,5,65,-1,65,5,7,-1,65,7,63,-1,63,7,82,-1,63,82,94,-1,95,96,97,-1,97,96,98,-1,99,100,101,-1,101,100,102,-1,101,102,103,-1,104,105,106,-1,106,105,107,-1,106,107,108,-1,109,110,108,-1,108,110,103,-1,108,103,106,-1,106,103,102,-1,111,112,113,-1,113,112,114,-1,115,116,117,-1,118,119,120,-1,117,121,115,-1,115,121,118,-1,115,118,122,-1,122,118,120,-1,123,124,125,-1,125,124,126,-1,127,128,129,-1,129,128,130,-1,129,130,126,-1,126,130,115,-1,126,115,125,-1,125,115,122,-1,97,98,131,-1,131,98,132,-1,133,128,127,-1,124,123,134,-1,134,123,135,-1,127,136,133,-1,133,136,134,-1,133,134,137,-1,137,134,135,-1,137,135,138,-1,117,116,139,-1,139,116,137,-1,139,137,140,-1,140,137,138,-1,140,138,119,-1,119,138,120,-1,113,114,141,-1,141,114,142,-1,143,100,99,-1,99,144,143,-1,143,144,145,-1,143,145,146,-1,105,104,147,-1,147,104,146,-1,147,146,148,-1,148,146,145,-1,148,145,109,-1,109,145,110,-1,149,150,151,-1,151,150,152,-1,153,154,155,-1,156,157,158,-1,158,157,159,-1,158,159,151,-1,151,159,160,-1,151,160,149,-1,161,162,163,-1,163,162,164,-1,155,165,153,-1,153,165,166,-1,153,166,167,-1,167,168,153,-1,153,168,169,-1,153,169,162,-1,162,169,170,-1,162,170,164,-1,161,171,162,-1,162,171,172,-1,162,172,158,-1,158,172,173,-1,158,173,156,-1,152,174,151,-1,151,174,175,-1,151,175,153,-1,153,175,176,-1,153,176,154,-1,
        ]
    }
}
Shape{
    appearance Appearance {
        material  Material 	{
            diffuseColor 0.6666666666666666 0.6666666666666666 0.6666666666666666
            specularColor 0.4666666666666667 0.4666666666666667 0.4666666666666667
            ambientIntensity 0.6667
            transparency 0.0
            shininess 0.5
        }
    }
    geometry IndexedFaceSet {
        ccw TRUE
        solid FALSE
        coord DEF co Coordinate {
            point [
                -0.4528 -0.2932 0.25, -0.4528 -0.3583 0.25, -0.2953 -0.2932 0.25, -0.2953 -0.3583 0.25, -0.2953 -0.2918 0.187, -0.2953 -0.3583 0.187, -0.4528 -0.2918 0.187, -0.4528 -0.3583 0.187, -0.4528 -0.3623 0.1865, -0.2953 -0.3623 0.1865, -0.4528 -0.3661 0.1849, -0.2953 -0.3661 0.1849, -0.4528 -0.3694 0.1824, -0.2953 -0.3694 0.1824, -0.4528 -0.3719 0.1791, -0.2953 -0.3719 0.1791, -0.4528 -0.3735 0.1753, -0.2953 -0.3735 0.1753, -0.4528 -0.374 0.1713, -0.2953 -0.374 0.1713, -0.4528 -0.374 0.0787, -0.2953 -0.374 0.0787, -0.2953 -0.3767 0.0584, -0.4528 -0.3767 0.0584, -0.2953 -0.3846 0.0394, -0.4528 -0.3846 0.0394, -0.2953 -0.3971 0.0231, -0.4528 -0.3971 0.0231, -0.2953 -0.4134 0.0105, -0.4528 -0.4134 0.0105, -0.2953 -0.4324 0.0027, -0.4528 -0.4324 0.0027, -0.2953 -0.4528 0.0, -0.4528 -0.4528 0.0, -0.4528 -0.5512 0.0, -0.2953 -0.5512 0.0, -0.4528 -0.5512 0.063, -0.2953 -0.5512 0.063, -0.4528 -0.4528 0.063, -0.2953 -0.4528 0.063, -0.4528 -0.4487 0.0635, -0.2953 -0.4487 0.0635, -0.4528 -0.4449 0.0651, -0.2953 -0.4449 0.0651, -0.4528 -0.4416 0.0676, -0.2953 -0.4416 0.0676, -0.4528 -0.4391 0.0709, -0.2953 -0.4391 0.0709, -0.4528 -0.4375 0.0747, -0.2953 -0.4375 0.0747, -0.4528 -0.437 0.0787, -0.2953 -0.437 0.0787, -0.4528 -0.437 0.1713, -0.2953 -0.437 0.1713, -0.2953 -0.4343 0.1916, -0.4528 -0.4343 0.1916, -0.2953 -0.4265 0.2106, -0.4528 -0.4265 0.2106, -0.2953 -0.4139 0.2269, -0.4528 -0.4139 0.2269, -0.2953 -0.3976 0.2395, -0.4528 -0.3976 0.2395, -0.2953 -0.3786 0.2473, -0.4528 -0.3786 0.2473, -0.4528 -0.2953 0.2264, -0.2953 -0.2953 0.2264, -0.0787 -0.2932 0.25, -0.0787 -0.3583 0.25, 0.0787 -0.2932 0.25, 0.0787 -0.3583 0.25, 0.0787 -0.2918 0.187, 0.0787 -0.3583 0.187, -0.0787 -0.2918 0.187, -0.0787 -0.3583 0.187, -0.0787 -0.3623 0.1865, 0.0787 -0.3623 0.1865, -0.0787 -0.3661 0.1849, 0.0787 -0.3661 0.1849, -0.0787 -0.3694 0.1824, 0.0787 -0.3694 0.1824, -0.0787 -0.3719 0.1791, 0.0787 -0.3719 0.1791, -0.0787 -0.3735 0.1753, 0.0787 -0.3735 0.1753, -0.0787 -0.374 0.1713, 0.0787 -0.374 0.1713, -0.0787 -0.374 0.0787, 0.0787 -0.374 0.0787, 0.0787 -0.3767 0.0584, -0.0787 -0.3767 0.0584, 0.0787 -0.3846 0.0394, -0.0787 -0.3846 0.0394, 0.0787 -0.3971 0.0231, -0.0787 -0.3971 0.0231, 0.0787 -0.4134 0.0105, -0.0787 -0.4134 0.0105, 0.0787 -0.4324 0.0027, -0.0787 -0.4324 0.0027, 0.0787 -0.4528 0.0, -0.0787 -0.4528 0.0, -0.0787 -0.5512 0.0, 0.0787 -0.5512 0.0, -0.0787 -0.5512 0.063, 0.0787 -0.5512 0.063, -0.0787 -0.4528 0.063, 0.0787 -0.4528 0.063, -0.0787 -0.4487 0.0635, 0.0787 -0.4487 0.0635, -0.0787 -0.4449 0.0651, 0.0787 -0.4449 0.0651, -0.0787 -0.4416 0.0676, 0.0787 -0.4416 0.0676, -0.0787 -0.4391 0.0709, 0.0787 -0.4391 0.0709, -0.0787 -0.4375 0.0747, 0.0787 -0.4375 0.0747, -0.0787 -0.437 0.0787, 0.0787 -0.437 0.0787, -0.0787 -0.437 0.1713, 0.0787 -0.437 0.1713, 0.0787 -0.4343 0.1916, -0.0787 -0.4343 0.1916, 0.0787 -0.4265 0.2106, -0.0787 -0.4265 0.2106, 0.0787 -0.4139 0.2269, -0.0787 -0.4139 0.2269, 0.0787 -0.3976 0.2395, -0.0787 -0.3976 0.2395, 0.0787 -0.3786 0.2473, -0.0787 -0.3786 0.2473, -0.0787 -0.2953 0.2264, 0.0787 -0.2953 0.2264, 0.2953 -0.2932 0.25, 0.2953 -0.3583 0.25, 0.4528 -0.2932 0.25, 0.4528 -0.3583 0.25, 0.4528 -0.2918 0.187, 0.4528 -0.3583 0.187, 0.2953 -0.2918 0.187, 0.2953 -0.3583 0.187, 0.2953 -0.3623 0.1865, 0.4528 -0.3623 0.1865, 0.2953 -0.3661 0.1849, 0.4528 -0.3661 0.1849, 0.2953 -0.3694 0.1824, 0.4528 -0.3694 0.1824, 0.2953 -0.3719 0.1791, 0.4528 -0.3719 0.1791, 0.2953 -0.3735 0.1753, 0.4528 -0.3735 0.1753, 0.2953 -0.374 0.1713, 0.4528 -0.374 0.1713, 0.2953 -0.374 0.0787, 0.4528 -0.374 0.0787, 0.4528 -0.3767 0.0584, 0.2953 -0.3767 0.0584, 0.4528 -0.3846 0.0394, 0.2953 -0.3846 0.0394, 0.4528 -0.3971 0.0231, 0.2953 -0.3971 0.0231, 0.4528 -0.4134 0.0105, 0.2953 -0.4134 0.0105, 0.4528 -0.4324 0.0027, 0.2953 -0.4324 0.0027, 0.4528 -0.4528 0.0, 0.2953 -0.4528 0.0, 0.2953 -0.5512 0.0, 0.4528 -0.5512 0.0, 0.2953 -0.5512 0.063, 0.4528 -0.5512 0.063, 0.2953 -0.4528 0.063, 0.4528 -0.4528 0.063, 0.2953 -0.4487 0.0635, 0.4528 -0.4487 0.0635, 0.2953 -0.4449 0.0651, 0.4528 -0.4449 0.0651, 0.2953 -0.4416 0.0676, 0.4528 -0.4416 0.0676, 0.2953 -0.4391 0.0709, 0.4528 -0.4391 0.0709, 0.2953 -0.4375 0.0747, 0.4528 -0.4375 0.0747, 0.2953 -0.437 0.0787, 0.4528 -0.437 0.0787, 0.2953 -0.437 0.1713, 0.4528 -0.437 0.1713, 0.4528 -0.4343 0.1916, 0.2953 -0.4343 0.1916, 0.4528 -0.4265 0.2106, 0.2953 -0.4265 0.2106, 0.4528 -0.4139 0.2269, 0.2953 -0.4139 0.2269, 0.4528 -0.3976 0.2395, 0.2953 -0.3976 0.2395, 0.4528 -0.3786 0.2473, 0.2953 -0.3786 0.2473, 0.2953 -0.2953 0.2264, 0.4528 -0.2953 0.2264, -0.2953 0.3583 0.25, -0.4528 0.3583 0.25, -0.2953 0.2932 0.25, -0.4528 0.2932 0.25, -0.2953 0.3786 0.2473, -0.4528 0.3786 0.2473, -0.2953 0.3976 0.2395, -0.4528 0.3976 0.2395, -0.2953 0.4139 0.2269, -0.4528 0.4139 0.2269, -0.2953 0.4265 0.2106, -0.4528 0.4265 0.2106, -0.2953 0.4343 0.1916, -0.4528 0.4343 0.1916, -0.2953 0.437 0.1713, -0.4528 0.437 0.1713, -0.4528 0.437 0.0787, -0.2953 0.437 0.0787, -0.4528 0.4375 0.0747, -0.2953 0.4375 0.0747, -0.4528 0.4391 0.0709, -0.2953 0.4391 0.0709, -0.4528 0.4416 0.0676, -0.2953 0.4416 0.0676, -0.4528 0.4449 0.0651, -0.2953 0.4449 0.0651, -0.4528 0.4487 0.0635, -0.2953 0.4487 0.0635, -0.4528 0.4528 0.063, -0.2953 0.4528 0.063, -0.4528 0.5512 0.063, -0.2953 0.5512 0.063, -0.4528 0.5512 0.0, -0.2953 0.5512 0.0, -0.4528 0.4528 0.0, -0.2953 0.4528 0.0, -0.2953 0.4324 0.0027, -0.4528 0.4324 0.0027, -0.2953 0.4134 0.0105, -0.4528 0.4134 0.0105, -0.2953 0.3971 0.0231, -0.4528 0.3971 0.0231, -0.2953 0.3846 0.0394, -0.4528 0.3846 0.0394, -0.2953 0.3767 0.0584, -0.4528 0.3767 0.0584, -0.2953 0.374 0.0787, -0.4528 0.374 0.0787, -0.4528 0.374 0.1713, -0.2953 0.374 0.1713, -0.4528 0.3735 0.1753, -0.2953 0.3735 0.1753, -0.4528 0.3719 0.1791, -0.2953 0.3719 0.1791, -0.4528 0.3694 0.1824, -0.2953 0.3694 0.1824, -0.4528 0.3661 0.1849, -0.2953 0.3661 0.1849, -0.4528 0.3623 0.1865, -0.2953 0.3623 0.1865, -0.4528 0.3583 0.187, -0.2953 0.3583 0.187, -0.4528 0.2918 0.187, -0.2953 0.2918 0.187, -0.4528 0.2953 0.2264, -0.2953 0.2953 0.2264, 0.4528 0.3583 0.25, 0.2953 0.3583 0.25, 0.4528 0.2932 0.25, 0.2953 0.2932 0.25, 0.4528 0.3786 0.2473, 0.2953 0.3786 0.2473, 0.4528 0.3976 0.2395, 0.2953 0.3976 0.2395, 0.4528 0.4139 0.2269, 0.2953 0.4139 0.2269, 0.4528 0.4265 0.2106, 0.2953 0.4265 0.2106, 0.4528 0.4343 0.1916, 0.2953 0.4343 0.1916, 0.4528 0.437 0.1713, 0.2953 0.437 0.1713, 0.2953 0.437 0.0787, 0.4528 0.437 0.0787, 0.2953 0.4375 0.0747, 0.4528 0.4375 0.0747, 0.2953 0.4391 0.0709, 0.4528 0.4391 0.0709, 0.2953 0.4416 0.0676, 0.4528 0.4416 0.0676, 0.2953 0.4449 0.0651, 0.4528 0.4449 0.0651, 0.2953 0.4487 0.0635, 0.4528 0.4487 0.0635, 0.2953 0.4528 0.063, 0.4528 0.4528 0.063, 0.2953 0.5512 0.063, 0.4528 0.5512 0.063, 0.2953 0.5512 0.0, 0.4528 0.5512 0.0, 0.2953 0.4528 0.0, 0.4528 0.4528 0.0, 0.4528 0.4324 0.0027, 0.2953 0.4324 0.0027, 0.4528 0.4134 0.0105, 0.2953 0.4134 0.0105, 0.4528 0.3971 0.0231, 0.2953 0.3971 0.0231, 0.4528 0.3846 0.0394, 0.2953 0.3846 0.0394, 0.4528 0.3767 0.0584, 0.2953 0.3767 0.0584, 0.4528 0.374 0.0787, 0.2953 0.374 0.0787, 0.2953 0.374 0.1713, 0.4528 0.374 0.1713, 0.2953 0.3735 0.1753, 0.4528 0.3735 0.1753, 0.2953 0.3719 0.1791, 0.4528 0.3719 0.1791, 0.2953 0.3694 0.1824, 0.4528 0.3694 0.1824, 0.2953 0.3661 0.1849, 0.4528 0.3661 0.1849, 0.2953 0.3623 0.1865, 0.4528 0.3623 0.1865, 0.2953 0.3583 0.187, 0.4528 0.3583 0.187, 0.2953 0.2918 0.187, 0.4528 0.2918 0.187, 0.2953 0.2953 0.2264, 0.4528 0.2953 0.2264
            ]
        }
        coordIndex [
            0,1,2,-1,2,1,3,-1,4,5,6,-1,6,5,7,-1,7,5,8,-1,8,5,9,-1,8,9,10,-1,10,9,11,-1,10,11,12,-1,12,11,13,-1,12,13,14,-1,14,13,15,-1,14,15,16,-1,16,15,17,-1,16,17,18,-1,18,17,19,-1,20,18,21,-1,21,18,19,-1,20,21,22,-1,20,22,23,-1,23,22,24,-1,23,24,25,-1,25,24,26,-1,25,26,27,-1,27,26,28,-1,27,28,29,-1,29,28,30,-1,29,30,31,-1,31,30,32,-1,31,32,33,-1,34,33,35,-1,35,33,32,-1,36,34,37,-1,37,34,35,-1,38,36,39,-1,39,36,37,-1,38,39,40,-1,40,39,41,-1,40,41,42,-1,42,41,43,-1,42,43,44,-1,44,43,45,-1,44,45,46,-1,46,45,47,-1,46,47,48,-1,48,47,49,-1,48,49,50,-1,50,49,51,-1,52,50,53,-1,53,50,51,-1,52,53,54,-1,52,54,55,-1,55,54,56,-1,55,56,57,-1,57,56,58,-1,57,58,59,-1,59,58,60,-1,59,60,61,-1,61,60,62,-1,61,62,63,-1,63,62,3,-1,63,3,1,-1,6,63,64,-1,64,63,1,-1,64,1,0,-1,34,36,33,-1,33,36,38,-1,33,38,31,-1,31,38,40,-1,31,40,29,-1,29,40,42,-1,29,42,27,-1,27,42,44,-1,27,44,25,-1,25,44,46,-1,25,46,23,-1,23,46,48,-1,23,48,20,-1,20,48,50,-1,20,50,18,-1,18,50,52,-1,18,52,16,-1,16,52,55,-1,16,55,14,-1,14,55,57,-1,14,57,12,-1,12,57,59,-1,12,59,10,-1,10,59,61,-1,10,61,8,-1,8,61,63,-1,8,63,7,-1,7,63,6,-1,65,2,3,-1,3,62,65,-1,65,62,5,-1,65,5,4,-1,37,35,39,-1,39,35,32,-1,39,32,41,-1,41,32,30,-1,41,30,43,-1,43,30,28,-1,43,28,45,-1,45,28,26,-1,45,26,47,-1,47,26,24,-1,47,24,49,-1,49,24,22,-1,49,22,51,-1,51,22,21,-1,51,21,53,-1,53,21,19,-1,53,19,54,-1,54,19,17,-1,54,17,56,-1,56,17,15,-1,56,15,58,-1,58,15,13,-1,58,13,60,-1,60,13,11,-1,60,11,62,-1,62,11,9,-1,62,9,5,-1,66,67,68,-1,68,67,69,-1,70,71,72,-1,72,71,73,-1,73,71,74,-1,74,71,75,-1,74,75,76,-1,76,75,77,-1,76,77,78,-1,78,77,79,-1,78,79,80,-1,80,79,81,-1,80,81,82,-1,82,81,83,-1,82,83,84,-1,84,83,85,-1,86,84,87,-1,87,84,85,-1,86,87,88,-1,86,88,89,-1,89,88,90,-1,89,90,91,-1,91,90,92,-1,91,92,93,-1,93,92,94,-1,93,94,95,-1,95,94,96,-1,95,96,97,-1,97,96,98,-1,97,98,99,-1,100,99,101,-1,101,99,98,-1,102,100,103,-1,103,100,101,-1,104,102,105,-1,105,102,103,-1,104,105,106,-1,106,105,107,-1,106,107,108,-1,108,107,109,-1,108,109,110,-1,110,109,111,-1,110,111,112,-1,112,111,113,-1,112,113,114,-1,114,113,115,-1,114,115,116,-1,116,115,117,-1,118,116,119,-1,119,116,117,-1,118,119,120,-1,118,120,121,-1,121,120,122,-1,121,122,123,-1,123,122,124,-1,123,124,125,-1,125,124,126,-1,125,126,127,-1,127,126,128,-1,127,128,129,-1,129,128,69,-1,129,69,67,-1,72,129,130,-1,130,129,67,-1,130,67,66,-1,72,73,129,-1,129,73,74,-1,129,74,127,-1,127,74,76,-1,127,76,125,-1,125,76,78,-1,125,78,123,-1,123,78,80,-1,123,80,121,-1,121,80,82,-1,121,82,118,-1,118,82,84,-1,118,84,116,-1,116,84,86,-1,116,86,114,-1,114,86,89,-1,114,89,112,-1,112,89,91,-1,112,91,110,-1,110,91,93,-1,110,93,108,-1,108,93,95,-1,108,95,106,-1,106,95,97,-1,106,97,104,-1,104,97,99,-1,104,99,102,-1,102,99,100,-1,103,101,105,-1,105,101,98,-1,105,98,107,-1,107,98,96,-1,107,96,109,-1,109,96,94,-1,109,94,111,-1,111,94,92,-1,111,92,113,-1,113,92,90,-1,113,90,115,-1,115,90,88,-1,115,88,117,-1,117,88,87,-1,117,87,119,-1,119,87,85,-1,119,85,120,-1,120,85,83,-1,120,83,122,-1,122,83,81,-1,122,81,124,-1,124,81,79,-1,124,79,126,-1,126,79,77,-1,126,77,128,-1,128,131,69,-1,69,131,68,-1,70,131,71,-1,71,131,128,-1,71,128,75,-1,75,128,77,-1,132,133,134,-1,134,133,135,-1,136,137,138,-1,138,137,139,-1,139,137,140,-1,140,137,141,-1,140,141,142,-1,142,141,143,-1,142,143,144,-1,144,143,145,-1,144,145,146,-1,146,145,147,-1,146,147,148,-1,148,147,149,-1,148,149,150,-1,150,149,151,-1,152,150,153,-1,153,150,151,-1,152,153,154,-1,152,154,155,-1,155,154,156,-1,155,156,157,-1,157,156,158,-1,157,158,159,-1,159,158,160,-1,159,160,161,-1,161,160,162,-1,161,162,163,-1,163,162,164,-1,163,164,165,-1,166,165,167,-1,167,165,164,-1,168,166,169,-1,169,166,167,-1,170,168,171,-1,171,168,169,-1,170,171,172,-1,172,171,173,-1,172,173,174,-1,174,173,175,-1,174,175,176,-1,176,175,177,-1,176,177,178,-1,178,177,179,-1,178,179,180,-1,180,179,181,-1,180,181,182,-1,182,181,183,-1,184,182,185,-1,185,182,183,-1,184,185,186,-1,184,186,187,-1,187,186,188,-1,187,188,189,-1,189,188,190,-1,189,190,191,-1,191,190,192,-1,191,192,193,-1,193,192,194,-1,193,194,195,-1,195,194,135,-1,195,135,133,-1,138,195,196,-1,196,195,133,-1,196,133,132,-1,166,168,165,-1,165,168,170,-1,165,170,163,-1,163,170,172,-1,163,172,161,-1,161,172,174,-1,161,174,159,-1,159,174,176,-1,159,176,157,-1,157,176,178,-1,157,178,155,-1,155,178,180,-1,155,180,152,-1,152,180,182,-1,152,182,150,-1,150,182,184,-1,150,184,148,-1,148,184,187,-1,148,187,146,-1,146,187,189,-1,146,189,144,-1,144,189,191,-1,144,191,142,-1,142,191,193,-1,142,193,140,-1,140,193,195,-1,140,195,139,-1,139,195,138,-1,197,134,135,-1,135,194,197,-1,197,194,137,-1,197,137,136,-1,169,167,171,-1,171,167,164,-1,171,164,173,-1,173,164,162,-1,173,162,175,-1,175,162,160,-1,175,160,177,-1,177,160,158,-1,177,158,179,-1,179,158,156,-1,179,156,181,-1,181,156,154,-1,181,154,183,-1,183,154,153,-1,183,153,185,-1,185,153,151,-1,185,151,186,-1,186,151,149,-1,186,149,188,-1,188,149,147,-1,188,147,190,-1,190,147,145,-1,190,145,192,-1,192,145,143,-1,192,143,194,-1,194,143,141,-1,194,141,137,-1,198,199,200,-1,200,199,201,-1,199,198,202,-1,199,202,203,-1,203,202,204,-1,203,204,205,-1,205,204,206,-1,205,206,207,-1,207,206,208,-1,207,208,209,-1,209,208,210,-1,209,210,211,-1,211,210,212,-1,211,212,213,-1,214,213,215,-1,215,213,212,-1,214,215,216,-1,216,215,217,-1,216,217,218,-1,218,217,219,-1,218,219,220,-1,220,219,221,-1,220,221,222,-1,222,221,223,-1,222,223,224,-1,224,223,225,-1,224,225,226,-1,226,225,227,-1,228,226,229,-1,229,226,227,-1,230,228,231,-1,231,228,229,-1,232,230,233,-1,233,230,231,-1,232,233,234,-1,232,234,235,-1,235,234,236,-1,235,236,237,-1,237,236,238,-1,237,238,239,-1,239,238,240,-1,239,240,241,-1,241,240,242,-1,241,242,243,-1,243,242,244,-1,243,244,245,-1,246,245,247,-1,247,245,244,-1,246,247,248,-1,248,247,249,-1,248,249,250,-1,250,249,251,-1,250,251,252,-1,252,251,253,-1,252,253,254,-1,254,253,255,-1,254,255,256,-1,256,255,257,-1,256,257,258,-1,258,257,259,-1,258,259,260,-1,260,259,261,-1,262,201,199,-1,199,203,262,-1,262,203,258,-1,262,258,260,-1,228,230,226,-1,226,230,232,-1,226,232,224,-1,224,232,235,-1,224,235,222,-1,222,235,237,-1,222,237,220,-1,220,237,239,-1,220,239,218,-1,218,239,241,-1,218,241,216,-1,216,241,243,-1,216,243,214,-1,214,243,245,-1,214,245,213,-1,213,245,246,-1,213,246,211,-1,211,246,248,-1,211,248,209,-1,209,248,250,-1,209,250,207,-1,207,250,252,-1,207,252,205,-1,205,252,254,-1,205,254,203,-1,203,254,256,-1,203,256,258,-1,261,202,263,-1,263,202,198,-1,263,198,200,-1,231,229,233,-1,233,229,227,-1,233,227,234,-1,234,227,225,-1,234,225,236,-1,236,225,223,-1,236,223,238,-1,238,223,221,-1,238,221,240,-1,240,221,219,-1,240,219,242,-1,242,219,217,-1,242,217,244,-1,244,217,215,-1,244,215,247,-1,247,215,212,-1,247,212,249,-1,249,212,210,-1,249,210,251,-1,251,210,208,-1,251,208,253,-1,253,208,206,-1,253,206,255,-1,255,206,204,-1,255,204,257,-1,257,204,202,-1,257,202,259,-1,259,202,261,-1,264,265,266,-1,266,265,267,-1,265,264,268,-1,265,268,269,-1,269,268,270,-1,269,270,271,-1,271,270,272,-1,271,272,273,-1,273,272,274,-1,273,274,275,-1,275,274,276,-1,275,276,277,-1,277,276,278,-1,277,278,279,-1,280,279,281,-1,281,279,278,-1,280,281,282,-1,282,281,283,-1,282,283,284,-1,284,283,285,-1,284,285,286,-1,286,285,287,-1,286,287,288,-1,288,287,289,-1,288,289,290,-1,290,289,291,-1,290,291,292,-1,292,291,293,-1,294,292,295,-1,295,292,293,-1,296,294,297,-1,297,294,295,-1,298,296,299,-1,299,296,297,-1,298,299,300,-1,298,300,301,-1,301,300,302,-1,301,302,303,-1,303,302,304,-1,303,304,305,-1,305,304,306,-1,305,306,307,-1,307,306,308,-1,307,308,309,-1,309,308,310,-1,309,310,311,-1,312,311,313,-1,313,311,310,-1,312,313,314,-1,314,313,315,-1,314,315,316,-1,316,315,317,-1,316,317,318,-1,318,317,319,-1,318,319,320,-1,320,319,321,-1,320,321,322,-1,322,321,323,-1,322,323,324,-1,324,323,325,-1,324,325,326,-1,326,325,327,-1,328,267,265,-1,265,269,328,-1,328,269,324,-1,328,324,326,-1,294,296,292,-1,292,296,298,-1,292,298,290,-1,290,298,301,-1,290,301,288,-1,288,301,303,-1,288,303,286,-1,286,303,305,-1,286,305,284,-1,284,305,307,-1,284,307,282,-1,282,307,309,-1,282,309,280,-1,280,309,311,-1,280,311,279,-1,279,311,312,-1,279,312,277,-1,277,312,314,-1,277,314,275,-1,275,314,316,-1,275,316,273,-1,273,316,318,-1,273,318,271,-1,271,318,320,-1,271,320,269,-1,269,320,322,-1,269,322,324,-1,327,268,329,-1,329,268,264,-1,329,264,266,-1,297,295,299,-1,299,295,293,-1,299,293,300,-1,300,293,291,-1,300,291,302,-1,302,291,289,-1,302,289,304,-1,304,289,287,-1,304,287,306,-1,306,287,285,-1,306,285,308,-1,308,285,283,-1,308,283,310,-1,310,283,281,-1,310,281,313,-1,313,281,278,-1,313,278,315,-1,315,278,276,-1,315,276,317,-1,317,276,274,-1,317,274,319,-1,319,274,272,-1,319,272,321,-1,321,272,270,-1,321,270,323,-1,323,270,268,-1,323,268,325,-1,325,268,327,-1,
        ]
    }
}
Shape{
    appearance Appearance {
        material  Material 	{
            diffuseColor 0.20784313725490197 0.20784313725490197 0.20784313725490197
            specularColor 0.01568627450980392 0.01568627450980392 0.01568627450980392
            ambientIntensity 0.298
            transparency 0.0
            shininess 0.5
        }
    }
    geometry IndexedFaceSet {
        ccw TRUE
        solid FALSE
        coord DEF co Coordinate {
            point [
                -0.5587 0.2635 0.3839, 0.5587 0.2635 0.3839, 0.5587 0.2683 0.3833, 0.5587 0.2831 0.3659, -0.5587 0.2831 0.3659, 0.5587 0.2821 0.3705, -0.5587 0.2821 0.3705, 0.5587 0.282 0.3706, -0.5587 0.282 0.3706, 0.5587 0.28 0.3749, -0.5587 0.28 0.3749, 0.5587 0.2799 0.375, -0.5587 0.2799 0.375, 0.5587 0.2768 0.3786, -0.5587 0.2768 0.3786, 0.5587 0.2768 0.3787, -0.5587 0.2768 0.3787, 0.5587 0.2729 0.3815, -0.5587 0.2729 0.3815, 0.5587 0.2728 0.3815, -0.5587 0.2728 0.3815, 0.5587 0.2683 0.3833, -0.5587 0.2683 0.3833, -0.5587 0.2683 0.3833, -0.5773 0.2635 0.3706, -0.5752 0.2635 0.3749, -0.5748 0.2671 0.3749, -0.5752 0.2635 0.375, -0.5721 0.2635 0.3786, -0.5718 0.2664 0.3786, -0.5679 0.2656 0.3815, -0.5635 0.2645 0.3833, -0.5631 0.2656 0.3833, -0.5608 0.2678 0.3833, -0.5618 0.2672 0.3833, -0.5598 0.2682 0.3833, -0.5636 0.2635 0.3833, -0.5777 0.2678 0.3662, -0.5769 0.2676 0.3705, -0.5776 0.2685 0.3663, -0.5755 0.2715 0.3705, -0.5762 0.2719 0.3664, -0.5757 0.2732 0.3665, -0.5733 0.2751 0.3705, -0.5739 0.2755 0.3666, -0.5725 0.2773 0.3666, -0.5704 0.278 0.3705, -0.5708 0.2786 0.3666, -0.5685 0.2804 0.3665, -0.5668 0.2803 0.3705, -0.5672 0.281 0.3664, -0.5638 0.2824 0.3663, -0.5629 0.2816 0.3705, -0.5631 0.2825 0.3662, -0.572 0.2635 0.3787, -0.5681 0.2635 0.3815, -0.5681 0.2635 0.3815, -0.5636 0.2635 0.3833, -0.5661 0.2693 0.3815, -0.5646 0.2708 0.3815, -0.5628 0.2719 0.3815, -0.5608 0.2726 0.3815, -0.5672 0.2675 0.3815, -0.5625 0.2665 0.3833, -0.5708 0.2693 0.3786, -0.5692 0.2718 0.3786, -0.5671 0.2739 0.3786, -0.5645 0.2755 0.3786, -0.5617 0.2765 0.3786, -0.5736 0.2706 0.3749, -0.5716 0.2738 0.3749, -0.569 0.2764 0.3749, -0.5659 0.2783 0.3749, -0.5624 0.2796 0.3749, -0.5783 0.2635 0.3659, -0.5774 0.2635 0.3705, 0.5624 0.2796 0.3749, 0.5617 0.2765 0.3786, 0.5608 0.2726 0.3815, 0.5598 0.2682 0.3833, 0.5608 0.2678 0.3833, 0.5631 0.2656 0.3833, 0.5625 0.2665 0.3833, 0.5635 0.2645 0.3833, 0.5631 0.2825 0.3662, 0.5629 0.2816 0.3705, 0.5638 0.2824 0.3663, 0.5668 0.2803 0.3705, 0.5672 0.281 0.3664, 0.5685 0.2804 0.3665, 0.5704 0.278 0.3705, 0.5708 0.2786 0.3666, 0.5725 0.2773 0.3666, 0.5733 0.2751 0.3705, 0.5739 0.2755 0.3666, 0.5757 0.2732 0.3665, 0.5755 0.2715 0.3705, 0.5762 0.2719 0.3664, 0.5776 0.2685 0.3663, 0.5769 0.2676 0.3705, 0.5777 0.2678 0.3662, 0.5774 0.2635 0.3705, 0.5783 0.2635 0.3659, 0.5636 0.2635 0.3833, 0.5646 0.2708 0.3815, 0.5661 0.2693 0.3815, 0.5672 0.2675 0.3815, 0.5679 0.2656 0.3815, 0.5628 0.2719 0.3815, 0.5618 0.2672 0.3833, 0.5636 0.2635 0.3833, 0.5681 0.2635 0.3815, 0.5681 0.2635 0.3815, 0.572 0.2635 0.3787, 0.5645 0.2755 0.3786, 0.5671 0.2739 0.3786, 0.5692 0.2718 0.3786, 0.5708 0.2693 0.3786, 0.5718 0.2664 0.3786, 0.5659 0.2783 0.3749, 0.569 0.2764 0.3749, 0.5716 0.2738 0.3749, 0.5736 0.2706 0.3749, 0.5748 0.2671 0.3749, 0.5721 0.2635 0.3786, 0.5752 0.2635 0.375, 0.5752 0.2635 0.3749, 0.5773 0.2635 0.3706, -0.5906 0.2757 0.2264, -0.5899 0.2808 0.2264, -0.5891 0.2832 0.2264, -0.5879 0.2855 0.2264, -0.5865 0.2876 0.2264, -0.5848 0.2895 0.2264, -0.5829 0.2912 0.2264, -0.5808 0.2927 0.2264, -0.5785 0.2938 0.2264, -0.576 0.2946 0.2264, -0.5709 0.2953 0.2264, -0.5587 -0.2635 0.3839, -0.5783 -0.2635 0.3659, -0.5774 -0.2635 0.3705, -0.5773 -0.2635 0.3706, -0.5752 -0.2635 0.3749, -0.5752 -0.2635 0.375, -0.5721 -0.2635 0.3786, -0.572 -0.2635 0.3787, -0.5681 -0.2635 0.3815, -0.5681 -0.2635 0.3815, -0.5636 -0.2635 0.3833, -0.5636 -0.2635 0.3833, 0.5587 -0.2635 0.3839, -0.5587 -0.2683 0.3833, -0.5587 -0.2831 0.3659, 0.5587 -0.2831 0.3659, -0.5587 -0.2821 0.3705, 0.5587 -0.2821 0.3705, -0.5587 -0.282 0.3706, 0.5587 -0.282 0.3706, -0.5587 -0.28 0.3749, 0.5587 -0.28 0.3749, -0.5587 -0.2799 0.375, 0.5587 -0.2799 0.375, -0.5587 -0.2768 0.3786, 0.5587 -0.2768 0.3786, -0.5587 -0.2768 0.3787, 0.5587 -0.2768 0.3787, -0.5587 -0.2729 0.3815, 0.5587 -0.2729 0.3815, -0.5587 -0.2728 0.3815, 0.5587 -0.2728 0.3815, -0.5587 -0.2683 0.3833, 0.5587 -0.2683 0.3833, 0.5587 -0.2683 0.3833, 0.5636 -0.2635 0.3833, 0.5783 -0.2635 0.3659, 0.5774 -0.2635 0.3705, 0.5773 -0.2635 0.3706, 0.5752 -0.2635 0.3749, 0.5752 -0.2635 0.375, 0.5721 -0.2635 0.3786, 0.572 -0.2635 0.3787, 0.5681 -0.2635 0.3815, 0.5681 -0.2635 0.3815, 0.5636 -0.2635 0.3833, 0.5709 0.2953 0.2264, 0.576 0.2946 0.2264, 0.5785 0.2938 0.2264, 0.5808 0.2927 0.2264, 0.5829 0.2912 0.2264, 0.5848 0.2895 0.2264, 0.5865 0.2876 0.2264, 0.5879 0.2855 0.2264, 0.5891 0.2832 0.2264, 0.5899 0.2808 0.2264, 0.5906 0.2757 0.2264, -0.5553 0.2796 0.0475, -0.5603 0.2789 0.0471, -0.5604 0.2789 0.0471, -0.5651 0.2769 0.0469, -0.5651 0.2769 0.0469, -0.5691 0.2738 0.0468, -0.5722 0.2698 0.0469, -0.5722 0.2698 0.0469, -0.5742 0.2651 0.0471, -0.5742 0.2651 0.0471, -0.5749 0.26 0.0475, -0.5622 -0.2764 0.3786, -0.5612 -0.2725 0.3815, -0.56 -0.2681 0.3833, -0.5612 -0.2677 0.3833, -0.5629 -0.2659 0.3833, -0.5622 -0.2669 0.3833, -0.5634 -0.2647 0.3833, -0.5636 -0.2815 0.3705, -0.5638 -0.2824 0.3663, -0.5638 -0.2824 0.3663, -0.5685 -0.2804 0.3665, -0.5681 -0.2796 0.3705, -0.5685 -0.2804 0.3665, -0.5719 -0.2766 0.3705, -0.5725 -0.2773 0.3666, -0.5749 -0.2728 0.3705, -0.5757 -0.2732 0.3665, -0.5757 -0.2732 0.3665, -0.5767 -0.2683 0.3705, -0.5776 -0.2685 0.3663, -0.5776 -0.2685 0.3663, -0.5634 -0.2716 0.3815, -0.5654 -0.2701 0.3815, -0.5669 -0.2682 0.3815, -0.5678 -0.2659 0.3815, -0.5654 -0.275 0.3786, -0.5682 -0.2729 0.3786, -0.5703 -0.2701 0.3786, -0.5716 -0.2669 0.3786, -0.563 -0.2794 0.3749, -0.567 -0.2778 0.3749, -0.5704 -0.2751 0.3749, -0.573 -0.2717 0.3749, -0.5747 -0.2677 0.3749, 0.5716 -0.2669 0.3786, 0.5678 -0.2659 0.3815, 0.5634 -0.2647 0.3833, 0.5629 -0.2659 0.3833, 0.5612 -0.2677 0.3833, 0.5622 -0.2669 0.3833, 0.56 -0.2681 0.3833, 0.5767 -0.2683 0.3705, 0.5776 -0.2685 0.3663, 0.5776 -0.2685 0.3663, 0.5757 -0.2732 0.3665, 0.5749 -0.2728 0.3705, 0.5757 -0.2732 0.3665, 0.5719 -0.2766 0.3705, 0.5725 -0.2773 0.3666, 0.5681 -0.2796 0.3705, 0.5685 -0.2804 0.3665, 0.5685 -0.2804 0.3665, 0.5636 -0.2815 0.3705, 0.5638 -0.2824 0.3663, 0.5638 -0.2824 0.3663, 0.5669 -0.2682 0.3815, 0.5654 -0.2701 0.3815, 0.5634 -0.2716 0.3815, 0.5612 -0.2725 0.3815, 0.5703 -0.2701 0.3786, 0.5682 -0.2729 0.3786, 0.5654 -0.275 0.3786, 0.5622 -0.2764 0.3786, 0.5747 -0.2677 0.3749, 0.573 -0.2717 0.3749, 0.5704 -0.2751 0.3749, 0.567 -0.2778 0.3749, 0.563 -0.2794 0.3749, 0.5749 0.26 0.0475, 0.5742 0.2651 0.0471, 0.5742 0.2651 0.0471, 0.5722 0.2698 0.0469, 0.5722 0.2698 0.0469, 0.5691 0.2738 0.0468, 0.5651 0.2769 0.0469, 0.5651 0.2769 0.0469, 0.5604 0.2789 0.0471, 0.5603 0.2789 0.0471, 0.5553 0.2796 0.0475, -0.0163 0.26 0.0295, -0.5553 0.26 0.0295, -0.5553 0.2648 0.0301, -0.5553 0.2787 0.0429, 0.5553 0.2787 0.0429, -0.5553 0.2786 0.0428, 0.5553 0.2786 0.0428, -0.5553 0.2765 0.0385, 0.5553 0.2765 0.0385, -0.5553 0.2765 0.0384, 0.5553 0.2765 0.0384, -0.5553 0.2734 0.0348, 0.5553 0.2734 0.0348, -0.5553 0.2733 0.0347, 0.5553 0.2733 0.0347, -0.5553 0.2694 0.0319, 0.5553 0.2694 0.0319, -0.5553 0.2694 0.0319, 0.5553 0.2694 0.0319, -0.5553 0.2649 0.0301, 0.5553 0.2649 0.0301, 0.5553 0.2648 0.0301, 0.5553 0.26 0.0295, -0.5565 0.2647 0.0301, -0.5646 0.26 0.0319, -0.5647 0.26 0.0319, -0.5644 0.2624 0.0319, -0.5686 0.26 0.0347, -0.5687 0.26 0.0348, -0.5682 0.2635 0.0348, -0.5712 0.2643 0.0385, -0.5733 0.2648 0.0429, -0.5714 0.2693 0.0429, -0.5601 0.278 0.0429, -0.5739 0.26 0.0429, -0.5739 0.26 0.0428, -0.5718 0.26 0.0385, -0.5717 0.26 0.0384, -0.5596 0.276 0.0385, -0.5696 0.2683 0.0385, -0.5685 0.2732 0.0429, -0.5587 0.2729 0.0348, -0.5669 0.2667 0.0348, -0.567 0.2717 0.0385, -0.5577 0.2691 0.0319, -0.5647 0.2695 0.0348, -0.5634 0.2647 0.0319, -0.56 0.2613 0.0301, -0.5646 0.2762 0.0429, -0.5635 0.2743 0.0385, -0.562 0.2716 0.0348, -0.56 0.2682 0.0319, -0.5577 0.2642 0.0301, -0.5601 0.26 0.0301, -0.5601 0.26 0.0301, -0.5619 0.2667 0.0319, -0.5595 0.2624 0.0301, -0.5587 0.2634 0.0301, -0.5709 -0.2953 0.2264, -0.576 -0.2946 0.2264, -0.5785 -0.2938 0.2264, -0.5808 -0.2927 0.2264, -0.5829 -0.2912 0.2264, -0.5848 -0.2895 0.2264, -0.5865 -0.2876 0.2264, -0.5879 -0.2855 0.2264, -0.5891 -0.2832 0.2264, -0.5899 -0.2808 0.2264, -0.5906 -0.2757 0.2264, 0.5906 -0.2757 0.2264, 0.5899 -0.2808 0.2264, 0.5891 -0.2832 0.2264, 0.5879 -0.2855 0.2264, 0.5865 -0.2876 0.2264, 0.5848 -0.2895 0.2264, 0.5829 -0.2912 0.2264, 0.5808 -0.2927 0.2264, 0.5785 -0.2938 0.2264, 0.576 -0.2946 0.2264, 0.5709 -0.2953 0.2264, 0.5601 0.26 0.0301, 0.56 0.2613 0.0301, 0.5577 0.2691 0.0319, 0.5587 0.2729 0.0348, 0.5596 0.276 0.0385, 0.5601 0.278 0.0429, 0.5646 0.2762 0.0429, 0.5739 0.26 0.0429, 0.5733 0.2648 0.0429, 0.5739 0.26 0.0428, 0.5712 0.2643 0.0385, 0.5635 0.2743 0.0385, 0.5685 0.2732 0.0429, 0.5718 0.26 0.0385, 0.5717 0.26 0.0384, 0.5682 0.2635 0.0348, 0.562 0.2716 0.0348, 0.567 0.2717 0.0385, 0.5687 0.26 0.0348, 0.5686 0.26 0.0347, 0.5644 0.2624 0.0319, 0.5647 0.2695 0.0348, 0.56 0.2682 0.0319, 0.5565 0.2647 0.0301, 0.5714 0.2693 0.0429, 0.5696 0.2683 0.0385, 0.5669 0.2667 0.0348, 0.5634 0.2647 0.0319, 0.5595 0.2624 0.0301, 0.5619 0.2667 0.0319, 0.5577 0.2642 0.0301, 0.5587 0.2634 0.0301, 0.5647 0.26 0.0319, 0.5646 0.26 0.0319, 0.5601 0.26 0.0301, -0.5553 0.0295 0.0295, -0.5553 -0.26 0.0295, -0.5601 -0.26 0.0301, -0.5749 -0.26 0.0475, -0.5739 -0.26 0.0429, -0.5739 -0.26 0.0428, -0.5718 -0.26 0.0385, -0.5717 -0.26 0.0384, -0.5687 -0.26 0.0348, -0.5686 -0.26 0.0347, -0.5647 -0.26 0.0319, -0.5646 -0.26 0.0319, -0.5601 -0.26 0.0301, -0.5742 -0.2651 0.0471, -0.5742 -0.2651 0.0471, -0.5722 -0.2698 0.0469, -0.5722 -0.2698 0.0469, -0.5691 -0.2738 0.0468, -0.5651 -0.2769 0.0469, -0.5651 -0.2769 0.0469, -0.5604 -0.2789 0.0471, -0.5603 -0.2789 0.0471, -0.5553 -0.2796 0.0475, 0.5553 -0.2796 0.0475, 0.5603 -0.2789 0.0471, 0.5604 -0.2789 0.0471, 0.5651 -0.2769 0.0469, 0.5651 -0.2769 0.0469, 0.5691 -0.2738 0.0468, 0.5722 -0.2698 0.0469, 0.5722 -0.2698 0.0469, 0.5742 -0.2651 0.0471, 0.5742 -0.2651 0.0471, 0.5749 -0.26 0.0475, 0.5553 0.0295 0.0295, 0.5739 -0.26 0.0429, 0.5739 -0.26 0.0428, 0.5718 -0.26 0.0385, 0.5717 -0.26 0.0384, 0.5687 -0.26 0.0348, 0.5686 -0.26 0.0347, 0.5647 -0.26 0.0319, 0.5646 -0.26 0.0319, 0.5601 -0.26 0.0301, 0.5601 -0.26 0.0301, 0.5553 -0.26 0.0295, -0.56 -0.2613 0.0301, -0.5553 -0.2694 0.0319, -0.5553 -0.2694 0.0319, -0.5577 -0.2691 0.0319, -0.5553 -0.2733 0.0347, -0.5553 -0.2734 0.0348, -0.5587 -0.2729 0.0348, -0.5596 -0.276 0.0385, -0.5601 -0.278 0.0429, -0.5646 -0.2762 0.0429, -0.5733 -0.2648 0.0429, -0.5553 -0.2787 0.0429, -0.5553 -0.2786 0.0428, -0.5553 -0.2765 0.0385, -0.5553 -0.2765 0.0384, -0.5712 -0.2643 0.0385, -0.5635 -0.2743 0.0385, -0.5685 -0.2732 0.0429, -0.5682 -0.2635 0.0348, -0.562 -0.2716 0.0348, -0.567 -0.2717 0.0385, -0.5644 -0.2624 0.0319, -0.5647 -0.2695 0.0348, -0.56 -0.2682 0.0319, -0.5565 -0.2647 0.0301, -0.5714 -0.2693 0.0429, -0.5696 -0.2683 0.0385, -0.5669 -0.2667 0.0348, -0.5634 -0.2647 0.0319, -0.5595 -0.2624 0.0301, -0.5553 -0.2648 0.0301, -0.5553 -0.2649 0.0301, -0.5619 -0.2667 0.0319, -0.5577 -0.2642 0.0301, -0.5587 -0.2634 0.0301, 0.5553 -0.2648 0.0301, 0.5565 -0.2647 0.0301, 0.5644 -0.2624 0.0319, 0.5682 -0.2635 0.0348, 0.5712 -0.2643 0.0385, 0.5733 -0.2648 0.0429, 0.5714 -0.2693 0.0429, 0.5553 -0.2787 0.0429, 0.5601 -0.278 0.0429, 0.5553 -0.2786 0.0428, 0.5596 -0.276 0.0385, 0.5696 -0.2683 0.0385, 0.5685 -0.2732 0.0429, 0.5553 -0.2765 0.0385, 0.5553 -0.2765 0.0384, 0.5587 -0.2729 0.0348, 0.5669 -0.2667 0.0348, 0.567 -0.2717 0.0385, 0.5553 -0.2734 0.0348, 0.5553 -0.2733 0.0347, 0.5577 -0.2691 0.0319, 0.5647 -0.2695 0.0348, 0.5634 -0.2647 0.0319, 0.56 -0.2613 0.0301, 0.5646 -0.2762 0.0429, 0.5635 -0.2743 0.0385, 0.562 -0.2716 0.0348, 0.56 -0.2682 0.0319, 0.5577 -0.2642 0.0301, 0.5619 -0.2667 0.0319, 0.5595 -0.2624 0.0301, 0.5587 -0.2634 0.0301, 0.5553 -0.2694 0.0319, 0.5553 -0.2694 0.0319, 0.5553 -0.2649 0.0301, -0.0163 -0.26 0.0295
            ]
        }
        coordIndex [
            0,1,2,-1,3,4,5,-1,5,4,6,-1,5,6,7,-1,7,6,8,-1,7,8,9,-1,9,8,10,-1,9,10,11,-1,11,10,12,-1,11,12,13,-1,13,12,14,-1,13,14,15,-1,15,14,16,-1,15,16,17,-1,17,16,18,-1,17,18,19,-1,19,18,20,-1,19,20,21,-1,21,20,22,-1,21,22,2,-1,2,22,23,-1,2,23,0,-1,24,25,26,-1,27,28,29,-1,30,31,32,-1,0,33,34,-1,35,33,0,-1,32,31,0,-1,36,0,31,-1,37,38,39,-1,39,38,40,-1,39,40,41,-1,41,40,42,-1,42,40,43,-1,42,43,44,-1,44,43,45,-1,45,43,46,-1,45,46,47,-1,47,46,48,-1,48,46,49,-1,48,49,50,-1,50,49,51,-1,51,49,52,-1,51,52,53,-1,53,52,6,-1,53,6,4,-1,23,35,0,-1,54,55,30,-1,30,55,56,-1,30,56,31,-1,31,56,57,-1,31,57,36,-1,58,34,59,-1,59,34,33,-1,59,33,60,-1,60,33,35,-1,60,35,61,-1,28,54,29,-1,29,54,30,-1,29,30,62,-1,62,30,32,-1,62,32,63,-1,63,32,0,-1,23,22,35,-1,35,22,20,-1,35,20,61,-1,61,20,18,-1,61,18,16,-1,64,58,65,-1,65,58,59,-1,65,59,66,-1,66,59,60,-1,66,60,67,-1,67,60,61,-1,67,61,68,-1,68,61,16,-1,26,64,69,-1,69,64,65,-1,69,65,70,-1,70,65,66,-1,70,66,71,-1,71,66,67,-1,71,67,72,-1,72,67,68,-1,72,68,73,-1,25,27,26,-1,26,27,29,-1,26,29,64,-1,64,29,62,-1,64,62,58,-1,58,62,63,-1,58,63,34,-1,34,63,0,-1,37,74,38,-1,38,74,75,-1,38,75,24,-1,16,14,68,-1,68,14,12,-1,68,12,73,-1,73,12,10,-1,73,10,8,-1,24,26,38,-1,38,26,69,-1,38,69,40,-1,40,69,70,-1,40,70,43,-1,43,70,71,-1,43,71,46,-1,46,71,72,-1,46,72,49,-1,49,72,73,-1,49,73,52,-1,52,73,8,-1,52,8,6,-1,7,9,76,-1,11,13,77,-1,78,79,80,-1,1,81,82,-1,83,81,1,-1,80,79,1,-1,2,1,79,-1,84,85,86,-1,86,85,87,-1,86,87,88,-1,88,87,89,-1,89,87,90,-1,89,90,91,-1,91,90,92,-1,92,90,93,-1,92,93,94,-1,94,93,95,-1,95,93,96,-1,95,96,97,-1,97,96,98,-1,98,96,99,-1,98,99,100,-1,100,99,101,-1,100,101,102,-1,103,83,1,-1,15,17,78,-1,78,17,19,-1,78,19,79,-1,79,19,21,-1,79,21,2,-1,104,82,105,-1,105,82,81,-1,105,81,106,-1,106,81,83,-1,106,83,107,-1,13,15,77,-1,77,15,78,-1,77,78,108,-1,108,78,80,-1,108,80,109,-1,109,80,1,-1,103,110,83,-1,83,110,111,-1,83,111,107,-1,107,111,112,-1,107,112,113,-1,114,104,115,-1,115,104,105,-1,115,105,116,-1,116,105,106,-1,116,106,117,-1,117,106,107,-1,117,107,118,-1,118,107,113,-1,76,114,119,-1,119,114,115,-1,119,115,120,-1,120,115,116,-1,120,116,121,-1,121,116,117,-1,121,117,122,-1,122,117,118,-1,122,118,123,-1,9,11,76,-1,76,11,77,-1,76,77,114,-1,114,77,108,-1,114,108,104,-1,104,108,109,-1,104,109,82,-1,82,109,1,-1,84,3,85,-1,85,3,5,-1,85,5,7,-1,113,124,118,-1,118,124,125,-1,118,125,123,-1,123,125,126,-1,123,126,127,-1,7,76,85,-1,85,76,119,-1,85,119,87,-1,87,119,120,-1,87,120,90,-1,90,120,121,-1,90,121,93,-1,93,121,122,-1,93,122,96,-1,96,122,123,-1,96,123,99,-1,99,123,127,-1,99,127,101,-1,128,74,37,-1,128,37,129,-1,129,37,39,-1,129,39,130,-1,130,39,41,-1,130,41,131,-1,131,41,42,-1,131,42,132,-1,132,42,44,-1,132,44,133,-1,133,44,45,-1,133,45,134,-1,134,45,47,-1,134,47,135,-1,135,47,48,-1,135,48,136,-1,136,48,50,-1,136,50,137,-1,4,138,53,-1,53,138,137,-1,53,137,51,-1,51,137,50,-1,139,0,36,-1,74,140,75,-1,75,140,141,-1,75,141,24,-1,24,141,142,-1,24,142,25,-1,25,142,143,-1,25,143,27,-1,27,143,144,-1,27,144,28,-1,28,144,145,-1,28,145,54,-1,54,145,146,-1,54,146,55,-1,55,146,147,-1,55,147,56,-1,56,147,148,-1,56,148,57,-1,57,148,149,-1,57,149,36,-1,36,149,150,-1,36,150,139,-1,151,139,152,-1,153,154,155,-1,155,154,156,-1,155,156,157,-1,157,156,158,-1,157,158,159,-1,159,158,160,-1,159,160,161,-1,161,160,162,-1,161,162,163,-1,163,162,164,-1,163,164,165,-1,165,164,166,-1,165,166,167,-1,167,166,168,-1,167,168,169,-1,169,168,170,-1,169,170,171,-1,171,170,172,-1,171,172,152,-1,152,172,173,-1,152,173,151,-1,1,151,174,-1,175,102,176,-1,176,102,101,-1,176,101,177,-1,177,101,127,-1,177,127,178,-1,178,127,126,-1,178,126,179,-1,179,126,125,-1,179,125,180,-1,180,125,124,-1,180,124,181,-1,181,124,113,-1,181,113,182,-1,182,113,112,-1,182,112,183,-1,183,112,111,-1,183,111,184,-1,184,111,110,-1,184,110,174,-1,174,110,103,-1,174,103,1,-1,185,3,84,-1,185,84,186,-1,186,84,86,-1,186,86,187,-1,187,86,88,-1,187,88,188,-1,188,88,89,-1,188,89,189,-1,189,89,91,-1,189,91,190,-1,190,91,92,-1,190,92,191,-1,191,92,94,-1,191,94,192,-1,192,94,95,-1,192,95,193,-1,193,95,97,-1,193,97,194,-1,102,195,100,-1,100,195,194,-1,100,194,98,-1,98,194,97,-1,196,197,138,-1,138,197,137,-1,137,197,136,-1,136,197,198,-1,136,198,135,-1,135,198,199,-1,135,199,134,-1,134,199,200,-1,134,200,133,-1,133,200,201,-1,133,201,132,-1,132,201,202,-1,132,202,131,-1,131,202,203,-1,131,203,130,-1,130,203,204,-1,130,204,129,-1,204,205,129,-1,129,205,206,-1,129,206,128,-1,161,163,207,-1,208,209,210,-1,139,211,212,-1,213,211,139,-1,210,209,139,-1,152,139,209,-1,214,215,216,-1,215,214,217,-1,217,214,218,-1,217,218,219,-1,219,218,220,-1,219,220,221,-1,221,220,222,-1,221,222,223,-1,223,222,224,-1,224,222,225,-1,224,225,226,-1,226,225,227,-1,227,225,141,-1,227,141,140,-1,150,213,139,-1,165,167,208,-1,208,167,169,-1,208,169,209,-1,209,169,171,-1,209,171,152,-1,228,212,229,-1,229,212,211,-1,229,211,230,-1,230,211,213,-1,230,213,231,-1,150,149,213,-1,213,149,148,-1,213,148,231,-1,231,148,147,-1,231,147,146,-1,207,228,232,-1,232,228,229,-1,232,229,233,-1,233,229,230,-1,233,230,234,-1,234,230,231,-1,234,231,235,-1,235,231,146,-1,157,159,236,-1,236,159,161,-1,161,207,236,-1,236,207,232,-1,236,232,237,-1,237,232,233,-1,237,233,238,-1,238,233,234,-1,238,234,239,-1,239,234,235,-1,239,235,240,-1,163,165,207,-1,207,165,208,-1,207,208,228,-1,228,208,210,-1,228,210,212,-1,212,210,139,-1,157,214,155,-1,155,214,216,-1,155,216,153,-1,146,145,235,-1,235,145,144,-1,235,144,240,-1,240,144,143,-1,240,143,142,-1,157,236,214,-1,214,236,237,-1,214,237,218,-1,218,237,238,-1,218,238,220,-1,220,238,239,-1,220,239,222,-1,222,239,240,-1,222,240,225,-1,225,240,142,-1,225,142,141,-1,179,180,241,-1,242,243,244,-1,151,245,246,-1,247,245,151,-1,244,243,151,-1,174,151,243,-1,248,249,250,-1,249,248,251,-1,251,248,252,-1,251,252,253,-1,253,252,254,-1,253,254,255,-1,255,254,256,-1,255,256,257,-1,257,256,258,-1,258,256,259,-1,258,259,260,-1,260,259,261,-1,261,259,156,-1,261,156,154,-1,173,247,151,-1,181,182,242,-1,242,182,183,-1,242,183,243,-1,243,183,184,-1,243,184,174,-1,262,246,263,-1,263,246,245,-1,263,245,264,-1,264,245,247,-1,264,247,265,-1,173,172,247,-1,247,172,170,-1,247,170,265,-1,265,170,168,-1,265,168,166,-1,241,262,266,-1,266,262,263,-1,266,263,267,-1,267,263,264,-1,267,264,268,-1,268,264,265,-1,268,265,269,-1,269,265,166,-1,177,178,270,-1,270,178,179,-1,179,241,270,-1,270,241,266,-1,270,266,271,-1,271,266,267,-1,271,267,272,-1,272,267,268,-1,272,268,273,-1,273,268,269,-1,273,269,274,-1,180,181,241,-1,241,181,242,-1,241,242,262,-1,262,242,244,-1,262,244,246,-1,246,244,151,-1,177,248,176,-1,176,248,250,-1,176,250,175,-1,166,164,269,-1,269,164,162,-1,269,162,274,-1,274,162,160,-1,274,160,158,-1,177,270,248,-1,248,270,271,-1,248,271,252,-1,252,271,272,-1,252,272,254,-1,254,272,273,-1,254,273,256,-1,256,273,274,-1,256,274,259,-1,259,274,158,-1,259,158,156,-1,275,276,195,-1,195,276,194,-1,194,276,193,-1,193,276,277,-1,193,277,192,-1,192,277,278,-1,192,278,191,-1,191,278,279,-1,191,279,190,-1,190,279,280,-1,190,280,189,-1,189,280,281,-1,189,281,188,-1,188,281,282,-1,188,282,187,-1,187,282,283,-1,187,283,186,-1,283,284,186,-1,186,284,285,-1,186,285,185,-1,286,287,288,-1,196,285,289,-1,289,285,290,-1,289,290,291,-1,291,290,292,-1,291,292,293,-1,293,292,294,-1,293,294,295,-1,295,294,296,-1,295,296,297,-1,297,296,298,-1,297,298,299,-1,299,298,300,-1,299,300,301,-1,301,300,302,-1,301,302,303,-1,303,302,304,-1,303,304,305,-1,305,304,306,-1,305,306,288,-1,288,306,307,-1,288,307,286,-1,286,307,308,-1,288,287,309,-1,310,311,312,-1,313,314,315,-1,316,317,318,-1,197,196,289,-1,199,198,319,-1,319,198,197,-1,205,204,317,-1,317,204,203,-1,317,203,318,-1,318,203,202,-1,318,202,201,-1,206,205,320,-1,320,205,317,-1,320,317,321,-1,321,317,316,-1,321,316,322,-1,322,316,323,-1,197,289,319,-1,319,289,291,-1,319,291,324,-1,314,323,315,-1,315,323,316,-1,315,316,325,-1,325,316,318,-1,325,318,326,-1,326,318,201,-1,291,293,324,-1,324,293,295,-1,324,295,327,-1,311,313,312,-1,312,313,315,-1,312,315,328,-1,328,315,325,-1,328,325,329,-1,329,325,326,-1,295,297,327,-1,327,297,299,-1,327,299,330,-1,329,331,328,-1,328,331,332,-1,328,332,312,-1,312,332,333,-1,312,333,310,-1,200,199,334,-1,334,199,319,-1,334,319,335,-1,335,319,324,-1,335,324,336,-1,336,324,327,-1,336,327,337,-1,337,327,330,-1,337,330,338,-1,338,330,309,-1,338,309,287,-1,287,339,333,-1,333,339,340,-1,333,340,310,-1,331,341,332,-1,332,341,342,-1,332,342,333,-1,333,342,287,-1,341,343,342,-1,342,343,287,-1,299,301,330,-1,330,301,303,-1,330,303,309,-1,309,303,305,-1,309,305,288,-1,201,200,326,-1,326,200,334,-1,326,334,329,-1,329,334,335,-1,329,335,331,-1,331,335,336,-1,331,336,341,-1,341,336,337,-1,341,337,343,-1,343,337,338,-1,343,338,287,-1,153,216,344,-1,344,216,345,-1,345,216,346,-1,346,216,215,-1,346,215,347,-1,347,215,217,-1,347,217,348,-1,348,217,219,-1,348,219,349,-1,349,219,221,-1,349,221,350,-1,350,221,223,-1,350,223,351,-1,351,223,224,-1,351,224,352,-1,352,224,226,-1,352,226,353,-1,226,227,353,-1,353,227,140,-1,353,140,354,-1,175,250,355,-1,355,250,356,-1,356,250,357,-1,357,250,249,-1,357,249,358,-1,358,249,251,-1,358,251,359,-1,359,251,253,-1,359,253,360,-1,360,253,255,-1,360,255,361,-1,361,255,257,-1,361,257,362,-1,362,257,258,-1,362,258,363,-1,363,258,260,-1,363,260,364,-1,260,261,364,-1,364,261,154,-1,364,154,365,-1,366,308,367,-1,304,302,368,-1,300,298,369,-1,370,371,372,-1,276,275,373,-1,278,277,374,-1,374,277,276,-1,284,283,371,-1,371,283,282,-1,371,282,372,-1,372,282,281,-1,372,281,280,-1,285,284,290,-1,290,284,371,-1,290,371,292,-1,292,371,370,-1,292,370,294,-1,294,370,296,-1,276,373,374,-1,374,373,375,-1,374,375,376,-1,298,296,369,-1,369,296,370,-1,369,370,377,-1,377,370,372,-1,377,372,378,-1,378,372,280,-1,375,379,376,-1,376,379,380,-1,376,380,381,-1,302,300,368,-1,368,300,369,-1,368,369,382,-1,382,369,377,-1,382,377,383,-1,383,377,378,-1,380,384,381,-1,381,384,385,-1,381,385,386,-1,383,387,382,-1,382,387,388,-1,382,388,368,-1,368,388,389,-1,368,389,304,-1,279,278,390,-1,390,278,374,-1,390,374,391,-1,391,374,376,-1,391,376,392,-1,392,376,381,-1,392,381,393,-1,393,381,386,-1,393,386,394,-1,394,386,367,-1,394,367,308,-1,308,307,389,-1,389,307,306,-1,389,306,304,-1,387,395,388,-1,388,395,396,-1,388,396,389,-1,389,396,308,-1,395,397,396,-1,396,397,308,-1,385,398,386,-1,386,398,399,-1,386,399,367,-1,367,399,400,-1,367,400,366,-1,280,279,378,-1,378,279,390,-1,378,390,383,-1,383,390,391,-1,383,391,387,-1,387,391,392,-1,387,392,395,-1,395,392,393,-1,395,393,397,-1,397,393,394,-1,397,394,308,-1,401,402,403,-1,404,206,405,-1,405,206,320,-1,405,320,406,-1,406,320,321,-1,406,321,407,-1,407,321,322,-1,407,322,408,-1,408,322,323,-1,408,323,409,-1,409,323,314,-1,409,314,410,-1,410,314,313,-1,410,313,411,-1,411,313,311,-1,411,311,412,-1,412,311,310,-1,412,310,413,-1,413,310,340,-1,413,340,403,-1,403,340,339,-1,403,339,401,-1,401,339,287,-1,404,414,354,-1,354,414,353,-1,353,414,352,-1,352,414,415,-1,352,415,351,-1,351,415,416,-1,351,416,350,-1,350,416,417,-1,350,417,349,-1,349,417,418,-1,349,418,348,-1,348,418,419,-1,348,419,347,-1,347,419,420,-1,347,420,346,-1,346,420,421,-1,346,421,345,-1,421,422,345,-1,345,422,423,-1,345,423,344,-1,424,425,365,-1,365,425,364,-1,364,425,363,-1,363,425,426,-1,363,426,362,-1,362,426,427,-1,362,427,361,-1,361,427,428,-1,361,428,360,-1,360,428,429,-1,360,429,359,-1,359,429,430,-1,359,430,358,-1,358,430,431,-1,358,431,357,-1,357,431,432,-1,357,432,356,-1,432,433,356,-1,356,433,434,-1,356,434,355,-1,435,308,366,-1,275,434,373,-1,373,434,436,-1,373,436,375,-1,375,436,437,-1,375,437,379,-1,379,437,438,-1,379,438,380,-1,380,438,439,-1,380,439,384,-1,384,439,440,-1,384,440,385,-1,385,440,441,-1,385,441,398,-1,398,441,442,-1,398,442,399,-1,399,442,443,-1,399,443,400,-1,400,443,444,-1,400,444,366,-1,366,444,445,-1,366,445,435,-1,435,445,446,-1,403,402,447,-1,448,449,450,-1,451,452,453,-1,454,455,456,-1,414,404,405,-1,416,415,457,-1,457,415,414,-1,422,421,455,-1,455,421,420,-1,455,420,456,-1,456,420,419,-1,456,419,418,-1,423,422,458,-1,458,422,455,-1,458,455,459,-1,459,455,454,-1,459,454,460,-1,460,454,461,-1,414,405,457,-1,457,405,406,-1,457,406,462,-1,452,461,453,-1,453,461,454,-1,453,454,463,-1,463,454,456,-1,463,456,464,-1,464,456,418,-1,406,407,462,-1,462,407,408,-1,462,408,465,-1,449,451,450,-1,450,451,453,-1,450,453,466,-1,466,453,463,-1,466,463,467,-1,467,463,464,-1,408,409,465,-1,465,409,410,-1,465,410,468,-1,467,469,466,-1,466,469,470,-1,466,470,450,-1,450,470,471,-1,450,471,448,-1,417,416,472,-1,472,416,457,-1,472,457,473,-1,473,457,462,-1,473,462,474,-1,474,462,465,-1,474,465,475,-1,475,465,468,-1,475,468,476,-1,476,468,447,-1,476,447,402,-1,402,477,471,-1,471,477,478,-1,471,478,448,-1,469,479,470,-1,470,479,480,-1,470,480,471,-1,471,480,402,-1,479,481,480,-1,480,481,402,-1,410,411,468,-1,468,411,412,-1,468,412,447,-1,447,412,413,-1,447,413,403,-1,418,417,464,-1,464,417,472,-1,464,472,467,-1,467,472,473,-1,467,473,469,-1,469,473,474,-1,469,474,479,-1,479,474,475,-1,479,475,481,-1,481,475,476,-1,481,476,402,-1,482,446,483,-1,443,442,484,-1,441,440,485,-1,486,487,488,-1,425,424,489,-1,427,426,490,-1,490,426,425,-1,433,432,487,-1,487,432,431,-1,487,431,488,-1,488,431,430,-1,488,430,429,-1,434,433,436,-1,436,433,487,-1,436,487,437,-1,437,487,486,-1,437,486,438,-1,438,486,439,-1,425,489,490,-1,490,489,491,-1,490,491,492,-1,440,439,485,-1,485,439,486,-1,485,486,493,-1,493,486,488,-1,493,488,494,-1,494,488,429,-1,491,495,492,-1,492,495,496,-1,492,496,497,-1,442,441,484,-1,484,441,485,-1,484,485,498,-1,498,485,493,-1,498,493,499,-1,499,493,494,-1,496,500,497,-1,497,500,501,-1,497,501,502,-1,499,503,498,-1,498,503,504,-1,498,504,484,-1,484,504,505,-1,484,505,443,-1,428,427,506,-1,506,427,490,-1,506,490,507,-1,507,490,492,-1,507,492,508,-1,508,492,497,-1,508,497,509,-1,509,497,502,-1,509,502,510,-1,510,502,483,-1,510,483,446,-1,446,445,505,-1,505,445,444,-1,505,444,443,-1,503,511,504,-1,504,511,512,-1,504,512,505,-1,505,512,446,-1,511,513,512,-1,512,513,446,-1,501,514,502,-1,502,514,515,-1,502,515,483,-1,483,515,516,-1,483,516,482,-1,429,428,494,-1,494,428,506,-1,494,506,499,-1,499,506,507,-1,499,507,503,-1,503,507,508,-1,503,508,511,-1,511,508,509,-1,511,509,513,-1,513,509,510,-1,513,510,446,-1,517,446,482,-1,424,423,489,-1,489,423,458,-1,489,458,491,-1,491,458,459,-1,491,459,495,-1,495,459,460,-1,495,460,496,-1,496,460,461,-1,496,461,500,-1,500,461,452,-1,500,452,501,-1,501,452,451,-1,501,451,514,-1,514,451,449,-1,514,449,515,-1,515,449,448,-1,515,448,516,-1,516,448,478,-1,516,478,482,-1,482,478,477,-1,482,477,517,-1,517,477,402,-1,
        ]
    }
}
Shape{
    appearance Appearance {
        material  Material 	{
            diffuseColor 0.34901960784313724 0.34901960784313724 0.34901960784313724
            specularColor 0.023529411764705882 0.023529411764705882 0.023529411764705882
            ambientIntensity 0.498
            transparency 0.0
            shininess 0.5
        }
    }
    geometry IndexedFaceSet {
        ccw TRUE
        solid FALSE
        coord DEF co Coordinate {
            point [
                -0.5194 -0.1847 0.376, -0.5194 -0.1847 0.3839, -0.518 -0.1949 0.376, -0.518 -0.1949 0.3839, -0.5141 -0.2044 0.376, -0.5141 -0.2044 0.3839, -0.5078 -0.2126 0.376, -0.5078 -0.2126 0.3839, -0.4997 -0.2188 0.376, -0.4997 -0.2188 0.3839, -0.4902 -0.2227 0.376, -0.4902 -0.2227 0.3839, -0.48 -0.2241 0.376, -0.48 -0.2241 0.3839, -0.4698 -0.2227 0.376, -0.4698 -0.2227 0.3839, -0.4603 -0.2188 0.376, -0.4603 -0.2188 0.3839, -0.4522 -0.2126 0.376, -0.4522 -0.2126 0.3839, -0.4459 -0.2044 0.376, -0.4459 -0.2044 0.3839, -0.442 -0.1949 0.376, -0.442 -0.1949 0.3839, -0.4406 -0.1847 0.376, -0.4406 -0.1847 0.3839, -0.442 -0.1745 0.376, -0.442 -0.1745 0.3839, -0.4459 -0.165 0.376, -0.4459 -0.165 0.3839, -0.4522 -0.1569 0.376, -0.4522 -0.1569 0.3839, -0.4603 -0.1506 0.376, -0.4603 -0.1506 0.3839, -0.4698 -0.1467 0.376, -0.4698 -0.1467 0.3839, -0.48 -0.1453 0.376, -0.48 -0.1453 0.3839, -0.4902 -0.1467 0.376, -0.4902 -0.1467 0.3839, -0.4997 -0.1506 0.376, -0.4997 -0.1506 0.3839, -0.5078 -0.1569 0.376, -0.5078 -0.1569 0.3839, -0.5141 -0.165 0.376, -0.5141 -0.165 0.3839, -0.518 -0.1745 0.376, -0.518 -0.1745 0.3839, -0.48 -0.1847 0.376
            ]
        }
        coordIndex [
            0,1,2,-1,2,1,3,-1,2,3,4,-1,4,3,5,-1,4,5,6,-1,6,5,7,-1,6,7,8,-1,8,7,9,-1,8,9,10,-1,10,9,11,-1,10,11,12,-1,12,11,13,-1,12,13,14,-1,14,13,15,-1,14,15,16,-1,16,15,17,-1,16,17,18,-1,18,17,19,-1,18,19,20,-1,20,19,21,-1,20,21,22,-1,22,21,23,-1,22,23,24,-1,24,23,25,-1,24,25,26,-1,26,25,27,-1,26,27,28,-1,28,27,29,-1,28,29,30,-1,30,29,31,-1,30,31,32,-1,32,31,33,-1,32,33,34,-1,34,33,35,-1,34,35,36,-1,36,35,37,-1,36,37,38,-1,38,37,39,-1,38,39,40,-1,40,39,41,-1,40,41,42,-1,42,41,43,-1,42,43,44,-1,44,43,45,-1,44,45,46,-1,46,45,47,-1,46,47,0,-1,0,47,1,-1,44,46,48,-1,48,46,0,-1,48,0,2,-1,38,40,48,-1,48,40,42,-1,48,42,44,-1,32,34,48,-1,48,34,36,-1,48,36,38,-1,26,28,48,-1,48,28,30,-1,48,30,32,-1,20,22,48,-1,48,22,24,-1,48,24,26,-1,14,16,48,-1,48,16,18,-1,48,18,20,-1,8,10,48,-1,48,10,12,-1,48,12,14,-1,2,4,48,-1,48,4,6,-1,48,6,8,-1,
        ]
    }
}
Shape{
    appearance Appearance {
        material  Material 	{
            diffuseColor 1.0 1.0 1.0
            specularColor 0.8784313725490196 0.8784313725490196 0.8784313725490196
            ambientIntensity 1.0
            transparency 0.0
            shininess 0.5
        }
    }
    geometry IndexedFaceSet {
        ccw TRUE
        solid FALSE
        coord DEF co Coordinate {
            point [
                -0.1335 0.029 0.0374, -0.1642 -0.0497 0.0374, -0.1335 0.029 0.0295, -0.1642 -0.0497 0.0295, -0.1527 -0.0497 0.0374, -0.1527 -0.0497 0.0295, -0.1447 -0.0276 0.0374, -0.1447 -0.0276 0.0295, -0.1122 -0.0276 0.0374, -0.1122 -0.0276 0.0295, -0.1047 -0.0497 0.0374, -0.1047 -0.0497 0.0295, -0.0931 -0.0497 0.0374, -0.0931 -0.0497 0.0295, -0.1229 0.029 0.0374, -0.1229 0.029 0.0295, -0.1148 -0.019 0.0374, -0.1412 -0.019 0.0374, -0.1266 0.0139 0.0374, -0.1273 0.0166 0.0374, -0.1278 0.0194 0.0374, -0.1281 0.0194 0.0374, -0.1286 0.0166 0.0374, -0.1293 0.0139 0.0374, -0.1148 -0.019 0.0295, -0.1412 -0.019 0.0295, -0.1266 0.0139 0.0295, -0.1273 0.0166 0.0295, -0.1278 0.0194 0.0295, -0.1281 0.0194 0.0295, -0.1286 0.0166 0.0295, -0.1293 0.0139 0.0295, -0.0454 -0.0497 0.0374, -0.024 -0.0497 0.0374, -0.0454 -0.0497 0.0295, -0.024 -0.0497 0.0295, -0.024 0.029 0.0374, -0.024 0.029 0.0295, -0.0462 0.029 0.0374, -0.0462 0.029 0.0295, -0.0874 -0.0094 0.0374, -0.0874 -0.0094 0.0295, -0.0868 -0.002 0.0295, -0.0868 -0.002 0.0374, -0.0847 0.0058 0.0295, -0.0847 0.0058 0.0374, -0.081 0.0126 0.0295, -0.081 0.0126 0.0374, -0.0755 0.0187 0.0295, -0.0755 0.0187 0.0374, -0.0754 0.0188 0.0295, -0.0754 0.0188 0.0374, -0.0668 0.0246 0.0295, -0.0668 0.0246 0.0374, -0.0576 0.0278 0.0295, -0.0576 0.0278 0.0374, -0.0552 -0.0489 0.0295, -0.0552 -0.0489 0.0374, -0.0642 -0.0462 0.0295, -0.0642 -0.0462 0.0374, -0.0725 -0.0414 0.0295, -0.0725 -0.0414 0.0374, -0.0789 -0.0352 0.0295, -0.0789 -0.0352 0.0374, -0.0835 -0.0281 0.0295, -0.0835 -0.0281 0.0374, -0.0863 -0.0199 0.0295, -0.0863 -0.0199 0.0374, -0.0716 0.0093 0.0374, -0.0678 0.0134 0.0374, -0.062 0.0171 0.0374, -0.0555 0.0194 0.0374, -0.0462 0.0204 0.0374, -0.0346 0.0204 0.0374, -0.0346 -0.0411 0.0374, -0.0457 -0.0411 0.0374, -0.0541 -0.0403 0.0374, -0.0607 -0.0382 0.0374, -0.066 -0.0351 0.0374, -0.0705 -0.0307 0.0374, -0.0738 -0.0253 0.0374, -0.0761 -0.0179 0.0374, -0.0768 -0.0096 0.0374, -0.0762 -0.0018 0.0374, -0.0743 0.0045 0.0374, -0.0462 0.0204 0.0295, -0.0346 0.0204 0.0295, -0.0555 0.0194 0.0295, -0.062 0.0171 0.0295, -0.0678 0.0134 0.0295, -0.0716 0.0093 0.0295, -0.0743 0.0045 0.0295, -0.0762 -0.0018 0.0295, -0.0768 -0.0096 0.0295, -0.0761 -0.0179 0.0295, -0.0738 -0.0253 0.0295, -0.0705 -0.0307 0.0295, -0.066 -0.0351 0.0295, -0.0607 -0.0382 0.0295, -0.0541 -0.0403 0.0295, -0.0457 -0.0411 0.0295, -0.0346 -0.0411 0.0295, -0.0086 -0.0411 0.0374, -0.0086 -0.0497 0.0374, -0.0086 -0.0411 0.0295, -0.0086 -0.0497 0.0295, 0.0336 -0.0497 0.0374, 0.0336 -0.0497 0.0295, 0.0336 0.029 0.0374, 0.0336 0.029 0.0295, -0.0067 0.029 0.0374, -0.0067 0.029 0.0295, -0.0067 0.0204 0.0374, -0.0067 0.0204 0.0295, 0.023 0.0204 0.0374, 0.023 0.0204 0.0295, 0.023 -0.0056 0.0374, 0.023 -0.0056 0.0295, -0.0048 -0.0056 0.0374, -0.0048 -0.0056 0.0295, -0.0048 -0.0142 0.0374, -0.0048 -0.0142 0.0295, 0.023 -0.0142 0.0374, 0.023 -0.0142 0.0295, 0.023 -0.0411 0.0374, 0.023 -0.0411 0.0295, 0.049 -0.037 0.0374, 0.049 -0.0456 0.0374, 0.049 -0.037 0.0295, 0.049 -0.0456 0.0295, 0.0706 -0.0507 0.0374, 0.0706 -0.0507 0.0295, 0.0685 -0.0507 0.0295, 0.0685 -0.0507 0.0374, 0.0574 -0.0491 0.0295, 0.0574 -0.0491 0.0374, 0.1075 -0.0118 0.0374, 0.1075 -0.0118 0.0295, 0.1068 -0.021 0.0295, 0.1068 -0.021 0.0374, 0.1044 -0.0293 0.0295, 0.1044 -0.0293 0.0374, 0.1002 -0.0368 0.0295, 0.1002 -0.0368 0.0374, 0.0943 -0.043 0.0295, 0.0943 -0.043 0.0374, 0.088 -0.0471 0.0295, 0.088 -0.0471 0.0374, 0.0803 -0.0497 0.0295, 0.0803 -0.0497 0.0374, 0.0675 0.03 0.0295, 0.0734 0.0295 0.0295, 0.0675 0.03 0.0374, 0.0754 0.0293 0.0374, 0.0754 0.0293 0.0295, 0.0842 0.0268 0.0295, 0.0842 0.0268 0.0374, 0.0917 0.0225 0.0295, 0.0917 0.0225 0.0374, 0.0988 0.0156 0.0295, 0.0988 0.0156 0.0374, 0.1034 0.0083 0.0295, 0.1034 0.0083 0.0374, 0.1064 -0.0006 0.0295, 0.1064 -0.0006 0.0374, 0.0605 0.0295 0.0295, 0.0581 0.0293 0.0374, 0.0581 0.0293 0.0295, 0.049 0.0269 0.0374, 0.049 0.0269 0.0295, 0.049 0.0163 0.0374, 0.049 0.0163 0.0295, 0.0674 0.0213 0.0374, 0.0674 0.0213 0.0295, 0.0578 0.0201 0.0295, 0.0578 0.0201 0.0374, 0.097 -0.0112 0.0374, 0.097 -0.0112 0.0295, 0.0966 -0.0051 0.0295, 0.0966 -0.0051 0.0374, 0.0945 0.0034 0.0295, 0.0945 0.0034 0.0374, 0.0913 0.0094 0.0295, 0.0913 0.0094 0.0374, 0.0865 0.0147 0.0295, 0.0865 0.0147 0.0374, 0.0811 0.0183 0.0295, 0.0811 0.0183 0.0374, 0.0752 0.0205 0.0295, 0.0752 0.0205 0.0374, 0.0692 -0.042 0.0374, 0.0692 -0.042 0.0295, 0.0765 -0.0412 0.0295, 0.0765 -0.0412 0.0374, 0.0823 -0.0391 0.0295, 0.0823 -0.0391 0.0374, 0.0871 -0.0359 0.0295, 0.0871 -0.0359 0.0374, 0.0908 -0.032 0.0295, 0.0908 -0.032 0.0374, 0.094 -0.0265 0.0295, 0.094 -0.0265 0.0374, 0.0962 -0.0197 0.0295, 0.0962 -0.0197 0.0374, 0.0504 -0.0378 0.0295, 0.0504 -0.0378 0.0374, 0.0587 -0.0409 0.0295, 0.0587 -0.0409 0.0374, 0.1143 -0.0411 0.0374, 0.1143 -0.0497 0.0374, 0.1143 -0.0411 0.0295, 0.1143 -0.0497 0.0295, 0.1546 -0.0497 0.0374, 0.1546 -0.0497 0.0295, 0.1546 0.029 0.0374, 0.1546 0.029 0.0295, 0.144 0.029 0.0374, 0.144 0.029 0.0295, 0.144 -0.0411 0.0374, 0.144 -0.0411 0.0295
            ]
        }
        coordIndex [
            0,1,2,-1,2,1,3,-1,1,4,3,-1,3,4,5,-1,4,6,5,-1,5,6,7,-1,6,8,7,-1,7,8,9,-1,8,10,9,-1,9,10,11,-1,10,12,11,-1,11,12,13,-1,12,14,13,-1,13,14,15,-1,14,0,15,-1,15,0,2,-1,16,8,17,-1,17,8,6,-1,18,14,16,-1,16,14,12,-1,16,12,8,-1,8,12,10,-1,18,19,14,-1,14,19,20,-1,14,20,0,-1,0,20,21,-1,0,21,22,-1,22,23,0,-1,0,23,17,-1,0,17,1,-1,1,17,6,-1,1,6,4,-1,16,17,24,-1,24,17,25,-1,18,16,26,-1,26,16,24,-1,18,26,27,-1,18,27,19,-1,19,27,28,-1,19,28,20,-1,21,20,29,-1,29,20,28,-1,21,29,30,-1,21,30,22,-1,22,30,31,-1,22,31,23,-1,17,23,25,-1,25,23,31,-1,32,33,34,-1,34,33,35,-1,33,36,35,-1,35,36,37,-1,36,38,37,-1,37,38,39,-1,40,41,42,-1,40,42,43,-1,43,42,44,-1,43,44,45,-1,45,44,46,-1,45,46,47,-1,47,46,48,-1,47,48,49,-1,49,48,50,-1,49,50,51,-1,51,50,52,-1,51,52,53,-1,53,52,54,-1,53,54,55,-1,55,54,39,-1,55,39,38,-1,32,34,56,-1,32,56,57,-1,57,56,58,-1,57,58,59,-1,59,58,60,-1,59,60,61,-1,61,60,62,-1,61,62,63,-1,63,62,64,-1,63,64,65,-1,65,64,66,-1,65,66,67,-1,67,66,41,-1,67,41,40,-1,45,47,68,-1,68,47,49,-1,68,49,69,-1,69,49,51,-1,69,51,70,-1,70,51,53,-1,70,53,71,-1,71,53,55,-1,71,55,72,-1,72,55,38,-1,72,38,73,-1,73,38,36,-1,73,36,74,-1,74,36,33,-1,74,33,75,-1,75,33,32,-1,75,32,76,-1,76,32,57,-1,76,57,77,-1,77,57,59,-1,77,59,78,-1,78,59,61,-1,78,61,79,-1,79,61,63,-1,79,63,80,-1,80,63,65,-1,80,65,81,-1,81,65,67,-1,81,67,82,-1,82,67,40,-1,82,40,83,-1,83,40,43,-1,83,43,84,-1,84,43,45,-1,84,45,68,-1,72,73,85,-1,85,73,86,-1,72,85,87,-1,72,87,71,-1,71,87,88,-1,71,88,70,-1,70,88,89,-1,70,89,69,-1,69,89,90,-1,69,90,68,-1,68,90,91,-1,68,91,84,-1,84,91,92,-1,84,92,83,-1,83,92,93,-1,83,93,82,-1,82,93,94,-1,82,94,81,-1,81,94,95,-1,81,95,80,-1,80,95,96,-1,80,96,79,-1,79,96,97,-1,79,97,78,-1,78,97,98,-1,78,98,77,-1,77,98,99,-1,77,99,76,-1,76,99,100,-1,76,100,75,-1,74,75,101,-1,101,75,100,-1,73,74,86,-1,86,74,101,-1,102,103,104,-1,104,103,105,-1,103,106,105,-1,105,106,107,-1,106,108,107,-1,107,108,109,-1,108,110,109,-1,109,110,111,-1,110,112,111,-1,111,112,113,-1,112,114,113,-1,113,114,115,-1,114,116,115,-1,115,116,117,-1,116,118,117,-1,117,118,119,-1,118,120,119,-1,119,120,121,-1,120,122,121,-1,121,122,123,-1,122,124,123,-1,123,124,125,-1,124,102,125,-1,125,102,104,-1,106,103,102,-1,102,124,106,-1,106,124,122,-1,106,122,108,-1,112,110,114,-1,114,110,108,-1,114,108,116,-1,116,108,122,-1,116,122,118,-1,118,122,120,-1,126,127,128,-1,128,127,129,-1,130,131,132,-1,130,132,133,-1,133,132,134,-1,133,134,135,-1,135,134,129,-1,135,129,127,-1,136,137,138,-1,136,138,139,-1,139,138,140,-1,139,140,141,-1,141,140,142,-1,141,142,143,-1,143,142,144,-1,143,144,145,-1,145,144,146,-1,145,146,147,-1,147,146,148,-1,147,148,149,-1,149,148,131,-1,149,131,130,-1,150,151,152,-1,152,151,153,-1,151,154,153,-1,153,154,155,-1,153,155,156,-1,156,155,157,-1,156,157,158,-1,158,157,159,-1,158,159,160,-1,160,159,161,-1,160,161,162,-1,162,161,163,-1,162,163,164,-1,164,163,137,-1,164,137,136,-1,150,152,165,-1,165,152,166,-1,165,166,167,-1,167,166,168,-1,167,168,169,-1,168,170,169,-1,169,170,171,-1,172,173,174,-1,172,174,175,-1,175,174,171,-1,175,171,170,-1,176,177,178,-1,176,178,179,-1,179,178,180,-1,179,180,181,-1,181,180,182,-1,181,182,183,-1,183,182,184,-1,183,184,185,-1,185,184,186,-1,185,186,187,-1,187,186,188,-1,187,188,189,-1,189,188,173,-1,189,173,172,-1,190,191,192,-1,190,192,193,-1,193,192,194,-1,193,194,195,-1,195,194,196,-1,195,196,197,-1,197,196,198,-1,197,198,199,-1,199,198,200,-1,199,200,201,-1,201,200,202,-1,201,202,203,-1,203,202,177,-1,203,177,176,-1,126,128,204,-1,126,204,205,-1,205,204,206,-1,205,206,207,-1,207,206,191,-1,207,191,190,-1,193,130,190,-1,190,130,133,-1,190,133,207,-1,207,133,135,-1,207,135,205,-1,205,135,127,-1,205,127,126,-1,170,168,175,-1,175,168,166,-1,175,166,172,-1,172,166,152,-1,172,152,189,-1,189,152,153,-1,189,153,187,-1,187,153,156,-1,187,156,185,-1,185,156,158,-1,185,158,183,-1,183,158,160,-1,183,160,181,-1,181,160,162,-1,181,162,179,-1,179,162,164,-1,179,164,176,-1,176,164,136,-1,176,136,203,-1,203,136,139,-1,203,139,201,-1,201,139,141,-1,201,141,199,-1,199,141,143,-1,199,143,197,-1,197,143,145,-1,197,145,195,-1,195,145,147,-1,195,147,193,-1,193,147,149,-1,193,149,130,-1,208,209,210,-1,210,209,211,-1,209,212,211,-1,211,212,213,-1,212,214,213,-1,213,214,215,-1,214,216,215,-1,215,216,217,-1,216,218,217,-1,217,218,219,-1,218,208,219,-1,219,208,210,-1,216,214,218,-1,218,214,212,-1,218,212,208,-1,208,212,209,-1,
        ]
    }
}
Shape{
    appearance Appearance {
        material  Material 	{
            diffuseColor 0.20784313725490197 0.20784313725490197 0.20784313725490197
            specularColor 0.01568627450980392 0.01568627450980392 0.01568627450980392
            ambientIntensity 0.298
            transparency 0.0
            shininess 0.5
        }
    }
    geometry IndexedFaceSet {
        ccw TRUE
        solid FALSE
        coord DEF co Coordinate {
            point [
                -0.1148 -0.019 0.0295, -0.1412 -0.019 0.0295, -0.1266 0.0139 0.0295, -0.1293 0.0139 0.0295, -0.1273 0.0166 0.0295, -0.1286 0.0166 0.0295, -0.1278 0.0194 0.0295, -0.1281 0.0194 0.0295, -0.0346 0.0204 0.0295, -0.0346 -0.0411 0.0295, -0.0462 0.0204 0.0295, -0.0457 -0.0411 0.0295, -0.0541 -0.0403 0.0295, -0.0768 -0.0096 0.0295, -0.0762 -0.0018 0.0295, -0.0743 0.0045 0.0295, -0.0555 0.0194 0.0295, -0.0607 -0.0382 0.0295, -0.066 -0.0351 0.0295, -0.0705 -0.0307 0.0295, -0.0738 -0.0253 0.0295, -0.0761 -0.0179 0.0295, -0.0716 0.0093 0.0295, -0.0678 0.0134 0.0295, -0.062 0.0171 0.0295
            ]
        }
        coordIndex [
            0,1,2,-1,2,1,3,-1,2,3,4,-1,4,3,5,-1,4,5,6,-1,6,5,7,-1,8,9,10,-1,10,9,11,-1,10,11,12,-1,13,14,10,-1,10,14,15,-1,10,15,16,-1,12,17,10,-1,10,17,18,-1,10,18,19,-1,19,20,10,-1,10,20,21,-1,10,21,13,-1,22,23,15,-1,15,23,24,-1,15,24,16,-1,
        ]
    }
}